<svg xmlns="http://www.w3.org/2000/svg" viewBox="0 0 270.17 395.11"><defs><style>.cls-1{fill:#341100;}.cls-2{fill:#006002;}.cls-3{fill:#088110;}.cls-4{fill:#004c00;}.cls-5{fill:#fff;}.cls-6{fill:#e0b453;}.cls-7{fill:#e0a815;}.cls-8{fill:#c1890c;}.cls-9{fill:#e5ca93;}.cls-10{fill:#c80f1e;}.cls-11{fill:#f87e12;}.cls-12{fill:#b35a0c;}.cls-13{fill:#91b84a;}.cls-14{fill:#58851b;}.cls-15{fill:#f33233;}.cls-16{fill:#590805;}.cls-17{fill:#ca0902;}.cls-18{fill:#89752c;}.cls-19{fill:#1af2d1;}.cls-20{fill:#1adfd1;}.cls-21{fill:#1adfbc;}.cls-22{fill:#da413c;}.cls-23{fill:#f27d1a;}.cls-24{fill:none;stroke:#fff;stroke-linecap:round;stroke-linejoin:round;stroke-width:0.53px;}.cls-25{fill:#f6921e;}.cls-26{fill:#faaf40;}.cls-27{fill:#f05a28;}</style></defs><title>arvore</title><g id="Camada_2" data-name="Camada 2"><g id="Camada_1-2" data-name="Camada 1"><path class="cls-1" d="M158.63,389.91a22.62,22.62,0,0,1-14.18,5.2c-8.51,0-12.76-5.2-12.76-5.2V321.84h26.94Z"/><path class="cls-2" d="M157.42,64.44l-12.76-6.38c5,17,25.52,22,36.87,31.91-3.55-.71-7.09,0-10.64-.71,3.55,8.51,14.89,15.6,22.69,22-5,0-9.21-1.42-14.18-3.55,6.38,9.93,17,16.31,24.11,24.82a93.33,93.33,0,0,1-19.14-4.25c1.41,1.42,1.41,4.25,2.12,6.38a67,67,0,0,0-12.76-3.55c1.42,1.42,2.13,3.55,2.84,4.26-3.55,0-8.51-1.42-12.06-2.84,5,17.73,36.87,26.24,51.77,34-6.39,4.25-15.61,1.42-22-.71a18.12,18.12,0,0,0,7.8,8.51c-5.67-.71-11.34,0-17-2.84,6.39,8.51,14.19,11.35,22.7,16.31a20.22,20.22,0,0,1-11.35,1.42c2.13,2.13,3.55,5.67,6.38,7.8-5.67,0-12.05,0-17-1.42,7.8,17.73,33.33,27.66,48.22,37.58-5,3.55-12.05,4.26-18.43,2.84,4.25,3.55,8.51,7.8,12.76,11.35-7.8.7-16.31-2.13-23.4-5.68,4.25,4.26,9.22,7.8,13.47,11.35-8.51-.71-21.27-2.84-28.36-8.51,13.47,16.31,39.71,19.14,58.85,23.4-5,1.42-9.92,1.42-14.89,1.42,9.22,5,19.15,5.67,28.37,8.51-6.39,4.25-22,7.09-29.79,5,2.13,5,5,9.93,9.93,13.47-9.22-1.42-18.43-5-27.65-7.8,1.42,1.42,2.83,3.55,5,5-2.84-1.42-6.38-.71-9.22-1.42,14.89,14.18,39.71,17.73,58.86,21.27-9.22,5-44.68,4.26-19.15,19.15-14.18-2.84-4.25,9.22.71,12.76,6.38,4.26,13.47,7.09,19.15,12.06-7.09,0-13.48-.71-20.57-.71A62.31,62.31,0,0,0,251,368.64c-11.34,1.42-22-5.67-32.62-8.51a170.6,170.6,0,0,1,7.09,17c-12.05-1.42-18.43-9.93-28.36-13.47-13.47-5-10.64,8.51-24.11,9.22C176.57,353,151.75,379.28,144,380c11.34-26.24-14.18-7.09-23.4-11.35,1.42-1.42,1.42-5.67,2.83-7.09-17-4.25-43.25,9.93-59.56,14.89,1.42-2.13,2.13-6.38,3.54-8.51-11.34-3.54-22,5.67-32.61,7.8a75.18,75.18,0,0,0,7.09-8.51,173.54,173.54,0,0,0-19.15,1.42c1.42-1.42,2.13-2.84,3.55-4.25C18.44,361.55,8.51,363,0,361.55c8.51-9.93,27.65-13.47,38.29-22.69-5.67,1.42-17,5-19.85-1.42,10.63-4.25,20.56-6.38,29.07-14.18C40.42,321.84,34,324,27,322.55c14.18-5,33.32-13.47,40.41-26.95C58.15,297.73,48.22,304.11,39,302a32.87,32.87,0,0,0,12.76-9.22c-5,0-9.92,0-14.18-1.42,7.09-2.84,12.77-8.51,19.15-12.76a70.34,70.34,0,0,1-17,2.12c9.22-7.8,19.15-14.89,24.11-26.23-6.38.71-12.06,6.38-18.44,7.8s-12.76-1.42-19.14-.71c9.92-9.93,25.52-15.6,36.16-26.24-5,0-10.64,0-15.6-1.42,7.09-1.42,12.76-6.38,17.73-11.34-5-.71-10.64-2.13-14.18-5.68,19.85-5.67,36.87-13.47,53.18-26.94-7.09,1.42-13.47,3.54-20.57,4.25,5-3.54,9.93-6.38,14.19-11.34-9.22,1.42-17,7.09-26.24,7.09,9.93-2.84,19.85-8.51,25.53-16.31C84.38,170.8,66,180,52.47,180c9.22-2.13,19.15-9.22,26.24-14.18-5.67,0-11.35,2.13-17,1.42,11.38,1.42,37.57-34.18,40.35-43-5.14,5.36-11.46,13-19.57,12.43,4.53-7,11.66-11.83,15.86-19-9-.47-17.86,7.26-27.36,7.58,5.15-7.65,16.46-11.3,20.43-19.64-4.66-.19-10.29.74-14-1.33C94.47,95.2,115.24,79.94,122.6,61c-4.08,1.21-8.18,3.76-12.47,2.92,15.14-6.21,23.81-26.69,23.89-42.16C133.92,42.37,143.55,49.79,157.42,64.44Z"/><path class="cls-3" d="M239.47,279.29a22.2,22.2,0,0,0,3.58,2.87A14.35,14.35,0,0,0,239.47,279.29Z"/><path class="cls-3" d="M244.78,283.21c-.59-.33-1.17-.68-1.73-1,.37.38.76.75,1.16,1.11Z"/><path class="cls-3" d="M188.42,253.77c-4.26,1.42-9.93-2.84-14.19,1.42A72.12,72.12,0,0,0,196.92,268c-4.25-1.42-8.5,1.42-12.76-1.42,17,11.79,37.69,11.49,57.51,17,.83-.05,1.68-.13,2.54-.22-.4-.36-.79-.73-1.16-1.11a22.2,22.2,0,0,1-3.58-2.87,14.35,14.35,0,0,1,3.58,2.87c.56.37,1.14.72,1.73,1,6.74-.78,13.79-2.8,17.59-5.33-9.22-2.84-19.15-3.55-28.37-8.51,5,0,9.93,0,14.89-1.42-15.29-3.4-35.1-5.91-49.33-15.1a53.08,53.08,0,0,1-23.91-17.52c2.84-1.42,5.67-1.42,8.51-1.42-5.67-1.42-12.76-1.42-18.44-2.83C168.56,242.42,179.91,246.68,188.42,253.77Z"/><path class="cls-3" d="M191.08,339.21a7,7,0,0,0-2.66-.35C189.3,339,190.19,339.1,191.08,339.21Z"/><path class="cls-3" d="M157.21,328.93c-14.18-7.09-34-8.51-41.12-24.11,1.42,4.26-1.42,8.51,1.42,11.35-5.68,0-8.51-4.26-11.35-7.09v4.25c-8.51,0-18.44,0-26.95,1.42C93.08,332.39,117,331,137.1,336.45c-4.17-2.85-7.32-7.53-11.09-10.35,21.28,8.5,44,15.6,66.66,14.18a4.5,4.5,0,0,0-1.59-1.07c-.89-.11-1.78-.22-2.66-.35a7,7,0,0,1,2.66.35c9,1.1,17.95,1.45,25.7,5.32-4.26-1.42-8.51,1.42-12.76,1.42q10.42,8.48,21.27,16.49c8.37,3.2,16.83,7.31,25.73,6.2a62.31,62.31,0,0,1-1.42-12.05c7.09,0,13.48.71,20.57.71-5.68-5-12.77-7.8-19.15-12.06a27.92,27.92,0,0,1-4.71-4.49c-33-4.09-66.4-5.67-94.77-27.42C154.38,317.59,155.8,323.26,157.21,328.93Z"/><path class="cls-2" d="M137.1,336.45a12.81,12.81,0,0,0,7.35,2.41A65.81,65.81,0,0,0,137.1,336.45Z"/><path class="cls-3" d="M107.58,265.11c-9.93,0-17,7.09-26.95,7.09,0-4.25,7.09-4.25,7.09-8.51-12.59,4.59-25,10.78-37.47,16.17,2.16-.33,4.32-.73,6.48-1.27-6.38,4.25-12.06,9.92-19.15,12.76,4.26,1.42,9.22,1.42,14.18,1.42A32.87,32.87,0,0,1,39,302c9.22,2.12,19.15-4.26,28.36-6.39-.16.32-.36.62-.54.93A161.85,161.85,0,0,0,107.58,265.11Z"/><path class="cls-3" d="M50.85,341.7c2.84-2.84-7.09-1.42-9.93-4.26,7.09-4.25,18.44-7.09,17-17,0-1.42-5.67-1.42-5.67-2.83-1.42-2.84,2.83-5.68,5.67-7.09-1.88,0-3.84.14-5.83.34-8,5.14-17.33,9-25.16,11.71,7.09,1.42,13.47-.71,20.56.71-8.51,7.8-18.44,9.93-29.07,14.18,2.83,6.38,14.18,2.84,19.85,1.42C27.65,348.08,8.51,351.62,0,361.55c6.34,1.06,13.46.54,19.91,1.38A70.68,70.68,0,0,0,50.85,341.7Z"/><path class="cls-2" d="M135,275l2.35-1.34A3,3,0,0,0,135,275Z"/><path class="cls-2" d="M135,275l-2.39,1.35a16.23,16.23,0,0,0,1.6-.38C134.49,275.63,134.74,275.29,135,275Z"/><path class="cls-2" d="M131.69,276.46a2.3,2.3,0,0,0,.38.15l.55-.3Q132.16,276.4,131.69,276.46Z"/><path class="cls-2" d="M134.22,275.93a16.23,16.23,0,0,1-1.6.38l-.55.3A1.81,1.81,0,0,0,134.22,275.93Z"/><path class="cls-2" d="M177.15,193.18a96,96,0,0,0,10,5.18c-.5-.89-1-1.8-1.39-2.74,5,1.42,11.35,1.42,17,1.42-2.83-2.13-4.25-5.67-6.38-7.8a20.22,20.22,0,0,0,11.35-1.42c-4.49-2.61-8.77-4.65-12.76-7.22-6.1.14-12.16.2-17.94.84C173.06,182.44,175.42,187.68,177.15,193.18Z"/><path class="cls-4" d="M170,170.09c-4.26-1.41-8.51-4.25-12.77-4.25,1.42,7.09,7.1,9.93,11.35,14.18-5.67,0-9.93-2.84-14.18-4.25,4.25,7.09,7.09,14.18,15.6,17-8.51,0-18.44-1.41-24.11,7.1a125.42,125.42,0,0,1,32.62,0,19.57,19.57,0,0,0-.89-5.2c-1.14-1.09-2.25-2.2-3.37-3.31,1,.62,1.94,1.22,2.92,1.81-1.73-5.5-4.09-10.74-.08-11.74,5.78-.64,11.84-.7,17.94-.84a37.31,37.31,0,0,1-9.87-9c-7.51-2.47-14.67-5.95-20.83-11.43C165.72,164.42,167.14,167.26,170,170.09Z"/><path class="cls-2" d="M191.66,173.5c-2-.53-4.07-1.1-6.07-1.75A21.74,21.74,0,0,0,191.66,173.5Z"/><path class="cls-4" d="M120.34,130.38c7.09-8.51,17-15.6,18.44-28.36-5.67,5.67-9.93,12.76-18.44,15.6,0-1.42,2.84-2.84,1.42-5.67-5.67,4.25-9.93,11.34-18.44,11.34,2.84-1.42,2.84-4.25,2.84-7.09a63.88,63.88,0,0,1-6.9,11c1-1,1.89-2,2.78-2.94-1.33,4.23-8,14.58-15.89,24.08a136.1,136.1,0,0,0,34.19-25Z"/><path class="cls-2" d="M250.31,332.48c-8.24-4.81-10.12-8-8.58-10.26-17.64-2.34-36.12-3.44-50.48-10.31,9.93,1.42,18.44-2.83,26.95-4.25-18.27-3.92-35.34-5.45-50.1-15.61-3.24-1.3-6.41-2.72-9.47-4.25v12.77c-5.67-4.26-11.34-9.93-9.92-18.44-11.35,8.51-24.11,12.76-38.3,14.18,5.68-2.83,12.77-4.25,15.6-11.34-7.09,1.42-12.76,4.25-19.85,2.83,9.34-2.33,17.71-6.59,25.91-11.19a2.3,2.3,0,0,1-.38-.15q.47-.06.93-.15L135,275a3,3,0,0,1,2.35-1.34L135,275c-.27.33-.52.67-.79,1,9.72-2.78,15.36-13.43,25.83-10.82v-5.67c2.84,6.39,7.1,11.36,11.9,15.79-.19-.54-.38-1.08-.55-1.61a129.86,129.86,0,0,0,43.15,21.75,48,48,0,0,1-4-3.31c2.84.71,6.38,0,9.22,1.42-2.13-1.42-3.54-3.55-5-5,9.22,2.84,18.43,6.38,27.65,7.8-5-3.54-7.8-8.51-9.93-13.47a29.48,29.48,0,0,0,9.09.65c-19.82-5.47-40.48-5.17-57.51-17,4.26,2.84,8.51,0,12.76,1.42a72.12,72.12,0,0,1-22.69-12.76c4.26-4.26,9.93,0,14.19-1.42-8.51-7.09-19.86-11.35-22.7-22.69,5.68,1.41,12.77,1.41,18.44,2.83-2.84,0-5.67,0-8.51,1.42a53.08,53.08,0,0,0,23.91,17.52,41.26,41.26,0,0,1-9.52-8.3c7.09,5.67,19.85,7.8,28.36,8.51-4.25-3.55-9.22-7.09-13.47-11.35,7.09,3.55,15.6,6.38,23.4,5.68-4.25-3.55-8.51-7.8-12.76-11.35a28.37,28.37,0,0,0,8.71.54c-13.69-5.73-27.61-10.66-41.54-16.85h14.18c-8.5-5.67-17-8.51-24.11-17,5.68-4.25,9.93,1.42,15.61,0a44.39,44.39,0,0,1-10.82-8,19.57,19.57,0,0,1,.89,5.2,125.42,125.42,0,0,0-32.62,0c5.67-8.51,15.6-7.1,24.11-7.1-8.51-2.83-11.35-9.92-15.6-17,4.25,1.41,8.51,4.25,14.18,4.25-4.25-4.25-9.93-7.09-11.35-14.18,4.26,0,8.51,2.84,12.77,4.25-2.84-2.83-4.26-5.67-5.67-9.92,6.16,5.48,13.32,9,20.83,11.43l-.07-.09.52.24c2,.65,4,1.22,6.07,1.75,3.48.51,7,.41,10.43.85a18.12,18.12,0,0,1-7.8-8.51c6.38,2.13,15.6,5,22,.71-3-1.58-6.74-3.19-10.79-4.9-21.61,0-41.83-5.9-54-25.59,2.84-1.42,8.51,1.42,7.09-1.42-1.42-7.09-12.76-12.77-8.51-18.44,2.84-4.25,12.77-1.42,19.86-1.42-7.09-5.67-17-9.92-12.77-19.85,0-1.42,4.26,4.25,8.51,2.84-14.18-9.93-19.85-25.53-28.36-39.71-8.51,15.6-17,32.61-29.78,45.38,1.42-2.84-2.84-2.84-1.42-5.67-6.31,7.35-14.18,14.7-23,16.86C78.74,118,73.87,121,71,125.31c9.5-.32,18.32-8,27.36-7.58-4.2,7.12-11.33,12-15.86,19,6.71.5,12.19-4.66,16.79-9.49a63.88,63.88,0,0,0,6.9-11c0,2.84,0,5.67-2.84,7.09,8.51,0,12.77-7.09,18.44-11.34,1.42,2.83-1.42,4.25-1.42,5.67,8.51-2.84,12.77-9.93,18.44-15.6-1.42,12.76-11.35,19.85-18.44,28.36v-7.09a136.1,136.1,0,0,1-34.19,25c-1.37,1.65-2.76,3.27-4.18,4.83a303.68,303.68,0,0,0,32.7-17.1c0,7.09-8.51,15.6-4.26,19.85,2.84,4.26,12.77-1.42,18.44-4.25,0,4.25-5.67,8.51-2.84,9.92,5.68,2.84,12.77,2.84,18.44-2.83,4.26,15.6-17,24.11-28.36,31.2,11.34,4.25,21.27-4.26,32.62-1.42-15.6,22.69-44,25.53-68.08,32.62,8.51,4.25,18.44,0,27,1.42-2.84,2.83-4.26,5.67-8.51,7.09,21.27,2.83,39.71-8.51,58.14-15.6-4.78,15.72-16.83,25.83-31.19,30.67,4.25-.54,8.51-1.6,12.76-2.31-1.42,4.26-7.09,7.09-7.09,9.93,0,4.25,5.67-1.42,9.92,0-11.34,7.09-26.94,7.09-41.12,4.25,2.83,0,4.25-2.83,5.67-4.25-11.35,0-21.27,2.84-31.2,5.67a61.75,61.75,0,0,1,16-11.37,63.27,63.27,0,0,1-13.19-4.23c-9.93-4.25-17,5.67-25.53,8.51-5.66,1.42-11.38,2.54-17.13,3.47a60.68,60.68,0,0,0-8.9,7.17c6.38-.71,12.76,2.12,19.14.71s12.06-7.09,18.44-7.8c-5,11.34-14.89,18.43-24.11,26.23a68.09,68.09,0,0,0,10.54-.85c12.51-5.39,24.88-11.58,37.47-16.17,0,4.26-7.09,4.26-7.09,8.51,9.93,0,17-7.09,27-7.09a161.85,161.85,0,0,1-40.76,31.42c-3.25,5.62-8.57,10.36-14.71,14.31,2-.2,4-.34,5.83-.34-2.84,1.41-7.09,4.25-5.67,7.09,0,1.41,5.67,1.41,5.67,2.83,1.42,9.93-9.93,12.77-17,17,2.84,2.84,12.77,1.42,9.93,4.26a70.68,70.68,0,0,1-30.94,21.23,29.5,29.5,0,0,1,6.33,1.46c-1.42,1.41-2.13,2.83-3.55,4.25a173.54,173.54,0,0,1,19.15-1.42,75.18,75.18,0,0,1-7.09,8.51c10.63-2.13,21.27-11.34,32.61-7.8-1.41,2.13-2.12,6.38-3.54,8.51,1-.31,2.11-.67,3.22-1.05,11.31-8.71,21.82-18.22,29.19-30.86,0,5.67-4.25,11.35-5.67,17,12.76-5.67,25.53-9.93,36.87-17,1.42,2.84-4.25,5.67-2.83,5.67,9.92,4.26,19.85,0,28.36-2.83-4.25,7.09-12.76,8.51-17,15.6,4.26,0,7.09-2.84,11.35-2.84a20.19,20.19,0,0,1-3.21,5.89c3.21.77,4.07,4.25-.13,14,7.8-.71,32.62-26.95,29.07-7.09,13.47-.71,10.64-14.19,24.11-9.22,9.93,3.54,16.31,12.05,28.36,13.47a170.6,170.6,0,0,0-7.09-17,68.8,68.8,0,0,1,6.89,2.31q-10.83-8-21.27-16.49c4.25,0,8.5-2.84,12.76-1.42-7.75-3.87-16.67-4.22-25.7-5.32a4.5,4.5,0,0,1,1.59,1.07C170,341.7,147.29,334.6,126,326.1c3.77,2.82,6.92,7.5,11.09,10.35a65.81,65.81,0,0,1,7.35,2.41,12.81,12.81,0,0,1-7.35-2.41c-20.09-5.45-44-4.06-57.89-21.7,8.51-1.42,18.44-1.42,27-1.42v-4.25c2.84,2.83,5.67,7.09,11.35,7.09-2.84-2.84,0-7.09-1.42-11.35,7.09,15.6,26.94,17,41.12,24.11-1.41-5.67-2.83-11.34-5.67-15.6,28.37,21.75,61.78,23.33,94.77,27.42C242.38,336.1,240.12,330.44,250.31,332.48Z"/><path class="cls-4" d="M106.16,252.35c-1.42,1.42-2.84,4.25-5.67,4.25,14.18,2.84,29.78,2.84,41.12-4.25-4.25-1.42-9.92,4.25-9.92,0,0-2.84,5.67-5.67,7.09-9.93-4.25.71-8.51,1.77-12.76,2.31a68.09,68.09,0,0,1-35,1.92A61.75,61.75,0,0,0,75,258C84.89,255.19,94.81,252.35,106.16,252.35Z"/><path class="cls-4" d="M135.94,363c4.26-7.09,12.77-8.51,17-15.6-8.51,2.83-18.44,7.09-28.36,2.83-1.42,0,4.25-2.83,2.83-5.67-11.34,7.09-24.11,11.35-36.87,17,1.42-5.67,5.67-11.35,5.67-17C88.86,357.17,78.35,366.68,67,375.39c16.38-5.64,40.4-17.82,56.34-13.84-1.41,1.42-1.41,5.67-2.83,7.09,5.8,2.68,18.07-3.91,23.53-2.62a20.19,20.19,0,0,0,3.21-5.89C143,360.13,140.2,363,135.94,363Z"/><path class="cls-4" d="M160.05,259.44v5.67c-10.47-2.61-16.11,8-25.83,10.82a1.81,1.81,0,0,1-2.15.68c-8.2,4.6-16.57,8.86-25.91,11.19,7.09,1.42,12.76-1.41,19.85-2.83-2.83,7.09-9.92,8.51-15.6,11.34,14.19-1.42,27-5.67,38.3-14.18-1.42,8.51,4.25,14.18,9.92,18.44V287.8c3.06,1.53,6.23,2.95,9.47,4.25-1.28-.89-2.55-1.81-3.79-2.83,8.5,1.42,15.6,4.26,24.11,4.26-9.31-1.33-13.63-10.14-16.47-18.25C167.15,270.8,162.89,265.83,160.05,259.44Z"/><path class="cls-3" d="M188.42,293.48c-8.51,0-15.61-2.84-24.11-4.26,15.6,12.77,34,14.18,53.89,18.44-8.51,1.42-17,5.67-26.95,4.25,14.36,6.87,32.84,8,50.48,10.31,3.22-4.77,21.49-5.53,27.73-8.89-17.55-3.25-39.84-6.52-54.91-18a129.86,129.86,0,0,1-43.15-21.75C174.23,282.13,178.49,292.06,188.42,293.48Z"/><path class="cls-3" d="M188.42,202.71c-5.68,1.42-9.93-4.25-15.61,0,7.1,8.51,15.61,11.35,24.11,17H182.74c13.93,6.19,27.85,11.12,41.54,16.85A19.91,19.91,0,0,0,234,233.2c-14.1-9.4-37.74-18.81-46.83-34.84a93.71,93.71,0,0,1-12.94-7C178.49,195.62,182.74,199.88,188.42,202.71Z"/><path class="cls-3" d="M77.8,242.42c28.36,12.77,69.49,4.26,79.41-28.36-18.43,7.09-36.87,18.43-58.14,15.6,4.25-1.42,5.67-4.26,8.51-7.09-8.51-1.42-18.44,2.83-26.95-1.42,24.11-7.09,52.48-9.93,68.08-32.62-11.35-2.84-21.28,5.67-32.62,1.42,11.34-7.09,32.62-15.6,28.36-31.2-5.67,5.67-12.76,5.67-18.44,2.83-2.83-1.41,2.84-5.67,2.84-9.92-5.67,2.83-15.6,8.51-18.44,4.25-4.25-4.25,4.26-12.76,4.26-19.85A303.68,303.68,0,0,1,82,153.16c-7.46,8.23-15.29,14.72-20.28,14.1,5.67.71,11.35-1.42,17-1.42-7.09,5-17,12-26.24,14.18,13.48,0,31.91-9.22,44-6.38-5.68,7.8-15.6,13.47-25.53,16.31,9.22,0,17-5.67,26.24-7.09-4.26,5-9.22,7.8-14.19,11.34,7.1-.71,13.48-2.83,20.57-4.25-16.31,13.47-33.33,21.27-53.18,26.94,3.54,3.55,9.21,5,14.18,5.68-5,5-10.64,9.92-17.73,11.34,5,1.42,10.64,1.42,15.6,1.42-7.81,7.82-18.3,13-27.26,19.07,5.75-.93,11.47-2.05,17.13-3.47C60.78,248.09,67.87,238.17,77.8,242.42Z"/><path class="cls-3" d="M164.51,132.51c3.55,1.42,8.51,2.84,12.06,2.84-.71-.71-1.42-2.84-2.84-4.26a67,67,0,0,1,12.76,3.55c-.71-2.13-.71-5-2.12-6.38a93.33,93.33,0,0,0,19.14,4.25c-7.09-8.51-17.73-14.89-24.11-24.82,5,2.13,9.22,3.55,14.18,3.55-7.8-6.38-19.14-13.47-22.69-22,3.55.71,7.09,0,10.64.71-11.35-9.93-31.91-14.9-36.87-31.91l12.76,6.38c-13.87-14.65-23.5-22.07-23.4-42.7-.08,15.47-8.75,36-23.89,42.16,4.29.84,8.39-1.71,12.47-2.92-7.36,19-28.13,34.22-45.23,43.36,3.74,2.07,9.37,1.14,14,1.33-1.73,3.64-4.86,6.38-8.26,9,8.84-2.16,16.71-9.51,23-16.86-1.42,2.83,2.84,2.83,1.42,5.67,12.76-12.77,21.27-29.78,29.78-45.38,8.51,14.18,14.18,29.78,28.36,39.71-4.25,1.41-8.51-4.26-8.51-2.84-4.25,9.93,5.68,14.18,12.77,19.85-7.09,0-17-2.83-19.86,1.42-4.25,5.67,7.09,11.35,8.51,18.44,1.42,2.84-4.25,0-7.09,1.42,12.12,19.69,32.34,25.63,54,25.59C189.55,154.92,168.47,146.65,164.51,132.51Z"/><path class="cls-5" d="M25,349.87a2.7,2.7,0,0,0-1-3.42,2.32,2.32,0,0,0-1.79-.23,2.82,2.82,0,0,0-1.65,1,2.38,2.38,0,0,0-.45,1.95,2.82,2.82,0,0,0,1.28,1.71A2.5,2.5,0,0,0,25,349.87Z"/><path class="cls-5" d="M33,352.41A2.58,2.58,0,0,0,28,351a2.58,2.58,0,1,0,5,1.38Z"/><path class="cls-5" d="M41.22,353.68a2.58,2.58,0,0,0-5.11-.67,2.58,2.58,0,1,0,5.11.67Z"/><path class="cls-5" d="M49.56,354.17a2.58,2.58,0,0,0-5.15-.23,2.58,2.58,0,1,0,5.15.23Z"/><path class="cls-5" d="M57.91,354.16a2.58,2.58,0,1,0-2.54,2.62A2.55,2.55,0,0,0,57.91,354.16Z"/><path class="cls-5" d="M66.26,353.79a2.57,2.57,0,1,0-2.44,2.72A2.58,2.58,0,0,0,66.26,353.79Z"/><path class="cls-5" d="M74.59,353.16a2.57,2.57,0,1,0-2.36,2.78A2.57,2.57,0,0,0,74.59,353.16Z"/><path class="cls-5" d="M82.91,352.37a2.57,2.57,0,1,0-2.31,2.82A2.57,2.57,0,0,0,82.91,352.37Z"/><path class="cls-5" d="M91.23,351.5a2.58,2.58,0,1,0-2.3,2.83A2.58,2.58,0,0,0,91.23,351.5Z"/><path class="cls-5" d="M99.55,350.74a2.58,2.58,0,1,0-2.35,2.77A2.6,2.6,0,0,0,99.55,350.74Z"/><path class="cls-5" d="M107.87,350a2.56,2.56,0,0,0-2.77-2.34,2.64,2.64,0,0,0-2.36,2.81,2.52,2.52,0,0,0,2.77,2.33A2.59,2.59,0,0,0,107.87,350Z"/><path class="cls-5" d="M116.19,349.22a2.65,2.65,0,0,0-2.85-2.32,2.53,2.53,0,0,0-2.28,2.79,2.62,2.62,0,0,0,2.85,2.33A2.51,2.51,0,0,0,116.19,349.22Z"/><path class="cls-5" d="M124.46,348a2.57,2.57,0,0,0-2.91-2.17,2.64,2.64,0,0,0-2.19,2.94,2.54,2.54,0,0,0,2.91,2.17A2.6,2.6,0,0,0,124.46,348Z"/><path class="cls-5" d="M132.72,346.74a2.66,2.66,0,0,0-3-2.15,2.53,2.53,0,0,0-2.11,2.92,2.61,2.61,0,0,0,3,2.16A2.5,2.5,0,0,0,132.72,346.74Z"/><path class="cls-5" d="M140.9,345a2.56,2.56,0,0,0-3-2,2.62,2.62,0,0,0-2,3,2.52,2.52,0,0,0,3,2A2.58,2.58,0,0,0,140.9,345Z"/><path class="cls-5" d="M149.08,343.32a2.66,2.66,0,0,0-3.09-2,2.54,2.54,0,0,0-2,3,2.62,2.62,0,0,0,3.1,2A2.51,2.51,0,0,0,149.08,343.32Z"/><path class="cls-5" d="M157.16,341.19a2.57,2.57,0,0,0-3.13-1.84,2.61,2.61,0,0,0-1.85,3.15,2.53,2.53,0,0,0,3.13,1.84A2.58,2.58,0,0,0,157.16,341.19Z"/><path class="cls-5" d="M165.23,339a2.65,2.65,0,0,0-3.19-1.79,2.54,2.54,0,0,0-1.78,3.14,2.62,2.62,0,0,0,3.19,1.82A2.51,2.51,0,0,0,165.23,339Z"/><path class="cls-5" d="M173.19,336.47A2.58,2.58,0,0,0,170,334.8a2.61,2.61,0,0,0-1.68,3.24,2.54,2.54,0,0,0,3.23,1.67A2.58,2.58,0,0,0,173.19,336.47Z"/><path class="cls-5" d="M181.13,333.87a2.64,2.64,0,0,0-3.28-1.6,2.52,2.52,0,0,0-1.61,3.22,2.62,2.62,0,0,0,3.29,1.65A2.52,2.52,0,0,0,181.13,333.87Z"/><path class="cls-5" d="M189,330.92a2.58,2.58,0,0,0-4.82,1.82,2.54,2.54,0,0,0,3.31,1.51A2.58,2.58,0,0,0,189,330.92Z"/><path class="cls-5" d="M196.74,327.92a2.61,2.61,0,0,0-3.34-1.43,2.53,2.53,0,0,0-1.45,3.3,2.61,2.61,0,0,0,3.37,1.48A2.53,2.53,0,0,0,196.74,327.92Z"/><path class="cls-5" d="M204.41,324.58a2.58,2.58,0,1,0-4.73,2.06,2.54,2.54,0,0,0,3.38,1.33A2.57,2.57,0,0,0,204.41,324.58Z"/><path class="cls-5" d="M212,321.17a2.58,2.58,0,0,0-3.4-1.24,2.53,2.53,0,0,0-1.29,3.37,2.63,2.63,0,0,0,3.45,1.31A2.56,2.56,0,0,0,212,321.17Z"/><path class="cls-5" d="M219.52,317.46a2.58,2.58,0,1,0-4.62,2.29,2.58,2.58,0,0,0,4.62-2.29Z"/><path class="cls-5" d="M227,313.69a2.57,2.57,0,0,0-3.48-1.07,2.51,2.51,0,0,0-1.11,3.42,2.65,2.65,0,0,0,3.52,1.13A2.57,2.57,0,0,0,227,313.69Z"/><path class="cls-5" d="M234.34,309.73a2.58,2.58,0,1,0-1,3.51A2.59,2.59,0,0,0,234.34,309.73Z"/><path class="cls-5" d="M241.48,305.39a2.58,2.58,0,0,0-4.37,2.73,2.58,2.58,0,1,0,4.37-2.73Z"/><path class="cls-5" d="M248,300.2a2.71,2.71,0,0,0-3.6-.24,2.67,2.67,0,0,0-.33,3.56A2.57,2.57,0,1,0,248,300.2Z"/><path class="cls-5" d="M51.88,284.71a2.65,2.65,0,0,0-2.08-3,2.57,2.57,0,0,0-.9,5.07A2.51,2.51,0,0,0,51.88,284.71Z"/><path class="cls-5" d="M60.3,285.85A2.62,2.62,0,0,0,58.07,283a2.58,2.58,0,0,0-.65,5.11A2.52,2.52,0,0,0,60.3,285.85Z"/><path class="cls-5" d="M68.76,286.62a2.61,2.61,0,0,0-2.35-2.79A2.57,2.57,0,1,0,66,289,2.52,2.52,0,0,0,68.76,286.62Z"/><path class="cls-5" d="M77.25,287.05a2.58,2.58,0,1,0-5.15-.24,2.58,2.58,0,0,0,5.15.24Z"/><path class="cls-5" d="M85.75,287.19a2.58,2.58,0,0,0-5.16-.07,2.58,2.58,0,0,0,5.16.07Z"/><path class="cls-5" d="M94.24,287.09a2.58,2.58,0,1,0-2.53,2.62A2.58,2.58,0,0,0,94.24,287.09Z"/><path class="cls-5" d="M102.74,286.8a2.58,2.58,0,1,0-5.15.2,2.58,2.58,0,0,0,5.15-.2Z"/><path class="cls-5" d="M111.24,286.35a2.57,2.57,0,1,0-2.43,2.72A2.57,2.57,0,0,0,111.24,286.35Z"/><path class="cls-5" d="M119.71,286a2.62,2.62,0,0,0-2.71-2.46,2.56,2.56,0,0,0-2.44,2.68,2.6,2.6,0,0,0,2.71,2.46A2.54,2.54,0,0,0,119.71,286Z"/><path class="cls-5" d="M128.18,285.35a2.57,2.57,0,1,0-5.13.4,2.56,2.56,0,0,0,2.78,2.37A2.53,2.53,0,0,0,128.18,285.35Z"/><path class="cls-5" d="M136.63,284.37a2.64,2.64,0,0,0-2.88-2.25,2.58,2.58,0,0,0,.64,5.12A2.54,2.54,0,0,0,136.63,284.37Z"/><path class="cls-5" d="M145,283a2.62,2.62,0,0,0-3-2.1,2.57,2.57,0,1,0,.87,5.07A2.51,2.51,0,0,0,145,283Z"/><path class="cls-5" d="M153.32,281.25a2.6,2.6,0,0,0-3.06-1.94,2.56,2.56,0,0,0-2,3,2.6,2.6,0,0,0,3.08,2A2.54,2.54,0,0,0,153.32,281.25Z"/><path class="cls-5" d="M161.54,279.09a2.58,2.58,0,0,0-5,1.35,2.58,2.58,0,1,0,5-1.35Z"/><path class="cls-5" d="M169.64,276.53a2.52,2.52,0,0,0-3.23-1.6,2.56,2.56,0,0,0-1.66,3.2,2.59,2.59,0,0,0,3.26,1.7A2.63,2.63,0,0,0,169.64,276.53Z"/><path class="cls-5" d="M177.64,273.67a2.58,2.58,0,0,0-3.28-1.54,2.61,2.61,0,0,0-1.56,3.29,2.57,2.57,0,1,0,4.84-1.75Z"/><path class="cls-5" d="M185.52,270.49a2.53,2.53,0,0,0-3.34-1.3,2.59,2.59,0,0,0-1.4,3.32,2.55,2.55,0,0,0,3.39,1.43A2.63,2.63,0,0,0,185.52,270.49Z"/><path class="cls-5" d="M193.12,266.71a2.54,2.54,0,0,0-3.43-1,2.63,2.63,0,0,0-1.13,3.43,2.52,2.52,0,0,0,3.49,1.15A2.62,2.62,0,0,0,193.12,266.71Z"/><path class="cls-5" d="M200.4,262.33a2.55,2.55,0,0,0-3.52-.76,2.64,2.64,0,0,0-.83,3.52,2.51,2.51,0,0,0,3.56.85A2.62,2.62,0,0,0,200.4,262.33Z"/><path class="cls-5" d="M207.62,257.86a2.56,2.56,0,0,0-3.54-1,2.63,2.63,0,0,0-1.08,1.19l-.13.09a2.51,2.51,0,0,0,.32,2.31,2.59,2.59,0,0,0,2.13,1.1l-.13.09a2.44,2.44,0,0,0,1.48-.32A2.61,2.61,0,0,0,207.62,257.86Z"/><path class="cls-5" d="M72.22,209.58a2.6,2.6,0,0,0-.7-3.57,2.64,2.64,0,0,0-3.58.61,2.6,2.6,0,1,0,4.28,3Z"/><path class="cls-5" d="M79.68,213.86a2.66,2.66,0,0,0-1.05-3.5,2.6,2.6,0,0,0-2.5,4.57A2.55,2.55,0,0,0,79.68,213.86Z"/><path class="cls-5" d="M87.5,217.45A2.63,2.63,0,0,0,86.16,214a2.68,2.68,0,0,0-3.43,1.33,2.55,2.55,0,0,0,1.34,3.45A2.58,2.58,0,0,0,87.5,217.45Z"/><path class="cls-5" d="M95.58,220.42a2.61,2.61,0,1,0-3.34,1.63A2.61,2.61,0,0,0,95.58,220.42Z"/><path class="cls-5" d="M103.81,222.92a2.6,2.6,0,0,0-5-1.44,2.6,2.6,0,1,0,5,1.44Z"/><path class="cls-5" d="M112.17,225a2.6,2.6,0,0,0-5.06-1.19,2.6,2.6,0,1,0,5.06,1.19Z"/><path class="cls-5" d="M120.61,226.67a2.61,2.61,0,1,0-5.12-1,2.61,2.61,0,0,0,5.12,1Z"/><path class="cls-5" d="M129.1,228.06a2.6,2.6,0,1,0-3,2.18A2.59,2.59,0,0,0,129.1,228.06Z"/><path class="cls-5" d="M137.63,229.23a2.61,2.61,0,1,0-2.93,2.25A2.59,2.59,0,0,0,137.63,229.23Z"/><path class="cls-5" d="M146.18,230.22a2.59,2.59,0,0,0-2.29-2.87,2.62,2.62,0,0,0-2.89,2.29,2.59,2.59,0,0,0,2.29,2.88A2.62,2.62,0,0,0,146.18,230.22Z"/><path class="cls-5" d="M154.75,231a2.6,2.6,0,0,0-5.19-.43,2.6,2.6,0,0,0,5.19.43Z"/><path class="cls-5" d="M163.35,231.26a2.6,2.6,0,0,0-2.54-2.64,2.69,2.69,0,0,0-2.67,2.58,2.54,2.54,0,0,0,2.54,2.63A2.61,2.61,0,0,0,163.35,231.26Z"/><path class="cls-5" d="M172,231.11a2.57,2.57,0,0,0-2.67-2.48,2.65,2.65,0,0,0-2.53,2.66,2.54,2.54,0,0,0,2.67,2.54A2.63,2.63,0,0,0,172,231.11Z"/><path class="cls-5" d="M180.54,230.59a2.6,2.6,0,0,0-5.19.36,2.6,2.6,0,1,0,5.19-.36Z"/><path class="cls-5" d="M189.11,229.8a2.62,2.62,0,0,0-2.85-2.32,2.57,2.57,0,0,0-2.33,2.82,2.6,2.6,0,1,0,5.18-.5Z"/><path class="cls-5" d="M197.66,228.83a2.6,2.6,0,1,0-2.28,2.88A2.58,2.58,0,0,0,197.66,228.83Z"/><path class="cls-5" d="M206.21,227.79a2.6,2.6,0,1,0-2.27,2.89A2.61,2.61,0,0,0,206.21,227.79Z"/><path class="cls-5" d="M214.76,226.82a2.61,2.61,0,1,0-2.3,2.88A2.62,2.62,0,0,0,214.76,226.82Z"/><path class="cls-5" d="M223.33,226a2.6,2.6,0,1,0-5.19.44,2.6,2.6,0,0,0,5.19-.44Z"/><path class="cls-5" d="M92.2,182a2.6,2.6,0,0,0-2.29-2.81,2.66,2.66,0,0,0-2.84,2.32,2.53,2.53,0,0,0,2.3,2.81A2.56,2.56,0,0,0,92.2,182Z"/><path class="cls-5" d="M100.66,182.46a2.56,2.56,0,0,0-2.46-2.64,2.66,2.66,0,0,0-2.69,2.48A2.48,2.48,0,0,0,98,185,2.61,2.61,0,0,0,100.66,182.46Z"/><path class="cls-5" d="M109.12,182.51a2.58,2.58,0,0,0-5.15,0,2.58,2.58,0,1,0,5.15,0Z"/><path class="cls-5" d="M117.58,182.17a2.65,2.65,0,0,0-2.71-2.44,2.54,2.54,0,0,0-2.43,2.66,2.59,2.59,0,0,0,2.71,2.48A2.49,2.49,0,0,0,117.58,182.17Z"/><path class="cls-5" d="M126,181.37a2.64,2.64,0,0,0-2.83-2.32,2.57,2.57,0,0,0,.52,5.12A2.53,2.53,0,0,0,126,181.37Z"/><path class="cls-5" d="M134.4,180.18a2.57,2.57,0,0,0-5.09.77,2.54,2.54,0,0,0,2.92,2.17A2.57,2.57,0,0,0,134.4,180.18Z"/><path class="cls-5" d="M142.73,178.66a2.56,2.56,0,0,0-3-2,2.66,2.66,0,0,0-2,3,2.5,2.5,0,0,0,3,2A2.59,2.59,0,0,0,142.73,178.66Z"/><path class="cls-5" d="M151,176.8a2.53,2.53,0,0,0-3.08-1.86A2.56,2.56,0,0,0,146,178a2.59,2.59,0,0,0,3.11,2A2.63,2.63,0,0,0,151,176.8Z"/><path class="cls-5" d="M159.18,174.64a2.64,2.64,0,0,0-3.18-1.81,2.57,2.57,0,0,0-1.8,3.14,2.61,2.61,0,0,0,3.18,1.83A2.53,2.53,0,0,0,159.18,174.64Z"/><path class="cls-5" d="M167.3,172.25a2.57,2.57,0,0,0-4.93,1.48,2.57,2.57,0,1,0,4.93-1.48Z"/><path class="cls-5" d="M175.29,169.45a2.57,2.57,0,0,0-4.83,1.77,2.57,2.57,0,1,0,4.83-1.77Z"/><path class="cls-5" d="M183,165.89a2.58,2.58,0,0,0-4.63,2.27,2.58,2.58,0,1,0,4.63-2.27Z"/><path class="cls-5" d="M190,161.18a2.58,2.58,0,0,0-4.17,3,2.58,2.58,0,1,0,4.17-3Z"/><path class="cls-5" d="M195.7,155a2.58,2.58,0,0,0-3.25,4,2.58,2.58,0,1,0,3.25-4Z"/><path class="cls-5" d="M115.85,71.64a2.58,2.58,0,0,0-4.74-2,2.58,2.58,0,1,0,4.74,2Z"/><path class="cls-5" d="M124.31,74.36a2.5,2.5,0,0,0-1.74-3.12,2.53,2.53,0,0,0-3.19,1.62,2.58,2.58,0,1,0,4.93,1.5Z"/><path class="cls-5" d="M133,76.44a2.58,2.58,0,0,0-5-1.14,2.58,2.58,0,1,0,5,1.14Z"/><path class="cls-5" d="M141.69,78.07a2.67,2.67,0,0,0-2.11-3,2.57,2.57,0,0,0-3,2.07,2.59,2.59,0,0,0,2.1,3A2.49,2.49,0,0,0,141.69,78.07Z"/><path class="cls-5" d="M150.51,79.13a2.58,2.58,0,0,0-2.24-2.86,2.61,2.61,0,0,0-2.87,2.25,2.53,2.53,0,0,0,2.24,2.86A2.56,2.56,0,0,0,150.51,79.13Z"/><path class="cls-5" d="M159.36,79.94A2.5,2.5,0,0,0,157,77.23a2.63,2.63,0,0,0-2.78,2.35,2.51,2.51,0,0,0,2.35,2.78A2.63,2.63,0,0,0,159.36,79.94Z"/><path class="cls-5" d="M168.24,80.46a2.62,2.62,0,0,0-2.44-2.73,2.58,2.58,0,0,0-.26,5.15A2.54,2.54,0,0,0,168.24,80.46Z"/><path class="cls-5" d="M96.82,124.32a2.57,2.57,0,1,0-2.41,2.73A2.57,2.57,0,0,0,96.82,124.32Z"/><path class="cls-5" d="M105.05,123.69a2.58,2.58,0,0,0-5.14.41,2.58,2.58,0,1,0,5.14-.41Z"/><path class="cls-5" d="M113.25,122.92a2.57,2.57,0,1,0-2.31,2.82A2.58,2.58,0,0,0,113.25,122.92Z"/><path class="cls-5" d="M121.45,122a2.58,2.58,0,1,0-2.26,2.87A2.59,2.59,0,0,0,121.45,122Z"/><path class="cls-5" d="M129.62,120.9a2.58,2.58,0,0,0-5.11.7,2.58,2.58,0,1,0,5.11-.7Z"/><path class="cls-5" d="M137.77,119.63a2.58,2.58,0,1,0-2.14,3A2.6,2.6,0,0,0,137.77,119.63Z"/><path class="cls-5" d="M145.88,118.16a2.58,2.58,0,0,0-5.07,1,2.58,2.58,0,1,0,5.07-1Z"/><path class="cls-5" d="M153.94,116.45a2.57,2.57,0,0,0-5,1.1,2.57,2.57,0,1,0,5-1.1Z"/><path class="cls-5" d="M161.94,114.44a2.58,2.58,0,0,0-3.13-1.81,2.55,2.55,0,0,0-1.86,3.1,2.58,2.58,0,1,0,5-1.29Z"/><path class="cls-5" d="M169.83,112.06a2.57,2.57,0,0,0-3.21-1.64,2.54,2.54,0,0,0-1.71,3.17,2.58,2.58,0,1,0,4.92-1.53Z"/><path class="cls-5" d="M177.55,109.18a2.58,2.58,0,0,0-4.8,1.87,2.58,2.58,0,1,0,4.8-1.87Z"/><path class="cls-5" d="M185,105.63a2.56,2.56,0,0,0-3.42-1.07,2.67,2.67,0,0,0-1.17,3.41,2.51,2.51,0,0,0,3.48,1.2A2.6,2.6,0,0,0,185,105.63Z"/><path class="cls-6" d="M123.1,41a11,11,0,0,0,4,2.37c1.19-6,3.64-12,5.35-18Z"/><path class="cls-7" d="M132.8,24.82l-.32.54c-1.71,6-4.16,12-5.35,18a16.66,16.66,0,0,0,5.68.94c6.61,0,9.48-3.75,9.48-3.75Z"/><polygon class="cls-7" points="150.77 13.2 150.92 13.09 137.27 13.09 137.16 13.09 132.91 0 128.66 13.06 128.65 13.09 114.89 13.09 114.94 13.12 126.03 21.18 126.01 21.23 121.77 34.27 121.9 34.17 132.91 26.18 144.04 34.27 143.99 34.12 139.79 21.18 139.84 21.14 150.77 13.2"/><polygon class="cls-7" points="132.91 19 132.91 19.08 132.98 18.98 132.97 18.98 132.91 19"/><polygon class="cls-6" points="133.04 18.95 150.77 13.2 150.92 13.09 137.27 13.09 133.01 18.94 133.04 18.95"/><polygon class="cls-7" points="132.93 18.92 132.97 18.98 132.99 18.97 133.01 18.94 132.93 18.92"/><polygon class="cls-7" points="132.99 18.97 133.04 18.95 133.01 18.94 132.99 18.97"/><polygon class="cls-7" points="132.98 18.98 132.99 18.97 132.97 18.98 132.98 18.98"/><polygon class="cls-7" points="132.93 18.92 132.91 18.91 132.91 19 132.97 18.98 132.93 18.92"/><polygon class="cls-8" points="139.84 21.14 150.77 13.2 133.04 18.95 139.84 21.14"/><polygon class="cls-7" points="132.91 18.89 132.91 18.91 132.93 18.92 132.91 18.89"/><polygon class="cls-8" points="121.9 34.17 132.91 26.18 132.91 19.08 121.9 34.17"/><polygon class="cls-6" points="132.91 19.08 132.91 26.18 144.04 34.27 143.99 34.12 132.98 18.98 132.91 19.08"/><polygon class="cls-9" points="132.91 19 126.01 21.23 121.77 34.27 121.9 34.17 132.91 19.08 132.91 19"/><polygon class="cls-7" points="139.84 21.14 133.04 18.95 132.99 18.97 132.98 18.98 143.99 34.12 139.79 21.18 139.84 21.14"/><polygon class="cls-6" points="132.91 18.89 128.66 13.06 128.65 13.09 114.89 13.09 114.94 13.12 132.91 18.91 132.91 18.89"/><polygon class="cls-9" points="132.91 0 128.66 13.06 132.91 18.89 132.91 0"/><polygon class="cls-7" points="132.91 18.91 114.94 13.12 126.03 21.18 126.01 21.23 132.91 19 132.91 18.91"/><polygon class="cls-7" points="132.93 18.92 133.01 18.94 137.27 13.09 137.16 13.09 132.91 0 132.91 18.89 132.93 18.92"/><path class="cls-5" d="M228.93,341.61c0-.38,0-.77-.05-1.17-.25-2.51-2.36-2.83-3.51-.64-.59,1.13-.59,2.18-2,2.55a2.08,2.08,0,0,1-2.74-2.26c.24-5.39,7.85-10.28,12-5.39,2.64,3.13,1.24,8.64.63,12.25-.82,4.95-1.91,9.86-3.16,14.72-.39,1.51-1.4,5.88-3.79,5.19s-1.58-4.63-1.27-6.26c.67-3.56,1.59-7.1,2.28-10.64C227.87,347.23,228.9,344.44,228.93,341.61Z"/><path class="cls-10" d="M220.77,339.3c4-1.53,7.92-3.14,11.85-4.62C228.72,330.07,221.67,334.25,220.77,339.3Z"/><path class="cls-10" d="M224.64,341.43c-.81.31-1.63.62-2.44,1a2.55,2.55,0,0,0,1.22,0A1.87,1.87,0,0,0,224.64,341.43Z"/><path class="cls-10" d="M228.93,341.61a15.54,15.54,0,0,1-.16,1.92c1.76-.64,3.55-1.21,5.32-1.78a15.5,15.5,0,0,0,0-3.67l-5.27,1.85a3.86,3.86,0,0,1,.09.51C228.91,340.84,228.93,341.23,228.93,341.61Z"/><path class="cls-5" d="M234.09,341.75c-1.77.57-3.56,1.14-5.32,1.78-.2,1.33-.54,2.66-.87,4,1.85-.81,3.75-1.46,5.65-2.15C233.76,344.22,234,343,234.09,341.75Z"/><path class="cls-10" d="M233.27,347c.09-.5.19-1,.28-1.59-1.9.69-3.8,1.34-5.65,2.15-.2.82-.41,1.64-.57,2.45-.1.55-.23,1.11-.34,1.66,2-.85,4-1.78,5.93-2.68C233,348.28,233.16,347.62,233.27,347Z"/><path class="cls-10" d="M232.11,353c-2,.81-4,1.61-6,2.58-.31,1.41-.62,2.81-.9,4.22,2-.85,4-1.69,6-2.53C231.51,355.89,231.82,354.47,232.11,353Z"/><path class="cls-5" d="M230.23,361.18c.33-1.28.65-2.58,1-3.87-2,.84-4,1.68-6,2.53l-.15.76a18.8,18.8,0,0,0-.36,2.68C226.55,362.57,228.4,361.89,230.23,361.18Z"/><path class="cls-10" d="M230.11,361.67c0-.16.08-.33.12-.49-1.83.71-3.68,1.39-5.54,2.1a4.72,4.72,0,0,0,.53,2.76c1.27-.39,2.54-.71,3.79-1A18.77,18.77,0,0,0,230.11,361.67Z"/><path class="cls-5" d="M225.22,366a1.94,1.94,0,0,0,1.1.82c1.22.35,2.08-.62,2.69-1.85C227.76,365.33,226.49,365.65,225.22,366Z"/><path class="cls-5" d="M232.92,348.94c-2,.9-3.92,1.83-5.93,2.68-.29,1.33-.59,2.66-.89,4,2-1,4-1.77,6-2.58C232.4,351.68,232.67,350.31,232.92,348.94Z"/><path class="cls-5" d="M225.37,339.8c1.06-2,2.95-1.9,3.42.13l5.27-1.85a6.71,6.71,0,0,0-1.42-3.38l0,0c-3.93,1.48-7.84,3.09-11.85,4.62a7.08,7.08,0,0,0-.09.79,2.12,2.12,0,0,0,1.52,2.3c.81-.34,1.63-.65,2.44-1C224.91,341,225.06,340.39,225.37,339.8Z"/><path class="cls-11" d="M102.32,101.55s-5,9.58-4.88,12.57l-2.12-4-5.1-.27s10.29-7.63,10.37-8.74S102.32,101.55,102.32,101.55Z"/><path class="cls-11" d="M103.81,101.91s0,10.81-1.55,13.41l3.72-2.57,4.66,2.16s-5.55-11.53-5.1-12.56S103.81,101.91,103.81,101.91Z"/><path class="cls-12" d="M103.49,100s-1.76-5.38-5-7-6.3-.63-5.82,1.6a9.83,9.83,0,0,1-.48,6.12c-.71,1.32-1.06,3.3,1,4.34C96.25,106.57,102.16,103,103.49,100Z"/><path class="cls-11" d="M103.5,100.07s.12-5.58-2-8-4.93-2.27-5.19,0a11.16,11.16,0,0,1-2.16,5.7c-1,1.09-1.82,2.9-.4,4.45C95.72,104.47,101.54,102.62,103.5,100.07Z"/><path class="cls-12" d="M103.51,100s4.06-3.94,7.64-3.85,5.88,2.34,4.41,4.1a10,10,0,0,0-2.42,5.66c0,1.5-.61,3.41-3,3.35C106.86,109.18,103.28,103.3,103.51,100Z"/><path class="cls-11" d="M103.46,100.08s2.51-5,5.49-6.1,5.42.25,4.6,2.38a11.19,11.19,0,0,0-.74,6.08c.34,1.39.24,3.39-1.73,4.12C108.31,107.57,104,103.23,103.46,100.08Z"/><path class="cls-12" d="M105.89,100.6a2.45,2.45,0,1,1-4.76-1.16,2.45,2.45,0,1,1,4.76,1.16Z"/><path class="cls-13" d="M82.86,170.82c1.67-.34,3.37-.46,5-.74,1.18-.2,3.13-.32,4.14-1a7,7,0,0,0-2,2.69c-.14.29-1.31,3.71-1.33,3.7a9.45,9.45,0,0,0-4.54-1.09c-1.75.11-3.57.76-4.22,2.41-1-1.65-2.89-3.76-5.28-4a5.45,5.45,0,0,1-1.06-.17C76.64,171.84,79.78,171.44,82.86,170.82Z"/><path class="cls-14" d="M78.45,166.27l.44.28a3,3,0,0,0,1.66.53,4.54,4.54,0,0,0,4.58-3s0,0,0,0c.33,1.35,3.3,4.31,4.92,3.68-.9.35-1.6,1.15-2.49,1.48a17.75,17.75,0,0,1-3.32.75c-.79.13-1.59.3-2.38.48-2.77.66-5.5,1.59-8.3,2.11A7.72,7.72,0,0,0,75.49,171a7.82,7.82,0,0,0,1.58-2,6.68,6.68,0,0,0,.62-2.64c0-.26,0-.52,0-.79,0,0,0,0,0,0A2.22,2.22,0,0,0,78.45,166.27Z"/><path class="cls-13" d="M86.78,161.86c1,1.32,1.76,2.76,2.67,4.12.65,1,1.54,2.6,2.57,3.19a6.75,6.75,0,0,0-3.16-.68c-.31,0-3.77.35-3.77.33a9.14,9.14,0,0,0-.87-4.4c-.81-1.48-2.11-2.81-3.8-2.72,1-1.56,2.11-4,1.34-6.2a5,5,0,0,1-.28-1C83.38,156.84,85,159.42,86.78,161.86Z"/><path class="cls-14" d="M89,156.18c0,.17,0,.34-.08.5a3.09,3.09,0,0,0,.21,1.67,5,5,0,0,0,1.49,1.85,7.86,7.86,0,0,0,4.22,1.12c-1.32,2.39-2.35,4.63-2.29,7.42-1.71-1.84-9.5-12-11.08-14.27a7.66,7.66,0,0,0,2.2,1,7.47,7.47,0,0,0,2.42.55,6.37,6.37,0,0,0,2.54-.51l.71-.28h0A2.18,2.18,0,0,0,89,156.18Z"/><path class="cls-15" d="M93.46,165.52a3.47,3.47,0,1,1-4.58,1.74A3.48,3.48,0,0,1,93.46,165.52Z"/><path class="cls-13" d="M153.47,319.08c1.55.73,3,1.64,4.51,2.42,1.06.54,2.7,1.6,3.94,1.63a7,7,0,0,0-3.23,1c-.28.15-3.26,2.2-3.27,2.18a9.43,9.43,0,0,0-3-3.57c-1.48-.95-3.33-1.51-4.82-.57.15-1.94-.1-4.74-1.89-6.34A4.49,4.49,0,0,1,145,315C147.86,316.21,150.63,317.75,153.47,319.08Z"/><path class="cls-14" d="M152.63,312.81c.06.17.13.33.18.49a3.14,3.14,0,0,0,1,1.41,4.54,4.54,0,0,0,5.43.34h0c-.54,1.28.08,5.43,1.77,5.88-.94-.25-2,0-2.89-.28a19.09,19.09,0,0,1-3.11-1.37c-.72-.37-1.46-.71-2.2-1-2.62-1.12-5.37-2-7.93-3.24a8,8,0,0,0,2.53-.15,7.74,7.74,0,0,0,2.48-.71,6.64,6.64,0,0,0,2.06-1.74l.51-.61h0A2.22,2.22,0,0,0,152.63,312.81Z"/><path class="cls-13" d="M162,314.21c0,1.64-.23,3.27-.3,4.91,0,1.14-.31,3,.17,4.09a6.76,6.76,0,0,0-2.14-2.43c-.25-.19-3.23-2-3.22-2a9.23,9.23,0,0,0,1.91-4.06c.24-1.67,0-3.51-1.44-4.44,1.75-.65,4.1-2,4.77-4.2a4.15,4.15,0,0,1,.37-1C162.2,308.16,162,311.2,162,314.21Z"/><path class="cls-14" d="M167.09,311l-.35.35a2.91,2.91,0,0,0-.82,1.47,4.88,4.88,0,0,0,.09,2.37,7.77,7.77,0,0,0,2.73,3.41c-2.49,1.13-4.65,2.33-6.25,4.6-.29-2.49-.49-15.33-.43-18.06a7.39,7.39,0,0,0,1.15,2.14,7.31,7.31,0,0,0,1.61,1.89,6.46,6.46,0,0,0,2.36,1.1l.73.19h0A2.25,2.25,0,0,0,167.09,311Z"/><path class="cls-15" d="M165.15,321.13a3.47,3.47,0,1,1-4.72-1.33A3.48,3.48,0,0,1,165.15,321.13Z"/><path class="cls-16" d="M58.21,318.45a14.94,14.94,0,0,0,1.16,4.63,7.76,7.76,0,0,1-5-2.17c1,.93,1.45,2.78,2.4,3.86a8.86,8.86,0,0,0,3.58,2.49,11,11,0,0,0,7.72.11c-3-1-5.43-3.43-7.51-5.71-.53-.59-1-1.22-1.48-1.84C58.78,319.41,58.21,319,58.21,318.45Z"/><path class="cls-16" d="M69.39,326.92c2.91,0,5.4-.35,8.12,1.06,1.4.72,4.58,2.87,3.3,4.82s-5.27.3-6.68-.46A10.91,10.91,0,0,1,69.39,326.92Z"/><path class="cls-17" d="M83.39,329.35c-.39-2.43-4.31-4.54-6.46-4.79a9.83,9.83,0,0,0-4.32.67c-.55.19-3.29,1.87-3.72,1.69,4.21,1.8,8.27,2.58,11.29,6.5C81.36,332.65,83.55,331.09,83.39,329.35Z"/><path class="cls-16" d="M66.53,325.73c1.55-2.44,3.2-4.33,3.51-7.31.16-1.52.1-5.26-2.19-5.16s-3.09,4.26-3.22,5.81A10.14,10.14,0,0,0,66.53,325.73Z"/><path class="cls-17" d="M72.75,313.41a4.34,4.34,0,0,1,.63,1.14,9.85,9.85,0,0,1-.74,7.48c-.66,1.32-.83,1.25-2,2.18-.45.36-3.31,1.81-3.39,2.27.45-2.57,1.28-5.1,1.37-7.72,0-.62.15-6.39-1.89-5.08a6.88,6.88,0,0,1,4.14-1.29A2.65,2.65,0,0,1,72.75,313.41Z"/><path class="cls-7" d="M56.61,324c.81.42,4,1.49,8.78-1.84,2.53-1.77,6.9-1.84,8.7.91s.42,5.92-1.78,7.87c-4.35,3.85-4,7.22-3.83,8.11s-1.5,1.82-1.5,1.82L54.49,325S55.8,323.56,56.61,324Z"/><path class="cls-18" d="M54.49,325c-.73.58,1.47,4.6,4.92,9s6.84,7.45,7.57,6.87-1.46-4.6-4.91-9S55.23,324.43,54.49,325Z"/><path class="cls-17" d="M69,335.24s-.67-3.48-8.59-10.88a12,12,0,0,0,2.83-.94,18.47,18.47,0,0,1,4.36,4.09,19,19,0,0,1,3,5.23A12.56,12.56,0,0,0,69,335.24Z"/><path class="cls-7" d="M56.67,330.05a2.39,2.39,0,1,0,3.36.39A2.38,2.38,0,0,0,56.67,330.05Z"/><path class="cls-19" d="M200.37,306.65v.14a1.24,1.24,0,0,1,.56.52c.07-2.23.84-4.19,1.76-3.92a2.08,2.08,0,0,1,1,1.26,3.53,3.53,0,0,1,.22-.73,4,4,0,0,0-1.9-2.37,2.29,2.29,0,0,0-.64,0,3.56,3.56,0,0,0-1.73,2A5,5,0,0,1,200.37,306.65Z"/><path class="cls-19" d="M203.22,319.15a1,1,0,0,1-.3.22c-1,.39-1.78-1.76-1.78-4.16a8.82,8.82,0,0,1,.12-1.49c-.33.9-.81,1.42-1.31,1.27-.93-.28-1.55-2.25-1.55-4.09v-.12a1.23,1.23,0,0,1-.34-.31c0,.28,0,.54,0,.83a20,20,0,0,0,.42,3.88.85.85,0,0,1,1-.36c.89.36,1.71,2.34,1.71,4.75a10.13,10.13,0,0,1-.13,1.62,1.25,1.25,0,0,0,.64.23c.66,0,1.28-.69,1.8-1.69A2.41,2.41,0,0,1,203.22,319.15Z"/><path class="cls-19" d="M202,311.58a2.09,2.09,0,0,1-.26-.36c0,.4-.05.79-.1,1.16A3.5,3.5,0,0,1,202,311.58Z"/><path class="cls-19" d="M204.23,309.53a5.17,5.17,0,0,1-.6,1.73,3.39,3.39,0,0,1,.65,1.26.8.8,0,0,1,.27-.12.79.79,0,0,1,.77.29c0-.47.06-.93.06-1.39s0-.62,0-.94a.65.65,0,0,1-.24,0C204.8,310.34,204.49,310.05,204.23,309.53Z"/><path class="cls-19" d="M202,301.55l.18,0v-1l-.11,0c-.05.28-.12.88-.12.88s.07-.6.12-.88a2.06,2.06,0,0,0-.89,0v1l.18,0a1.31,1.31,0,0,1,.32-.1A1.19,1.19,0,0,1,202,301.55Z"/><path class="cls-19" d="M201.7,301.45a1.31,1.31,0,0,0-.32.1,2.29,2.29,0,0,1,.64,0A1.19,1.19,0,0,0,201.7,301.45Z"/><path class="cls-20" d="M200,306.77a.61.61,0,0,1,.42,0v-.14a5,5,0,0,0-.72-3.06,19.64,19.64,0,0,0-1.59,6.88,1.23,1.23,0,0,0,.34.31C198.43,309,199,307.05,200,306.77Z"/><path class="cls-21" d="M204.28,312.52a7.06,7.06,0,0,1,.27,2c0,1.79-.53,3.87-1.33,4.63a2.41,2.41,0,0,0,.28.58,20.07,20.07,0,0,0,1.82-7,.79.79,0,0,0-.77-.29A.8.8,0,0,0,204.28,312.52Z"/><path class="cls-21" d="M203.92,303.92a3.53,3.53,0,0,0-.22.73,9.14,9.14,0,0,1,.66,3.45,7.91,7.91,0,0,1-.13,1.43c.26.52.57.81.87.85a.65.65,0,0,0,.24,0A20.19,20.19,0,0,0,203.92,303.92Z"/><path class="cls-21" d="M201.69,311.22a7.31,7.31,0,0,1-.78-3.56c0-.12,0-.23,0-.35a1.24,1.24,0,0,0-.56-.52c0,2.27-.82,4.09-1.61,4.1a.76.76,0,0,1-.36-.11v.12c0,1.84.62,3.81,1.55,4.09.5.15,1-.37,1.31-1.27a6.11,6.11,0,0,1,.33-1.34C201.64,312,201.67,311.62,201.69,311.22Z"/><path class="cls-19" d="M200.37,306.79a.61.61,0,0,0-.42,0c-.91.28-1.52,2.22-1.55,4a.76.76,0,0,0,.36.11C199.55,310.88,200.34,309.06,200.37,306.79Z"/><path class="cls-21" d="M199.48,314.82a.85.85,0,0,0-1,.36c.47,2.38,1.4,5.23,2.62,6a10.13,10.13,0,0,0,.13-1.62C201.19,317.16,200.37,315.18,199.48,314.82Z"/><path class="cls-20" d="M202,311.58a3.5,3.5,0,0,0-.36.8,7.5,7.5,0,0,1-.33,1.34,8.82,8.82,0,0,0-.12,1.49c0,2.4.82,4.55,1.78,4.16a1,1,0,0,0,.3-.22,7.49,7.49,0,0,1-.3-2.26c0-2.09.63-3.9,1.36-4.37a3.39,3.39,0,0,0-.65-1.26,1.29,1.29,0,0,1-.94.71A1,1,0,0,1,202,311.58Z"/><path class="cls-19" d="M202.92,316.89a7.49,7.49,0,0,0,.3,2.26c.8-.76,1.33-2.84,1.33-4.63a7.06,7.06,0,0,0-.27-2C203.55,313,202.92,314.8,202.92,316.89Z"/><path class="cls-19" d="M201.26,313.72a7.5,7.5,0,0,0,.33-1.34A6.11,6.11,0,0,0,201.26,313.72Z"/><path class="cls-20" d="M200.93,307.31a7.21,7.21,0,0,1,.77,3.56c0,.12,0,.23,0,.35a2.09,2.09,0,0,0,.26.36,1.25,1.25,0,0,1,1-.71,1,1,0,0,1,.71.39,5.17,5.17,0,0,0,.6-1.73,8.11,8.11,0,0,1-.66-3.37,8.41,8.41,0,0,1,.13-1.51,2.08,2.08,0,0,0-1-1.26C201.77,303.12,201,305.08,200.93,307.31Z"/><path class="cls-19" d="M204.23,309.53a7.91,7.91,0,0,0,.13-1.43,9.14,9.14,0,0,0-.66-3.45,8.41,8.41,0,0,0-.13,1.51A8.11,8.11,0,0,0,204.23,309.53Z"/><path class="cls-19" d="M201.69,311.22c0-.12,0-.23,0-.35a7.21,7.21,0,0,0-.77-3.56c0,.12,0,.23,0,.35A7.31,7.31,0,0,0,201.69,311.22Z"/><path class="cls-19" d="M202,311.58a1,1,0,0,0,.74.39,1.29,1.29,0,0,0,.94-.71,1,1,0,0,0-.71-.39A1.25,1.25,0,0,0,202,311.58Z"/><path class="cls-22" d="M88.17,266.16a9.42,9.42,0,0,0,16.6,0,15.08,15.08,0,0,1-16.6,0Z"/><path class="cls-5" d="M105.75,260.21a14.84,14.84,0,0,1-18.56,0,9.32,9.32,0,0,0-.13,1.51,9.51,9.51,0,0,0,1.11,4.44,15.08,15.08,0,0,0,16.6,0,9.28,9.28,0,0,0,1-6Z"/><path class="cls-22" d="M96.47,252.31a9.41,9.41,0,0,0-9.28,7.9,14.84,14.84,0,0,0,18.56,0A9.41,9.41,0,0,0,96.47,252.31Z"/><path class="cls-23" d="M98.62,253c0,.93-1,1.68-2.25,1.68s-2.25-.75-2.25-1.68,1-1.69,2.25-1.69S98.62,252,98.62,253Z"/><path class="cls-24" d="M87.52,260.38a3.27,3.27,0,0,1,1.34-1.32,9,9,0,0,0-.19,2.37c.67,0,.92-1.48,1.75-1.43,0,.49-.17,2.85.42,2.79s1-1.53,1.78-1.67c.18.58,0,2.27.87,2.43.18-.46.6-2.29,1.24-1.94.43.23.56,2.31,1.24,2.08s.27-2.21,1.1-2.13c.66.06.55,1.9,1.41,1.91s.3-1.7.8-2.08c.69-.53,1.1.93,1.63,1.13.9.35.69-.94.83-1.48.29-1.05.71-.16,1.36.12,1.12.5.54-.68.74-1.36.28-1,1,.05,1.6.4"/><path class="cls-25" d="M204.78,258.83a9.42,9.42,0,0,0,16.6,0,15.08,15.08,0,0,1-16.6,0Z"/><path class="cls-26" d="M222.36,252.88a14.8,14.8,0,0,1-18.56,0,9.52,9.52,0,0,0-.13,1.51,9.34,9.34,0,0,0,1.11,4.44,15.08,15.08,0,0,0,16.6,0,9.34,9.34,0,0,0,1.11-4.44A9.52,9.52,0,0,0,222.36,252.88Z"/><path class="cls-27" d="M213.08,245a9.41,9.41,0,0,0-9.28,7.89,14.8,14.8,0,0,0,18.56,0A9.41,9.41,0,0,0,213.08,245Z"/><path class="cls-23" d="M215.23,245.65c0,.93-1,1.69-2.25,1.69s-2.25-.76-2.25-1.69,1-1.69,2.25-1.69S215.23,244.72,215.23,245.65Z"/><path class="cls-24" d="M204.13,256.85a3.24,3.24,0,0,1,1.34-1.33,9,9,0,0,0-.19,2.38c.67,0,.92-1.48,1.75-1.44,0,.49-.17,2.85.42,2.79s1-1.53,1.78-1.67c.18.59,0,2.28.87,2.44.18-.47.59-2.29,1.24-1.95.42.24.56,2.31,1.23,2.09s.28-2.21,1.11-2.14c.66.06.55,1.9,1.41,1.91s.3-1.69.8-2.07c.69-.53,1.1.92,1.63,1.12.9.35.68-.93.83-1.47.29-1.05.71-.17,1.36.12,1.12.49.54-.69.74-1.36.28-1,1.05.05,1.6.4"/><path class="cls-22" d="M148.75,132a9.42,9.42,0,0,0,16.6,0,15.08,15.08,0,0,1-16.6,0Z"/><path class="cls-5" d="M166.33,126a14.84,14.84,0,0,1-18.56,0,9.28,9.28,0,0,0,1,5.95,15.08,15.08,0,0,0,16.6,0,9.34,9.34,0,0,0,1.11-4.44A9.52,9.52,0,0,0,166.33,126Z"/><path class="cls-22" d="M157.05,118.1a9.42,9.42,0,0,0-9.28,7.9,14.84,14.84,0,0,0,18.56,0A9.42,9.42,0,0,0,157.05,118.1Z"/><path class="cls-23" d="M159.2,118.77c0,.93-1,1.69-2.25,1.69s-2.25-.76-2.25-1.69,1-1.69,2.25-1.69S159.2,117.84,159.2,118.77Z"/><path class="cls-24" d="M148.1,126.18a3.24,3.24,0,0,1,1.34-1.33,9,9,0,0,0-.19,2.38c.67,0,.92-1.49,1.75-1.44,0,.49-.17,2.85.42,2.79s1-1.53,1.78-1.67c.18.58,0,2.28.87,2.43.18-.46.59-2.29,1.24-1.94.43.23.56,2.31,1.24,2.09s.27-2.21,1.1-2.14c.66.06.55,1.9,1.41,1.91s.3-1.69.8-2.07c.69-.53,1.1.92,1.63,1.12.9.35.69-.93.83-1.47.29-1,.71-.17,1.36.12,1.12.49.54-.69.74-1.36.28-1,1.05,0,1.6.4"/><polygon class="cls-7" points="160.26 204.29 162.68 211.21 170.16 212.56 164.04 216.89 165.01 224.12 158.81 219.89 151.93 223.01 154.22 216.06 148.99 210.75 156.61 210.69 160.26 204.29"/></g></g></svg>