<svg xmlns="http://www.w3.org/2000/svg" viewBox="0 0 241.81 291.73"><defs><style>.cls-1{isolation:isolate;}.cls-2{fill:#a2e3dd;opacity:0.75;}.cls-2,.cls-5{mix-blend-mode:multiply;}.cls-3,.cls-6{fill:#366376;}.cls-4{fill:#203c47;}.cls-5,.cls-7,.cls-9{fill:#f49776;}.cls-5{opacity:0.31;}.cls-6{opacity:0.15;}.cls-6,.cls-9{mix-blend-mode:screen;}.cls-8{fill:#fbbfa7;}.cls-9{opacity:0.3;}</style></defs><title>basket</title><g class="cls-1"><g id="Camada_2" data-name="Camada 2"><g id="Objects"><ellipse class="cls-2" cx="122.1" cy="276.71" rx="88.85" ry="15.02"/><path class="cls-3" d="M3.87,169.79a203.39,203.39,0,0,1-1.39-31.72c0-67.71,53.17-122.61,118.76-122.61S240,70.36,240,138.07c0,0,.61,23.67-1.23,31.15l-12.33,10c3-15.42,2.49-41.11,2.49-41.11,0-62.85-48.21-113.8-107.68-113.8s-107.69,51-107.69,113.8c0,0,.34,16.58,1.34,24.28l2.34,18.85Z"/><path class="cls-4" d="M121.24,21.49a116.42,116.42,0,0,0-26.42,3.86c-1.08.24-2.14.6-3.2.92l-3.19,1-3.14,1.14c-1,.38-2.09.76-3.1,1.21-2,.87-4.12,1.7-6.11,2.68-1,.49-2,.93-3,1.45l-2.94,1.58a105.55,105.55,0,0,0-39,35.83A124.3,124.3,0,0,0,24.47,82.7c-1.93,4-3.77,8.07-5.31,12.24a127.72,127.72,0,0,0-6.62,25.79c-.24,2.21-.59,4.41-.76,6.63s-.39,4.43-.42,6.66c-.25,4.43,0,8.9.07,13.37s.28,8.93.67,13.37l1.35,13.34-.14,0c-.63-4.43-1.32-8.84-1.9-13.29s-.81-8.93-1-13.4-.49-8.94-.32-13.45a123.18,123.18,0,0,1,1.1-13.44A117,117,0,0,1,18,94.49c.76-2.12,1.71-4.16,2.61-6.22s2-4,3-6A123.07,123.07,0,0,1,48.05,50.38,113.59,113.59,0,0,1,69.59,34.32a100.18,100.18,0,0,1,51.65-13Z"/><path class="cls-4" d="M230.47,172.21c.29-3.81.52-7.62.62-11.43s.23-7.62.23-11.44,0-7.61-.08-11.43-.24-7.6-.6-11.38a125.37,125.37,0,0,0-4.1-22.38A113.3,113.3,0,0,0,223,93.3c-1.3-3.58-2.81-7.08-4.41-10.55a110.33,110.33,0,0,1,5,10.31,113.89,113.89,0,0,1,3.9,10.8A117.66,117.66,0,0,1,232,126.41c.32,3.82.49,7.66.48,11.49s0,7.64-.11,11.46-.33,7.64-.61,11.46S231.07,168.43,230.47,172.21Z"/><path class="cls-5" d="M11.5,169.39c3.23,3.45,12.12,10.25,19.73,11.5,3.31.55,6.71.28,10,.82,7,1.14,13.06,5.78,20.08,6.28,3.41.24,6.85-.52,10.24,0,4,.58,7.63,2.87,11.66,3.13a29.67,29.67,0,0,0,5.86-.49,116.64,116.64,0,0,1,15.07-.72c16.09-.08,30.13-1.81,48.27-.25a34.56,34.56,0,0,0,7.93-.41c2.61-.38,5.15-1.12,7.74-1.56,7.59-1.3,15.4,0,23.05-.95,8.3-1,16.42-4.48,24.73-3.5A23.81,23.81,0,0,1,231,171.11c-.06,8.86-6.29,16.77-13.95,21.22s-16.62,6-25.4,7.27a478.54,478.54,0,0,1-106.44,3.25c-22.75-1.85-45.9-5.51-66-16.34-3.1-1.67-6.05-4.25-6.9-7.89A75.36,75.36,0,0,1,11.5,169.39Z"/><path class="cls-4" d="M11.56,190.78a380.7,380.7,0,0,0,39.62,82.88s64.05,19.12,142.08,0a395,395,0,0,0,40.51-84.35L120.9,201.17Z"/><path class="cls-3" d="M237.21,163.84a14.87,14.87,0,0,1,2.35,2.95,16.68,16.68,0,0,1,1,14.75C238.62,186.28,234,189,230,192.15c-4.24,3.29-11.51,5.7-18,4.36A57.94,57.94,0,0,1,171,202.77a45.69,45.69,0,0,1-29.39,2.55c-.64-.16-1.12-.7-1,0a91.17,91.17,0,0,1-33.23,2.13,10.39,10.39,0,0,1-4-1.14A60.85,60.85,0,0,1,71,204.87c-9.53,2.27-19.58.74-29-2-1.14-.33-2.34-.4-3.07-1.34-.83-.14-1.67-.23-2.5-.35a41.81,41.81,0,0,1-18.89-7.73c-.46-.34-1.33,0-1-.5a27.91,27.91,0,0,1-10.77-5.63A16.67,16.67,0,0,1,.06,176.79,12,12,0,0,1,4.59,166c5.05,2.89,9.42,7.22,11.12,12.78a15.09,15.09,0,0,1,11.24,7c8.55-.84,18.15.19,27.26,7.1a44.14,44.14,0,0,1,28.28,3.29c13.62-3.63,27-4.19,40.67-.76,10.9-3.34,23.94-3.69,34.7.07,11.65-4.55,21.72-7.58,33.88-4.65a20.57,20.57,0,0,1,2.81.87,9.54,9.54,0,0,1,2-2.51c2.68-2.2,6.54-2.7,10.72-3.22s7.91-.06,12.12.09a7,7,0,0,1,1.68-4.9,35.23,35.23,0,0,1,10.85-9C232.18,168.55,234.2,165.86,237.21,163.84Z"/><path class="cls-4" d="M53.8,192.55l4.29,3.74c1.43,1.23,2.87,2.43,4.35,3.58A37.53,37.53,0,0,0,67,203a21.43,21.43,0,0,0,5.17,2.14A12.91,12.91,0,0,1,66.55,204a22.6,22.6,0,0,1-5-3A33.34,33.34,0,0,1,53.8,192.55Z"/><path class="cls-4" d="M26.61,185.23a43.37,43.37,0,0,0,2.29,5,31.37,31.37,0,0,0,3,4.47,34.12,34.12,0,0,0,3.67,3.94c1.33,1.22,2.76,2.35,4.25,3.48a20.37,20.37,0,0,1-9-6.55A19,19,0,0,1,26.61,185.23Z"/><path class="cls-4" d="M15.65,178.58a26,26,0,0,1,.19,4c0,1.33-.16,2.64-.16,3.91a15.32,15.32,0,0,0,.44,3.75,7.26,7.26,0,0,0,1.72,3.39,5.44,5.44,0,0,1-2.73-3,10.62,10.62,0,0,1-.82-4.08,23.25,23.25,0,0,1,.39-4A26,26,0,0,1,15.65,178.58Z"/><path class="cls-4" d="M82.15,195.92c1.87.87,3.68,1.8,5.5,2.72s3.62,1.84,5.44,2.72,3.65,1.77,5.48,2.64,3.69,1.7,5.55,2.61a36.9,36.9,0,0,1-6-1.6,50.67,50.67,0,0,1-5.69-2.39,55.57,55.57,0,0,1-5.37-3A41.15,41.15,0,0,1,82.15,195.92Z"/><path class="cls-4" d="M122.68,195.19a24.89,24.89,0,0,1,5.27,1.57,16.31,16.31,0,0,1,2.47,1.32c.77.51,1.5,1.06,2.23,1.58a64.9,64.9,0,0,0,9.11,5.71,18.26,18.26,0,0,1-5.23-1.72,34.16,34.16,0,0,1-4.71-2.86,41.44,41.44,0,0,0-4.37-3C125.92,196.85,124.28,196.08,122.68,195.19Z"/><path class="cls-4" d="M157.18,195.31a11.32,11.32,0,0,1,4.07,1.36c1.27.67,2.43,1.47,3.59,2.23s2.29,1.49,3.49,2.19a35.11,35.11,0,0,0,3.72,1.9,11.42,11.42,0,0,1-4.19-.91,20,20,0,0,1-3.8-2c-1.17-.8-2.28-1.64-3.39-2.47A35.6,35.6,0,0,0,157.18,195.31Z"/><path class="cls-4" d="M193.48,191.73a26.94,26.94,0,0,1,5.16,0,18.7,18.7,0,0,1,5.12,1.11c1.64.65,3.13,1.48,4.62,2.24a15.71,15.71,0,0,0,4.72,1.67A9.89,9.89,0,0,1,208,196c-1.64-.58-3.16-1.36-4.7-1.94C200.2,192.91,196.83,192.51,193.48,191.73Z"/><path class="cls-4" d="M218.62,186.07a7.61,7.61,0,0,1,3.79.14,27.2,27.2,0,0,1,3.53,1.22l3.35,1.4c1.12.46,2.25.86,3.46,1.24a9.83,9.83,0,0,1-3.78-.19,21.86,21.86,0,0,1-3.57-1.15c-1.14-.47-2.24-1-3.34-1.49A17.64,17.64,0,0,0,218.62,186.07Z"/><path class="cls-4" d="M230.75,172.72a5.88,5.88,0,0,1,2.61-1.22,7,7,0,0,1,2.93.09c.93.19,1.79.5,2.63.75a12.23,12.23,0,0,0,2.64.54,4.78,4.78,0,0,1-2.83.54A19.33,19.33,0,0,1,236,173a14,14,0,0,0-2.53-.37A25.8,25.8,0,0,0,230.75,172.72Z"/><path class="cls-3" d="M44.38,262c0,.56.51.94,1,1.2s1,.48,1.57.69A20.58,20.58,0,0,0,57,265.06l.2,0,.16.15a6.78,6.78,0,0,0,3.5,1.58,33.63,33.63,0,0,0,4.08.36,34.67,34.67,0,0,0,8.16-.21l.31,1.2-.59.2,0-1.17A34.05,34.05,0,0,0,81,269.24a66.7,66.7,0,0,0,8.49.66h.07l.07,0a39.69,39.69,0,0,0,6.22,1.47c2.13.34,4.27.55,6.42.71s4.3.21,6.46.23,4.31,0,6.46-.16h0a110.88,110.88,0,0,0,12.49.6,85.83,85.83,0,0,0,12.42-.86h.1c2.29,0,4.61-.13,6.9-.3s4.59-.45,6.86-.79a58.56,58.56,0,0,0,6.73-1.37,32.36,32.36,0,0,0,6.35-2.41l.2-.11.23,0c1.32.17,2.71.27,4.08.32s2.75.06,4.13,0a59.36,59.36,0,0,0,8.2-.85h.09a62.52,62.52,0,0,0,7.72-.58,35,35,0,0,0,3.81-.7,16.62,16.62,0,0,0,3.64-1.3l.07.12a16.22,16.22,0,0,1-3.61,1.54,33.62,33.62,0,0,1-3.81.94,59.92,59.92,0,0,1-7.8.92h.08a53.24,53.24,0,0,1-8.34,1.12c-1.4.09-2.81.12-4.21.1a40.63,40.63,0,0,1-4.24-.24l.43-.08a33.07,33.07,0,0,1-6.63,2.57,58.34,58.34,0,0,1-6.9,1.45c-2.31.38-4.65.57-7,.73s-4.66.23-7,.21h.11c-2.1.28-4.2.48-6.31.56s-4.21.11-6.31,0a120,120,0,0,1-12.56-1.06h0l-3.24.05h-3.25c-2.16-.05-4.32-.12-6.48-.24s-4.32-.31-6.47-.6a39,39,0,0,1-6.43-1.25l.15,0a64,64,0,0,1-8.64-.35,33.77,33.77,0,0,1-8.47-2.09l-1.58-.65,1.62-.53.59-.19.31,1.2a35.27,35.27,0,0,1-8.46.11,36.36,36.36,0,0,1-4.2-.45,7.62,7.62,0,0,1-3.91-2l.36.13a20,20,0,0,1-7-.52,21.43,21.43,0,0,1-3.32-1.17,16.5,16.5,0,0,1-1.56-.81,1.76,1.76,0,0,1-1-1.45Z"/><path class="cls-3" d="M16.21,203a50.81,50.81,0,0,0,18.21,7,81.9,81.9,0,0,0,9.72,1.2,72.7,72.7,0,0,0,9.79-.06h.13l.17.07a11.08,11.08,0,0,0,1.81.46c.64.12,1.3.21,2,.29,1.32.16,2.65.26,4,.32,2.67.13,5.36.1,8,0h.07l.07,0c3.26.66,6.6,1.15,9.93,1.54s6.7.66,10.06.8,6.73.14,10.09,0,6.71-.49,10-.89h.06c2,.24,4,.39,6,.49s4,.15,6,.12A48.49,48.49,0,0,0,134,213l.12,0,.13,0a95.62,95.62,0,0,0,11.86,1.15,105.48,105.48,0,0,0,11.93-.16c2-.1,4-.34,5.94-.55l2.95-.43,1.48-.21,1.46-.28a86.09,86.09,0,0,0,11.52-2.95l.11,0h.1a80.47,80.47,0,0,0,8-.81,40,40,0,0,0,3.95-.78,16,16,0,0,0,3.68-1.33l.14-.08h.16a78.76,78.76,0,0,0,8.24-.53c2.75-.28,5.48-.7,8.2-1.23s5.4-1.19,8-2A70.74,70.74,0,0,0,229.9,200l.06.13a73.12,73.12,0,0,1-7.73,3.14,74.47,74.47,0,0,1-8,2.26c-2.72.61-5.46,1.13-8.23,1.49a80,80,0,0,1-8.37.69l.3-.08a17.07,17.07,0,0,1-3.95,1.53,40.81,40.81,0,0,1-4.06.88,70.39,70.39,0,0,1-8.2.89l.2,0a88.1,88.1,0,0,1-11.72,3l-1.49.29-1.49.22c-1,.15-2,.3-3,.42-2,.19-4,.42-6,.5a110.63,110.63,0,0,1-12.08,0,95.38,95.38,0,0,1-12-1.38h.24a37.2,37.2,0,0,1-6,.92c-2,.16-4,.18-6,.17a109.13,109.13,0,0,1-12-.87h.06c-3.35.39-6.72.71-10.09.83s-6.75.21-10.13.12S83.37,215,80,214.7s-6.72-.68-10.08-1.26h.13c-2.7.12-5.41.16-8.13.06-1.36,0-2.72-.14-4.08-.3-.68-.08-1.36-.18-2-.32a11.59,11.59,0,0,1-2.09-.58l.3.06a71.69,71.69,0,0,1-19.77-1.47A55,55,0,0,1,24.76,208a41.48,41.48,0,0,1-8.63-4.83Z"/><path class="cls-3" d="M39.26,253.45a12.3,12.3,0,0,0,3.36,1.63,19.92,19.92,0,0,0,3.66.8,27.5,27.5,0,0,0,3.74.21c.62,0,1.25,0,1.87-.08l1.86-.19.18,0,.17.13a10,10,0,0,0,2.44,1.25,16.85,16.85,0,0,0,2.71.7,17.68,17.68,0,0,0,2.81.25,24.27,24.27,0,0,0,2.83-.14l.16,0,.16.07a37,37,0,0,0,5.82,2,47.92,47.92,0,0,0,6.06,1.26,50.83,50.83,0,0,0,6.17.52,49.37,49.37,0,0,0,6.2-.24h.14a78.28,78.28,0,0,0,11.12,1.54c1.87.13,3.74.21,5.62.2s3.74-.12,5.61-.26H112a81.46,81.46,0,0,0,15.69,1.18,56.24,56.24,0,0,0,7.8-.69,31.8,31.8,0,0,0,7.42-2.15l.12-.06h.15c3.78-.05,7.58-.21,11.35-.49,1.89-.16,3.77-.33,5.63-.58a23.14,23.14,0,0,0,5.34-1.23l.18-.07h.16a63.9,63.9,0,0,0,6.63-.1c2.21-.15,4.42-.36,6.61-.71a53.09,53.09,0,0,0,6.48-1.42,42.82,42.82,0,0,0,6.19-2.35l.15-.07.16,0a13,13,0,0,0,3.69.09,23.82,23.82,0,0,0,3.73-.71,30.9,30.9,0,0,0,3.63-1.21c.59-.24,1.17-.52,1.76-.77l1.72-.86.07.12L205,252c-.57.29-1.14.6-1.73.87a30.41,30.41,0,0,1-3.6,1.45,22.43,22.43,0,0,1-3.81.89,13.31,13.31,0,0,1-4,0l.31,0a37.81,37.81,0,0,1-6.27,2.63,53.8,53.8,0,0,1-6.6,1.61,63.81,63.81,0,0,1-13.53,1l.34-.06a24.07,24.07,0,0,1-5.74,1.37q-2.85.4-5.72.58c-3.83.23-7.64.34-11.46.34l.27-.06a31,31,0,0,1-7.78,2.11,53.3,53.3,0,0,1-8,.48c-2.66,0-5.3-.22-7.94-.49s-5.25-.66-7.86-1.15H112c-1.88.13-3.76.23-5.65.21s-3.77,0-5.65-.13a101.67,101.67,0,0,1-11.26-1.21h.14a49.38,49.38,0,0,1-6.32.49,42,42,0,0,1-6.33-.4,43.91,43.91,0,0,1-6.22-1.25,38.84,38.84,0,0,1-6-2.18l.32.06a24.73,24.73,0,0,1-3,.1,18.7,18.7,0,0,1-3-.3,15.28,15.28,0,0,1-2.88-.83,10.58,10.58,0,0,1-2.67-1.5l.34.1-1.91.13c-.65,0-1.29,0-1.93,0a23.31,23.31,0,0,1-3.82-.37,20.5,20.5,0,0,1-3.7-1,11.94,11.94,0,0,1-3.33-1.89Z"/><path class="cls-3" d="M32.59,240.88a19.18,19.18,0,0,0,3.56.91,10.35,10.35,0,0,0,3.6,0l.1,0,.1.06a40.15,40.15,0,0,0,5.89,2.49A44.78,44.78,0,0,0,52,245.9a45.75,45.75,0,0,0,12.71.75h.13l.13,0c1.87.63,3.79,1.21,5.7,1.77s3.85,1.06,5.79,1.5,3.89.86,5.86,1.15a43.52,43.52,0,0,0,5.92.51h.07c3.89.63,7.83,1.1,11.78,1.38,2,.14,3.95.26,5.92.24a44.7,44.7,0,0,0,5.9-.34h0c2.62.09,5.24.1,7.86.12s5.25,0,7.86-.05,5.24-.11,7.85-.24a47.75,47.75,0,0,0,7.67-.86l.09,0h.09a124.34,124.34,0,0,0,13.78-.73c2.28-.25,4.56-.55,6.79-1a27.9,27.9,0,0,0,6.44-2l.12-.06h.14c3.57-.32,7.15-.72,10.71-1.19,1.78-.25,3.56-.52,5.31-.86a22.38,22.38,0,0,0,5-1.46l.16-.08.14,0a43.58,43.58,0,0,0,5.12.19,42,42,0,0,0,5.13-.39,29.7,29.7,0,0,0,5-1.11,18.25,18.25,0,0,0,4.61-2.25l.08.11a18.26,18.26,0,0,1-4.55,2.53,28.39,28.39,0,0,1-5,1.39,43.3,43.3,0,0,1-5.2.58,43.8,43.8,0,0,1-5.25,0l.31-.06a23.14,23.14,0,0,1-5.3,1.69c-1.78.39-3.57.7-5.36,1-3.58.58-7.17,1-10.78,1.34l.26-.07a29.23,29.23,0,0,1-6.78,2.16,62.83,62.83,0,0,1-6.94,1.05q-3.48.34-7,.47c-2.33.09-4.64.13-7,.09l.18,0a45.34,45.34,0,0,1-8,.76c-2.63.07-5.26.07-7.88,0s-5.26-.11-7.88-.2l-7.87-.31H112a44.2,44.2,0,0,1-6,.28q-3,0-6-.21c-2-.11-4-.27-5.94-.47s-4-.37-5.93-.62h.07a54.11,54.11,0,0,1-12.05-1.29c-2-.43-3.93-.92-5.88-1.46s-3.86-1.13-5.77-1.81l.25,0a47.73,47.73,0,0,1-6.55,0,42.75,42.75,0,0,1-6.47-.94,44.91,44.91,0,0,1-6.25-1.86,36.17,36.17,0,0,1-5.91-2.78l.2,0a10.59,10.59,0,0,1-3.77-.14A18,18,0,0,1,32.54,241Z"/><path class="cls-3" d="M27.36,230.09a30.73,30.73,0,0,0,6,2.43,20.08,20.08,0,0,0,6.38.77h.07l.08,0a31.21,31.21,0,0,0,3.23.84c1.09.23,2.2.42,3.31.57a55.4,55.4,0,0,0,6.69.45h.14l.15.09a42.45,42.45,0,0,0,8.07,3.34,73.43,73.43,0,0,0,8.55,2.07c1.46.2,2.9.47,4.37.59l2.19.23,2.21.14c1.47.14,2.94.08,4.41.13s2.95-.08,4.43-.12h.1A71,71,0,0,0,98.5,243c1.8.09,3.6.16,5.41.15s3.6-.1,5.4-.22h.07a93.05,93.05,0,0,0,18.38,1.88,83.16,83.16,0,0,0,9.21-.45,63.73,63.73,0,0,0,9-1.63l.13,0,.14,0c1.6.22,3.25.35,4.89.44s3.28.09,4.91,0a28,28,0,0,0,9.45-1.84l.17-.08.19,0a58.56,58.56,0,0,0,8.68-.1,63.9,63.9,0,0,0,8.59-1.33,48,48,0,0,0,8.27-2.64A41,41,0,0,0,199,233l.12-.08.12,0a65.81,65.81,0,0,0,10-1.87,34,34,0,0,0,9.39-3.86l.08.12a34.15,34.15,0,0,1-9.29,4.35,66.21,66.21,0,0,1-10.06,2.25l.25-.1a39.57,39.57,0,0,1-7.66,4.57,47.4,47.4,0,0,1-8.43,2.89,61.77,61.77,0,0,1-17.72,1.56l.37-.06a27.56,27.56,0,0,1-10,1.9c-1.68.06-3.36,0-5-.08s-3.33-.25-5-.51h.26a61.92,61.92,0,0,1-9.25,1.51,76.65,76.65,0,0,1-9.34.21c-3.11-.12-6.2-.37-9.29-.75s-6.14-.9-9.18-1.57h.07c-1.81.09-3.62.17-5.43.16s-3.63,0-5.44-.08-3.62-.22-5.42-.39-3.61-.38-5.41-.71h.1c-1.48.09-3,.22-4.46.27s-3,.1-4.48,0a65.28,65.28,0,0,1-8.92-.81,59.24,59.24,0,0,1-8.72-2.11,44.08,44.08,0,0,1-8.29-3.56l.29.08c-1.14,0-2.28-.07-3.42-.17s-2.28-.25-3.41-.43A38.16,38.16,0,0,1,39.67,234l.16,0A18.94,18.94,0,0,1,33.26,233a28.53,28.53,0,0,1-6-2.78Z"/><path class="cls-3" d="M22.83,220a14.27,14.27,0,0,0,4.62,2.37,14.44,14.44,0,0,0,2.53.55,15.79,15.79,0,0,0,2.57.1h.09l.09,0a41.28,41.28,0,0,0,6.78,2.65,66.24,66.24,0,0,0,7.11,1.7,65.25,65.25,0,0,0,7.25.9c1.21.12,2.43.11,3.65.16s2.43,0,3.65,0h.11l.11,0a29.86,29.86,0,0,0,4.08.91c1.39.22,2.8.37,4.21.47s2.83.14,4.25.15,2.83,0,4.25-.11h.11l.1,0a62.19,62.19,0,0,0,9.23,2.51,75.93,75.93,0,0,0,9.52,1.31,77,77,0,0,0,9.61.17c1.61,0,3.2-.2,4.8-.31s3.18-.39,4.78-.58h.11a48.71,48.71,0,0,0,10,.94,43.86,43.86,0,0,0,5-.31,38.68,38.68,0,0,0,4.92-.88l.1,0h.11c3.29.34,6.62.52,9.93.64s6.64.1,10-.08a77,77,0,0,0,9.85-1.05,33.89,33.89,0,0,0,9.33-2.85l.17-.08h.2c1.49.07,3,0,4.55,0s3-.22,4.54-.42a42.72,42.72,0,0,0,4.49-.83,35.62,35.62,0,0,0,4.33-1.35l.12-.05h.11a63.58,63.58,0,0,0,7-.46c2.33-.27,4.65-.66,7-1.15s4.57-1.1,6.81-1.82a60.52,60.52,0,0,0,6.59-2.54l.06.13a60.55,60.55,0,0,1-6.49,2.86c-1.11.44-2.24.78-3.37,1.16s-2.28.68-3.43.95q-3.47.87-7,1.39a56.22,56.22,0,0,1-7.13.64l.22,0a35.5,35.5,0,0,1-4.47,1.49,40.2,40.2,0,0,1-4.59.95c-1.55.24-3.1.42-4.66.51s-3.12.12-4.71.06l.37-.08a35.67,35.67,0,0,1-9.73,3,67.92,67.92,0,0,1-10,1c-3.35.14-6.71.11-10.06,0s-6.68-.39-10-.8h.21a42.1,42.1,0,0,1-5.09.81,43.79,43.79,0,0,1-5.12.16,51.58,51.58,0,0,1-10.14-1.23h.11c-3.21.35-6.42.68-9.64.75-.81,0-1.61,0-2.42,0l-2.42,0c-1.61,0-3.22-.1-4.83-.18-3.22-.2-6.42-.61-9.61-1.12A64,64,0,0,1,78,230.86l.21,0c-1.43.12-2.87.21-4.31.24s-2.89,0-4.34-.07-2.88-.23-4.32-.45a27.43,27.43,0,0,1-4.29-.93l.22,0c-1.24,0-2.48,0-3.72,0s-2.48-.07-3.71-.21a67.43,67.43,0,0,1-7.36-1,55.42,55.42,0,0,1-7.18-1.91,41.14,41.14,0,0,1-6.84-2.92l.17,0a15.4,15.4,0,0,1-5.26-.91,13.67,13.67,0,0,1-4.57-2.68Z"/><path class="cls-3" d="M19.9,213.06a36.62,36.62,0,0,0,6.27,1.32,41.3,41.3,0,0,0,6.38.28h.11l.11.07a14.19,14.19,0,0,0,2.7,1.26,26,26,0,0,0,2.89.87c1,.24,2,.42,3,.57s2,.24,3,.33h.1l.11.05a43.44,43.44,0,0,0,9.22,3.08,78.81,78.81,0,0,0,9.68,1.48,86.73,86.73,0,0,0,9.81.23c1.64,0,3.27-.18,4.91-.26s3.26-.36,4.89-.53h.13a104.48,104.48,0,0,0,10.89,1.36,55.63,55.63,0,0,0,11-.14h.08a96.65,96.65,0,0,0,11,1.52,108.07,108.07,0,0,0,11.09.29,88.15,88.15,0,0,0,11-1,63.62,63.62,0,0,0,10.66-2.73l.15,0,.17,0a66.88,66.88,0,0,0,9.18.42,40.53,40.53,0,0,0,9-1.14l.14,0,.14,0a74.22,74.22,0,0,0,9.9.16,86.16,86.16,0,0,0,9.89-1.07c1.64-.24,3.25-.6,4.88-.94.81-.19,1.6-.41,2.41-.61l1.2-.31,1.19-.37a68.44,68.44,0,0,0,9.26-3.59l.11,0h.09a57.66,57.66,0,0,0,10.12-1.21,36.44,36.44,0,0,0,9.65-3.28l.07.13a37.36,37.36,0,0,1-9.59,3.75q-2.5.62-5.07,1c-1.7.26-3.41.46-5.15.56l.2-.05a62.93,62.93,0,0,1-9.34,3.87l-1.2.4-1.21.34c-.82.22-1.63.46-2.44.67-1.65.37-3.29.77-4.95,1.05a80.78,80.78,0,0,1-10,1.15,73.09,73.09,0,0,1-10.14-.13l.27,0a38.41,38.41,0,0,1-9.39,1.13,67,67,0,0,1-9.39-.54l.31,0A61,61,0,0,1,138.4,225a80.41,80.41,0,0,1-11.17.75c-3.73,0-7.46-.21-11.16-.59a111.11,111.11,0,0,1-11-1.66h.08a63.64,63.64,0,0,1-11,.23c-3.68-.23-7.34-.55-11-1.09h.13c-1.64.23-3.27.49-4.92.69s-3.3.36-5,.41-3.31.15-5,.1-3.32-.12-5-.21A64.32,64.32,0,0,1,53.51,222a44.61,44.61,0,0,1-9.46-3.29l.21.06c-1-.09-2.06-.22-3.08-.41s-2-.39-3-.67a28.48,28.48,0,0,1-3-1,15.91,15.91,0,0,1-2.82-1.43l.22.07a36.74,36.74,0,0,1-6.46-.54,32.72,32.72,0,0,1-6.25-1.66Z"/><path class="cls-3" d="M53.74,205.64a10.72,10.72,0,0,1,.23,3,10.85,10.85,0,0,1-.47,2.93,7.12,7.12,0,0,1-.47-3A7,7,0,0,1,53.74,205.64Z"/><path class="cls-3" d="M70.39,205.14a23.9,23.9,0,0,1,.13,4c0,.65-.06,1.3-.13,1.95,0,.33-.07.66-.11,1,0,.16-.06.33-.07.47s0,.32.17.37c-.19.07-.36-.15-.42-.32a3.55,3.55,0,0,1-.14-.51c-.07-.32-.12-.65-.16-1a13.25,13.25,0,0,1-.08-2A10.86,10.86,0,0,1,70.39,205.14Z"/><path class="cls-3" d="M110.57,208.34a16.78,16.78,0,0,1,.1,2.9,16.38,16.38,0,0,1-.32,2.88,5.55,5.55,0,0,1-.62-2.92A5.66,5.66,0,0,1,110.57,208.34Z"/><path class="cls-3" d="M134.27,207a30.71,30.71,0,0,1,0,6.64,7.13,7.13,0,0,1-.77-3.32A7,7,0,0,1,134.27,207Z"/><path class="cls-3" d="M182.11,204.24c-.1.47.14.86.19,1.35a9.36,9.36,0,0,1,.15,1.4,7.7,7.7,0,0,1-.39,2.82,7.7,7.7,0,0,1-.55-2.79,9.52,9.52,0,0,1,.07-1.41,6.64,6.64,0,0,1,.11-.72A1,1,0,0,1,182.11,204.24Z"/><path class="cls-3" d="M197.7,202.57a4.44,4.44,0,0,1,.71,2.31,4.39,4.39,0,0,1-.52,2.35,7.26,7.26,0,0,1-.42-2.32A7.66,7.66,0,0,1,197.7,202.57Z"/><path class="cls-3" d="M206.53,206.75a9,9,0,0,1,.34,7,21.23,21.23,0,0,1-.4-3.48A21.79,21.79,0,0,1,206.53,206.75Z"/><path class="cls-3" d="M167.54,213.74a28.09,28.09,0,0,1,.2,3.63,27.79,27.79,0,0,1-.14,3.62,8.27,8.27,0,0,1-.8-3.62A8.43,8.43,0,0,1,167.54,213.74Z"/><path class="cls-3" d="M149.25,215.09a10.72,10.72,0,0,1,.36,3.31,14.74,14.74,0,0,1-.16,1.63,2.92,2.92,0,0,0,.05,1.55,1.91,1.91,0,0,1-.78-1.56,13.05,13.05,0,0,1-.05-1.65A10.4,10.4,0,0,1,149.25,215.09Z"/><path class="cls-3" d="M109.12,214.15c-.77,1.47-1.52,2.84-2.13,4.3s-1.11,2.92-1.64,4.49a9.57,9.57,0,0,1,.78-4.86A9.68,9.68,0,0,1,109.12,214.15Z"/><path class="cls-3" d="M83.05,214.72a9.4,9.4,0,0,1,1,3.73,10,10,0,0,1-.44,3.81h-.22c0-.14,0-.28.08-.42,0,.14.1.27.14.41h-.22c-.16-1.28-.21-2.51-.26-3.74A36.55,36.55,0,0,1,83.05,214.72Z"/><path class="cls-3" d="M45.21,212.14a25.94,25.94,0,0,1-.11,3.21,26.39,26.39,0,0,1-.41,3.18,6.32,6.32,0,0,1-.53-3.26A6.42,6.42,0,0,1,45.21,212.14Z"/><path class="cls-3" d="M33.55,209.93a15.06,15.06,0,0,1-.16,2.48,14.57,14.57,0,0,1-.48,2.44,4,4,0,0,1-.45-2.56A4.1,4.1,0,0,1,33.55,209.93Z"/><path class="cls-3" d="M61.17,222.58a16.07,16.07,0,0,1,.23,2.89,17.08,17.08,0,0,1-.16,2.9,5.52,5.52,0,0,1-.77-2.89A5.58,5.58,0,0,1,61.17,222.58Z"/><path class="cls-3" d="M32.79,215.45c.06,1.37,0,2.65,0,3.94s0,2.58-.16,4a9.38,9.38,0,0,1,.2-7.89Z"/><path class="cls-3" d="M78.51,223.07c0,1.24-.07,2.37-.08,3.52s0,2.27,0,3.51a6.44,6.44,0,0,1-.9-3.53A6.58,6.58,0,0,1,78.51,223.07Z"/><path class="cls-3" d="M117.46,225a39,39,0,0,1,0,4.06c-.07,1.34-.12,2.66-.33,4.05a9.86,9.86,0,0,1-.6-4.09A10.08,10.08,0,0,1,117.46,225Z"/><path class="cls-3" d="M136.43,224.67a15.09,15.09,0,0,1,.51,4.43,18.43,18.43,0,0,1-.17,2.22,15.1,15.1,0,0,1-.46,2.18l-.37,0c0-.31.09-.63.16-.95.08.31.16.63.21.94h-.37c0-.75,0-1.48,0-2.21s0-1.46.08-2.18A39.13,39.13,0,0,1,136.43,224.67Z"/><path class="cls-3" d="M176.84,221.74a9.29,9.29,0,0,1,.51,4.37,10,10,0,0,1-.47,2.16,5.25,5.25,0,0,1-1,2c.16-.73.25-1.42.34-2.12s.19-1.4.25-2.1C176.59,224.61,176.65,223.21,176.84,221.74Z"/><path class="cls-3" d="M194.41,218.53a13.54,13.54,0,0,1,.52,4.19,13.19,13.19,0,0,1-.69,4.16,26.19,26.19,0,0,1,.17-8.35Z"/><path class="cls-3" d="M200,226.89a5.81,5.81,0,0,1,.51,3.36,6,6,0,0,1-1.32,3.13c.08-1.16.27-2.19.39-3.25S199.82,228,200,226.89Z"/><path class="cls-3" d="M165.73,233.26c.2,1.5.13,3,.19,4.37a20.87,20.87,0,0,0,.5,4.25,6.73,6.73,0,0,1-1.44-4.23A11.57,11.57,0,0,1,165.73,233.26Z"/><path class="cls-3" d="M145.24,234.11c0,.85,0,1.65.08,2.48l.06,2.45a16.83,16.83,0,0,0,.65,4.8,5.49,5.49,0,0,1-1.22-2.25,9.86,9.86,0,0,1-.37-2.53,17.31,17.31,0,0,1,.16-2.5A7.06,7.06,0,0,1,145.24,234.11Z"/><path class="cls-3" d="M109.14,234.26a26,26,0,0,0,.83,9.12,8.49,8.49,0,0,1-.83-9.12Z"/><path class="cls-3" d="M88,233a27.54,27.54,0,0,1,.2,4.43,25.55,25.55,0,0,1-.4,4.41A15.83,15.83,0,0,1,88,233Z"/><path class="cls-3" d="M54.42,229.2c-.13,1.18-.31,2.23-.38,3.32s-.08,2.15-.14,3.33a5.81,5.81,0,0,1,.52-6.65Z"/><path class="cls-3" d="M41.56,227.74a19.71,19.71,0,0,1-.07,3.09,18.76,18.76,0,0,1-.49,3,6.37,6.37,0,0,1-.45-3.13A6.46,6.46,0,0,1,41.56,227.74Z"/><path class="cls-3" d="M65.33,240.13c-.07,1.17-.16,2.21-.13,3.27s.13,2.1.23,3.27a5,5,0,0,1-1.17-3.25A5.1,5.1,0,0,1,65.33,240.13Z"/><path class="cls-3" d="M39.93,234c.16,1.49.16,2.9.21,4.33l0,2.15c0,.72-.16,1.45.37,2-.4-.06-.67-.47-.81-.82a6.79,6.79,0,0,1-.29-1.09,13.72,13.72,0,0,1-.25-2.21A11,11,0,0,1,39.93,234Z"/><path class="cls-3" d="M84.29,242.35a17.3,17.3,0,0,0,.09,2.51,19.57,19.57,0,0,0,.47,2.4c.2.79.45,1.6.72,2.36a4.83,4.83,0,0,0,1.29,2.06,3.39,3.39,0,0,1-2-1.75,10.17,10.17,0,0,1-1-2.43,8.83,8.83,0,0,1-.29-2.61A5.85,5.85,0,0,1,84.29,242.35Z"/><path class="cls-3" d="M115.7,244.44A12.62,12.62,0,0,1,116,249a7.61,7.61,0,0,1-1.71,4.24,30.85,30.85,0,0,0,.78-4.35A41.27,41.27,0,0,1,115.7,244.44Z"/><path class="cls-3" d="M139.86,244.68c.19,1.37.27,2.66.44,3.95s.36,2.57.49,4a8.71,8.71,0,0,1-.93-7.9Z"/><path class="cls-3" d="M170.33,242a13.41,13.41,0,0,1,.19,7,11.45,11.45,0,0,1-.56-3.48A11.86,11.86,0,0,1,170.33,242Z"/><path class="cls-3" d="M191.77,237.55a9.52,9.52,0,0,1,.57,7.13,21.16,21.16,0,0,1-.52-3.54A21.42,21.42,0,0,1,191.77,237.55Z"/><path class="cls-3" d="M165.88,250.59a11.61,11.61,0,0,1-.29,9.08c0-1.57.09-3,.13-4.54S165.77,252.15,165.88,250.59Z"/><path class="cls-3" d="M192.42,245.31a10.85,10.85,0,0,1-.47,9.07c.07-1.57.23-3,.29-4.53S192.33,246.87,192.42,245.31Z"/><path class="cls-3" d="M167.25,259.92a8.29,8.29,0,0,1,.63,3.71,8.19,8.19,0,0,1-1,3.64,34.5,34.5,0,0,1,.05-3.68A36.34,36.34,0,0,1,167.25,259.92Z"/><path class="cls-3" d="M143.88,252.53c.06,1.69,0,3.3-.08,4.93s-.11,3.24-.29,4.92a13.7,13.7,0,0,1-.65-5A13.93,13.93,0,0,1,143.88,252.53Z"/><path class="cls-3" d="M111.48,253.27a24.69,24.69,0,0,1,.33,5c0,.83-.09,1.68-.11,2.49a7.56,7.56,0,0,0,.29,2.44,4.36,4.36,0,0,1-1-2.39,14.54,14.54,0,0,1-.09-2.55A24.52,24.52,0,0,1,111.48,253.27Z"/><path class="cls-3" d="M88.59,252.29A12.46,12.46,0,0,1,89.83,257a12.15,12.15,0,0,1-.53,4.79c-.21-1.61-.28-3.16-.41-4.72S88.62,253.92,88.59,252.29Z"/><path class="cls-3" d="M64.66,247.61c-.06,1.92-.2,3.76-.23,5.61A15.38,15.38,0,0,0,65,258.7a5.56,5.56,0,0,1-1.24-2.61,12.26,12.26,0,0,1-.23-2.89A14.72,14.72,0,0,1,64.66,247.61Z"/><path class="cls-3" d="M53.93,246.89c0,1.58-.12,3.08-.17,4.59,0,.75,0,1.52-.07,2.26A6.81,6.81,0,0,0,54,256a3.75,3.75,0,0,1-1-2.16,12.46,12.46,0,0,1-.13-2.36A11.27,11.27,0,0,1,53.93,246.89Z"/><path class="cls-3" d="M71,260.89a6.74,6.74,0,0,1,1.39,3.05,6.65,6.65,0,0,1-.15,3.34,24.31,24.31,0,0,1-.77-3.17A26.23,26.23,0,0,1,71,260.89Z"/><path class="cls-3" d="M53.21,256.35a17.6,17.6,0,0,0,1.44,4.92c.34.78.73,1.54,1.12,2.32l.59,1.15a1.35,1.35,0,0,0,.89.79A1.34,1.34,0,0,1,56,265c-.31-.35-.58-.69-.85-1a13.38,13.38,0,0,1-1.35-2.32A9.77,9.77,0,0,1,53,259,6.41,6.41,0,0,1,53.21,256.35Z"/><path class="cls-3" d="M89.52,262.25a10.89,10.89,0,0,1,.87,4,12.66,12.66,0,0,1-.08,2c0,.34-.1.68-.17,1s-.11.74-.43,1a2,2,0,0,0,0-1c0-.34-.08-.67-.1-1-.06-.67-.09-1.33-.12-2A28.69,28.69,0,0,1,89.52,262.25Z"/><path class="cls-3" d="M57.41,266.16c.27,1.61.46,3.15.79,4.67.14.77.33,1.52.51,2.29l.29,1.15a2.84,2.84,0,0,0,.17.54.48.48,0,0,0,.41.32A.57.57,0,0,1,59,275a2.22,2.22,0,0,1-.38-.52,10.22,10.22,0,0,1-.56-1.09,11.37,11.37,0,0,1-.74-2.34A10.24,10.24,0,0,1,57.41,266.16Z"/><path class="cls-3" d="M114.85,264.09a13.74,13.74,0,0,1,.5,8.22,23.23,23.23,0,0,1-.56-4.09A24.85,24.85,0,0,1,114.85,264.09Z"/><path class="cls-3" d="M139.73,263.09a40.6,40.6,0,0,1,.06,4.8l-.12,2.36a4,4,0,0,0,.44,2.22,2.91,2.91,0,0,1-1.17-2.18,16.64,16.64,0,0,1-.09-2.44A15.58,15.58,0,0,1,139.73,263.09Z"/><path class="cls-3" d="M182.79,258.05a8.31,8.31,0,0,1,1.4,4.34,13.26,13.26,0,0,1-.49,4.52,32.84,32.84,0,0,1-.44-4.46C183.17,261,183,259.57,182.79,258.05Z"/><path class="cls-3" d="M167.34,267.75c0,1.8-.08,3.53-.16,5.27l-.16,2.61a8,8,0,0,0,.15,2.58,4.64,4.64,0,0,1-.88-2.56,18.48,18.48,0,0,1,0-2.68A16.51,16.51,0,0,1,167.34,267.75Z"/><path class="cls-3" d="M140,272.69c.22,1.58.17,3.12.25,4.63a22.24,22.24,0,0,0,.59,4.52,7.4,7.4,0,0,1-1.53-4.48A13.17,13.17,0,0,1,140,272.69Z"/><path class="cls-3" d="M115.17,272.69a12.8,12.8,0,0,1,.18,9c-.17-1.54-.17-3-.22-4.48S115.06,274.23,115.17,272.69Z"/><path class="cls-3" d="M89.75,270.58c.06,1.75,0,3.43,0,5.12v3.82l0,.64a1.38,1.38,0,0,0,0,.29c0,.07.12.22.18.11,0,.07-.08.11-.14.07a.31.31,0,0,1-.15-.1c-.1-.11-.1-.24-.15-.33l-.18-.63a11.16,11.16,0,0,1-.26-1.28,17.41,17.41,0,0,1-.2-2.6A14,14,0,0,1,89.75,270.58Z"/><path class="cls-3" d="M73,268.38c.48,1.79.88,3.52,1.4,5.23s1.11,3.38,1.68,5.15A14.16,14.16,0,0,1,73,268.38Z"/><path class="cls-3" d="M183.81,267.4a11.42,11.42,0,0,1,.58,4.26,6.82,6.82,0,0,1-1.42,4.08,30,30,0,0,0,.49-4.13A34.3,34.3,0,0,1,183.81,267.4Z"/><path class="cls-6" d="M109.3,281.91c-35.16-1.4-58.12-8.25-58.12-8.25a380.56,380.56,0,0,1-39.5-82.55,24.45,24.45,0,0,1-5.91-3.8A16.67,16.67,0,0,1,.06,176.79,12,12,0,0,1,4.59,166c5.05,2.89,9.42,7.22,11.12,12.78a15.09,15.09,0,0,1,11.24,7c8.55-.84,18.15.19,27.26,7.1a47.11,47.11,0,0,1,13.47-.79S77.09,239,109.3,281.91Z"/><path class="cls-7" d="M81.29,39.32A20.8,20.8,0,0,0,90.82,59a5.36,5.36,0,0,0,2,.84c1.8.26,3.4-1.06,4.76-2.26,6.14-5.4,12.93-10.1,18.45-16.12s9.79-13.79,9.41-21.95c-4.75.89-9,3.48-13.2,5.82A146.74,146.74,0,0,1,82.67,37.71a2.08,2.08,0,0,0-1,.51A2,2,0,0,0,81.29,39.32Z"/><path class="cls-7" d="M165.55,53.22c-3.06,3.84-7.05,7.17-11.82,8.37a32.35,32.35,0,0,1-7.23.69,5.6,5.6,0,0,1-2.34-.3,5.33,5.33,0,0,1-1.9-1.76A103.73,103.73,0,0,1,123,17.88a98.06,98.06,0,0,0,43,23.25,4.35,4.35,0,0,1,3.22,5.12A17.57,17.57,0,0,1,165.55,53.22Z"/><path class="cls-7" d="M163.58,4.91a63.54,63.54,0,0,1,.12,19.66c-.31,2.13-.82,4.4-2.41,5.86-2.23,2-5.71,1.77-8.63,1-10-2.78-19-10.23-29.41-9.95-.5-2.47-1-5.16.2-7.39,1.06-2,3.23-3.16,5.27-4.17C137.68,5.42,147,1,156.91.07c1.83-.17,3.9-.14,5.21,1.16A6.53,6.53,0,0,1,163.58,4.91Z"/><path class="cls-7" d="M84,5.4a63.6,63.6,0,0,0,.12,19.67c.34,2.12.88,4.38,2.48,5.83,2.25,2,5.74,1.69,8.65.85,10-2.91,18.85-10.47,29.28-10.32.47-2.47.91-5.17-.29-7.38-1.09-2-3.27-3.12-5.33-4.11-9-4.34-18.33-8.64-28.3-9.45-1.84-.15-3.91-.1-5.19,1.22A6.44,6.44,0,0,0,84,5.4Z"/><path class="cls-4" d="M125.45,16.16A38.44,38.44,0,0,1,137,10.91a38,38,0,0,1,12.59-1.36,80.31,80.31,0,0,0-24.11,6.61Z"/><path class="cls-4" d="M125.41,18.34A25.57,25.57,0,0,1,133.3,16a25.26,25.26,0,0,1,8.23.15c-2.74.29-5.42.51-8.09.88S128.12,17.89,125.41,18.34Z"/><path class="cls-4" d="M99.62,13.56a23.63,23.63,0,0,1,12.15-1.66,25,25,0,0,1,6,1.48,25.58,25.58,0,0,1,2.81,1.3l1.32.81a2.33,2.33,0,0,1,.59.54.78.78,0,0,1,.12.76.7.7,0,0,0-.24-.66,2.08,2.08,0,0,0-.61-.4l-1.4-.59c-.94-.36-1.89-.7-2.86-1a34.69,34.69,0,0,0-5.88-1.22A36.43,36.43,0,0,0,99.62,13.56Z"/><path class="cls-4" d="M107.5,18.12c2.25-.24,4.43-.35,6.62-.56s4.36-.46,6.62-.61a20.25,20.25,0,0,1-6.53,1.65A20,20,0,0,1,107.5,18.12Z"/><path class="cls-4" d="M122.63,22.56A38.76,38.76,0,0,1,114.4,33a38.54,38.54,0,0,1-11.2,7.16,79.6,79.6,0,0,0,10.5-7.93A80.21,80.21,0,0,0,122.63,22.56Z"/><path class="cls-4" d="M124.05,23.5a31.06,31.06,0,0,1-4.39,8.33,33.77,33.77,0,0,1-3,3.62c-.55.57-1.12,1.11-1.71,1.64-.31.25-.58.51-.92.75a1.1,1.1,0,0,1-1.15.23,1.06,1.06,0,0,0,1-.44c.25-.27.49-.6.73-.9L116,34.92c1-1.22,1.91-2.44,2.81-3.7C120.65,28.73,122.32,26.13,124.05,23.5Z"/><path class="cls-4" d="M126.82,21.47a52.44,52.44,0,0,0,7.59,9.87,52.16,52.16,0,0,0,9.79,7.71,29.89,29.89,0,0,1-10.53-7A29.91,29.91,0,0,1,126.82,21.47Z"/><path class="cls-8" d="M119.49,19.17a6.8,6.8,0,0,0,1.91,4.73,3.49,3.49,0,0,0,1.3.88,4.52,4.52,0,0,0,3.25-.61c2.06-1.38,2.47-5.33,2-7.75a4.14,4.14,0,0,0-4.78-3C120.84,14,119.51,17.09,119.49,19.17Z"/><path class="cls-9" d="M89.6,3.1a3.81,3.81,0,0,0-2.07.6A5.08,5.08,0,0,0,86,6.53c-.37,1.32-.51,3.06.46,3.86a2.68,2.68,0,0,0,2,.37L103.52,9.6c.73,0,1.64-.27,1.81-1.11A1.89,1.89,0,0,0,104.79,7,5.54,5.54,0,0,0,102,5.27,19.18,19.18,0,0,0,97.84,4C95,3.53,92.48,2.9,89.6,3.1Z"/><path class="cls-9" d="M85.35,38.5a4.77,4.77,0,0,0-1.88.71A1.65,1.65,0,0,0,82.79,41c.34.94,1.6,1.08,2.59,1a22.79,22.79,0,0,0,11.29-4.25,9,9,0,0,0,2.23-2.17.73.73,0,0,0-.74-1.13A10.07,10.07,0,0,0,96.4,35c-1.77.73-3.55,1.63-5.37,2.24S87.21,38,85.35,38.5Z"/></g></g></g></svg>