<svg xmlns="http://www.w3.org/2000/svg" xmlns:xlink="http://www.w3.org/1999/xlink" viewBox="0 0 146.46 201.53"><defs><style>.cls-1{isolation:isolate;}.cls-14,.cls-2{fill:#ffa840;}.cls-3{fill:#ccc;}.cls-3,.cls-8{mix-blend-mode:multiply;}.cls-4{fill:#fff;}.cls-5{fill:#d2d2d2;}.cls-6{fill:#317f87;}.cls-7{fill:#ffb5b5;}.cls-9{fill:#e5e5e5;}.cls-10{fill:#38023b;}.cls-11{fill:#380a3b;}.cls-12{fill:#f06543;}.cls-13{fill:url(#Degradado_sin_nombre_4);}.cls-14,.cls-21,.cls-22{mix-blend-mode:screen;}.cls-15,.cls-21{fill:#9ffcdf;}.cls-16{fill:#90ecd2;}.cls-17{fill:#80dcc4;}.cls-18{fill:#61bda9;}.cls-19{fill:#71cdb7;}.cls-20{fill:#52ad9c;}.cls-23{fill:url(#Degradado_sin_nombre_4-2);}</style><linearGradient id="Degradado_sin_nombre_4" x1="32.34" y1="141.53" x2="47.4" y2="189.82" gradientUnits="userSpaceOnUse"><stop offset="0" stop-color="#fff" stop-opacity="0"/><stop offset="1" stop-color="#b3b3b3"/></linearGradient><linearGradient id="Degradado_sin_nombre_4-2" x1="91.41" y1="174.13" x2="91.25" y2="198.68" xlink:href="#Degradado_sin_nombre_4"/></defs><title>easter</title><g class="cls-1"><g id="Camada_2" data-name="Camada 2"><g id="OBJECTS"><path class="cls-2" d="M53.53,115.05c-.36.6-1.43,10.52-1.43,10.52l6.93,1.8,5-6.16s.74-4.48,0-5S53.53,115.05,53.53,115.05Z"/><path class="cls-3" d="M53.53,115.05c-.36.6-1.43,10.52-1.43,10.52l6.93,1.8,5-6.16s.74-4.48,0-5S53.53,115.05,53.53,115.05Z"/><path class="cls-4" d="M75.84,169.33c-9.64.24-24.89-.24-22-30.61a87.38,87.38,0,0,1,4.26-19.6S2.37,112.9,11.69,92.58c4.45-9.7,16.74-4,29.92,2.15l24.68,11.48s13.2-1,15.16-2.15.88-4.07,8.84-4.79,24.93,3.35,27.08,13.87S96.1,137.29,96.1,137.29,114.17,168.37,75.84,169.33Z"/><path class="cls-5" d="M107.81,115h0Z"/><path class="cls-5" d="M107.65,115l0,0,.06,0h0l.05,0-.11,0Z"/><path class="cls-5" d="M105.25,115.67h0Z"/><path class="cls-5" d="M103.73,115.94s0,0,0,0Z"/><path class="cls-5" d="M103.46,115.91h0Z"/><path class="cls-5" d="M105.25,115.67h0S105.23,115.67,105.25,115.67Z"/><path class="cls-5" d="M107.33,115.17h0Z"/><path class="cls-5" d="M105.9,115.49h0Z"/><path class="cls-5" d="M106.4,115.36s0,0,0,0,0,0,0,0A0,0,0,0,0,106.4,115.36Z"/><path class="cls-5" d="M107.21,115.17h0Z"/><path class="cls-5" d="M105.53,115.56h0Z"/><path class="cls-5" d="M91.13,115.59Z"/><polygon class="cls-5" points="90.56 115.38 90.57 115.39 90.58 115.39 90.56 115.38"/><path class="cls-5" d="M103,115.91Z"/><path class="cls-5" d="M98.62,116.25c0,.06-.08.08,0,.15S98.68,116.29,98.62,116.25Z"/><path class="cls-5" d="M107.32,115.17h0Z"/><polygon class="cls-5" points="98.62 116.4 98.62 116.4 98.63 116.41 98.62 116.4"/><path class="cls-5" d="M101.89,116.07l0,0Z"/><path class="cls-5" d="M102.72,116.06h0Z"/><path class="cls-5" d="M101.48,116.2s0,0,0,0h0S101.47,116.19,101.48,116.2Z"/><polygon class="cls-5" points="101.04 116.24 101.05 116.25 101.06 116.25 101.04 116.24"/><path class="cls-5" d="M92.44,116s0,0,0,0S92.36,116,92.44,116Z"/><path class="cls-5" d="M107.33,115.17h0Z"/><path class="cls-5" d="M101.51,116.7h0Z"/><path class="cls-5" d="M95.6,116.61h0Z"/><path class="cls-5" d="M101.23,116.73s0,0,0,0v0Z"/><path class="cls-5" d="M92.42,116Z"/><path class="cls-5" d="M92,115.89c.06,0,0,0,.05,0s0,0,.06.06.09,0,.13,0,0,0,0,0,.16,0,.23,0h0v0s.06,0,.07,0,0,0,0,0h0s0,0,0,0,.14,0,.18,0-.11,0-.05,0l-.07,0c0,.07,0,0,0,0a1.46,1.46,0,0,0,.2,0s0,0,0,0,.08.13.19.1.06-.08.12,0l0,0c.09,0,.06-.06.15,0s-.07,0-.06,0,0,0,.1,0v0c.1,0,.21,0,.32,0s0,0,0,0a1.57,1.57,0,0,1,.42.13l.06,0s0,0,0,0,0,0,0,0,0,0,0,0a.49.49,0,0,1,.36,0h0c.08,0,.1-.09.17,0h0c.16,0,.35,0,.46.13,0-.08.16.06.18,0,.09.06.06.08.19.14s.06-.07.11-.07v.06l.07-.06,0,.08h0a.09.09,0,0,1,0-.05c.07,0,.16.06.15.1l.16,0s0,0,0,.05,0,.07.09,0a0,0,0,0,1,0,0,.21.21,0,0,0,.18,0l0,0c.11,0,.24,0,.37,0a.07.07,0,0,1,0-.11v.08s0,0,0-.08,0,.08,0,.1l.06,0s0,0,0,.06.1.08.14,0v0c.13,0,.18,0,.29,0s0,0,.08-.1a.61.61,0,0,0,.25.08c.06,0,0,0,0-.09s.09.06,0,.1a1.11,1.11,0,0,0,.28-.05s0,0,0-.06.06,0,0,.06h0c.15-.08.35.2.48.07h0l.13-.07c.06,0,0,0,0,.09s.22,0,.33-.06c.09.18.32,0,.44.11v0s0,0,.06,0,0,0,0-.06a2.5,2.5,0,0,1,.81.07c.1,0,0-.23.17-.13l0,.08c.2-.1.41,0,.6-.12,0,0,0,0,0,0s.15,0,.15-.06,0,0,0,.06.1-.08.12,0,0,0,0,0,.13,0,.1-.07.13,0,.2,0,.12,0,.13-.08c0,.11.13.08.17,0s0,0,0,.07.1,0,.08-.08c.11.11.19-.12.26,0a2.85,2.85,0,0,1,.42-.17c0,.1-.15,0-.13.13.12-.06.19-.15.32-.14s0,0,0,.06.25,0,.36-.11,0,0,0,0,.06,0,0,0l0,0s.07-.14.07-.17c0,.12.12,0,.08.17,0,0,0,0,0-.06s0,0,0,0,0-.08.11-.09,0,0,0,.06a.14.14,0,0,1,.13-.09s0,0,0,0,.16-.13.29-.11,0,0,.06.08l.06,0,0,0c.06,0,.1-.07.15-.06l0,0,.1,0h-.06s0-.08,0-.08.06,0,.1,0h0s0,0,.09,0,0,.07,0,.08.13,0,.15-.1,0,0,0,0l0,0s0,0,0,0,0-.07.06-.06,0,0,0,0,.18-.06.26-.06-.07,0,0,.08a2.75,2.75,0,0,1,.36-.15h0c0-.08.1,0,.15,0s0,0,0,0,.16-.06.28-.11v0l.17,0s0,0,0,0c.18,0,.29-.13.44-.1l0,0,.11,0s0,0,0,0a.13.13,0,0,1,.07,0s0,0,0,0v0c.07,0,0,0,.09,0h0s.06,0,.09,0,0,0,0,0,.08-.07.13-.06l-.07,0a.11.11,0,0,0,.1,0h0c0-.08.12,0,.19-.11s0,0,0,0h0s.07,0,.11,0,0,0,0,0,0,0,0,0,.18,0,.28-.1l.18-.1s0,0,0,0l.13,0s0,0,0,0l.07,0s0,0,0,0l.12-.06,0,0,.14-.06h0s0,0,0,0l-.07,0h0a.71.71,0,0,0-.18.07l0,0-.06,0s0,0,0,0,0,0-.07,0h0l0,0s0,0,0,0-.12,0-.16,0h0c-.11,0,0,0-.08.07l-.07,0v0s0,0,0,0,0,0,0,0-.14,0-.16,0,0,0,0,0-.07,0-.12,0,.06,0,0,0-.1,0-.14,0-.09,0-.15.07l-.21,0h0s-.07,0-.12.07,0,0,0,0h0a.07.07,0,0,1,0,0v0c-.06,0-.11.07-.19.06s.08.07,0,.11,0,0,0,0,0,0,0,0l0,0s0,0,0,0,0,0,0,0h0s-.08,0-.1,0,0,0,0,0,0,0-.07,0,0,0,0,.05,0,0,0,0-.15,0-.1.07h0c-.1.07-.22,0-.32.07h0a.67.67,0,0,0-.17.08s0,0,0,0,0,0-.12,0,0,0,.05,0-.09,0-.15,0,0,0-.08,0l0,0-.09,0v-.06c-.14-.05-.21.15-.33.06s.08,0,.06.06-.14-.06-.16-.06-.06.1-.15.09a.06.06,0,1,1-.07,0h0s0,0,0,0v0s-.12,0-.1,0,0,0,0,0-.12,0-.2,0,0,0,0,0,0,0-.12.07,0-.08-.07,0,0-.06,0-.08-.13,0-.18,0l0,0a.07.07,0,0,1-.06,0l0,0s0,0,0,0,0,.08,0,.12-.09,0-.11,0,0-.06.06-.08H103s0,0,0,0,0,.07-.12.09,0-.07,0-.06,0,.06,0,.09-.06,0-.09,0h0s0,0-.08.05,0,0,0,0-.11,0-.17,0,0-.07,0-.08-.09-.05-.15,0,0,0,0,.09l.12,0-.07.08s.07,0,.1,0,0,0,0,.07-.09.06-.16,0l0-.12c-.09,0-.14.08-.26.06l0,0s-.07,0-.11,0a.09.09,0,0,0,0-.08s-.09,0-.09.09l0,0c-.1,0-.1.13-.19.13s0-.08,0-.12-.06,0-.06,0-.07.07-.11,0,0,.07,0,.07v0s0,0,0,.09c-.1-.14-.25,0-.34-.09l-.2,0s0,0,0,0,0,.14-.14.1,0,0,0-.07-.11,0-.18-.06h0s-.11.07-.19.06v0a.44.44,0,0,1-.22.14c0-.06,0,0,0-.1s0,.1,0,.12-.07-.06-.08-.12h.06c0-.08-.08,0-.11,0v0c-.1,0-.1.11-.2.1v0c0,.1,0-.05-.1,0l0-.09a1.17,1.17,0,0,1-.2.12c0-.08.11-.11.16-.16s-.12,0-.14.06,0,0,0,0a.21.21,0,0,1-.18.12c0-.19-.2,0-.25-.18-.13.06-.26,0-.42,0,.06.14,0,0,0,.15h0l-.11-.09s0,0,0-.06,0-.06-.08-.1,0,.07-.08,0l.07.07c-.11.08-.1-.12-.21,0l0,0c-.06,0-.21,0-.27.11s0-.05,0-.06c-.14,0-.3.11-.41,0v0s0,.07-.07,0,0,0,0,0-.07.06-.1,0l0,0c-.13,0-.21.09-.32.11s-.1-.14-.15-.16h0c-.16,0-.27.07-.41.1s-.3-.07-.43-.13,0,.07,0,.08-.1.06-.08,0h0c0-.09-.09-.07-.14-.07l0,.1c-.12-.17-.37,0-.43-.12,0,0-.08,0-.11,0v-.05a.9.9,0,0,0-.25,0l0,0c-.07,0-.1.15-.16.15v-.08c-.11,0-.22-.09-.34,0s0,0,0,0-.2-.07-.19,0c0-.07-.12,0-.18,0v0c-.06.06-.06.07-.14.08s0,0,0,0-.06,0-.12,0l0,0c-.06,0-.06,0-.09,0s-.11,0-.11-.07a.08.08,0,0,1-.09,0s0,0,0,0-.15,0-.21,0,0,0,0,0l.14,0s-.06-.06,0-.1-.15.07-.21,0h0l0,0s-.07,0-.1,0,0,0,0,.07h.12a.08.08,0,0,1-.09,0l-.05,0c0-.06-.11-.1-.12-.14s-.22,0-.29,0,0,0,0,0h0c-.06,0-.17,0-.19,0s0,0,0,0h0c-.17-.1-.32,0-.5-.08h0c-.23-.07-.48-.07-.7-.16a.26.26,0,0,0-.12,0v0h-.07c-.1,0-.15-.07-.28-.08h0l-.13,0h0l-.11,0c-.08,0,0,0-.1,0l-.11,0,0,0h0s0,0,.06,0l.07,0h0l0,0,.07,0h0l.07,0s0,0,0,0,0,0,0,0l.06,0h0l.11,0s.11,0,.1,0l.1,0c-.06,0,.12,0,.09.06a.93.93,0,0,1,.24.06h0l.08,0s.08,0,.12,0,0,0,0,.06.09,0,.08,0,0,0,0,0,0,0,.08,0,0,.05.07.05S92,115.89,92,115.89Zm1.55.31Zm.13,0h0s0,0,0,0S93.63,116.21,93.64,116.22Zm-.22-.33s0,0,0,0h0S93.41,115.89,93.42,115.89Z"/><path class="cls-5" d="M93.37,115.93h0v0Z"/><polygon class="cls-5" points="105.27 115.67 105.26 115.67 105.27 115.67 105.27 115.67"/><polygon class="cls-5" points="95.45 116.62 95.45 116.61 95.44 116.62 95.45 116.62"/><path class="cls-5" d="M106,115.6h0Z"/><path class="cls-5" d="M106.31,115.51h0Z"/><path class="cls-5" d="M106.54,115.45h0Z"/><path class="cls-5" d="M102.79,116.44h0S102.78,116.45,102.79,116.44Z"/><path class="cls-5" d="M103.91,116.1l0,0S103.91,116.13,103.91,116.1Z"/><polygon class="cls-5" points="101.52 116.7 101.52 116.7 101.51 116.7 101.52 116.7"/><path class="cls-5" d="M103.82,116.14a0,0,0,0,0,.05,0Z"/><polygon class="cls-5" points="107.53 115.09 107.54 115.09 107.54 115.09 107.53 115.09"/><path class="cls-5" d="M107.54,115.09h0Z"/><path class="cls-5" d="M107.58,115.07h0Z"/><path class="cls-5" d="M107.23,115.2h0Z"/><path class="cls-5" d="M107.14,115.24a.47.47,0,0,0,.09,0h0S107.16,115.22,107.14,115.24Z"/><path class="cls-5" d="M106.73,115.3l.08,0s0,0,0,0C106.7,115.27,106.84,115.27,106.73,115.3Z"/><path class="cls-5" d="M106.48,115.35s0,0,0,0S106.45,115.35,106.48,115.35Z"/><path class="cls-5" d="M104.7,115.76v0S104.7,115.74,104.7,115.76Z"/><polygon class="cls-5" points="104.4 116.04 104.44 116.06 104.45 116.02 104.4 116.04"/><polygon class="cls-5" points="104.14 115.78 104.15 115.77 104.1 115.8 104.14 115.78"/><path class="cls-5" d="M101.11,116.18l0,.07S101.15,116.15,101.11,116.18Z"/><path class="cls-5" d="M99.8,116.33s0-.06-.08,0S99.78,116.34,99.8,116.33Z"/><polygon class="cls-5" points="95.85 116.15 95.88 116.13 95.83 116.14 95.85 116.15"/><path class="cls-2" d="M81.45,104.06l16.07,36.11s14.91-9.57,14.43-9.42-28.18-29.43-28.4-29.19S81.45,104.06,81.45,104.06Z"/><path class="cls-6" d="M52.9,174.33a28,28,0,0,0-1.39-4.91A46.26,46.26,0,0,0,46,159.17a32.78,32.78,0,0,0-8.23-8.43c-2.7-1.79-5.51-2.7-8.23-2.24-3.76.65-6.8,3.86-9.06,8.15a38.1,38.1,0,0,0-3,7.69,22.67,22.67,0,0,0-5.34-2.3,9.36,9.36,0,0,0-6.94.39C2.53,163.9,1,167.17.36,171.07a33.11,33.11,0,0,0-.16,8.58,36.15,36.15,0,0,0,2,8.66,20.52,20.52,0,0,0,1.09,2.43A15.15,15.15,0,0,0,9.51,197a15.15,15.15,0,0,0,14.27,0,15.31,15.31,0,0,0,3.32-2.42,18.61,18.61,0,0,0,25.8-20.19Z"/><path class="cls-6" d="M93.56,174.33A28,28,0,0,1,95,169.42a46.26,46.26,0,0,1,5.48-10.25,32.78,32.78,0,0,1,8.23-8.43c2.7-1.79,5.51-2.7,8.23-2.24,3.76.65,6.8,3.86,9.06,8.15a38.1,38.1,0,0,1,3,7.69,22.5,22.5,0,0,1,5.34-2.3,9.36,9.36,0,0,1,6.94.39c2.75,1.47,4.28,4.74,4.92,8.64a33.11,33.11,0,0,1,.16,8.58,35.66,35.66,0,0,1-2,8.66,19,19,0,0,1-1.08,2.43A15.15,15.15,0,0,1,137,197a15.15,15.15,0,0,1-14.27,0,15.31,15.31,0,0,1-3.32-2.42,18.61,18.61,0,0,1-25.8-20.19Z"/><path class="cls-4" d="M46.88,61.15c-.24.47-1,.18-1.35-.17A115.64,115.64,0,0,1,27.17,40.62c-3-4.26-5.75-8.79-7.12-13.81a15.72,15.72,0,0,1,0-9.62c1.16-3.05,4-5.6,7.26-5.67s6.3,2.36,8.5,4.94c4.79,5.59,8,12.39,10.53,19.29s4.63,14,7.53,20.78"/><path class="cls-7" d="M47,61.1c-.24.47-1,.18-1.35-.16A115.39,115.39,0,0,1,27.19,40.66c-1-1.38-1.94-2.79-2.83-4.24-1.45-3.47-2.7-7-2.78-10.7,0-2.23.55-4.79,2.54-5.82,1.8-.94,4-.22,5.78.81,4.31,2.54,7.35,6.78,9.74,11.18,4.69,8.63,7.32,18.16,9.55,27.76Z"/><g class="cls-8"><path class="cls-9" d="M43.82,41.1a73.27,73.27,0,0,0-4.18-9.21c-2.39-4.4-5.43-8.64-9.74-11.18-1.76-1-4-1.75-5.78-.81-2,1-2.59,3.59-2.54,5.82v.05a28.11,28.11,0,0,1,7.12,3.31A80.81,80.81,0,0,1,43.82,41.1Z"/></g><path class="cls-4" d="M77.51,53c.47.25.88-.41,1-.92a114.57,114.57,0,0,0,3.31-27.22c0-5.2-.35-10.49-2.12-15.38a15.62,15.62,0,0,0-5.54-7.86C71.46-.21,67.66-.66,65,1.15s-3.79,5.56-4.11,8.93c-.7,7.33.62,14.72,2.49,21.84S67.59,46,69.11,53.25"/><path class="cls-7" d="M77.51,53c.47.25.88-.41,1-.92a114.57,114.57,0,0,0,3.31-27.22c0-1.7,0-3.4-.14-5.1-.84-3.66-1.84-7.24-3.94-10.33-1.25-1.85-3.22-3.59-5.44-3.28-2,.28-3.41,2.16-4.24,4C66,14.73,66,20,66.59,24.92c1.17,9.75,4.55,19,8.3,28.16Z"/><path class="cls-4" d="M60.73,49.31C51.35,52,31.24,65.75,41.44,90.12s41.44,14.33,45,12.1S106.15,90,100.1,68.43,72,46.12,60.73,49.31Z"/><path class="cls-7" d="M99.47,66.43a7.2,7.2,0,0,0,.78,14.36,6.66,6.66,0,0,0,1-.08,32.1,32.1,0,0,0-1.16-12.28C99.9,67.75,99.69,67.08,99.47,66.43Z"/><path class="cls-7" d="M41.73,82.22a7,7,0,0,0-2.56.49,37.67,37.67,0,0,0,2.27,7.41,27.85,27.85,0,0,0,3.16,5.67,7.09,7.09,0,0,0-2.87-13.57Z"/><path class="cls-2" d="M62.4,104.4l2.7,1.25s2.06,20.64-4.47,38.65H43.25l8.37-26.11,2.25.36s-.93,2.36,1.34,2.66C58.93,121.7,62.29,105.64,62.4,104.4Z"/><circle class="cls-7" cx="23.05" cy="98.03" r="3.53"/><circle class="cls-7" cx="16.54" cy="94.01" r="1.5"/><circle class="cls-7" cx="20.54" cy="91.62" r="1.5"/><circle class="cls-7" cx="16.54" cy="99.04" r="1.5"/><path class="cls-7" d="M82.31,86.85a19.59,19.59,0,0,0-4.48.79A49.74,49.74,0,0,0,71,90.08a23.42,23.42,0,0,0-6,3.64,13.15,13.15,0,0,0-1.67,1.75c3,1.9,7,2.83,12.2,1.25,6.86-2.06,9.8-5.69,10.84-9.49A19,19,0,0,0,82.31,86.85Z"/><path class="cls-10" d="M85.39,75.29s-8.11,4.38-16,2.47l-.25-.09S62,84,55.63,84.59c0,0,2,7.23,7.69,10.88A13.15,13.15,0,0,1,65,93.72a23.42,23.42,0,0,1,6-3.64,49.74,49.74,0,0,1,6.81-2.44,19.59,19.59,0,0,1,4.48-.79,19,19,0,0,1,4,.38C87.61,82.68,86.14,77.89,85.39,75.29Z"/><g class="cls-8"><path class="cls-9" d="M77.85,90.67a38.06,38.06,0,0,1,5.77,1.45,11.46,11.46,0,0,0,2.74-4.89,19,19,0,0,0-4-.38,19.59,19.59,0,0,0-4.48.79A49.74,49.74,0,0,0,71,90.08l-.82.38A27.23,27.23,0,0,1,77.85,90.67Z"/></g><path class="cls-11" d="M76.65,62.88c-.85.39-.44,2.44-.36,3.1A7.79,7.79,0,0,0,78,70.2a.74.74,0,0,0,1.23-.33A7.09,7.09,0,0,0,79,66.19,7.15,7.15,0,0,0,77.35,63a.59.59,0,0,0-.58-.15l-.12.05Z"/><path class="cls-11" d="M54.66,69.83a7.14,7.14,0,0,0,.45,3.53A7.07,7.07,0,0,0,57,76.57a.76.76,0,0,0,1.27-.52c.19-2.17-.88-5.26-2.69-6.58a.6.6,0,0,0-.88.36Z"/><path class="cls-10" d="M98.06,70.2l3.53-1.32a7.45,7.45,0,0,0,3-1.41.83.83,0,0,0-.58-1.4,7.22,7.22,0,0,0-3,1.31l-3.31,1.85c-.52.28-.17,1.19.41,1Z"/><path class="cls-4" d="M62.86,82.22s2.39,7,9.16,5.16,5.41-9.61,5.41-9.61H69.3Z"/><path class="cls-10" d="M86.72,71.76c-4.11,5.22-12.31,6-18.5,5.2-.27,0-.33.43-.06.49l.62.1c-4.41,3.79-10.69,7-16.5,5.45a.54.54,0,0,0-.52.89c2,2.56,6.32.89,8.71-.1a26.91,26.91,0,0,0,9-6.13,28.35,28.35,0,0,0,11.27-.43c2.62-.65,6.73-1.85,7-5.09A.55.55,0,0,0,86.72,71.76Z"/><path class="cls-5" d="M69.42,77.66v0h0Z"/><path class="cls-5" d="M69.43,77.76s0,0,0,0l0,0v0s0,0,0,0,0,0,0,.07Z"/><path class="cls-5" d="M69.65,79.17h0Z"/><path class="cls-5" d="M69.8,80.05h0Z"/><path class="cls-5" d="M69.76,80.21h0Z"/><path class="cls-5" d="M69.65,79.17v0S69.65,79.19,69.65,79.17Z"/><path class="cls-5" d="M69.5,78h0Z"/><polygon class="cls-5" points="69.55 78.8 69.55 78.79 69.54 78.78 69.55 78.8"/><path class="cls-5" d="M69.5,78.5s0,0,0,0,0,0,0,0Z"/><path class="cls-5" d="M69.47,78h0Z"/><path class="cls-5" d="M69.58,79h0Z"/><path class="cls-5" d="M72,87Z"/><polygon class="cls-5" points="72.02 87.38 72.02 87.37 72.02 87.37 72.02 87.38"/><path class="cls-5" d="M69.75,80.5Z"/><path class="cls-5" d="M70.41,83s.08,0,.13,0S70.43,82.92,70.41,83Z"/><path class="cls-5" d="M69.5,78h0Z"/><polygon class="cls-5" points="70.55 82.93 70.55 82.93 70.55 82.92 70.55 82.93"/><path class="cls-5" d="M69.92,81.12h0Z"/><path class="cls-5" d="M69.89,80.63v0Z"/><path class="cls-5" d="M70.06,81.34a0,0,0,0,0,0,0h0S70.05,81.35,70.06,81.34Z"/><polygon class="cls-5" points="70.12 81.59 70.14 81.58 70.13 81.57 70.12 81.59"/><path class="cls-5" d="M71.81,86.27l0,0S71.82,86.31,71.81,86.27Z"/><polygon class="cls-5" points="69.49 77.95 69.5 77.96 69.5 77.95 69.49 77.95"/><path class="cls-5" d="M70.55,81.22v0Z"/><path class="cls-5" d="M71.38,84.48h0Z"/><path class="cls-5" d="M70.59,81.37l0,0h0Z"/><path class="cls-5" d="M71.78,86.29Z"/><path class="cls-5" d="M71.9,86.53s0,0-.05,0,0,0,0,0,0,0-.06-.06h0s0-.09-.07-.12h0l0,0s0,0,0,0h0s0,0,0,0-.06-.06,0-.09,0,.06,0,0v0s0,0,.06,0,0,0,0-.11h-.06c-.06-.07.09-.09,0-.13s-.08,0-.06,0h0s-.08,0-.06-.07,0,0,0,0,0,0,0-.05l0,0s-.06-.1-.09-.16h0a.33.33,0,0,1,0-.26H71.6s0,0,0,0,0,0-.05,0,0,0,0,0-.12-.12-.09-.19h0s-.11,0-.08-.07h0c0-.1-.08-.18,0-.28s0-.1-.1-.07c0-.07.07-.06.09-.15s-.08,0-.1,0h.06l-.07,0,.07,0,0,0,0,0s0-.1.05-.11l-.08-.07a.06.06,0,0,1,.06,0c-.07,0,.06,0,0,0h-.06a.07.07,0,0,0,0-.11h.05a1.67,1.67,0,0,0-.08-.2s-.09,0-.1,0l.06,0s0,0-.07,0,.07,0,.1,0l0,0h.06s.06-.07,0-.07h0c0-.07,0-.09-.07-.15s0,0-.11,0,0-.11,0-.16-.06,0-.1,0,0-.06.09,0a.37.37,0,0,0-.1-.14s0,0-.05,0,0,0,0,0h0c-.11-.06.11-.25,0-.28h0l-.08,0s0,0,.08,0,0-.12-.1-.17c.16-.09-.06-.17,0-.26h0s0,0,0,0,0,0-.05,0,0-.32,0-.47-.22,0-.14-.07h.08c-.12-.08-.06-.22-.17-.31h0s0-.09-.07-.07,0,0,.06,0-.08,0,0-.07h0s0-.07-.07,0,0-.07,0-.11,0-.08-.09-.06c.1,0,.06-.09,0-.1s0,0,.07,0a.08.08,0,0,0-.09,0c.1-.08-.12-.08,0-.15a.84.84,0,0,1-.18-.21c.09,0,0,.08.13.05-.06-.06-.15-.08-.15-.16s0,0,.06,0,0-.15-.1-.2h0s0,0,0,0h0c-.06,0-.14,0-.17,0,.12,0,0-.07.17-.07a.06.06,0,0,0-.06,0s0,0,0,0-.07,0-.08-.06,0,0,0,0-.09,0-.08-.06,0,0,0,0-.13-.07-.11-.15,0,0,.09,0l0,0,0,0S70,80,70,80l0,0,0,0v0s-.09,0-.08,0,0,0,0,0h0s0,0,0-.05l.08,0c-.06,0,0-.07-.09-.08s0,0,0,0h0a.06.06,0,0,1,0,0s-.08,0-.06,0h0c0-.06-.05-.1,0-.15s0,0,.07,0-.11-.12-.11-.19h0c-.08,0,0-.06,0-.08h0s0-.09-.08-.16h0s0-.07,0-.1,0,0-.05,0-.09-.16,0-.26,0,0,0,0l0-.07s0,0,0,0a0,0,0,0,1,0,0s0,0,.05,0h0s0,0,0,0h0s0,0,0-.05,0,0,0,0-.06,0,0-.07a.08.08,0,0,1,0,0s0,0,0-.06h0v0c-.06,0,0-.07-.07-.11s0,0,0,0,0,0,0,0,0,0,0-.06,0,0,0,0,0,0,0,0,0-.11,0-.17a.6.6,0,0,1-.06-.11s0,0,0,0a.14.14,0,0,0,0-.07s0,0,0,0l0,0s0,0,0,0l0-.08,0,0,0-.08h0s0,0,0,0h0s0,.07,0,.1h0l0,0h0s0,0,0,0h0v0h0s0,.07,0,.09h0c0,.06,0,0,0,0l0,0h0v0s0,0,0,0,0,.09,0,.1,0,0,0,0,0,0,0,.07,0,0,0,0,0,.06,0,.08,0,.05,0,.09,0,.08,0,.13h0s0,0,0,.06,0,0,0,0v0s0,0,0,0h0s0,.07,0,.12.08-.05.11,0,0,0,0,0,0,0,0,0l0,0s0,0,0,0h0s0,0,0,0a.11.11,0,0,1,0,.06s0,0,0,0,0,0,0,0,0,0,0,0,0,0,0,0,0,.08.05,0h0s0,.13,0,.19h0s0,.08.06.1a0,0,0,0,1,0,0s0,0,0,.07,0,0,0,0,0,.06,0,.09,0,0,0,0l0,0a.07.07,0,0,1,0,.05h0c-.06.09.14.11,0,.19s0,0,.06,0-.07.09-.07.1.09,0,.08.08.08,0,.11,0-.08.06-.11,0a0,0,0,0,1,0,0s0,0,0,0h0s0,.07,0,.06,0,0,0,0,0,.06,0,.11h0c0,.07,0,0,.07.06s-.08,0-.05,0,0,0-.07,0,0,.08,0,.11l0,0a0,0,0,0,1,0,0l0,0s0,0,0,0,.08,0,.12,0,0,0,0,.06-.06,0-.08,0a0,0,0,0,1,0,0s0,0,0,0,.07,0,.08.06-.06,0,0,0,0,0,.09,0,0,0,0,0v0s0,0,.06,0,0,0,0,0,0,.08,0,.1-.07,0-.08,0,0,.06,0,.09,0,0,.09,0l0-.06.08,0s0,0,0,0,0,0,.07,0,.06,0,0,.09l-.13,0c0,.07.09.07.07.15l0,0s0,0,0,0,0,0-.08,0,0,0,.1,0l-.05,0c0,.06.13,0,.13.08s-.07,0-.12,0,0,0,0,0,.07,0,0,.06.06,0,.06,0,0,0,0,0,0,0,.08,0c-.12.09,0,.14-.06.22a.61.61,0,0,1,.07.1h0c0,.06.13,0,.1.06s0,0-.07,0,0,0,0,.11h0s.07,0,.07.09h0a.31.31,0,0,1,.16.09c-.07,0,0,0-.1,0s.1,0,.12,0a.63.63,0,0,1-.11.08v0c-.08,0,0,0,0,.07h0s.11,0,.12.08h0c.1,0,0,0,0,0l-.09,0a.5.5,0,0,1,.14.08.69.69,0,0,1-.17-.05s0,.07.08.06,0,0,0,0,.12,0,.13.07c-.17,0,0,.12-.14.19.09.06,0,.15,0,.24.13-.07,0,0,.15,0a0,0,0,0,1,0,0l-.07.08s0,0-.07,0,0,0-.08.07.08,0,.06,0l.06,0c.09,0-.1.08,0,.12h0s0,.12.15.12-.05,0-.06,0,.17.13.12.21h0s.07,0,0,0l0,0s.07,0,.05,0h0c0,.09.13.09.17.14a.16.16,0,0,0-.12.13h0c0,.09.12.13.18.19s0,.18,0,.27a.14.14,0,0,1,.09,0s.08,0,0,0h0c-.07,0,0,.07,0,.1l.11,0c-.13.13.12.19,0,.27,0,0,0,0,.07.05H71a.19.19,0,0,0,0,.14h0s.16,0,.18,0l-.08,0c0,.06,0,.14.07.18s0,0,0,0,0,.12.09.08c-.07,0,0,.07,0,.1h0c.07,0,.08,0,.11,0s0,0,0,0,.06,0,0,.06h0s0,0,.06,0,0,.07,0,.08.07,0,.06,0,0,0,0,0,.08.07,0,.12h0s0-.08,0-.08,0,.05-.1,0,.12,0,.12.09h0s0,0,0,0v0s0,0,0,.06,0,0,.06,0,0,0,0,0h0l0,0s0,0,0,0h.07s-.06.1-.09.11.07.12.14.13,0,0,0,0,0,0,0,0,0,.09.08.08,0,0,0,0h0c0,.12.16.14.13.27v0c0,.14.12.26.13.4s0,0,0,0v0l0,0c0,.05,0,.1,0,.16h0l0,.07v0h0l0,.06s0,0,0,.06l0,.06v0s0,0,0,0v0a.09.09,0,0,0,0,0v0s0,0,0,0,0,0,0,0,0,0,0,0h0a.25.25,0,0,1,0-.07S72,87,72,87s0,0,0,0,0-.07,0-.07,0-.09,0-.13h0s0,0,0-.05,0,0-.06,0,0,0,.06,0,0,0,0,0,0,0,0,0,0,0,0,0,0,0,0-.06S71.9,86.53,71.9,86.53Zm-.29-.86h0v0Zm0-.07a0,0,0,0,0,0,0s0,0,0,0S71.58,85.61,71.59,85.6Zm-.23.24a0,0,0,0,1,0,0l0,0h0Z"/><polygon class="cls-5" points="71.42 85.84 71.42 85.85 71.43 85.84 71.42 85.84 71.42 85.84"/><polygon class="cls-5" points="69.65 79.16 69.65 79.16 69.66 79.16 69.65 79.16"/><polygon class="cls-5" points="71.42 84.55 71.41 84.56 71.42 84.56 71.42 84.55"/><path class="cls-5" d="M69.68,78.73h0Z"/><path class="cls-5" d="M69.64,78.55v0Z"/><polygon class="cls-5" points="69.61 78.41 69.6 78.41 69.6 78.41 69.61 78.41"/><path class="cls-5" d="M70.27,80.53h0S70.28,80.54,70.27,80.53Z"/><path class="cls-5" d="M70,79.93h0S70,79.92,70,79.93Z"/><polygon class="cls-5" points="70.55 81.22 70.55 81.22 70.55 81.22 70.55 81.22"/><path class="cls-5" d="M70,80a0,0,0,0,0,0,0S70,80,70,80Z"/><polygon class="cls-5" points="69.46 77.83 69.46 77.82 69.46 77.82 69.46 77.83"/><path class="cls-5" d="M69.46,77.82h0Z"/><path class="cls-5" d="M69.45,77.8h0Z"/><path class="cls-5" d="M69.51,78Z"/><path class="cls-5" d="M69.52,78.06v0h0S69.51,78.05,69.52,78.06Z"/><path class="cls-5" d="M69.5,78.3v0s0,0,0,0S69.49,78.24,69.5,78.3Z"/><path class="cls-5" d="M69.51,78.45s0,0,0,0S69.5,78.47,69.51,78.45Z"/><path class="cls-5" d="M69.69,79.49h0S69.66,79.49,69.69,79.49Z"/><polygon class="cls-5" points="69.94 79.64 69.96 79.61 69.92 79.62 69.94 79.64"/><polygon class="cls-5" points="69.66 79.83 69.66 79.82 69.68 79.85 69.66 79.83"/><path class="cls-5" d="M70.06,81.56l.07,0S70,81.54,70.06,81.56Z"/><path class="cls-5" d="M70.32,82.28s0,0,0,0S70.33,82.28,70.32,82.28Z"/><polygon class="cls-5" points="70.87 84.5 70.84 84.5 70.87 84.52 70.87 84.5"/><path class="cls-7" d="M65.41,73.5s5.59-2.08,5.46-1.67S69,75.41,69,75.41Z"/><path class="cls-11" d="M98.12,74.29c1.65.12,3.31.29,5,.29,1.45,0,3.08.22,4.43-.32a.7.7,0,0,0,0-1.34,11.76,11.76,0,0,0-4.43-.09c-1.66.1-3.31.35-5,.56a.45.45,0,0,0,0,.9Z"/><path class="cls-11" d="M42.91,84.31c-1.76-.89-3.71-.83-5.66-.89-2.11-.06-4,0-5.87,1.1a.53.53,0,0,0,.12,1,13.51,13.51,0,0,0,5.59-.09c2-.28,4-.23,5.82-1,0,0,0,0,0-.07Z"/><path class="cls-11" d="M43.15,89.36c.25-.24.52-.48.8-.71a.07.07,0,0,0-.05-.12c-1.59.13-3,1.16-4.36,2S36.46,91.94,36,93.54a.67.67,0,0,0,.64.83c1.66,0,2.85-1.45,4-2.43.72-.58,1.44-1.14,2.1-1.78.16-.15,1-.74.94-1,0-.42-.35-.06-.58.17,0,0,0,0,0,0Z"/><path class="cls-4" d="M66.23,50.66c-1.61-6.44-10.65-15-17.39-9.84a.88.88,0,0,0,.21,1.58c3,1,6.11,1.81,8.82,3.48s4.67,3.94,7.21,5.66a.79.79,0,0,0,1.15-.88Z"/><path class="cls-4" d="M64,51.07c-4-4.27-12.91-6.28-16.05.08-.37.74.26,2,1.2,1.57a23.21,23.21,0,0,1,6.61-1.82A23.6,23.6,0,0,1,63.39,52a.58.58,0,0,0,.56-1Z"/><path class="cls-5" d="M62.4,104.4h0Z"/><path class="cls-5" d="M62.23,104.32h0l.08,0,0,0,.05,0-.12-.06Z"/><path class="cls-5" d="M59.79,103.11v0S59.79,103.12,59.79,103.11Z"/><path class="cls-5" d="M58.28,102.35a0,0,0,0,0,0,0Z"/><path class="cls-5" d="M58.05,102.16h0A0,0,0,0,0,58.05,102.16Z"/><path class="cls-5" d="M59.79,103.11l0,0S59.77,103.1,59.79,103.11Z"/><path class="cls-5" d="M61.88,104.19h0Z"/><polygon class="cls-5" points="60.47 103.41 60.48 103.42 60.5 103.41 60.47 103.41"/><path class="cls-5" d="M61,103.67s0,0,0,0h0Z"/><path class="cls-5" d="M61.78,104.1h0Z"/><path class="cls-5" d="M60.11,103.22h0Z"/><path class="cls-5" d="M45.55,96.62Z"/><polygon class="cls-5" points="44.97 96.29 44.98 96.3 44.98 96.3 44.97 96.29"/><path class="cls-5" d="M57.61,101.87Z"/><path class="cls-5" d="M53.21,99.82c0,.08-.11,0-.06.13S53.26,99.88,53.21,99.82Z"/><path class="cls-5" d="M61.87,104.18h0Z"/><polygon class="cls-5" points="53.15 99.95 53.15 99.95 53.15 99.96 53.15 99.95"/><path class="cls-5" d="M56.5,101.36v0Z"/><path class="cls-5" d="M57.28,101.83h0Z"/><path class="cls-5" d="M56,101.24s0,0,0,0h0S56,101.22,56,101.24Z"/><polygon class="cls-5" points="55.59 101.03 55.6 101.05 55.61 101.05 55.59 101.03"/><path class="cls-5" d="M46.87,97.32a.08.08,0,0,1,0,0S46.79,97.28,46.87,97.32Z"/><path class="cls-5" d="M61.88,104.18h0Z"/><path class="cls-5" d="M55.81,101.69l-.07,0Z"/><path class="cls-5" d="M50,98.89h0S50,98.9,50,98.89Z"/><path class="cls-5" d="M55.53,101.56s0,0,0-.06h0Z"/><path class="cls-5" d="M46.86,97.28Z"/><path class="cls-5" d="M46.38,97.1c.06,0,0,0,.06,0s0,0,.05.07.1,0,.14,0h0c.07,0,.16.08.23.08h0a.07.07,0,0,1,0,0s.07,0,.07,0,0,0,0,0h0s0,0-.06,0a.85.85,0,0,1,.19.06s-.11,0-.07,0l-.06,0c0,.08,0,0,0,.06s.11,0,.2.1,0,0,0,0,.06.15.18.15.07-.06.13,0l0,0c.09,0,.08,0,.16,0s-.08,0-.07,0,.06,0,.11,0v0c.1,0,.22.06.33.11s0,0,0,0a1.33,1.33,0,0,1,.41.25l.07,0a0,0,0,0,1,0,0c.05,0,0,0,.05,0s0,0,0,0a.55.55,0,0,1,.36.15h0c.06.06.13-.05.18,0h0c.15.1.35.14.44.27.06-.06.14.12.2,0,.07.09,0,.1.15.2s.08,0,.13,0l0,.06.08,0v.09H50a0,0,0,0,1,0,0c.07,0,.13.11.12.14l.17,0s0,0-.07,0,0,.07.09,0,0,0,0,0,.11.1.17.11l0,0c.11.06.25.09.37.15a.06.06,0,0,1,0-.1l0,.08s0,0,0-.07,0,.09,0,.09h.06s0,0,0,0,.06.11.13.06v0c.13.06.19.06.3.11s.06,0,.11-.06a1,1,0,0,0,.22.18c.08,0,0,0,.09-.06s.07.09,0,.11a1.2,1.2,0,0,0,.3.07s0,0,0-.06a0,0,0,0,1,0,.07h0c.19,0,.27.32.45.27h.14c.06,0,0,0,0,.08s.21.11.35.11c0,.2.31.13.38.29v0c.05,0,0,0,.05.06s0,0,0-.07a3.5,3.5,0,0,1,.76.46c.09.06.14-.17.22,0l-.06,0c.23,0,.39.19.62.21,0,0,0,0,0,0s.15.07.17,0,0,0,0,.07.13,0,.13,0h0s.12.06.12,0,.15,0,.19.1.11.09.17,0c-.05.09.09.13.16.11s0,0,0,.08.1,0,.12,0c0,.16.23,0,.22.17a2.94,2.94,0,0,1,.48.09c0,.09-.15-.06-.19,0,.15,0,.26,0,.38.06s0,0,0,0,.25.12.39.12h0s0,0,.06,0h0c0-.07.14-.07.16-.1s.1.08,0,.19a.05.05,0,0,0,0,0s0,0,0,.06.08,0,.15,0,0,0,0,0a.14.14,0,0,1,.16,0s0,0,0,0,.22,0,.33.08c-.07.06,0,0,0,.11H58v0s.12,0,.16,0h0l.11,0,0,0c.07,0,0-.09.1,0s0,0,.07.07h0s.07,0,.1,0,0,.06,0,.08.13,0,.19,0l0,0,0,0s0,0,0,.06,0-.09.09,0h0c.09.06.19.06.27.12s-.08,0-.07,0a2.62,2.62,0,0,1,.4.11h0c.05-.07.07.07.15.07s0,0,0,0a.89.89,0,0,0,.31.09h0a1,1,0,0,0,.17.1s0,0,0,0c.12.16.33.1.44.23s0,0,0,0l.13,0s0,0,0,0a.15.15,0,0,1,.09,0c-.06,0,0,0,0,.06l0,0c0,.07,0,0,.1,0h0a.22.22,0,0,1,.11,0s0,0-.05,0,.11,0,.15,0l-.08,0s0,0,.08.06h0l.08.05v0c.08,0,.13.05.22.05-.09,0,0,0,0,0s0,0,0,0,.06,0,.13,0,0,0,0,0,0,0,0,0,.17.1.3.12.13,0,.22.07,0,0,0,0a.52.52,0,0,0,.13.06s0,0,0,0,0,0,.08,0h0l.13,0h0l.15.06,0,0s0,0,0,0-.06,0-.06,0l0,0a1,1,0,0,0-.2-.09h0l-.08,0s0,0,0,0,0,0-.08,0h0l0,0s0,0,0,0-.14,0-.16-.08h0c-.12-.05,0,0-.11,0l0-.06h0s0,0,0,0,0,0,0,0-.16-.06-.16-.1.05,0,0,0-.07,0-.11-.07.07,0,0,0-.09-.06-.14-.08-.1,0-.17-.05-.13-.09-.19-.13h0s-.09,0-.15,0,0,0,.06,0l-.05,0s0,0-.06,0l0,0a.74.74,0,0,1-.21-.09s0,.11-.07.09,0,0,0,0h0s0,0-.06,0,0,0,0,0,0,0,0,0-.07,0-.07-.08,0,0,0,0,0,0,0-.06-.06,0-.07,0,0,0,0,0-.15-.07-.14,0h0c-.13,0-.22-.12-.33-.16h0a.58.58,0,0,0-.21,0s0,0,0-.06a.16.16,0,0,1-.13-.06c.06,0,0,0,.06,0s-.06-.08-.15-.07,0-.07-.06-.07l0,0-.09,0,0,0c-.1-.13-.28,0-.33-.16,0,0,.06.06,0,.08s-.08-.14-.1-.15-.11,0-.19,0a.06.06,0,0,1-.08.07c-.06,0,0-.12,0-.11s0,0,0,0,.05,0,0,0l0,0s-.1-.07-.06-.1,0,0,0,.05-.12-.06-.19-.12,0,0,0,0-.07,0-.15,0,.05-.07,0-.08,0-.06,0-.07-.12-.09-.16-.12h0l-.06,0v0s0,0,0,0,0,.08-.08.1-.1,0-.08-.08,0-.06.09,0l0,0h0c-.07-.1-.07,0-.17,0s0-.07,0-.07,0,.06,0,.07-.07,0-.1,0l0,0s-.06,0-.1,0,0,0,0,0-.07-.11-.15-.1,0-.06,0-.09-.06-.08-.15-.08,0,0-.07.06l.14,0-.11,0s.09,0,.11,0,0,0,0,0-.12,0-.16-.08l.06-.11c-.07-.1-.19,0-.29-.1l0,0s-.08,0-.12,0,0-.07,0-.1-.08,0-.13,0l0-.07c-.08-.07-.16.06-.24,0s0-.07.09-.08,0,0-.06,0-.11,0-.12,0,0,0-.08,0a0,0,0,0,1,0,0s-.06,0,0,.06c0-.17-.26-.11-.29-.25l-.22-.07s0,0,0,0-.11.09-.18,0,.07,0,.05,0-.12,0-.15-.15h0c0-.07-.14,0-.21,0a0,0,0,0,0,0,0,.45.45,0,0,1-.28,0c.05,0,0,0,.06-.08s0,.1-.11.08a.24.24,0,0,1,0-.15l.06,0c0-.1-.08,0-.11-.07l0,0c-.1,0-.14,0-.24,0v0c-.1,0,0-.07-.12,0l0-.09a1,1,0,0,1-.25,0,.64.64,0,0,1,.23-.05s-.13-.06-.17,0,.05,0,.06,0a.21.21,0,0,1-.23,0c.09-.16-.17-.13-.17-.29-.16,0-.25-.14-.4-.2,0,.15,0,0-.1.12,0,0-.05,0-.05,0l-.08-.13s0,0,.06,0,0-.08,0-.13-.06,0-.09,0l0,.09c-.14,0,0-.15-.19-.13l.06,0c-.07,0-.21-.09-.32,0s0-.06,0,0-.35,0-.42-.14l0,0s-.07,0-.09,0,0,0,0,0-.1,0-.12,0l0,0c-.11-.1-.24,0-.36,0,0-.09-.05-.17-.09-.2v0c-.14-.08-.29,0-.45-.07s-.28-.17-.4-.29c0,0,0,.07-.07.06s-.12,0-.07,0h0c0-.08-.07-.09-.12-.12l-.06.1c-.07-.21-.39-.12-.41-.28,0,0-.09,0-.13,0l0-.05a1,1,0,0,0-.25-.12l0,0c-.07,0-.15.1-.21.08v-.08c-.11-.05-.2-.16-.34-.15a0,0,0,0,1,0,0c-.06,0-.19-.14-.21,0,0-.07-.12-.06-.19-.06l0,0c-.08,0-.09.05-.17,0s0,0,0,0-.07,0-.13,0l0,0s-.06,0-.1,0-.11-.06-.1-.1a.08.08,0,0,1-.1,0s0,0,0,0-.17,0-.22-.09v0l.13.06s0-.07,0-.1-.18,0-.23,0v0h0s0,0,0,0-.07-.05-.1-.06,0,0,0,.06,0,0,0,0h0l.08,0a.07.07,0,0,1-.09,0l-.07,0c0-.07-.09-.13-.09-.16s-.24-.09-.33-.05,0,0,0,0h0c-.06,0-.16-.07-.19,0s0,0-.05-.06h0c-.16-.13-.35,0-.52-.2l0,0c-.23-.12-.5-.19-.72-.32a.24.24,0,0,0-.12,0v0h-.08a2,2,0,0,0-.29-.14h0l-.14-.06h0l-.11,0c-.09,0,0,0-.11,0l-.12,0,.05,0,0,0,.06,0,.07,0h0l-.06,0,.08,0,0,0,.07,0s0,0,0,0,0,0,0,0l.06,0h0l.11.05s.12.06.11.08l.1,0c-.07,0,.12.07.09.09a1.43,1.43,0,0,1,.25.1h0l.08.06s.09,0,.13,0-.05,0,0,0,.1,0,.09,0,0,0,0,.06,0,0,.09,0,0,0,.07.07S46.38,97.1,46.38,97.1Zm1.58.71h0l0,0Zm.13.06-.06,0s0,0,0,0S48.07,97.85,48.09,97.87Zm-.16-.39s0,0,0,0h0Z"/><path class="cls-5" d="M47.87,97.51h0Z"/><polygon class="cls-5" points="59.8 103.13 59.8 103.13 59.81 103.14 59.8 103.13"/><polygon class="cls-5" points="49.85 98.85 49.86 98.83 49.84 98.84 49.85 98.85"/><path class="cls-5" d="M60.48,103.57h0Z"/><path class="cls-5" d="M60.8,103.71l0,0Z"/><path class="cls-5" d="M61,103.83h0Z"/><path class="cls-5" d="M57.13,102.19h0S57.11,102.2,57.13,102.19Z"/><path class="cls-5" d="M58.34,102.59h-.05S58.32,102.62,58.34,102.59Z"/><polygon class="cls-5" points="55.81 101.69 55.82 101.69 55.81 101.69 55.81 101.69"/><path class="cls-5" d="M58.24,102.57a.05.05,0,0,0,0,0S58.26,102.57,58.24,102.57Z"/><polygon class="cls-5" points="62.1 104.28 62.11 104.28 62.12 104.28 62.1 104.28"/><path class="cls-5" d="M62.12,104.28h0Z"/><path class="cls-5" d="M62.16,104.3h0Z"/><path class="cls-5" d="M61.78,104.14h0Z"/><path class="cls-5" d="M61.68,104.1l.09.05h0Z"/><path class="cls-5" d="M61.3,103.85l.08.05s0,0,0,0S61.41,103.91,61.3,103.85Z"/><path class="cls-5" d="M61.06,103.72s0,0,0,0S61,103.69,61.06,103.72Z"/><path class="cls-5" d="M59.25,102.83l0,0S59.27,102.81,59.25,102.83Z"/><polygon class="cls-5" points="58.82 102.86 58.84 102.89 58.87 102.87 58.82 102.86"/><polygon class="cls-5" points="58.74 102.48 58.76 102.48 58.7 102.47 58.74 102.48"/><path class="cls-5" d="M55.7,101l0,.08S55.74,101,55.7,101Z"/><path class="cls-5" d="M54.35,100.46s0-.08-.07-.06S54.33,100.46,54.35,100.46Z"/><polygon class="cls-5" points="50.42 98.54 50.45 98.53 50.4 98.53 50.42 98.54"/><path class="cls-12" d="M43.8,135.43c-5.15-1.45-10-1.46-13.8.82-7.82,4.69-9.22,18-7.34,30.29a118.86,118.86,0,0,1,19.05-28.85C42.39,136.93,43.09,136.18,43.8,135.43Z"/><path class="cls-12" d="M65,194.53A26.34,26.34,0,0,0,77.69,169.7c-8,7.59-13.94,17.34-18.93,27.56A26.43,26.43,0,0,0,65,194.53Z"/><path class="cls-12" d="M58.79,143a87.67,87.67,0,0,0-8.69,9.08c-8.33,10.08-14.46,21.84-19.22,34-.2.51-.4,1-.59,1.55A26.21,26.21,0,0,0,43.17,197a112.57,112.57,0,0,1,28.14-42.41A63.26,63.26,0,0,0,58.79,143Z"/><path class="cls-2" d="M71.31,154.54A112.57,112.57,0,0,0,43.17,197a26.37,26.37,0,0,0,15.59.31c5-10.22,10.94-20,18.93-27.56A26.22,26.22,0,0,0,74,158.39,36,36,0,0,0,71.31,154.54Z"/><path class="cls-2" d="M50.1,152.07A87.67,87.67,0,0,1,58.79,143a51.23,51.23,0,0,0-15-7.56c-.71.75-1.41,1.5-2.09,2.26a118.86,118.86,0,0,0-19,28.85c1.12,7.33,3.41,14.32,6.2,19,.45.74.92,1.45,1.43,2.13.19-.52.39-1,.59-1.55C35.64,173.91,41.77,162.15,50.1,152.07Z"/><g class="cls-8"><path class="cls-13" d="M26.11,139.94c-4.35,6.19-5,16.7-3.45,26.6,1.12,7.33,3.41,14.32,6.2,19,.45.74.92,1.45,1.43,2.13A26.29,26.29,0,0,0,65,194.53c.62-.37,1.21-.76,1.79-1.17a76.59,76.59,0,0,1-11.89-8.08C40.75,173.74,29.6,157.68,26.11,139.94Z"/></g><path class="cls-14" d="M43.56,138.38c4.82,3.92,9.3,8.24,13.74,12.56,1.46,1.41,4-.86,2.64-2.43a37.75,37.75,0,0,0-15.8-11c-.55-.2-1.07.49-.58.89Z"/><path class="cls-14" d="M61.42,154.58a4.11,4.11,0,0,0,0,1.4c0,.22,0,.45,0,.66a3.05,3.05,0,0,0,.62,1.37,1.8,1.8,0,0,0,2.09.64,1.88,1.88,0,0,0,1.16-1.83A2.76,2.76,0,0,0,64,154.54a2.46,2.46,0,0,0-1.9-.59.81.81,0,0,0-.69.63Z"/><path class="cls-15" d="M98.63,140.12c4,.81,6,5.91,10,6.61,2.27.39,4.62-.77,6.85-.24a6.34,6.34,0,0,1,2.2,1.07c-1.55-4.31-4-7.73-7.45-9.5-4.82-2.45-11-1.39-17.18,1.57a6.82,6.82,0,0,0,1.74.36A31.15,31.15,0,0,1,98.63,140.12Z"/><path class="cls-16" d="M86.63,148.64a4.3,4.3,0,0,1,1.35,2c.79,1.74,1.8,3.54,3.53,4.36,3.1,1.45,6.83-.94,10.13,0,4.17,1.15,6.14,7.08,10.46,7.16,2,0,4.14-1.25,5.85-.23a7.57,7.57,0,0,1,1.9,2.25,46.61,46.61,0,0,0-2.2-16.54,6.34,6.34,0,0,0-2.2-1.07c-2.23-.53-4.58.63-6.85.24-4-.7-6-5.8-10-6.61a31.15,31.15,0,0,0-3.87-.13,6.82,6.82,0,0,1-1.74-.36,57.62,57.62,0,0,0-12.39,8.3,6.36,6.36,0,0,0,2.47.45C84.3,148.34,85.62,148,86.63,148.64Z"/><path class="cls-17" d="M71.7,159.93c2.34.51,4.79-1.07,7.09-.41,3,.86,3.84,4.86,6.39,6.68s6.25,1,9.39.21c1.58-.39,3.33-.69,4.77.07,3,1.59,3.07,6.93,6.42,7.44,1.33.2,2.6-.54,3.85-1s2.88-.7,3.77.31a5.6,5.6,0,0,1,.84,2.65,7.74,7.74,0,0,0,3.17,4.53,66.16,66.16,0,0,0,2.46-16.27,7.57,7.57,0,0,0-1.9-2.25c-1.71-1-3.85.27-5.85.23-4.32-.08-6.29-6-10.46-7.16-3.3-.91-7,1.48-10.13,0-1.73-.82-2.74-2.62-3.53-4.36a4.3,4.3,0,0,0-1.35-2c-1-.65-2.33-.3-3.53-.26a6.36,6.36,0,0,1-2.47-.45,62.12,62.12,0,0,0-10.4,11.37A4.1,4.1,0,0,0,71.7,159.93Z"/><path class="cls-18" d="M109.55,188c-2.39-2-6.08.47-9-.41-3.8-1.12-4.32-6.73-7.79-8.64-4-2.19-9.34,1.7-13.34-.45-2.25-1.21-3.32-4-5.58-5.16-1.57-.81-3.45-.71-5.12-1.28a7.09,7.09,0,0,1-3.14-2.18,26.1,26.1,0,0,0-.35,8.53c2,1.6,2.19,4.95,4.28,6.54,3.69,2.82,9.81-1.95,13.4,1,2.52,2.06,1.76,6.51,4.26,8.61,3.39,2.85,8.82-1.32,12.88.45a6.49,6.49,0,0,1,3.24,3.72,26.41,26.41,0,0,0,8.08-6.34C111,190.71,110.8,189,109.55,188Z"/><path class="cls-19" d="M68.67,172c1.67.57,3.55.47,5.12,1.28,2.26,1.17,3.33,3.95,5.58,5.16,4,2.15,9.36-1.74,13.34.45,3.47,1.91,4,7.52,7.79,8.64,3,.88,6.66-1.57,9,.41,1.25,1,1.44,2.75,1.77,4.38a26.85,26.85,0,0,0,3.49-5.22,38.56,38.56,0,0,0,2.58-6.75,7.74,7.74,0,0,1-3.17-4.53,5.6,5.6,0,0,0-.84-2.65c-.89-1-2.52-.81-3.77-.31s-2.52,1.24-3.85,1c-3.35-.51-3.43-5.85-6.42-7.44-1.44-.76-3.19-.46-4.77-.07-3.14.76-6.76,1.68-9.39-.21s-3.37-5.82-6.39-6.68c-2.3-.66-4.75.92-7.09.41a4.1,4.1,0,0,1-1.47-.63,34.22,34.22,0,0,0-2.38,3.95,26.44,26.44,0,0,0-2.32,6.59A7.09,7.09,0,0,0,68.67,172Z"/><path class="cls-20" d="M100,195c-4.06-1.77-9.49,2.4-12.88-.45-2.5-2.1-1.74-6.55-4.26-8.61-3.59-2.94-9.71,1.83-13.4-1-2.09-1.59-2.26-4.94-4.28-6.54a26.34,26.34,0,0,0,38.06,20.31A6.49,6.49,0,0,0,100,195Z"/><path class="cls-21" d="M111.64,145a38.45,38.45,0,0,1,1.54,8.58c.15,2.6-.21,5.2.34,7.76.33,1.55,2.61,1.42,3,0,1.51-5.34-1.38-12.1-3.76-16.82-.32-.63-1.32-.19-1.13.48Z"/><g class="cls-22"><path class="cls-15" d="M115.45,167.27a.78.78,0,0,0,0-1.56.78.78,0,0,0,0,1.56Z"/></g><g class="cls-22"><path class="cls-15" d="M115.93,169.21a.33.33,0,0,0,0-.66.33.33,0,0,0,0,.66Z"/></g><g class="cls-8"><path class="cls-23" d="M112.59,182.34c-4.93,2.8-10.63,4.52-16.27,3.89a25.51,25.51,0,0,1-12.17-5.08,46.8,46.8,0,0,1-9.25-9.55A34.67,34.67,0,0,1,70,163.34a22.08,22.08,0,0,1-.78-2.51c-.52.82-1,1.63-1.38,2.42a26.44,26.44,0,0,0-2.32,6.59,26.34,26.34,0,0,0,37.71,28.84,26.41,26.41,0,0,0,8.08-6.34,26.85,26.85,0,0,0,3.49-5.22,38.56,38.56,0,0,0,2.58-6.75c.14-.48.28-1,.41-1.49A47.54,47.54,0,0,1,112.59,182.34Z"/></g><path class="cls-5" d="M90.91,99.19s0,0,0,0h0Z"/><path class="cls-5" d="M90.77,99.31l0,0,.05-.06,0,0,0,0-.1.08Z"/><path class="cls-5" d="M88.68,100.82h0Z"/><path class="cls-5" d="M87.29,101.61s0,0,0,0A0,0,0,0,0,87.29,101.61Z"/><path class="cls-5" d="M87,101.69h0Z"/><path class="cls-5" d="M88.68,100.82h-.05S88.66,100.83,88.68,100.82Z"/><path class="cls-5" d="M90.51,99.55h0Z"/><polygon class="cls-5" points="89.25 100.4 89.26 100.4 89.26 100.38 89.25 100.4"/><path class="cls-5" d="M89.69,100.1s0,0,0,0,0,0,0,0Z"/><path class="cls-5" d="M90.39,99.6h0Z"/><path class="cls-5" d="M88.92,100.61h0Z"/><path class="cls-5" d="M74.8,105.69Z"/><polygon class="cls-5" points="74.17 105.69 74.18 105.69 74.18 105.69 74.17 105.69"/><path class="cls-5" d="M86.55,101.86h0S86.55,101.85,86.55,101.86Z"/><path class="cls-5" d="M82.38,103.67c.06,0-.06.1,0,.14S82.45,103.69,82.38,103.67Z"/><path class="cls-5" d="M90.5,99.56v0Z"/><polygon class="cls-5" points="82.42 103.81 82.42 103.81 82.43 103.81 82.42 103.81"/><path class="cls-5" d="M85.54,102.38a0,0,0,0,0,0,0S85.55,102.39,85.54,102.38Z"/><path class="cls-5" d="M86.34,102.09h0Z"/><path class="cls-5" d="M85.17,102.65s0,0,0,0h0Z"/><polygon class="cls-5" points="84.75 102.83 84.76 102.84 84.77 102.83 84.75 102.83"/><path class="cls-5" d="M76.21,105.59l0,0S76.13,105.6,76.21,105.59Z"/><path class="cls-5" d="M90.51,99.55a0,0,0,0,1,0,0Z"/><path class="cls-5" d="M85.36,103.11l-.07,0Z"/><path class="cls-5" d="M79.52,105h0Z"/><path class="cls-5" d="M85.09,103.24l0,0v0Z"/><path class="cls-5" d="M76.19,105.56Z"/><path class="cls-5" d="M75.71,105.67c.07,0,0,0,0-.06s0,0,.08,0,.08-.05.12-.05,0,0,0,0,.16,0,.22-.07h0l0,0s.06,0,.07,0,0,0,0,0h0s0,0,0,0,.13-.06.18,0-.11,0,0,0h-.08c.07.06,0,0,0,.06s.11,0,.22,0,0,0,0,0,.13.09.23,0,0-.09.1-.07l0,0c.1,0,0-.08.15-.06s-.07,0,0,0,0,0,.09,0l0,0c.1,0,.21-.08.32-.1s0,0,0,0a1.36,1.36,0,0,1,.45,0l0-.06a0,0,0,0,1,0,0c.06,0,0,0,0,0s.05,0,0,0a.58.58,0,0,1,.36-.1v0c.08,0,.06-.12.14-.09v0c.18,0,.35-.1.5,0,0-.09.17,0,.16-.12.11,0,.08.06.23.07s0-.08.08-.1v.06l0-.08,0,.07,0,0s-.05,0-.05,0a.16.16,0,0,1,.18,0l.14-.08s0,0,0,.06,0,.06.09,0,0,0,0-.05a.24.24,0,0,0,.2,0v0a3.79,3.79,0,0,0,.36-.12s-.06-.08,0-.1l0,.06s-.05,0,0-.08.06.07,0,.1l0,0s0,0,0,.06.12,0,.13,0v0a2.91,2.91,0,0,0,.28-.1c0-.06,0-.06,0-.12a.82.82,0,0,0,.27,0c.06,0,0-.06,0-.11s.11,0,.08.08a.74.74,0,0,0,.26-.14s0,0,0,0,.06,0,.07,0h0c.13-.14.41.05.5-.11h0l.11-.11c.06,0,0,.06,0,.08.11-.14.23-.06.32-.16.15.15.3-.11.46,0l0,0s0,0,.07,0,0,0,0,0a3.16,3.16,0,0,1,.83-.21c.1,0,0-.22.13-.17v.08c.16-.15.39-.16.55-.31,0,0,0,0,0,0s.15-.06.13-.11,0,0,0,0,.07-.11.11-.07,0,0,0,0,.12,0,.07-.09.12-.09.19-.08.13,0,.1-.12c0,.1.16,0,.18,0s.05,0,.05.06.09-.06.06-.11c.14.07.14-.17.25-.06a3.16,3.16,0,0,1,.36-.31c0,.09-.14.08-.09.17.11-.1.14-.21.27-.26s0,0,0,.07.24-.12.33-.22,0,0,0,0,0,0,0,0l0,0c-.06,0,0-.15,0-.18,0,.12.12,0,.13.13a.06.06,0,0,0,0-.06s0,0,0,0,0-.08.09-.12,0,0,0,.06,0-.11.1-.12,0,0,0,0,.12-.19.24-.22,0,0,.09,0l0,0h0s.07-.11.12-.11l0,0,.09-.07h-.07c0-.07,0-.08,0-.1s0,0,.09,0h0s0-.07.08-.08,0,.07,0,.08.11-.09.11-.15,0,0,0,0v0s0,0,0,0-.07,0,0-.07,0,0,0,0,.14-.12.23-.15-.06.06,0,.08a3.73,3.73,0,0,1,.3-.26h0c0-.08.1,0,.13-.09s0,0,0,0a1.36,1.36,0,0,0,.22-.21v0s.11-.07.16-.09,0,0,0,0c.19,0,.23-.23.4-.25l0,0,.1-.08s0,0-.06,0a.19.19,0,0,1,.06-.07s0,0,0,0,0,0,0,0,0,0,.07-.07h0s0,0,.07-.07,0,0,0,.05.06-.1.11-.11l-.05.06a.19.19,0,0,0,.09,0h0l.08-.05h0c0-.09.09-.1.13-.18,0,.08,0,0,0,.05l.05,0s.06,0,.09-.09,0,0,0,0,0,0,0,0,.16-.11.23-.21.07-.1.14-.16,0,0,0,0a1.06,1.06,0,0,0,.11-.09h0s0,0,0-.06,0,0,0,0l.1-.1,0,0,.11-.1,0,0h0s-.05,0-.05,0l0,0a1.35,1.35,0,0,0-.15.13v0l-.05,0s0,0,0,0l-.07,0h0l0,0s0,0,0,0-.1.1-.13.11h0c-.09.08,0,0-.06.09h-.07v0h0s0,0,0,0-.12.1-.15.09,0,0,0,0,0,0-.11.07,0,0,0,0-.09,0-.12.09-.07.07-.13.12-.13.07-.19.09h0s-.06.07-.1.11a0,0,0,0,1,0-.06l0,0s0,0,0,0v0c-.06,0-.1.1-.18.13s.11,0,0,.1,0,0,0-.05l0,0v0s0,0,0,0,0,0,0,0l0,0s-.08,0-.1,0,0,0,0,0,0,0-.08,0,0,0,0,.06,0,0,0,0-.13.09-.07.1h0c-.07.1-.21.11-.29.19h0c0,.05-.11.09-.14.14s-.05,0-.05,0,0,.06-.11.07,0,0,0,0-.09,0-.13.08-.07,0-.09,0H88l-.09,0v0c-.16,0-.15.22-.3.17s.07,0,.07,0-.16,0-.17,0,0,.12-.12.14a.07.07,0,0,1,0,.11s-.11,0-.08-.08h0s0,0,0,0v0s-.11,0-.11,0,0,0,0,0-.11.06-.19.08,0,0,0,0,0,.07-.09.12,0-.09-.09,0,0,0,0-.07-.13,0-.17.05l0,0s0,0,0,0l0,0a0,0,0,0,1,0,0s.06.06,0,.12-.07.06-.11,0,0,0,0-.1,0,0,0,0a0,0,0,0,1,0,0c-.11,0,0,.08-.09.12s0,0-.06,0,0,0,0,.09,0,0-.08.06h0s0,0-.06.08,0,0,0,0-.13,0-.17.06,0-.07-.07-.07-.09,0-.14.06,0,0,0,.09l.1-.09,0,.11s.06-.07.08-.07,0,0,0,.07-.07.08-.15.07l-.06-.12c-.11,0-.12.13-.24.16h0s-.07,0-.09.07,0,0-.07-.06-.08,0,0,.12l-.08,0c-.09,0,0,.17-.13.19s0-.07,0-.12-.06,0,0,0-.06.09-.1.06,0,.07,0,.08a0,0,0,0,1,0,0s0,0,0,.08c-.15-.09-.24.12-.37,0a1.25,1.25,0,0,1-.18.11s0,0,0,0,0,.14-.1.14,0-.06,0-.07-.1.06-.19,0v0c-.07,0-.09.1-.17.13s0,0,0,0a.34.34,0,0,1-.17.2c0-.06,0,0,0-.09s0,.09,0,.13-.09,0-.12-.09l.06,0c-.06-.06-.08,0-.12,0v0c-.09,0,0,.13-.16.16l0,0c0,.1-.06,0-.09,0l0-.08a1.2,1.2,0,0,1-.16.17c0-.08.08-.14.11-.19s-.12,0-.12.1,0,0,0,0a.21.21,0,0,1-.14.16c0-.17-.2,0-.31-.08-.1.11-.26.07-.4.13.1.12,0,0,0,.15l0,0-.14,0s0,0,0-.07-.05,0-.11-.07,0,.08-.06.08l.09,0c-.09.11-.14-.08-.22,0l0-.06c-.05,0-.2.07-.22.2s0,0,0-.07c-.14,0-.26.22-.39.19v0s0,.08-.06.05,0,0,0,0,0,.08-.09.07l0,0c-.15,0-.18.15-.28.2s-.14-.1-.2-.1h0c-.15,0-.24.16-.37.23s-.31,0-.46,0c0,0,0,.07,0,.09s-.08.08-.09,0h0c0-.08-.11,0-.16,0l0,.11c-.18-.11-.36.16-.47,0,0,0-.07,0-.1.08v0a.65.65,0,0,0-.25.06v0c-.07,0,0,.18-.11.2l0-.08c-.12,0-.25,0-.35.09a0,0,0,0,1,0,0c-.06,0-.22,0-.18.1,0-.07-.12,0-.18.06v0c0,.07,0,.09-.1.12s0,0,0,0,0,0-.11,0l0,0c-.06,0-.06,0-.08.06s-.12,0-.13,0,0,.06-.07.06a0,0,0,0,1,0,0c-.11,0-.14.08-.22,0a0,0,0,0,0,0,0l.14,0s-.07,0,0-.09-.12.12-.19.12v0h-.08s-.08,0-.11,0,0,0,0,.06h0l.08,0s0,0-.09,0a.24.24,0,0,1,0,.07c-.06,0-.15,0-.16-.08s-.23.06-.28.14,0,0,0,0l0,0s-.16,0-.17.08,0-.05-.06,0v0c-.2,0-.3.15-.52.11h0c-.25,0-.5.1-.74.1a.28.28,0,0,0-.12,0l0,0-.06,0a1.89,1.89,0,0,0-.31,0h0l-.14,0h0l-.12,0c-.09,0,0,0-.11,0l-.12,0h.3s0,0,0,0,0,0,0,0h.17s.12,0,.12,0l.1,0c-.06,0,.13,0,.11,0a1.45,1.45,0,0,1,.25,0h.07s.08,0,.12-.06,0,0,0,.06.09,0,.07,0,0,0,.06,0,0,0,.08,0,0,0,.09,0S75.71,105.67,75.71,105.67Zm1.63-.29h0Zm.13,0h-.06s0,0,0,0Zm-.34-.23s0,0,0,0h0Z"/><path class="cls-5" d="M77.11,105.19h0Z"/><polygon class="cls-5" points="88.7 100.81 88.69 100.81 88.7 100.81 88.7 100.81"/><polygon class="cls-5" points="79.38 105.1 79.37 105.09 79.36 105.1 79.38 105.1"/><path class="cls-5" d="M89.39,100.47h0Z"/><path class="cls-5" d="M89.66,100.28l0,0Z"/><path class="cls-5" d="M89.86,100.13h0Z"/><path class="cls-5" d="M86.54,102.42h0Z"/><path class="cls-5" d="M87.51,101.71a.08.08,0,0,1,0,0S87.53,101.74,87.51,101.71Z"/><polygon class="cls-5" points="85.37 103.11 85.37 103.11 85.36 103.11 85.37 103.11"/><path class="cls-5" d="M87.45,101.78s0,0,0,0S87.46,101.76,87.45,101.78Z"/><polygon class="cls-5" points="90.68 99.4 90.69 99.39 90.69 99.39 90.68 99.4"/><path class="cls-5" d="M90.69,99.39h0Z"/><path class="cls-5" d="M90.72,99.36l0,0A0,0,0,0,0,90.72,99.36Z"/><path class="cls-5" d="M90.43,99.62h0Z"/><path class="cls-5" d="M90.35,99.69a.21.21,0,0,0,.08-.06h0Z"/><path class="cls-5" d="M90,99.91l.07,0s0,0,0,0S90.07,99.84,90,99.91Z"/><path class="cls-5" d="M89.77,100.06s0,0,0,0S89.73,100.07,89.77,100.06Z"/><path class="cls-5" d="M88.18,101.11v0S88.17,101.09,88.18,101.11Z"/><polygon class="cls-5" points="87.98 101.48 88.03 101.48 88.02 101.44 87.98 101.48"/><polygon class="cls-5" points="87.64 101.32 87.65 101.31 87.6 101.35 87.64 101.32"/><path class="cls-5" d="M84.8,102.75l0,.06S84.83,102.71,84.8,102.75Z"/><path class="cls-5" d="M83.56,103.34s-.07,0-.08,0S83.55,103.36,83.56,103.34Z"/><polygon class="cls-5" points="79.61 104.51 79.63 104.48 79.58 104.51 79.61 104.51"/><path class="cls-5" d="M78.53,120.93h0Z"/><path class="cls-5" d="M78.5,120.89s0,0,0,0,0,0,0,0h0s0,0,0,0l0,0Z"/><path class="cls-5" d="M78.21,120.26h0Z"/><path class="cls-5" d="M78,119.86s0,0,0,0Z"/><path class="cls-5" d="M78.06,119.76h0S78.07,119.76,78.06,119.76Z"/><path class="cls-5" d="M78.21,120.26v0A0,0,0,0,0,78.21,120.26Z"/><polygon class="cls-5" points="78.43 120.83 78.44 120.83 78.43 120.82 78.43 120.83"/><polygon class="cls-5" points="78.32 120.42 78.32 120.42 78.33 120.42 78.32 120.42"/><path class="cls-5" d="M78.38,120.55h0Z"/><path class="cls-5" d="M78.45,120.78Z"/><path class="cls-5" d="M78.28,120.32h0Z"/><path class="cls-5" d="M76.1,116.89h0Z"/><polygon class="cls-5" points="76.06 116.72 76.06 116.72 76.06 116.72 76.06 116.72"/><path class="cls-5" d="M78.07,119.6h0S78.07,119.6,78.07,119.6Z"/><path class="cls-5" d="M77.45,118.54s-.08,0-.12.07S77.43,118.58,77.45,118.54Z"/><path class="cls-5" d="M78.43,120.82Z"/><polygon class="cls-5" points="77.33 118.61 77.33 118.61 77.32 118.62 77.33 118.61"/><path class="cls-5" d="M77.9,119.34l0,0Z"/><path class="cls-5" d="M77.94,119.59h0Z"/><path class="cls-5" d="M77.77,119.28s0,0,0,0Z"/><polygon class="cls-5" points="77.71 119.17 77.7 119.18 77.71 119.18 77.71 119.17"/><path class="cls-5" d="M76.23,117.25l0,0S76.22,117.23,76.23,117.25Z"/><polygon class="cls-5" points="78.44 120.82 78.43 120.82 78.43 120.82 78.44 120.82"/><path class="cls-5" d="M77.34,119.53v0A0,0,0,0,0,77.34,119.53Z"/><path class="cls-5" d="M76.59,118.07h0S76.58,118.08,76.59,118.07Z"/><path class="cls-5" d="M77.3,119.47l0,0h0Z"/><path class="cls-5" d="M76.25,117.23Z"/><path class="cls-5" d="M76.16,117.13s0,0,0,0,0,0,0,0,0,0,0,0h0s0,0,.06,0h0l0,0s0,0,0,0,0,0,0,0h0s0,0,0,0,0,0,0,0,0,0,0,0v0s0,0,0,0,0,0,0,0l.05,0s-.08.08,0,.08.08,0,.06,0l0,0s.07,0,0,0,0,0,0,0,0,0,0,0l0,0s.06,0,.08.06l0,0s0,.08,0,.14h0s0,0,0,0l0,0s.11,0,.07.08h0s.1,0,.07,0h0s.06.07,0,.15,0,.06.09,0a.38.38,0,0,0-.08.11s.07,0,.09,0l0,0h.06l-.06,0h0l0,0s0,.06,0,.08h0c.07,0,0,0,0,0l0,0s0,0,0,0l0,0s0,0,.07.08a.2.2,0,0,1,.09,0l-.06,0,.07,0s-.06,0-.09.06h0l0,0s-.05.06,0,0l0,0s0,0,.06.05.05,0,.1,0,0,.08,0,.09,0,0,.09,0,0,.05-.08.06a.15.15,0,0,0,.09,0l.05,0s0,0,0,0h0c.1,0-.1.17,0,.14H77s0,0-.07,0,0,.06.09.06c-.14.11.06.06,0,.15l0,0s0,0,0,0,0,0,0,0,0,.16,0,.24.19-.1.12,0l-.07,0c.11,0,.06.1.15.11h0s0,0,.06,0,0,0,0,0,.08,0,0,0,0,0,0,0,0,0,.07,0,0,0,0,.05,0,0,.08,0c-.09,0-.06.07,0,.06s0,0-.06,0,0,0,.08,0,.11,0,0,.09a.34.34,0,0,1,.16,0c-.08,0,0,0-.12,0,.06,0,.14,0,.14,0l-.06,0c.06,0,0,.07.1.07h0s0,0,0,0h0s.13,0,.15-.06,0,0-.14.11l.05,0s0,0-.05,0,.07,0,.08,0l0,0s.08,0,.08,0h0s.12,0,.1,0,0,0-.07.06h0l0,0s.06,0,0,0h0l0,0,0,0s.07,0,.06,0,0,0,0,0h0s0,0,0,0l-.07,0s0,0,.08,0,0,0,0,0l0,0,0,0s.07,0,0,0h0s0,0,0,.06,0,0-.07,0,.11,0,.11.06h0c.07,0,0,0,0,0l0,0s0,0,.09,0h0s0,0,0,.05,0,0,0,0,.09.05.05.12h0l0,0,0,0s0,0,0,0,0,0,0,0h0s0,0,0,0h0s0,0,0,0,0,0,0,0h0s0,0,0,0h0v0h0c.06,0,0,0,.08,0h0s0,0,0,0,0,0,0,0,0,0,0,0,0,0,0,0,0,0,0,.06l.06,0s0,0,0,0,0,0,0,0h0a0,0,0,0,1,0,0h0l0,0s0,0,0,0l0,0h0a0,0,0,0,1,0,0h0s0,0,0,0h0s0,0,0,0h0s0,0,0,0h0s0,0,0,0l0,0h0s0,0,0-.06,0,0,0,0,0,0,0,0,0,0,0,0,0,0,0,0,0,0,0,0,0,0,0-.07h0s0,0,0,0l0,0h0s0,0,0,0-.06.06-.09,0,0,0,0,0a0,0,0,0,1,0,0h0s0,0,0,0l0,0s0,0,0,0a.08.08,0,0,1,0,0h0s0,0,0,0,0,0,0,0l0,0s0,0-.06,0h0s0-.06,0-.08h0s0,0-.06,0,0,0,0,0,0,0,0,0,0,0,0,0,0,0,0,0,0,0,0,0l0,0a0,0,0,0,1,0,0l.05,0c0-.07-.13,0,0-.08s0,0-.06,0,.06-.07.06-.08-.09,0-.08,0a.1.1,0,0,1-.09,0,.2.2,0,0,1,.09-.06,0,0,0,0,1,0,0h0s0,0,0,0,0,0,0,0,0,0,0-.06l0,0s0,0-.06,0,.07,0,0-.05,0,0,.07,0,0,0,0-.06h0l0,0,0,0-.11,0s0,0,0,0,.05,0,.07,0,0,0,0,0h0s-.07,0-.08,0,.06,0,.05,0-.05,0-.08,0,0,0,0,0v0s0,0-.05,0,0,0,0,0,0-.06,0-.06.06,0,.07-.05,0,0,0,0a.2.2,0,0,1-.08,0h0l-.07,0s0,0,0,0,0,0-.06,0-.06,0,0,0l.11-.06c0-.06-.08,0-.06-.06l0,0s0,0,0,0l.07,0s0,0-.08,0l0,0s-.12,0-.12,0,.07,0,.1,0,0,0,0,0-.07,0,0,0-.06,0-.06,0h0s0,0-.08,0,0-.06,0-.14l0,0s0,0,0,0-.12.06-.09,0,0,0,.06,0,0,0,0-.08h0s-.07,0-.07,0h0a.21.21,0,0,1-.14,0c.06,0,0,0,.08,0s-.08,0-.1,0a.48.48,0,0,1,.1-.09v0c.07,0,0,0,0,0h0s-.1,0-.11,0h0c-.09,0,0,0,0,0l.08-.06a.26.26,0,0,1-.12,0l.15,0a.05.05,0,0,0-.07,0s0,0,0,0-.11,0-.12,0c.16-.09,0-.07.13-.15-.08,0,0-.08,0-.11s0,0-.14.07,0,0,0,0l.06-.07s0,0,.06,0,0,0,.07-.07-.07,0-.06,0l0,.05c-.08,0,.1-.09,0-.08h0s0,0-.14,0a.08.08,0,0,1,.06,0s-.15,0-.11-.07h0s-.06,0,0,0h0s-.06,0,0,0h0c0-.05-.12,0-.15,0s.1-.09.1-.11h0s-.11,0-.16,0,0-.09,0-.15-.07,0-.08,0-.07,0,0,0h0c.07,0,0-.06,0-.07l-.1.05c.12-.11-.11-.05,0-.14h-.06l0,0a.07.07,0,0,0,0-.06h0s-.15.06-.16,0l.06,0s0-.08-.05-.07l0,0s0-.07-.08,0c.06,0,0,0,0,0l0,0c-.06,0-.08,0-.1,0h0s0,0,0,0h0s0,0-.06,0,0,0,0,0-.06,0,0,0h0s-.06,0,0,0l0,0,0,0a.28.28,0,0,1,.08-.05s-.1,0-.1,0h0v0s0,0,0,0,0,0-.06,0h0s0,0,0,0l-.06,0s0-.07.07-.08,0-.05-.11,0,0,0,0,0h0s0,0-.07,0,0,0,0,0h0c0-.07-.13,0-.1-.1h0c0-.07-.09-.1-.1-.17s0,0,0,0h0s0,0,0-.07h0s0,0,0,0h0l0,0s0,0,0,0l0,0h0s0,0,0,0v0h0v0a0,0,0,0,0,0,0h0s0,0,0,0,0,0,0,0h0l0,0s0,0,0,0l0,0s0,0,0,0,0,0,0,0h0a0,0,0,0,1,0,0s0,0,.06,0,0,0-.06,0,0,0,0,0,0,0,0,0,0,0,0,0,0,0,0,0A0,0,0,0,1,76.16,117.13Zm.24.37Zm0,0v0h0S76.42,117.53,76.41,117.54Zm.21-.21s0,0,0,0h0Z"/><polygon class="cls-5" points="76.57 117.35 76.56 117.35 76.56 117.35 76.57 117.35 76.57 117.35"/><polygon class="cls-5" points="78.2 120.27 78.2 120.27 78.2 120.27 78.2 120.27"/><polygon class="cls-5" points="76.54 118.05 76.56 118.04 76.54 118.05 76.54 118.05"/><path class="cls-5" d="M78.21,120.5h0Z"/><path class="cls-5" d="M78.26,120.58h0Z"/><polygon class="cls-5" points="78.29 120.64 78.3 120.64 78.3 120.63 78.29 120.64"/><path class="cls-5" d="M77.6,119.79Z"/><path class="cls-5" d="M77.89,120h0S77.87,120,77.89,120Z"/><polygon class="cls-5" points="77.34 119.53 77.34 119.53 77.34 119.53 77.34 119.53"/><path class="cls-5" d="M77.86,120s0,0,0,0S77.87,120,77.86,120Z"/><polygon class="cls-5" points="78.47 120.87 78.47 120.87 78.47 120.87 78.47 120.87"/><path class="cls-5" d="M78.47,120.87h0Z"/><path class="cls-5" d="M78.48,120.88Z"/><path class="cls-5" d="M78.42,120.8h0Z"/><path class="cls-5" d="M78.4,120.78s0,0,0,0h0S78.41,120.78,78.4,120.78Z"/><path class="cls-5" d="M78.4,120.65v0s0,0,0,0S78.41,120.68,78.4,120.65Z"/><path class="cls-5" d="M78.38,120.58s0,0,0,0S78.38,120.56,78.38,120.58Z"/><path class="cls-5" d="M78.16,120.11l0,0Z"/><polygon class="cls-5" points="77.93 120.13 77.91 120.16 77.95 120.14 77.93 120.13"/><polygon class="cls-5" points="78.17 119.93 78.17 119.93 78.15 119.92 78.17 119.93"/><path class="cls-5" d="M77.77,119.16l-.06,0S77.8,119.16,77.77,119.16Z"/><path class="cls-5" d="M77.53,118.88s0,0,0,0S77.52,118.88,77.53,118.88Z"/><polygon class="cls-5" points="77.04 117.88 77.07 117.87 77.04 117.87 77.04 117.88"/><path class="cls-5" d="M82.38,118.64s0,0,0,0h0Z"/><path class="cls-5" d="M82.34,118.62s0,0,0,0h.05l0,0Z"/><path class="cls-5" d="M81.79,118.16h0Z"/><path class="cls-5" d="M81.45,117.87a0,0,0,0,0,0,0A0,0,0,0,0,81.45,117.87Z"/><path class="cls-5" d="M81.43,117.76h0S81.44,117.76,81.43,117.76Z"/><path class="cls-5" d="M81.79,118.16v0S81.78,118.15,81.79,118.16Z"/><polygon class="cls-5" points="82.24 118.58 82.25 118.58 82.24 118.58 82.24 118.58"/><polygon class="cls-5" points="81.96 118.26 81.96 118.26 81.97 118.25 81.96 118.26"/><path class="cls-5" d="M82.07,118.36l0,0h0Z"/><path class="cls-5" d="M82.24,118.53Z"/><path class="cls-5" d="M81.88,118.18h0Z"/><path class="cls-5" d="M78.34,115.93Z"/><polygon class="cls-5" points="78.22 115.79 78.22 115.79 78.22 115.79 78.22 115.79"/><path class="cls-5" d="M81.37,117.61h0Z"/><path class="cls-5" d="M80.32,116.89c0,.06-.07,0-.09.12A.38.38,0,0,0,80.32,116.89Z"/><path class="cls-5" d="M82.24,118.58h0Z"/><polygon class="cls-5" points="80.23 117.01 80.23 117.01 80.23 117.02 80.23 117.01"/><path class="cls-5" d="M81.1,117.44l0,0Z"/><path class="cls-5" d="M81.24,117.66h0S81.24,117.66,81.24,117.66Z"/><path class="cls-5" d="M81,117.44h0Z"/><polygon class="cls-5" points="80.84 117.36 80.84 117.38 80.84 117.38 80.84 117.36"/><path class="cls-5" d="M78.62,116.21v0S78.6,116.2,78.62,116.21Z"/><polygon class="cls-5" points="82.24 118.58 82.24 118.58 82.24 118.58 82.24 118.58"/><path class="cls-5" d="M80.66,117.85l0,0Z"/><path class="cls-5" d="M79.32,116.83h0Z"/><path class="cls-5" d="M80.59,117.81a.11.11,0,0,0,0,0v0Z"/><path class="cls-5" d="M78.63,116.19Z"/><path class="cls-5" d="M78.5,116.14s0,0,0,0,0,0,0,0,0,0,0,0h0s0,0,.06,0h0l0,0s0,0,0,0h0s0,0,0,0h0s0,0,0,0v0c0,.06,0,0,0,0s0,0,0,0,0,0,0,0,0,.11,0,.08,0-.06,0,0l0,0s.05,0,.05,0,0,0,0,0,0,0,0,0l0,0s.07,0,.1,0,0,0,0,0,.06.06.07.12l0,0,0,0s0,0,0,0,0,0,0,0,.11,0,.1,0h0s.07-.07.06,0h0s.09,0,.07.13,0,.06.08,0,0,.08,0,.13.05,0,.07,0l0,0,0,0,0,.06h0a.17.17,0,0,1,0,0s0,.07,0,.1l.06,0s0,0,0,0,0,.06,0,0l0,0s0,.06,0,.06l0,0s.07,0,.09.05,0-.09.07-.09l0,.06s0,0,0-.07a.18.18,0,0,1-.06.09h0l0,.05s0,.08,0,0v0s.06,0,.08,0,0,0,.08-.07,0,.09,0,.1,0,0,.06-.07,0,.06,0,.09h.09a.11.11,0,0,1,0-.05s0,0,0,.05h0c.08-.05,0,.21.08.12h0l.06,0s0,0,0,.07,0,0,.1,0c-.08.16.09,0,0,.15l0,0s0,0,0,0a.13.13,0,0,1,0,0c.09,0,.09.14.13.21s.14-.17.11-.07l0,.06c.1,0,.09.07.18,0s0,0,0,0,0,0,.06,0,0,0,0,.06.07,0,0,0a0,0,0,0,1,0,0s0,0,.06,0,0,0,0,0,0,0,.07,0c-.06.08,0,.09,0,0s0,0,0,.07,0,0,.06,0c0,.12.1,0,0,.09l.17,0c-.06.08,0,0-.1.07s.12-.07.14,0l0,0c.06,0,.06,0,.12,0s0,0,0,0,0,0,0,0h0c0-.06.1-.09.12-.12s0,.05-.09.16l0,0s0,0,0,0,.05,0,.07,0l0,0s.06,0,.07,0,0,0,0,0,.1-.06.11,0,0,0,0,.09h0v0s0,0,0,0l0,0h0v0s.05-.07.06,0,0,0,0,0h0s0,0,0,0l0,.07s0,0,.09,0,0,0,0,.05l0,0a.06.06,0,0,1,0,0s0-.07,0,0a0,0,0,0,1,0,0s.06,0,.07,0,0,0,0,0,.11,0,.13,0h0c.06-.06,0,0,0,0l0,0s0,0,.09,0h0s0,0,0,0,0,0,0,0,.11,0,.1.08,0,0,0,0h0s0,0,0,0h0s0,0,0,0l0,0s0,0,0,0h0s0,0,0,0,0,0,0,0,0,0,0,0,0,0,0,0,0,0,0,0h0v0h0s0,0,.08,0,0,0,0,0a0,0,0,0,1,0,0s0,0,0,0,0,0,0,0,0,0,0,0,0,.05.08,0h0s0,0,0,0h.06s0,0,0,0h0a0,0,0,0,1,0,0s0,0,0,0h0a0,0,0,0,0,0,0s0,0,0,0h0s0,0,0,0v0s0,0,0,0,0,0,0,0,0,0,0,0,0,0,0,0,0,0,0,0,0,0,0,0,0,0,0,0,0,0,0,0,0,0,0-.06h0s0,0,0,0,0,0,0,0h0l0,0s0,0,0,0,0,.08-.07.08,0,0,0,0h0l0,0s0,0,0,0,0,0,0,0a0,0,0,0,0,0,0,0,0,0,0,1,0,0s0,0,0,0,0,0,0,0,0,0,0,0v0s0,0,0,0h0c-.05,0,0,0-.08-.06h0s0,0-.07,0a.14.14,0,0,1,0,0s0,0,0,0,0,0,0,0,0,0,0,0,0-.05,0-.05v0h0l0,0c0-.08-.12.06-.07-.06s0,0,0,.07,0-.09,0-.1-.06.06-.07,0,0,.07-.07.08,0-.09.06-.1v0s0,0,0,0h0s0,0,0-.06a.05.05,0,0,0,0,0s0,0,0,0,0,0,0,0,0,0-.06,0,.06-.06,0,0,0,0,0-.07,0,0,0-.06h0s0,0,0,0l0,0s0,0,0,0,0,.07-.08.09,0,0,0,0,0-.06.06,0h0l0,0c0-.06-.05.06-.07,0s0-.06,0-.06,0,0,0,.07,0,0,0,0v0l0,0s0,0,0,0,0-.07,0,0,0-.06,0-.08,0-.06,0,0,0,0-.06.07h0l-.06.05s0,0,0,0,0,0,0,0,0,0,0,0l.07-.1c0-.07-.07,0-.08,0v0s0,0,0,0a.17.17,0,0,0,0-.07s0,0-.07,0l0-.06s-.09.09-.1.06,0-.07.07-.09,0,0,0,0-.06,0,0,0,0,0,0,0v0l-.05.06c.06-.13-.06,0,0-.14h-.07s0,0,0,0-.08.1-.08,0,0,0,0-.05,0,0,0-.09h0c0-.05-.06,0-.07,0h0a.17.17,0,0,1-.12.06s0,0,.05-.07-.05.08-.08.08a.64.64,0,0,1,.06-.11h0c0-.07,0,0,0,0l0,0s-.09.07-.11,0v0c-.07.06,0,0,0,0l.05-.08a.27.27,0,0,1-.1.06.31.31,0,0,1,.12-.09s0,0-.07,0h0s-.08.07-.1.06,0-.07.05-.2c-.07,0-.05-.06-.09-.08s0,0-.1.12h0l0-.09s0,0,0,0,0-.05,0-.09,0,0,0,0l0,.06c-.07,0,0-.11,0-.07l0,0s0,0-.13.06a.11.11,0,0,1,0-.06s-.14,0-.12,0l0,0s0,0,0,0l0,0s0,0,0,0l0,0c0-.06-.1,0-.14,0a.18.18,0,0,0,0-.14h0s-.11,0-.17,0-.05-.08-.05-.15l-.06.07s-.06,0,0,0h0c0-.07,0-.06,0-.07l-.06.09c0-.15-.12,0-.06-.14l-.06,0,0,0s0,0-.06,0l0,0s-.11.12-.13.12l0-.07s0-.09-.09,0l0,0s0-.07-.08,0,0,0-.05,0l0,0s0,0-.08.06,0,0,0,0,0,0,0,0l0,0s0,0-.05,0,0,0,0-.06,0,0,0,0,0,0,0,0-.07,0-.06,0a0,0,0,0,0,0,0l0,0s0,0,0-.08-.08.06-.09,0h0s0,0,0,0,0,0,0,0,0,0,0,0,0,0,0,0h0s0,0,0,0l0,0c0-.06,0-.09,0-.12s-.06,0-.11,0,0,0,0,0h0s0,0-.07,0,0,0,0,0h0c0-.07-.13,0-.14,0v0c-.05-.06-.13,0-.17-.12h-.06s0-.05-.07-.05h0l0,0h0l0,0h0s0,0,0,0h0v0s0,0,0,0h0s0,0,0,0,0,0,0,0,0,0,0,0h0s0,0,0,0,0,0,0,0h0s0,0,0,0,0,0,.07,0h0a.08.08,0,0,1,0,0s0,0,0,0,0,0,0,0,0,0,0,0v0s0,0,0,0,0,0,0,0A0,0,0,0,1,78.5,116.14Zm.38.24Zm0,0h0l0,0S78.92,116.39,78.91,116.4Zm.09-.28h0Z"/><polygon class="cls-5" points="78.97 116.16 78.96 116.16 78.96 116.17 78.97 116.16 78.97 116.16"/><polygon class="cls-5" points="81.79 118.17 81.79 118.17 81.78 118.17 81.79 118.17"/><polygon class="cls-5" points="79.27 116.82 79.28 116.81 79.27 116.82 79.27 116.82"/><path class="cls-5" d="M81.89,118.38h0Z"/><path class="cls-5" d="M82,118.43h0Z"/><polygon class="cls-5" points="82.03 118.47 82.03 118.46 82.03 118.46 82.03 118.47"/><path class="cls-5" d="M81,118h0Z"/><path class="cls-5" d="M81.37,118l0,0S81.36,118.07,81.37,118Z"/><polygon class="cls-5" points="80.66 117.85 80.66 117.85 80.66 117.85 80.66 117.85"/><path class="cls-5" d="M81.34,118.05s0,0,0,0S81.35,118.05,81.34,118.05Z"/><polygon class="cls-5" points="82.3 118.61 82.3 118.61 82.3 118.61 82.3 118.61"/><path class="cls-5" d="M82.3,118.61h0Z"/><path class="cls-5" d="M82.32,118.61h0Z"/><path class="cls-5" d="M82.22,118.57h0Z"/><path class="cls-5" d="M82.19,118.56h0S82.2,118.55,82.19,118.56Z"/><path class="cls-5" d="M82.13,118.44h0a0,0,0,0,1,0,0S82.15,118.46,82.13,118.44Z"/><path class="cls-5" d="M82.08,118.38h0Z"/><path class="cls-5" d="M81.68,118l0,0S81.69,118,81.68,118Z"/><polygon class="cls-5" points="81.47 118.16 81.46 118.18 81.49 118.15 81.47 118.16"/><polygon class="cls-5" points="81.6 117.87 81.61 117.87 81.58 117.87 81.6 117.87"/><path class="cls-5" d="M80.89,117.33l0,.06S80.92,117.32,80.89,117.33Z"/><path class="cls-5" d="M80.54,117.17s0-.06,0,0S80.53,117.18,80.54,117.17Z"/><polygon class="cls-5" points="79.64 116.45 79.66 116.44 79.64 116.44 79.64 116.45"/><path class="cls-5" d="M83.58,114.52h0Z"/><path class="cls-5" d="M83.54,114.51s0,0,0,0Z"/><path class="cls-5" d="M83,114.31Z"/><path class="cls-5" d="M82.7,114.17h0Z"/><path class="cls-5" d="M82.66,114.08h0Z"/><path class="cls-5" d="M83,114.31v0S83,114.3,83,114.31Z"/><polygon class="cls-5" points="83.46 114.52 83.47 114.52 83.46 114.52 83.46 114.52"/><polygon class="cls-5" points="83.17 114.33 83.17 114.33 83.18 114.32 83.17 114.33"/><path class="cls-5" d="M83.28,114.37v0s0,0,0,0Z"/><path class="cls-5" d="M83.44,114.47h0Z"/><path class="cls-5" d="M83.09,114.29h0Z"/><path class="cls-5" d="M79.86,113.82Z"/><polygon class="cls-5" points="79.74 113.75 79.74 113.75 79.74 113.75 79.74 113.75"/><path class="cls-5" d="M82.57,114Z"/><path class="cls-5" d="M81.59,113.77c0,.06,0,.07,0,.14S81.6,113.81,81.59,113.77Z"/><path class="cls-5" d="M83.46,114.52h0Z"/><polygon class="cls-5" points="81.56 113.91 81.56 113.91 81.57 113.91 81.56 113.91"/><path class="cls-5" d="M82.32,113.93v0Z"/><path class="cls-5" d="M82.48,114.07h0Z"/><path class="cls-5" d="M82.21,114h0Z"/><polygon class="cls-5" points="82.11 113.97 82.11 113.98 82.12 113.98 82.11 113.97"/><path class="cls-5" d="M80.15,113.93v0S80.14,113.93,80.15,113.93Z"/><polygon class="cls-5" points="83.46 114.51 83.46 114.52 83.46 114.52 83.46 114.51"/><path class="cls-5" d="M82.1,114.48h0S82.09,114.48,82.1,114.48Z"/><path class="cls-5" d="M80.84,114.15h0Z"/><path class="cls-5" d="M82,114.47v0h0Z"/><path class="cls-5" d="M80.15,113.91Z"/><path class="cls-5" d="M80.05,113.93s0,0,0-.05,0,0,0,.05l0,0v0s0,0,.05,0h0s0,0,0-.06,0,0,0,0a0,0,0,0,1,0,0h0s0,0,0,0,0,0,0,0,0,0,0,0l0,0c0,.07,0,0,0,.06s0,0,0,0,0,0,0,0,0,.11,0,.06,0-.08,0,0v0s0-.06,0,0a0,0,0,0,1,0,0s0,0,0,0v0l.07,0s0,0,0,0,.06,0,.08.08l0,0v0s0,0,0,0,0,0,0,0,.07-.08.08,0v0s0-.1,0,0h0s.08,0,.09.08c0-.08,0,0,.05-.07,0,.07,0,.09,0,.13s0-.07,0-.08v.07l0-.07v.08h0a0,0,0,0,1,0,0s0,0,0,.08l0,0,0,0c0-.06,0,.06,0,0a.43.43,0,0,1,0,0s0,0,0,0v0s.06,0,.09,0a.31.31,0,0,1,0-.11v.07s0,0,0-.08,0,.08,0,.1l0,0v.06s0,.08,0,0v0s0,0,.07,0,0,0,0-.09,0,.07,0,.07,0,0,0-.09,0,.06,0,.1,0,0,.07,0v-.06s0,0,0,.06h0c0-.08,0,.19.1.07h0l0-.06s0,0,0,.08,0,0,.08,0c0,.18.07,0,.07.12v0s0,0,0,0a.11.11,0,0,1,0-.06c.06,0,.1.08.15.13s.06-.21.06-.11l0,.08c.06-.09.09,0,.14,0s0,0,0,0,0,0,0,0,0,0,0,.06,0-.06,0,0,0,0,0,0,0,0,0,0,0,0,0,0,0,0,0-.06c0,.1,0,.08,0,0s0,0,0,.07,0,0,0-.07c0,.12.06-.09,0,.07a.35.35,0,0,1,.12-.1c0,.1,0,0-.06.11s.07-.12.1-.09,0,0,0,0,.05,0,.09,0,0,0,0,0,0,0,0,0h0c0-.06,0-.12.06-.15,0,.12,0,0,0,.18l0,0s0,0,0,0,0-.06,0-.06l0,0s0-.07,0,0a0,0,0,0,0,0,0s.06-.09.08,0,0,0,0,.1l0,0v0s0,0,0,0l0,0h0v0s0-.08,0-.06,0,0,0,0h0s0,0,0,0l0,.09c0-.06,0,0,0-.07a.2.2,0,0,1,0,0v0s0,0,0,0,0-.08,0,0a0,0,0,0,1,0,0s0,0,.06,0,0,0,0,.06.07-.06.1,0h0c0-.08,0,0,0,0s0,0,0,0,0,0,.08,0v0s0,0,0,0,0,0,0,0,.08,0,.09,0h0v0a0,0,0,0,1,0,0,.05.05,0,0,0,0,0v0s0,0,0,0h0s0,0,0,0,0,0,0,0,0,0,0,0h0s0,0,0,0h0s0,0,.06,0,0,0,0,0,0,0,0,0,0,0,0,0,0,0,0,0,0,0,0,0,0,0,.06,0l.06,0h0s0,0,0,0h0l0,0h.05s0,0-.05,0h0s0,0,0,0,0,0,0,0h0s0,0,0,0,0,0,0,0h0s0,0,0,0v0h0s0,0,0,0,0,0,0,0,0,0,0,0,0,0,0,0,0,0,0,0,0,0,0,0,0,0,0,0,0,0,0,0,0,0,0-.05h0s0,0,0,0l0,0h0a0,0,0,0,1,0,0v0s0,0,0,0,0,.08,0,.1a.2.2,0,0,1,0,0h0l0,0s0,0,0,0,0,0,0,0h0a.1.1,0,0,1,0,0s0,0,0,0,0,0,0,0,0,0,0,0,0,0,0,0,0,0,0,0h0s0,0-.07,0h0s0,0,0,0,0,0,0,0,0,0,0,0,0,0,0,0,0,0,0,0,0-.06,0,0v0h0l0,0c0-.08-.08.09-.08,0,0,0,0,0,0,.08a.33.33,0,0,1,0-.1s0,.08,0,0,0,.08,0,.09,0-.09,0-.1,0,0,0,0,0,0,0,0v0s0,0,0-.06a0,0,0,0,0,0,0s0,0,0,0v0s0,0,0,0,0-.08,0-.06a.14.14,0,0,1,0-.07s0,0,0-.05v0a0,0,0,0,1,0,0v0a.7.7,0,0,1,0,.12s0,0,0,0,0-.07,0-.07h0c0-.07,0,.06,0,.06s0-.07,0-.07,0,.06,0,.09,0,0,0,0v0s0,0,0,0,0,0,0,0,0-.07,0,0,0-.07,0-.09,0,0,0,0a.11.11,0,0,1,0,.08l0,0,0,.06s0,0,0,0,0,0,0,.06,0,0,0,0l0-.12c0-.07-.05.05-.06,0v0s0,0,0,0a.34.34,0,0,0,0-.09s0,0,0,.08V114s0,.11-.06.09a.35.35,0,0,1,0-.11s0,0,0,0,0,.06,0,0,0,.07,0,.06v0a.22.22,0,0,0,0,.08c0-.15-.06,0,0-.13l0,0a0,0,0,0,1,0,0s0,.13,0,.08,0,0,0-.07,0,0,0-.07h0s0,0-.06,0v0a.26.26,0,0,1-.08.12.29.29,0,0,0,0-.1s0,.1,0,.12a.66.66,0,0,1,0-.13h0c0-.09,0,0,0,0v0s0,.1-.07.09v0c0,.09,0,0,0,0l0-.09a.31.31,0,0,1-.07.09l.07-.13s0,0,0,0,0,0,0,0,0,.1-.06.1c0-.18,0-.06,0-.2,0,.06,0,0-.09,0s0,0,0,.14,0,0,0,0v-.09s0,0,0-.06,0-.07,0-.11,0,.08,0,0v.07c0,.07,0-.12,0,0l0,0s0,0-.08.1,0,0,0-.06-.09.11-.1,0v0s0,.06,0,0v0s0,.06,0,0l0,0s-.06.09-.09.11,0-.14,0-.15v0s-.07.08-.11.11-.06-.05-.08-.11,0,.07,0,.08,0,.06,0,0h0c0-.08,0-.06,0-.06l0,.1c0-.16-.09,0-.09-.09,0,0,0,0,0,.06v-.06s0,0-.06,0v0s0,.16,0,.16v-.08s0-.07-.07,0a.06.06,0,0,1,0,0s0-.05,0,0c0-.06,0,0-.05,0v0c0,.06,0,.07,0,.09v0s0,.05,0,0v0s0,0,0,0,0,0,0-.06,0,.06,0,0v0s0,.05,0,0a.08.08,0,0,0,0,0s0,0,0,0a.44.44,0,0,1,0-.1s0,.09-.06.07h0s0,0,0,0,0,0,0,.07h0s0,0,0,0l0,.07a1,1,0,0,0,0-.12s0,0-.07.08,0,0,0,0,0,0,0,0,0,0,0,0,0,0,0,0h0c0-.06-.08.1-.11,0v0c-.05,0-.11,0-.16,0s0,0,0,0v0l0,0s0,0-.06,0h0s0,0,0,0h0s0,0,0,0,0,0,0,0h0s0,0,0,0h0s0,0,0,0,0,0,0,0,0,0,0,0h0s0,0,0,0h0s0,0,0,0,0,0,0,0h0a0,0,0,0,1,0,0s0,0,0,0,0,0,0,0,0,0,0,0,0,0,0,0,0,0,0,0,0,0,0,0A0,0,0,0,1,80.05,113.93Zm.35,0Zm0,0h0a0,0,0,0,1,0,0A0,0,0,0,0,80.43,114Zm0-.29s0,0,0,0h0Z"/><polygon class="cls-5" points="80.39 113.72 80.39 113.73 80.39 113.73 80.39 113.72 80.39 113.72"/><polygon class="cls-5" points="83.02 114.31 83.02 114.31 83.02 114.32 83.02 114.31"/><polygon class="cls-5" points="80.81 114.17 80.81 114.16 80.8 114.17 80.81 114.17"/><path class="cls-5" d="M83.15,114.46h0Z"/><path class="cls-5" d="M83.22,114.48h0Z"/><polygon class="cls-5" points="83.27 114.5 83.28 114.49 83.28 114.49 83.27 114.5"/><path class="cls-5" d="M82.4,114.45Z"/><path class="cls-5" d="M82.68,114.36v0Z"/><polygon class="cls-5" points="82.1 114.48 82.1 114.48 82.1 114.48 82.1 114.48"/><path class="cls-5" d="M82.66,114.38s0,0,0,0Z"/><polygon class="cls-5" points="83.51 114.52 83.51 114.52 83.51 114.52 83.51 114.52"/><path class="cls-5" d="M83.51,114.52Z"/><path class="cls-5" d="M83.52,114.52h0Z"/><path class="cls-5" d="M83.44,114.51h0Z"/><path class="cls-5" d="M83.41,114.51h0Z"/><path class="cls-5" d="M83.34,114.42l0,0v0S83.36,114.44,83.34,114.42Z"/><path class="cls-5" d="M83.29,114.39a0,0,0,0,0,0,0S83.29,114.38,83.29,114.39Z"/><path class="cls-5" d="M82.91,114.24v0S82.91,114.22,82.91,114.24Z"/><polygon class="cls-5" points="82.78 114.43 82.78 114.45 82.79 114.42 82.78 114.43"/><polygon class="cls-5" points="82.81 114.12 82.81 114.11 82.8 114.12 82.81 114.12"/><path class="cls-5" d="M82.14,113.92V114S82.16,113.9,82.14,113.92Z"/><path class="cls-5" d="M81.84,113.92s0-.06,0,0S81.83,113.93,81.84,113.92Z"/><polygon class="cls-5" points="80.97 113.67 80.98 113.65 80.96 113.67 80.97 113.67"/><g class="cls-8"><path class="cls-9" d="M74.76,14.8a12.44,12.44,0,0,1,5.85.89,23.06,23.06,0,0,0-2.87-6.26c-1.25-1.85-3.22-3.59-5.44-3.28-2,.28-3.41,2.16-4.24,4a22.9,22.9,0,0,0-1.8,9,14.7,14.7,0,0,1,1.46-1.28A13.92,13.92,0,0,1,74.76,14.8Z"/></g></g></g></g></svg>