<svg xmlns="http://www.w3.org/2000/svg" viewBox="0 0 210.62 359.54"><defs><style>.cls-1{isolation:isolate;}.cls-2{fill:#4ba6c4;}.cls-3{opacity:0.5;}.cls-18,.cls-29,.cls-3,.cls-31,.cls-41{mix-blend-mode:multiply;}.cls-4{fill:#f99e6d;}.cls-41,.cls-5{fill:#379;}.cls-6{fill:#2a4b69;}.cls-7{fill:#3680ad;}.cls-8{fill:#e5f2fb;}.cls-9{fill:#ffbb94;}.cls-10{fill:#244259;}.cls-11{fill:#fee59f;}.cls-12{fill:#7bb3cc;}.cls-13{fill:#f2ab88;}.cls-14{fill:#1f3b4f;}.cls-15{fill:#ffbe9a;}.cls-16{fill:#f9d885;}.cls-17{fill:#d5dcdb;}.cls-19{fill:#479cb2;}.cls-20,.cls-29{fill:#c98f4f;}.cls-21{fill:#fec19e;}.cls-22{fill:#ffd1bd;}.cls-23{fill:#4c3427;}.cls-24{fill:#e88379;}.cls-25{fill:#f79e90;}.cls-26{fill:#e2956f;}.cls-27{fill:#68463a;}.cls-28{fill:#fff;}.cls-29,.cls-31{opacity:0.3;}.cls-30,.cls-32,.cls-37,.cls-38{fill:none;stroke-linecap:round;stroke-linejoin:round;}.cls-30{stroke:#d8a068;}.cls-32{stroke:#c98f4f;}.cls-33{fill:#ffc9ae;}.cls-34{fill:#9b5a4d;}.cls-35{fill:#fbf9f5;}.cls-36{fill:#894e45;}.cls-37{stroke:#894e45;}.cls-38{stroke:#a56358;}.cls-39{fill:#e6f3fc;}.cls-40{fill:#956452;}.cls-41{opacity:0.1;}</style></defs><title>father</title><g class="cls-1"><g id="Camada_2" data-name="Camada 2"><g id="OBJECTS"><path class="cls-2" d="M185.71,280.38c-.51,1.64-1.64,5.63-1.44,7.17S182,289.7,182,289.7s-5.94-17.73-25.42-19c6.92-6.8,25.67,4.34,25.67,4.34S186.23,278.73,185.71,280.38Z"/><g class="cls-3"><path class="cls-4" d="M121.42,245.07c.18-.45.37-1,.59-1.56a9.92,9.92,0,0,0,1.38,1.43,4.48,4.48,0,0,0,1,1.55C124.86,246.89,123.16,246.47,121.42,245.07Z"/></g><path class="cls-2" d="M83.51,233a1.59,1.59,0,1,1-1.39,1.77A1.59,1.59,0,0,1,83.51,233Z"/><path class="cls-2" d="M82.54,260.18A1.6,1.6,0,1,1,81.15,262,1.6,1.6,0,0,1,82.54,260.18Z"/><path class="cls-2" d="M78.67,291.91a1.6,1.6,0,0,1,.39,3.17,1.6,1.6,0,1,1-.39-3.17Z"/><path class="cls-2" d="M82.34,322A1.59,1.59,0,1,1,81,323.73,1.6,1.6,0,0,1,82.34,322Z"/><path class="cls-5" d="M122.15,325.51c0,.19-.67.34-1.49.34s-1.49-.15-1.49-.34.67-.34,1.49-.34S122.15,325.32,122.15,325.51Z"/><path class="cls-6" d="M122.15,325.51c0,.19-.67.34-1.49.34s-1.49-.15-1.49-.34.67-.34,1.49-.34S122.15,325.32,122.15,325.51Z"/><path class="cls-6" d="M122.59,294.22c0,.19-.66.34-1.49.34s-1.49-.15-1.49-.34.67-.33,1.49-.33S122.59,294,122.59,294.22Z"/><path class="cls-6" d="M124.07,233.28c0,.19-.51.34-1.14.34s-1.13-.15-1.13-.34.51-.33,1.13-.33S124.07,233.1,124.07,233.28Z"/><path class="cls-7" d="M185.75,280.06a.61.61,0,0,1,0,.14s0,.06,0,.09,0,.06,0,.08c-.08.29-.2.64-.31,1.05-.08.26-.15.55-.24.84s-.07.3-.12.46l-.24.94c0,.16-.07.32-.11.49-.11.48-.2,1-.28,1.4a7.48,7.48,0,0,0-.14,2,1.28,1.28,0,0,1,0,.19.93.93,0,0,1,0,.24,1,1,0,0,1-.07.24,2.26,2.26,0,0,1-.11.22,1.56,1.56,0,0,1-.31.37l-.2.17-.16.11-.17.11a4.55,4.55,0,0,1-.49.25,4.48,4.48,0,0,1-.71.26h0a.82.82,0,0,0,0-.11l0-.06v0c0-.14-.13-.35-.24-.62,0,0,0,0,0-.06l0-.08a.36.36,0,0,0,0-.09c0-.08-.07-.15-.1-.23a1.12,1.12,0,0,1,0-.13l0-.08c-.12-.27-.26-.57-.42-.89l0-.06-.07-.12,0,0-.1-.2,0-.06-.11-.21,0-.05,0,0-.09-.15-.26-.48v0l-.2-.34-.17-.31-.12-.17-.08-.14-.05-.09,0,0-.06-.11h0a.85.85,0,0,0-.14-.21l0-.06c-.06-.11-.13-.21-.2-.32s0-.05,0-.08a1,1,0,0,1-.08-.11l-.08-.12-.12-.17,0-.06c-.05-.08-.11-.15-.16-.22a.15.15,0,0,0,0-.06l-.16-.23-.06-.08-.42-.59a1,1,0,0,1-.08-.11l-.09-.1a.05.05,0,0,0,0,0,.15.15,0,0,1-.05-.07l0,0,0,0-.05,0-.06-.09a1.13,1.13,0,0,0-.1-.13c-.08-.12-.17-.23-.25-.33l-.06-.09c-.06-.07-.13-.14-.19-.22l-.36-.42c-.28-.33-.58-.66-.88-1l-.3-.3h0l-.21-.21-.1-.11L175,279l-.15-.15-.15-.14,0,0s0-.07-.09-.08a.59.59,0,0,0-.08-.08c-.19-.19-.37-.36-.56-.52a7.08,7.08,0,0,0-.59-.52l-.17-.16h0l-.12-.1,0,0,0,0c-.09-.07-.16-.14-.25-.2a.91.91,0,0,0-.13-.1,1.16,1.16,0,0,0-.22-.18l-.11-.08,0-.05h0l-.05,0-.05,0a3.88,3.88,0,0,0-.33-.23,1.05,1.05,0,0,0-.2-.14,4.92,4.92,0,0,0-.41-.31l-.64-.43-.4-.27-.09-.06,0,0-.63-.38h0a.71.71,0,0,1-.18-.12l-.06,0,0,0-.28-.16-.06,0a4.36,4.36,0,0,0-.42-.23l-.14-.08-.06,0a3.48,3.48,0,0,0-.38-.2l-.18-.09,0,0,0,0h0l0,0-.25-.12-.1,0-.09,0-.2-.1-.23-.1,0,0-.07,0a5.22,5.22,0,0,0-.59-.25,3.2,3.2,0,0,0-.43-.17l-.1,0-.33-.13-.29-.11-.2-.07-.39-.13-.14-.05h0l-.07,0-.67-.2h0l-.15-.05-.33-.1h0l-.24-.05-.12,0h-.09l-.14,0-.46-.11-.06,0a4.1,4.1,0,0,0-.48-.1l-.23-.05h0l-.34-.07a1.87,1.87,0,0,0-.4-.07l-.12,0-.73-.13h0l-.24,0H159a.64.64,0,0,0-.2,0l-.38-.06h0l-.81-.08-.29,0-.52-.05h-.11c0,.11-.32,1.2-.74,3-.25,1-.56,2.3-.88,3.75-1,4.15-2.18,9.75-3.17,15.37h0c-.59,3.4-1.09,6.79-1.42,9.89a44.11,44.11,0,0,0-.2,8.67c0,.05,0,.11,0,.17,0,.28.07.57.11.86.75,5.54,2.88,13,4.88,19.93.07.26.15.54.23.8.12.41.23.81.35,1.21.82,2.83,1.59,5.54,2.19,7.95a35.92,35.92,0,0,1,1.33,7.57,12.63,12.63,0,0,1-5.56,7c-2.59,1.63-6.31,2.82-11.65,2.62-14.78-.56-24.45-4.92-31.75,0,0,0,2.59-6.5,4.92-14.81h0c0-.11.07-.23.11-.35.09-.3.17-.61.24-.92s.24-.87.35-1.31.17-.65.25-1c.2-.75.38-1.51.56-2.28.27-1.16.52-2.32.75-3.49.06-.3.12-.6.17-.89l0-.18c.09-.44.16-.88.24-1.31s.15-.88.21-1.31.15-.93.2-1.38c0-.12,0-.24,0-.36s0-.33.06-.48c.06-.47.12-.94.15-1.39,0-.12,0-.24,0-.36s0-.5.06-.73.07-.63.08-.94,0-.89,0-1.34c0-.17,0-.34,0-.49v-.62c0-.67,0-1.32,0-1.95h0c0-.64-.07-1.3-.09-2,0-.53,0-1.07,0-1.62,0-.18,0-.36,0-.55,0-.76,0-1.55,0-2.36,0-.38,0-.76,0-1.14,0-1.43,0-2.92,0-4.44,0-.76,0-1.52,0-2.3,0-.6,0-1.21,0-1.82,0-1.83.11-3.68.17-5.54,0-.47,0-.93.07-1.39s0-.67,0-1,0-.67,0-1l.12-2c.18-3.23.41-6.36.67-9.2,0-.39.08-.79.12-1.17s.07-.65.1-1c.11-1,.22-1.87.32-2.73l.12-.94c0-.25.07-.5.11-.74s.1-.62.15-.92.08-.55.13-.82c0-.1,0-.2.05-.3s.1-.49.15-.72a.43.43,0,0,1,0-.11,12.4,12.4,0,0,1,1.1-3.56,1.32,1.32,0,0,1,.18-.26h0a2,2,0,0,0,.17-.26,1.51,1.51,0,0,0,.14-.34,1.73,1.73,0,0,0,.08-.27.3.3,0,0,0,0-.1l.06-.27a2.72,2.72,0,0,0,0-.3c.06-.36.09-.75.12-1.2,0-.23,0-.47,0-.73a.12.12,0,0,0,0-.08.19.19,0,0,0,0-.08v-.58c0-.42,0-.87,0-1.34,0-.22,0-.46,0-.69,0-1.3-.13-2.76-.25-4.34,0-.42,0-.83-.09-1.27v-.05c0-.41-.06-.82-.09-1.25s0-.69-.09-1,0-.62-.06-.94l-.12-1.51c0-.51-.07-1-.11-1.54s-.07-.92-.11-1.38q-.1-1.4-.21-2.82l-.09-1.43c0-.28,0-.55,0-.82h0c0-.16,0-.29,0-.44v0c0-.28,0-.56,0-.84s0-.29,0-.43l0-.44h0a5,5,0,0,0,0-.54h0v0h0c0-.37,0-.75,0-1.13s0-.76,0-1.15l0-1.24a1,1,0,0,1,0-.24h0c0-.38,0-.76,0-1.14s0-.7,0-1.05c0-.74,0-1.48,0-2.21,0-.32,0-.63,0-1,0-2.1.15-4.13.36-6l.09-.73c.09-.68.17-1.35.29-2,0-.25.09-.5.13-.74.09-.44.18-.86.28-1.28s.2-.82.32-1.21.17-.55.26-.81l.13-.4s0-.1,0-.14.12-.34.19-.5v-.06h0l0,0,.16-.4.06-.15a.06.06,0,0,0,0,0,2,2,0,0,0,.08-.22h0l0,0h0a.25.25,0,0,0,0-.07h0v0a0,0,0,0,1,0,0,.14.14,0,0,0,0-.06c.08-.19.15-.38.21-.56a0,0,0,0,0,0,0l0-.11h0l.07-.16h0a.87.87,0,0,1,.07-.17,1,1,0,0,0,0-.12l.15-.47,0-.1a.45.45,0,0,0,0-.11.88.88,0,0,0,0-.15h0a1.21,1.21,0,0,0,0-.18l0-.09c0-.09,0-.18.08-.27a1.09,1.09,0,0,0,0-.17l0-.09c0-.17.1-.35.14-.52l0-.1,0-.11a282076055510.59,282076055510.59,0,0,1,0-.14v0a0,0,0,0,0,0,0v0a.94.94,0,0,0,0-.16,1.29,1.29,0,0,0,.06-.25c0-.21.1-.41.14-.61a.29.29,0,0,1,0-.09c0-.12,0-.24.07-.36l0-.17c0-.1,0-.21,0-.31s.06-.35.08-.52a0,0,0,0,0,0,0l.06-.45a.24.24,0,0,1,0-.09.57.57,0,0,0,0-.13.06.06,0,0,0,0,0l0-.11h0a.76.76,0,0,0,0-.15v-.07c0-.17,0-.34,0-.51s0-.07,0-.1v-.15a1.41,1.41,0,0,0,0-.2.92.92,0,0,0,0-.16V212c0-.12,0-.25,0-.37s0-.33,0-.5,0-.22,0-.32,0-.21,0-.31,0-.3,0-.45a2.81,2.81,0,0,0,0-.29.57.57,0,0,0,0-.13c0-.06,0-.11,0-.17a1.09,1.09,0,0,0,0-.18l0-.23c0-.14,0-.28,0-.42s0-.33-.08-.5a.52.52,0,0,0,0-.11.34.34,0,0,0,0-.1l0-.16a.29.29,0,0,1,0-.09,1.06,1.06,0,0,0,0-.19.24.24,0,0,0,0-.09s0-.05,0-.07a.2.2,0,0,0,0-.07,0,0,0,0,0,0,0,0,0,0,0,0,0-.05,2.29,2.29,0,0,0-.07-.28.83.83,0,0,0,0-.15s0,0,0-.05a.83.83,0,0,0,0-.15,2.63,2.63,0,0,0-.08-.3c0-.09,0-.17-.07-.25v0a2.17,2.17,0,0,0-.07-.24,1.83,1.83,0,0,0-.08-.25l-.07-.21-.09-.25a1.34,1.34,0,0,0-.07-.18c-.09-.25-.19-.5-.3-.74s-.13-.3-.2-.44a.91.91,0,0,0-.07-.14,0,0,0,0,0,0,0c-.1-.21-.21-.41-.32-.62a2.15,2.15,0,0,0-.14-.26l-.16-.29,0-.07v0s0,0,0,0l-.07-.09a.43.43,0,0,0,0-.07c-.08-.14-.16-.26-.24-.39l-.06-.08a.21.21,0,0,0,0-.06l-.09-.14-.12-.18h0l-.13-.18c-.12-.18-.24-.35-.37-.51l-.15-.2-.06-.07h0l0-.06,0-.06h0v0l-.06-.07-.07-.08s0,0,0,0h0l-.25-.3c0-.06-.1-.13-.16-.19h0s0,0,0,0,0-.05-.07-.08a3.58,3.58,0,0,0-.26-.29l0,0h0l0-.05-.27-.28a.1.1,0,0,0,0,0h0l-.07-.08-.15-.15a.47.47,0,0,0-.1-.1,0,0,0,0,0,0,0,.11.11,0,0,0,0,0,.2.2,0,0,0-.08-.08s0,0,0,0a.53.53,0,0,0-.13-.13h0v0h0v0c-.31-.64-.64-1.35-1-2.12l-.12-.26,0-.09c0-.1-.09-.21-.14-.32l-.09-.21h0l0,0c.56.16,7.75,2.36,16.29,5.88h0l.42.19h0a4.61,4.61,0,0,1,.49.2h0l1.35.56a116,116,0,0,1,15.82,8.1h0c4.16,2.62,7.71,5.49,9.88,8.48a63.15,63.15,0,0,1,5.43,9.33v0c.15.3.29.61.44.92s.2.42.29.63.31.66.46,1l.45,1c.39.88.78,1.77,1.15,2.67,0,.07,0,.15.08.21l.69,1.69c.23.56.45,1.13.67,1.7s.43,1.15.64,1.72.36,1,.53,1.45c.25.68.49,1.35.72,2s.4,1.17.6,1.75.38,1.16.57,1.74c.06.17.11.34.17.51.65,2,1.26,4,1.83,6,.13.44.25.88.37,1.33,0,.12.08.25.11.37s.07.23.1.35l.33,1.22c.7,2.62,1.32,5.13,1.84,7.45.11.48.21,1,.31,1.43s.2.93.28,1.38c0,.23.09.45.13.67.35,1.76.62,3.36.8,4.75a3.87,3.87,0,0,1,.06.46c.05.35.09.69.12,1s.06.6.08.88,0,.54,0,.79c0,.06,0,.12,0,.18a1.09,1.09,0,0,1,0,.18h0s0,0,.07.06,0,0,0,0a1.83,1.83,0,0,1,.21.2h0v0h0v0a.17.17,0,0,1,.06.06l.06.05.15.15.12.13,0,.06h0l.17.17.07.08.07.08,0,.06a.27.27,0,0,1,.07.08.8.8,0,0,1,.13.13c.15.16.3.33.44.51,0,0,0,0,0,0l.06,0h0l.08.1.24.3.08.11c.06.08.12.17.19.25a.05.05,0,0,0,0,0h0l.14.21a.56.56,0,0,1,.05.08.15.15,0,0,1,0,.06c.06.09.12.18.17.27h0s0,0,0,0h0l0,0,.08.15a.51.51,0,0,1,.07.15l0,0c.06.12.11.25.16.37v0a1.21,1.21,0,0,1,0,.14.09.09,0,0,1,0,0,.44.44,0,0,0,0,.1.05.05,0,0,0,0,0s0,0,0,0A1.06,1.06,0,0,1,185.75,280.06Z"/><path class="cls-8" d="M125.89,211.1c0,.37,0,.75,0,1.13,0,.11,0,.23,0,.35s0,.41-.06.61,0,.25,0,.38,0,0,0,.05,0,.12,0,.17c-.06.43-.12.86-.2,1.31l0,.17-.07.36c-.06.32-.14.64-.22,1,0,.13,0,.25-.08.38a.36.36,0,0,1,0,.11c0,.23-.12.47-.19.71l0,.16h0c-.06.18-.11.35-.17.54a1,1,0,0,1-.05.16c0,.07,0,.14-.07.21-.1.3-.19.62-.31.94a2.31,2.31,0,0,0-.1.28,2.77,2.77,0,0,0-.1.26l-.1.26h0l0,.08h0a0,0,0,0,0,0,0s0,0,0,.05c-.1.26-.21.53-.32.79,0,0,0,.06,0,.08s0,0,0,0c-.13.33-.27.68-.39,1s-.17.53-.25.81c-.22.78-.42,1.62-.6,2.49,0,.24-.08.49-.13.74-.12.64-.2,1.31-.29,2,0,.24-.05.48-.09.73-.2,1.9-.31,3.93-.36,6,0,.32,0,.63,0,1,0,.73,0,1.47,0,2.21,0,.35,0,.7,0,1.05s0,.77,0,1.15a.93.93,0,0,0,0,.24l0,1.24c0,.77.05,1.53.1,2.28v0q0,.3,0,.57c0,.3,0,.59,0,.87s0,.57,0,.85,0,.3,0,.45h0c0,.27,0,.55,0,.82q.18,2.88.41,5.63c.07,1,.15,2.06.22,3,.06.68.11,1.34.16,2,0,.42.06.84.1,1.24v.05c0,.44.06.85.08,1.27.12,1.58.21,3,.25,4.35,0,.22,0,.46,0,.68,0,.47,0,.92,0,1.34,0,.2,0,.38,0,.57v.17c0,.25,0,.51,0,.73,0,.45-.06.84-.12,1.2,0,.21-.06.4-.09.57s-.08.25-.11.37a2,2,0,0,1-.31.6h0a1.7,1.7,0,0,0-.18.26,12.49,12.49,0,0,0-1.1,3.57c-.06.26-.11.54-.17.82,0,.1,0,.2-.05.3,0,.27-.09.54-.13.83-.09.52-.18,1.08-.25,1.65,0,.31-.09.62-.13.94-.15,1.16-.29,2.39-.42,3.71,0,.38-.07.77-.12,1.16-.26,2.85-.49,6-.67,9.2,0,.66-.08,1.33-.11,2s-.06,1.33-.09,2c0,.46,0,.93-.07,1.39-.06,1.86-.13,3.71-.17,5.54-.11,4.32-.12,8.47,0,12.06,0,.76,0,1.48.06,2.17s.06,1.37.09,2h0c0,.63,0,1.28,0,1.95,0,.37,0,.74,0,1.11s0,.89,0,1.34,0,.62-.08.94,0,.48,0,.73c-.07.73-.16,1.48-.25,2.23-.07.57-.16,1.16-.24,1.75-.14.86-.29,1.74-.45,2.61-.07.35-.13.71-.21,1.07-.45,2.28-1,4.57-1.56,6.76-.11.43-.23.87-.35,1.3s-.22.85-.34,1.28c-5.1,1.1-10.12,1.82-13.67,1.46a103.59,103.59,0,0,1-12.43-2.08c-1.1-.25-2.18-.5-3.22-.77-.1-.57-.2-1.17-.27-1.79-.17-1.19-.27-2.44-.34-3.75,0-.31,0-.63,0-.95,0-.67,0-1.35,0-2,0-1.18,0-2.37,0-3.58l0-.81c0-.15,0-.31,0-.46l0-.44c0-.3,0-.59-.06-.88s-.06-.87-.11-1.3,0-.63-.08-.94c0-.48-.1-1-.16-1.44-.06-.68-.15-1.36-.24-2,0-.27-.06-.54-.11-.81-.1-.88-.24-1.74-.37-2.6l-.09-.64c-.3-1.95-.63-3.87-1-5.74-.51-2.95-1-5.78-1.43-8.42-.12-.72-.22-1.41-.32-2.09,0-.2,0-.39-.07-.58-.07-.51-.13-1-.19-1.5a.57.57,0,0,1,0-.12c-.09-.79-.16-1.53-.21-2.25,0-.41,0-.82-.06-1.22s0-.69,0-1a16.18,16.18,0,0,1,.39-3.83c2-8,7.62-48.63,4.22-58.44-.42-1.19-.8-2.49-1.14-3.86a2.27,2.27,0,0,0-.06-.25,0,0,0,0,0,0,0c0-.12-.06-.24-.08-.37a1.29,1.29,0,0,1,0-.19c0-.18-.09-.38-.13-.57s-.12-.55-.19-.84c-.1-.49-.19-1-.28-1.48h0c-.22-1.19-.41-2.4-.55-3.63h0c-.07-.62-.14-1.23-.19-1.85s-.11-1.16-.14-1.73c0-.05,0-.08,0-.12s0,0,0,0c0-.41,0-.82,0-1.24h0c0-.35,0-.69,0-1v0c0-.45,0-.91,0-1.36,0-.14,0-.28,0-.42s0-.37,0-.56,0-.66,0-1c0-.12,0-.25,0-.37s0-.34,0-.51,0-.31,0-.46a.53.53,0,0,0,0-.12s0,0,0,0a.62.62,0,0,0,0-.13s0-.1,0-.15a2.48,2.48,0,0,1,0-.27c0-.29,0-.59.07-.88s0-.48.08-.72a.25.25,0,0,1,0-.09,3.11,3.11,0,0,1,.06-.44c0-.11,0-.22,0-.33s.08-.49.12-.74a1,1,0,0,1,0-.17,1.8,1.8,0,0,1,.06-.32v0a.64.64,0,0,0,0-.07.2.2,0,0,1,0-.07c0-.09,0-.19,0-.29a2,2,0,0,1,.06-.26,2.33,2.33,0,0,1,0-.28h0s0-.06,0-.09a.83.83,0,0,1,0-.12l0-.2.12-.47a.44.44,0,0,1,0-.1c.06-.25.13-.49.2-.74a1.33,1.33,0,0,0,.05-.19.45.45,0,0,1,0-.08.36.36,0,0,1,0-.07.93.93,0,0,1,0-.13c.1-.32.21-.64.31-.94,0-.08,0-.15.08-.21h0a5.25,5.25,0,0,1,.22-.55.58.58,0,0,1,.06-.17,1.89,1.89,0,0,1,.09-.21,1.63,1.63,0,0,1,.09-.19s0,0,0,0a.16.16,0,0,1,0-.07.26.26,0,0,1,0-.12.65.65,0,0,1,.11-.22,1.12,1.12,0,0,1,.09-.22h0A.61.61,0,0,1,85,201c.12-.23.24-.45.37-.67h0l0-.06c.12-.21.26-.42.39-.61l0-.07h0s0,0,0,0a3.83,3.83,0,0,0,.25-.44h0v0h0l.24.22.56.5c.2.16.41.35.64.53.57.49,1.25,1,2,1.59,3.62,2.77,8.87,6,13,5.52,6-.76,13.28-5,16.34-8.25a7.49,7.49,0,0,0,1.08-1.38h0c.11.1.23.21.34.33l.06.06a.46.46,0,0,1,.07.07l.22.23.36.38.23.25a2,2,0,0,0,.14.16l0,0h0c.1.13.21.25.32.38a1.63,1.63,0,0,1,.17.22h0l.06.1h0a1.13,1.13,0,0,0,.1.13l.22.28c.09.11.16.22.25.34s.16.23.25.35h0l.2.29.1.17.26.39.09.16.08.14.16.29a1,1,0,0,1,.11.2c.15.28.3.55.43.84a0,0,0,0,0,0,0c.09.18.17.37.25.56s.09.21.13.32l0,0c.11.27.21.55.31.83a.31.31,0,0,0,0,.08c0,.15.1.3.14.47s.09.27.12.4a3.37,3.37,0,0,1,.09.34c0,.13.07.27.1.41s.06.29.09.45,0,.12,0,.18l0,.17,0,.2.06.34c0,.11,0,.22,0,.34s0,.31,0,.48,0,.23,0,.35a1.81,1.81,0,0,1,0,.25.86.86,0,0,1,0,.16,2.62,2.62,0,0,1,0,.28C125.88,210.57,125.89,210.83,125.89,211.1Z"/><path class="cls-8" d="M125.89,211.1c0,.37,0,.75,0,1.13,0,.11,0,.23,0,.35s0,.41-.06.61,0,.25,0,.38,0,0,0,.05,0,.12,0,.17c-.06.43-.12.86-.2,1.31l0,.17-.07.36c-.06.32-.14.64-.22,1,0,.13,0,.25-.08.38a.36.36,0,0,1,0,.11c0,.23-.12.47-.19.71l0,.16h0c-.06.18-.11.35-.17.54a1,1,0,0,1-.05.16c0,.07,0,.14-.07.21-.1.3-.19.62-.31.94a2.31,2.31,0,0,0-.1.28,2.77,2.77,0,0,0-.1.26l-.1.26h0l0,.08h0a0,0,0,0,0,0,0s0,0,0,.05c-.1.26-.21.53-.32.79,0,0,0,.06,0,.08s0,0,0,0c-.13.33-.27.68-.39,1s-.17.53-.25.81c-.22.78-.42,1.62-.6,2.49,0,.24-.08.49-.13.74-.12.64-.2,1.31-.29,2,0,.24-.05.48-.09.73-.2,1.9-.31,3.93-.36,6,0,.32,0,.63,0,1,0,.73,0,1.47,0,2.21,0,.35,0,.7,0,1.05s0,.77,0,1.15a.93.93,0,0,0,0,.24l0,1.24c0,.77.05,1.53.1,2.28v0q0,.3,0,.57c0,.3,0,.59,0,.87s0,.57,0,.85,0,.3,0,.45h0c0,.27,0,.55,0,.82q.18,2.88.41,5.63c.07,1,.15,2.06.22,3,.06.68.11,1.34.16,2,0,.42.06.84.1,1.24v.05c0,.44.06.85.08,1.27.12,1.58.21,3,.25,4.35,0,.22,0,.46,0,.68,0,.47,0,.92,0,1.34,0,.2,0,.38,0,.57v.17c0,.25,0,.51,0,.73,0,.45-.06.84-.12,1.2,0,.21-.06.4-.09.57s-.08.25-.11.37a2,2,0,0,1-.31.6h0a1.7,1.7,0,0,0-.18.26,12.49,12.49,0,0,0-1.1,3.57c-.06.26-.11.54-.17.82,0,.1,0,.2-.05.3,0,.27-.09.54-.13.83-.09.52-.18,1.08-.25,1.65,0,.31-.09.62-.13.94-.15,1.16-.29,2.39-.42,3.71,0,.38-.07.77-.12,1.16-.26,2.85-.49,6-.67,9.2,0,.66-.08,1.33-.11,2s-.06,1.33-.09,2c0,.46,0,.93-.07,1.39-.06,1.86-.13,3.71-.17,5.54-.11,4.32-.12,8.47,0,12.06,0,.76,0,1.48.06,2.17s.06,1.37.09,2h0c0,.63,0,1.28,0,1.95,0,.37,0,.74,0,1.11s0,.89,0,1.34,0,.62-.08.94,0,.48,0,.73c-.07.73-.16,1.48-.25,2.23-.07.57-.16,1.16-.24,1.75-.14.86-.29,1.74-.45,2.61-.07.35-.13.71-.21,1.07-.45,2.28-1,4.57-1.56,6.76-.11.43-.23.87-.35,1.3s-.22.85-.34,1.28c-5.1,1.1-10.12,1.82-13.67,1.46a103.59,103.59,0,0,1-12.43-2.08c-1.1-.25-2.18-.5-3.22-.77-.1-.57-.2-1.17-.27-1.79-.17-1.19-.27-2.44-.34-3.75,0-.31,0-.63,0-.95,0-.67,0-1.35,0-2,0-1.18,0-2.37,0-3.58l0-.81c0-.15,0-.31,0-.46l0-.44c0-.3,0-.59-.06-.88s-.06-.87-.11-1.3,0-.63-.08-.94c0-.48-.1-1-.16-1.44-.06-.68-.15-1.36-.24-2,0-.27-.06-.54-.11-.81-.1-.88-.24-1.74-.37-2.6l-.09-.64c-.3-1.95-.63-3.87-1-5.74-.51-2.95-1-5.78-1.43-8.42-.12-.72-.22-1.41-.32-2.09,0-.2,0-.39-.07-.58-.07-.51-.13-1-.19-1.5a.57.57,0,0,1,0-.12c-.09-.79-.16-1.53-.21-2.25,0-.41,0-.82-.06-1.22s0-.69,0-1a16.18,16.18,0,0,1,.39-3.83c2-8,7.62-48.63,4.22-58.44-.42-1.19-.8-2.49-1.14-3.86a2.27,2.27,0,0,0-.06-.25,0,0,0,0,0,0,0c0-.12-.06-.24-.08-.37a1.29,1.29,0,0,1,0-.19c0-.18-.09-.38-.13-.57s-.12-.55-.19-.84c-.1-.49-.19-1-.28-1.48h0c-.22-1.19-.41-2.4-.55-3.63h0c-.07-.62-.14-1.23-.19-1.85s-.11-1.16-.14-1.73c0-.05,0-.08,0-.12s0,0,0,0c0-.41,0-.82,0-1.24h0c0-.35,0-.69,0-1v0c0-.45,0-.91,0-1.36,0-.14,0-.28,0-.42s0-.37,0-.56,0-.66,0-1c0-.12,0-.25,0-.37s0-.34,0-.51,0-.31,0-.46a.53.53,0,0,0,0-.12s0,0,0,0a.62.62,0,0,0,0-.13s0-.1,0-.15a2.48,2.48,0,0,1,0-.27c0-.29,0-.59.07-.88s0-.48.08-.72a.25.25,0,0,1,0-.09,3.11,3.11,0,0,1,.06-.44c0-.11,0-.22,0-.33s.08-.49.12-.74a1,1,0,0,1,0-.17,1.8,1.8,0,0,1,.06-.32v0a.64.64,0,0,0,0-.07.2.2,0,0,1,0-.07c0-.09,0-.19,0-.29a2,2,0,0,1,.06-.26,2.33,2.33,0,0,1,0-.28h0s0-.06,0-.09a.83.83,0,0,1,0-.12l0-.2.12-.47a.44.44,0,0,1,0-.1c.06-.25.13-.49.2-.74a1.33,1.33,0,0,0,.05-.19.45.45,0,0,1,0-.08.36.36,0,0,1,0-.07.93.93,0,0,1,0-.13c.1-.32.21-.64.31-.94,0-.08,0-.15.08-.21h0a5.25,5.25,0,0,1,.22-.55.58.58,0,0,1,.06-.17,1.89,1.89,0,0,1,.09-.21,1.63,1.63,0,0,1,.09-.19s0,0,0,0a.16.16,0,0,1,0-.07.26.26,0,0,1,0-.12.65.65,0,0,1,.11-.22,1.12,1.12,0,0,1,.09-.22h0A.61.61,0,0,1,85,201c.12-.23.24-.45.37-.67h0l0-.06c.12-.21.26-.42.39-.61l0-.07h0s0,0,0,0a3.83,3.83,0,0,0,.25-.44h0v0h0l.24.22.56.5c.2.16.41.35.64.53.57.49,1.25,1,2,1.59,3.62,2.77,8.87,6,13,5.52,6-.76,13.28-5,16.34-8.25a7.49,7.49,0,0,0,1.08-1.38h0c.11.1.23.21.34.33l.06.06a.46.46,0,0,1,.07.07l.22.23.36.38.23.25a2,2,0,0,0,.14.16l0,0h0c.1.13.21.25.32.38a1.63,1.63,0,0,1,.17.22h0l.06.1h0a1.13,1.13,0,0,0,.1.13l.22.28c.09.11.16.22.25.34s.16.23.25.35h0l.2.29.1.17.26.39.09.16.08.14.16.29a1,1,0,0,1,.11.2c.15.28.3.55.43.84a0,0,0,0,0,0,0c.09.18.17.37.25.56s.09.21.13.32l0,0c.11.27.21.55.31.83a.31.31,0,0,0,0,.08c0,.15.1.3.14.47s.09.27.12.4a3.37,3.37,0,0,1,.09.34c0,.13.07.27.1.41s.06.29.09.45,0,.12,0,.18l0,.17,0,.2.06.34c0,.11,0,.22,0,.34s0,.31,0,.48,0,.23,0,.35a1.81,1.81,0,0,1,0,.25.86.86,0,0,1,0,.16,2.62,2.62,0,0,1,0,.28C125.88,210.57,125.89,210.83,125.89,211.1Z"/><path class="cls-9" d="M117,103.09l-6.72-1.87a21.07,21.07,0,0,0-4.39-5.09h-.39a21.19,21.19,0,0,0,.26-6.39h0a21.16,21.16,0,0,0-.65-3.48,24.12,24.12,0,0,0,13.75-.82c0,.13.43,6.31,1.83,8S117,103.09,117,103.09Z"/><path class="cls-6" d="M155.46,194.13c-.78-3.47-3.64-5.09-7.46-5.59-10.85-1.43-29.39,6.23-29.39,6.23l-5.79-10-.6-13.85,7.18-8,10.41-5.6a22.56,22.56,0,0,1,4,.2c4.84.61,12.77,2.92,16.36,11.2A71,71,0,0,1,155.46,194.13Z"/><path class="cls-5" d="M159.3,349.88a12.63,12.63,0,0,1-5.56,7c.3-1.38-1.15-7.49-3.11-14.82-.42-1.56-.86-3.18-1.31-4.82-.25-.92-.51-1.84-.77-2.77-.11-.43-.23-.84-.36-1.27-1.12-4.05-2.26-8.08-3.22-11.54-3.95-8-7.56-2.1-8.69.19a69.09,69.09,0,0,0,2.61-8.26c.09-.33.18-.66.26-1,.64-2.45,1.28-5.11,1.87-7.72,1.95-8.56,3.51-16.78,3.54-17,.05-.39.11-.77.16-1.15h0c1.48-10.24,3.25-19.1,3.32-19.49h0l3-13.62c-.82,6.48,2.74,15.78,2.83,16h0l1.15,7.76c-1,4.15-2.18,9.75-3.17,15.37h0c-.59,3.4-1.09,6.79-1.42,9.89a44.11,44.11,0,0,0-.2,8.67c0,.05,0,.11,0,.17,0,.28.07.57.11.86.75,5.54,2.88,13,4.88,19.93.07.26.15.54.23.8.12.41.23.81.35,1.21.82,2.83,1.59,5.54,2.19,7.95A35.92,35.92,0,0,1,159.3,349.88Z"/><path class="cls-5" d="M136.27,321.88c-.24.48-.37.8-.37.8C136,322.44,136.15,322.17,136.27,321.88Z"/><path class="cls-10" d="M155.46,194.13c-.78-3.47-3.64-5.09-7.46-5.59a86.34,86.34,0,0,0-2.1-11.45c-2.42-10.4-16.72-11.6-16.72-11.6l4.64-8c4.84.61,12.77,2.92,16.36,11.2A71,71,0,0,1,155.46,194.13Z"/><path class="cls-11" d="M141.22,119.19c-2.19,11.93,9,49.51,9,49.51a23.27,23.27,0,0,0-7.22-3.21c-10.43-2.72-21.1,1.37-21.1,1.37l-26.08-42s.25-20.38,3.81-27.66C100.64,95,102,94,103.67,95c10.18,5.94,17-1.56,17-1.56a22,22,0,0,1,3.33-.66c5.22-.67,10.67.16,15-.19,5.26-.43,11.15-4,11.15-4,.57,2.66,5.94,9.09,9.42,13,1.73,2,3,3.32,3,3.32C154.36,113.52,141.22,119.19,141.22,119.19Z"/><path class="cls-8" d="M210.62,37.07c-2,.89-59.6,24.86-59.6,24.86l9-16.45Z"/><polygon class="cls-12" points="164.2 44.79 162.9 41.56 210.62 37.07 164.2 44.79"/><polygon class="cls-8" points="162.9 41.56 169.32 32.73 210.62 37.07 162.9 41.56"/><polygon class="cls-12" points="210.62 37.07 168.82 61.1 165.25 56.01 210.62 37.07"/><path class="cls-9" d="M33.16,84.63a13.85,13.85,0,0,1-1,4.66c-.28.75-.62,1.57-1,2.42a31.16,31.16,0,0,1-2.28,4l-.53.77c-3.82,5.36-5.09,4.45-6.56,12.88-.55,3.11.32,22.31,1.43,29.93.15,1,.3,1.77.44,2.31,1.22,4.38,2.13,7,2.14,9.86,0,.23,0,.45,0,.67a56.79,56.79,0,0,1-13,9,72.78,72.78,0,0,1-8.44,3.32h0a12,12,0,0,1-1-4.53c-.55-6.54.06-18.38.74-29.21.5-8,1-15.49,1.2-19.87C5.87,91.5,4,96.69,3.29,85.29a20.65,20.65,0,0,1,.83-8.07h0c.62-1.61,1.58-2.59,2.94-2.5a1.57,1.57,0,0,1,1.63,1.61,2.68,2.68,0,0,1,0,.74l.15-.39c.34-.81,1.24-2.54,2.9-2.48,1.81,0,2.3.67,2.42,1.11h0a.9.9,0,0,1,0,.39,2.09,2.09,0,0,1,.37-.62,3.06,3.06,0,0,1,2.7-.91c2.59.16,3.27,1.47,3.27,1.47v0a4.14,4.14,0,0,1,3.64-1.46c2.12.3,2.59,1.55,2.64,1.7v0s1.53,2,1.2,7.07A.13.13,0,0,1,28,83c-.14,2.29,0,1.65.34.19.4-1.67,1.08-4.43,1.94-5.12,1.63-1.31,4.23-.82,4.23-.82s-1.57,6-1.33,7.2A.7.7,0,0,1,33.16,84.63Z"/><path class="cls-13" d="M25.72,151.49c0,.23,0,.45,0,.67a56.79,56.79,0,0,1-13,9,72.78,72.78,0,0,1-8.44,3.32h0a12,12,0,0,1-1-4.53c-.55-6.54.06-18.38.74-29.21.5,7.95,2.27,20,8.35,22A17,17,0,0,0,25.72,151.49Z"/><path class="cls-13" d="M27.91,87.84a4.86,4.86,0,0,0-1.34-.63h-.08c.18-1.16.29-2.32.37-3.42a1,1,0,0,0,0-.17s0-.09,0-.13h0v-.26a19.49,19.49,0,0,0,0-3v0c0-.22-.05-.41-.08-.6h0c-.05-.15-.52-1.4-2.63-1.7a4.15,4.15,0,0,0-3.65,1.46v0a.24.24,0,0,0-.06-.08h0s0,0,0,0a4.09,4.09,0,0,0-3.18-1.35,3.13,3.13,0,0,0-2.71.9l-.36.61v0c0-.14,0-.29,0-.43h0l-.06-.14c-.19-.42-.77-.92-2.38-1s-2.56,1.68-2.9,2.5v0s0,.42-.06,1.09v.07c0,.35,0,.75,0,1.22,0-.61,0-1.14-.06-1.5h0v-.5l0-.42a.62.62,0,0,0,0-.13s0,0,0-.09v-.23a1.59,1.59,0,0,0-1.64-1.5c-1.37-.09-2.32.9-2.94,2.51,0,.19-.17,1.32-.24,2.77h0s0,0,0,0,0,0,0,0v.16c0,.56-.07,1.18-.07,1.82,0,2.88.42,6,2.2,6,2.2-.06,2.64-4.88,2.69-8.1,0,3.53.39,8.75,2.58,8.85,2,.07,2.65-4,2.82-7.63C14.24,89,14.87,94.18,17,94c3-.24,3.27-6.19,3.37-11.25v-.28a.08.08,0,0,0,0,0v1.73a62,62,0,0,0,.26,8.12h0c.32,1.1,1.17,2.54,2.27,2.54A2,2,0,0,0,24.43,94h0c1.2.52,2.7,1.11,4.37,1.75.24-.35.46-.69.67-1l.35-.6c.08-.14.16-.27.23-.41s.1-.16.14-.25l0-.07.29-.52s0,0,0-.06a1.33,1.33,0,0,1,.06-.12l.06-.11a.21.21,0,0,0,.06-.1v0l.07-.15a.61.61,0,0,0,.07-.14l.14-.27,0-.09a.63.63,0,0,0,0-.09.76.76,0,0,1,.09-.18s0,0,0,0l.19-.43c.09-.21.19-.4.27-.61s.15-.36.21-.54a.09.09,0,0,0,0-.06l.12-.29c0-.1.07-.19.1-.29A13.14,13.14,0,0,1,27.91,87.84Z"/><path class="cls-6" d="M87.59,194.13c-26.51,13.64-31.17-1.23-31.17-1.23,5.87-12.61,20.93-20.36,20.93-20.36l16.66-6S114.09,180.47,87.59,194.13Z"/><path class="cls-14" d="M155.46,194.12h0s-10.72,5.6-19.56,6.94q-.45.08-.9.12c-8.63,1-18.34-2.77-18.34-2.77l2-3.65h0A114.17,114.17,0,0,1,133,190.11c9.34-2.3,20.18-3.33,22.3,3.41Z"/><path class="cls-7" d="M92.77,359.51c-.66-.28-25.87-11.11-34.51-6.79a21.26,21.26,0,0,1-6.47,2,33.28,33.28,0,0,1-13-.85,33,33,0,0,1,.3-4.06c.38-3.36,1.09-8.37,2.05-14,.36-2.11.75-4.32,1.18-6.56.19-1,.39-2,.59-3,.74-3.66,1.54-7.36,2.4-10.87.3-1.23.61-2.45.93-3.62.16-.6.31-1.22.45-1.84a52.37,52.37,0,0,0,.87-5.58c.16-1.65.26-3.33.31-5,.42-13.9-2.39-29.56.32-42.13,3.57-16.53-9.64-28.2-9.64-28.2-16-13.25-30.21-52.49-30.21-52.49h0l0,0a1,1,0,0,0-.6,0l-.15,0-.1,0-.12,0-.12,0,0,0c-.19.06-.42.13-.68.23l-.4.15a2.29,2.29,0,0,1-1.14.21l-.14,0a.89.89,0,0,1-.39-.19,1.54,1.54,0,0,1-.17-.19,1.06,1.06,0,0,1-.15-.28L4,176.13A1,1,0,0,0,4,176a2.4,2.4,0,0,1,0-.28,5.57,5.57,0,0,1,0-1.08,1.38,1.38,0,0,0,0-.39,1.15,1.15,0,0,0-.09-.34l0-.09a4.82,4.82,0,0,0-.25-.6,19.54,19.54,0,0,0-1-1.75l-.47-.77c-.64-1-1.32-2.07-1.78-2.91-.07-.15-.14-.27-.21-.4a1.12,1.12,0,0,1-.05-.13A.75.75,0,0,1,0,167a.53.53,0,0,1,0-.12.28.28,0,0,1,0-.09.28.28,0,0,1,0-.09.85.85,0,0,1,.11-.26l0-.06s0,0,0,0l.05,0a1.7,1.7,0,0,1,.19-.19l.18-.14.24-.15h0a4,4,0,0,1,.41-.22l.08,0,.4-.16.45-.17c.36-.14.76-.29,1.19-.43l.83-.28,0,0,.2-.07.27-.1.25-.08.08,0,.6-.21.07,0,1-.34.56-.2.66-.25H8l.19-.07.15-.05.27-.1.17-.07.28-.11.2-.08,0,0,.09,0,.21-.08.13,0,.16-.08H10c.86-.36,1.77-.76,2.73-1.21l.47-.23.33-.17h0l0,0,.07,0,0,0,.07,0,.16-.07a1.27,1.27,0,0,1,.23-.12l.14-.08.29-.15.1-.05.19-.11.21-.12c.39-.21.77-.44,1.15-.67l.07,0,.11-.07c.16-.09.31-.19.47-.27l.82-.52.06,0,.09-.07.17-.11.1-.07.07,0,.66-.45.48-.33.26-.18.07-.06.11-.07.3-.22c.56-.4,1.09-.8,1.62-1.2l.21-.17.23-.19.07,0,.07-.05h0l.37-.3a2.6,2.6,0,0,0,.36-.3l.13-.09.13-.1.26-.21.08-.08,0,0,.08-.05.2-.17c.63-.54,1.23-1.06,1.78-1.56l.28-.25.24-.2.34-.32.69-.64.34-.32.77-.75.34-.34.3-.3.26-.28.29-.3.38-.4L30,148a.63.63,0,0,1,.24-.18.11.11,0,0,1,.08,0h.11s0,0,0,0h.05a.91.91,0,0,1,.31.35l0,.07a.6.6,0,0,1,.06.11.61.61,0,0,0,.05.12,2.49,2.49,0,0,1,.11.29,3.79,3.79,0,0,0,.12.36l.15.53c0,.17.09.35.13.53.17.73.34,1.56.53,2.38a.41.41,0,0,1,0,.11.93.93,0,0,0,0,.1c0,.14.07.27.1.4l.15.6c0,.07,0,.12.06.18s0,.21.08.32a.19.19,0,0,0,0,.07,1,1,0,0,0,.07.23.11.11,0,0,0,0,.05c0,.14.09.28.13.41a.45.45,0,0,0,0,.11l.12.34a2,2,0,0,1,.09.33c0,.07,0,.14,0,.2a2.71,2.71,0,0,1,.06.38,2.3,2.3,0,0,1,0,.52,1,1,0,0,1,0,.18,2.1,2.1,0,0,1-.13.46.72.72,0,0,1-.12.21.42.42,0,0,1-.09.14,1.29,1.29,0,0,1-.49.37l-.1,0h0l-.13,0h0c.13.61.27,1.21.42,1.81a1.43,1.43,0,0,0,.07.28c.06.26.13.51.2.76.13.49.28,1,.43,1.44.1.32.2.64.31,1,0,0,0,.08,0,.14a2,2,0,0,0,.09.22,43.16,43.16,0,0,0,1.75,4.2c.18.39.37.76.56,1.14s.29.56.45.83.31.56.47.85c.49.89,1,1.76,1.58,2.6.2.32.4.63.62.94s.27.41.42.61.43.61.65.91.36.5.55.74.37.49.57.73l.44.55a56.54,56.54,0,0,0,4.11,4.56c.47.47.94.92,1.42,1.36s1.15,1.06,1.73,1.56a57.8,57.8,0,0,0,8.35,6h0a4.83,4.83,0,0,0,.45.26,0,0,0,0,0,0,0h0c.3.18.61.33.91.51h0c4.13,2.23,7.75,3.33,10,3.14.52-.06,1.06-.1,1.63-.14h0l4.06-.32h0c2.32-.18,4.63-.33,6.69-.45,3.65-.25,6.42-.42,6.65-.43h0a4907120130608.14,4907120130608.14,0,0,0-.08.54,2.87,2.87,0,0,1-.05.31c-.07.45-.16.88-.27,1.31a1.17,1.17,0,0,1,0,.2,2.76,2.76,0,0,1-.08.27A2.46,2.46,0,0,1,87,197a.29.29,0,0,1,0,.09q-.08.24-.15.45l0,.09a0,0,0,0,1,0,0v0c0,.06-.05.12-.07.17s0,.11-.07.16a1,1,0,0,0,0,.14l-.21.45-.08.14,0,.06-.06.13a.31.31,0,0,1,0,.1h0s0,0,0,0-.07.14-.11.2a2.39,2.39,0,0,1-.13.21s0,0,0,0v0h0l0,.06h0s0,0,0,0a.36.36,0,0,0-.07.1l0,.06,0,0,0,.06v0a.42.42,0,0,0-.06.08l0,.07,0,0,0,0a0,0,0,0,1,0,0l0,0v0l0,0a.75.75,0,0,0-.07.12.3.3,0,0,0-.06.11h0v0l0,0a.41.41,0,0,0,0,.09s0,0,0,0,0,0,0,0h0a.08.08,0,0,0,0,0,.16.16,0,0,0,0,.07.83.83,0,0,0-.07.13l0,0h0v0l0,.06a.05.05,0,0,0,0,0s0,0,0,0v0h0v0a.05.05,0,0,0,0,0s0,0,0,0h0s0,0,0,0l0,0h0a.06.06,0,0,0,0,0h0l0,0s0,0,0,0a.36.36,0,0,0,0,.09s0,0,0,0v0a.09.09,0,0,0,0,0h0s0,0,0,0h0a0,0,0,0,0,0,0h0a.09.09,0,0,0,0,.07h0a0,0,0,0,0,0,0,.08.08,0,0,0,0,0,.36.36,0,0,0,0,.09,0,0,0,0,0,0,0v0a.24.24,0,0,0,0,.1l0,.07v0s0,0,0,0,0,0,0,0a0,0,0,0,0,0,0s0,0,0,0h0s0,0,0,0v0s0,0,0,0a1.21,1.21,0,0,0-.09.2s0,0,0,0,0,0,0,0,0,0,0,.06,0,0,0,0a.61.61,0,0,0,0,.12l0,.08s0,0,0,0a0,0,0,0,0,0,0,0,0,0,0,0,0,0,.3.3,0,0,0,0,.1.06.06,0,0,0,0,0v0h0a.11.11,0,0,0,0,.08.08.08,0,0,0,0,0v0l0,.08h0s0,0,0,0h0l-.09.31s0,.08,0,.12v0a1.55,1.55,0,0,0-.07.23.19.19,0,0,0,0,.07,1,1,0,0,1,0,.14l-.06.2a.1.1,0,0,0,0,.07c0,.08,0,.15-.07.23l0,.12a.61.61,0,0,0,0,.13.76.76,0,0,0-.06.2v0a.36.36,0,0,0,0,.1l0,.08s0,0,0,0v0s0,0,0,0v.06h0a.29.29,0,0,0,0,.09.75.75,0,0,0,0,.16.18.18,0,0,0,0,.1v0s0,0,0,0,0,0,0,0a1.16,1.16,0,0,0,0,.18,0,0,0,0,1,0,0c0,.08,0,.16,0,.25l0,.11c0,.14-.06.29-.08.44a.13.13,0,0,0,0,.06.07.07,0,0,0,0,.05l-.09.52a0,0,0,0,0,0,0c0,.19-.07.39-.1.59s-.06.38-.08.58a2.54,2.54,0,0,0,0,.29s0,.05,0,.07v.07s0,.07,0,.11a.17.17,0,0,1,0,.07,1.23,1.23,0,0,1,0,.19l0,.35,0,.33a.37.37,0,0,0,0,.11.76.76,0,0,0,0,.15,2.22,2.22,0,0,0,0,.37v.07h0v0a.2.2,0,0,1,0,.07.61.61,0,0,1,0,.14v.14a0,0,0,0,1,0,0v.09c0,.12,0,.24,0,.37v.06a.13.13,0,0,0,0,.06v.13h0a.41.41,0,0,0,0,.12c0,.16,0,.32,0,.48s0,.16,0,.25v.09a1.55,1.55,0,0,0,0,.22v.11c0,.15,0,.31,0,.46v.56a1.09,1.09,0,0,0,0,.18c0,.47,0,.94,0,1.42v.2h0a1.48,1.48,0,0,0,0,.21l0,.82h0l0,.58c0,.19,0,.39,0,.57v.09s0,0,0,0,0,.07,0,.11c0,.31,0,.62.08.92a2.28,2.28,0,0,0,0,.26.44.44,0,0,0,0,.1c0,.07,0,.13,0,.2v0a1.69,1.69,0,0,1,0,.23s0,.05,0,.08a2.45,2.45,0,0,0,0,.38s0,.09,0,.14h0c0,.41.09.83.13,1.24h0c.06.52.13,1,.21,1.55,0,.3.09.59.14.88,0,.1,0,.19,0,.29l0,.15c0,.05,0,.1,0,.14a2,2,0,0,0,0,.24c0,.13,0,.26.07.38s.05.31.08.46,0,.06,0,.09a1.42,1.42,0,0,1,0,.2l.09.43h0l0,.15a.78.78,0,0,0,0,.14v0c0,.26.12.55.19.83s.08.38.13.57a1.16,1.16,0,0,0,0,.18.43.43,0,0,0,0,.11s0,0,0,0,0,0,0,0h0s0,.06,0,.08v0s0,.05,0,.09h0v.05h0a.17.17,0,0,1,0,.07s0,0,0,0l0,.13c.34,1.37.72,2.67,1.14,3.86,3.4,9.8-2.17,50.47-4.22,58.44a14.81,14.81,0,0,0-.3,1.77h0a18.83,18.83,0,0,0-.1,2c0,.34,0,.69,0,1,0,.19,0,.4,0,.6s0,.41,0,.62,0,.73.08,1.1.07.75.12,1.15a.27.27,0,0,0,0,.12,5,5,0,0,0,.06.54l.12,1c0,.19,0,.38.07.58.11.67.2,1.37.32,2.09.15.92.3,1.87.47,2.84.07.41.14.83.2,1.25.12.7.25,1.42.37,2.14s.25,1.45.38,2.19l.15.87h0l.33,2c.16,1,.31,1.93.46,2.9,0,.1,0,.21,0,.31l.06.33c.06.43.13.86.18,1.29s.12.76.17,1.15c0,.05,0,.1,0,.15s0,.27,0,.41,0,.27,0,.41c0,.34.09.68.13,1l.12,1c0,.24,0,.48.07.72s0,.48.08.72,0,.57.07.86a.17.17,0,0,1,0,.07c0,.44.08.88.11,1.31l0,.44c0,.14,0,.29,0,.44s0,.29,0,.44,0,.31,0,.46v0l0,.78c0,1.21.07,2.41,0,3.59,0,.69,0,1.37,0,2,0,.15,0,.31,0,.47a2.83,2.83,0,0,0,0,.29v.19c0,.65.07,1.29.13,1.92a.53.53,0,0,1,0,.13c0,.58.12,1.14.2,1.69s.17,1.23.27,1.8C87.71,353.56,92.51,359.21,92.77,359.51Z"/><path class="cls-5" d="M57.1,191.53c-11.27-1-22.3-20.84-27.28-22.83s-21,7.47-21.45,7.74l7.34-12,16.62-10.55c.11.42.23.82.36,1.18,1.06,3-.84,3.24-.84,3.24C35,174,47.19,185.76,57.1,191.53Z"/><path class="cls-15" d="M186,54.85s.33,5.88-1.89,7.54a6.42,6.42,0,0,0-.71,1.23l-.24.43c-3.51,6.39-15.43,29-23.51,37.61-3.36-3.81-8.46-9.93-9.34-12.75,1.44-1.26,22.09-19.48,23.51-24.53,1.48-5.24.68-6.52.68-6.52L177.72,56s.14-5.25,2.27-4.76a2,2,0,0,1,1.57,2.55l5.81-3.34Z"/><path class="cls-9" d="M121.86,201.69c-.14.44-17.85,8.26-18.28,8.26s-22-3.65-17.72-10.41c3.09-4.85,1.76-14.1.75-19h0a28.55,28.55,0,0,0,27.47-.1l1.1-.61A31.79,31.79,0,0,0,117,190.48C119,196.59,122,201.41,121.86,201.69Z"/><path class="cls-15" d="M61.84,87.57s-28.33-.31-33.31-3.42-7.85,4.46-7.85,4.46S37.17,96.07,54.73,98,61.84,87.57,61.84,87.57Z"/><path class="cls-13" d="M117,190.48c-22.66,6.44-30.18-9.49-30.36-9.91a28.55,28.55,0,0,0,27.47-.1l1.1-.61A31.79,31.79,0,0,0,117,190.48Z"/><path class="cls-14" d="M87.59,194.13c-6.73,3.46-12,5.08-16.24,5.58C59,201.18,56.42,192.9,56.42,192.9l0-.06c.07-.07.2-.22.41-.42l.06-.07c1.94-1.86,9.3-7.68,21.92-2.86A43.84,43.84,0,0,1,87.59,194.13Z"/><path class="cls-5" d="M185.6,279.31l-4.18-.19-17-10.52s12,.11,13.53,0-1.61-19.51-9.52-41c8,16.36,13.72,40.08,13.88,47.51C182.27,275.08,184.92,277.52,185.6,279.31Z"/><path class="cls-16" d="M124,92.77s-2.64,9-15.06,6.9c-4.9-.84-7.78-1.68-9.39-2.51C100.64,95,102,94,103.67,95c10.18,5.94,17-1.56,17-1.56A22,22,0,0,1,124,92.77Z"/><path class="cls-9" d="M8.7,79.09v.79c0,3.21-.49,8-2.7,8.09C2.79,88,4,77.86,4.12,77.22h0c.62-1.61,1.58-2.59,2.94-2.51A1.6,1.6,0,0,1,8.7,76.33l0,.76S8.7,77.9,8.7,79.09Z"/><path class="cls-9" d="M14.1,81v.06c-.17,3.66-.79,7.71-2.81,7.62-2.2-.09-2.59-5.31-2.59-8.83v-.79c0-1.39.09-2.37.09-2.37v0c.34-.82,1.25-2.54,2.9-2.49,1.81.06,2.3.68,2.42,1.12h0c0,.14,0,.28,0,.41C14.14,76.53,14.21,78.69,14.1,81Z"/><path class="cls-9" d="M20.48,75.65s0,.19,0,.54,0,.67,0,1c-.09,5.3-.08,12.84-3.41,13.09-2.18.16-2.79-5-2.94-9.22V81c-.09-2.87,0-5.3,0-5.3v0l.36-.62a3.09,3.09,0,0,1,2.7-.92C19.8,74.34,20.48,75.65,20.48,75.65Z"/><path class="cls-9" d="M24.42,90.29c-1.77,2.12-3.29-.12-3.74-1.68-.34-1.2-.28-8.22-.23-11.39,0-.42,0-.77,0-1s0-.54,0-.54l0,0a4.1,4.1,0,0,1,3.63-1.46c2.12.3,2.59,1.55,2.64,1.7h0C27.36,79.27,26.19,88.16,24.42,90.29Z"/><path class="cls-2" d="M87.59,194.13a13.27,13.27,0,0,1-1.73,5.41s0,0,0,0c-2.68,3.8-3.64,10.18-3.47,16.82-1.27-6.39-9.84-4.24-11.39-3.8l-.24.07C69.82,206.74,87.59,194.13,87.59,194.13Z"/><path class="cls-2" d="M123.92,220.66l0,.1v0c-.1.26-.21.53-.32.8l0,.1c0-.06.34-1,.4-1.06Z"/><path class="cls-2" d="M134.45,216.38s-7.4-3.39-10.53,4.32c.24-.63.46-1.24.64-1.84a25,25,0,0,0,1.33-7.76A17.94,17.94,0,0,0,120,197.78c-.43-.89-.89-1.9-1.36-3,.1.06,1,.62,2.44,1.59h0C125.75,199.64,135.45,207.5,134.45,216.38Z"/><path class="cls-13" d="M120.71,93.43s-9.28,1.3-14.93-3.69h0a21.16,21.16,0,0,0-.65-3.48,24.12,24.12,0,0,0,13.75-.82C118.9,85.56,119.31,91.74,120.71,93.43Z"/><path class="cls-17" d="M122.84,201.13h0c-.2,1.32-9,8.37-20.63,9.93-9.9,1.32-16.4-6-18.08-8.13a14.29,14.29,0,0,1,1.72-3.38s0,0,0,0c.1-.16.19-.32.28-.49,2.58,2.34,10.63,9.1,16.4,8.37,7-.88,15.51-6.43,17.43-9.64h0A22.9,22.9,0,0,1,122.84,201.13Z"/><g class="cls-18"><path class="cls-17" d="M89.17,344.11c-1.1-.25-2.18-.5-3.22-.77-.1-.57-.2-1.17-.27-1.79-.17-1.19-.27-2.44-.34-3.75,0-.31,0-.63,0-.95,0-.67,0-1.35,0-2,0-1.18,0-2.37,0-3.58l0-.81c0-.15,0-.31,0-.46l0-.44c0-.3,0-.59-.06-.88s-.06-.87-.11-1.3,0-.63-.08-.94c0-.48-.1-1-.16-1.44-.06-.68-.15-1.36-.24-2,0-.27-.06-.54-.11-.81-.1-.88-.24-1.74-.37-2.6l-.09-.64c-.3-1.95-.63-3.87-1-5.74-.51-2.95-1-5.78-1.43-8.42-.12-.72-.22-1.41-.32-2.09,0-.2,0-.39-.07-.58-.07-.51-.13-1-.19-1.5a.57.57,0,0,1,0-.12c-.09-.79-.16-1.53-.21-2.25,0-.41,0-.82-.06-1.22s0-.69,0-1a16.18,16.18,0,0,1,.39-3.83c2-8,7.62-48.63,4.22-58.44-.42-1.19-.8-2.49-1.14-3.86l-.06-.28a.6.6,0,0,1,0-.12.86.86,0,0,1-.07-.25,1.29,1.29,0,0,1,0-.19c0-.18-.09-.38-.13-.57q-.14-.57-.24-1.14h0c-.08-.38-.16-.77-.23-1.17h0c-.07-.39-.13-.79-.2-1.2-.13-.79-.25-1.61-.35-2.43h0c0-.41-.08-.83-.13-1.24s-.07-.71-.1-1.07a2.19,2.19,0,0,1,0-.36c-.06-.77-.11-1.53-.14-2.31h0c0-.41,0-.82,0-1.23h0c0-1.19,0-2.37,0-3.51,0-.13,0-.25,0-.37,0-.4,0-.79.08-1.18a.57.57,0,0,1,0-.13c0-.29,0-.59.07-.88s0-.48.08-.72a.25.25,0,0,1,0-.09,3.56,3.56,0,0,1,.06-.44c0-.11,0-.22,0-.33s.08-.49.12-.74a1,1,0,0,1,0-.17,1.8,1.8,0,0,1,.06-.32v0s0-.08,0-.14,0-.19,0-.29a2,2,0,0,1,.06-.26,2.33,2.33,0,0,1,0-.28h0s0-.06,0-.09,0-.22.07-.32a1.07,1.07,0,0,1,.08-.27.17.17,0,0,1,0-.07l0-.13a.44.44,0,0,1,0-.1c.06-.25.13-.49.2-.74a1.33,1.33,0,0,0,.05-.19.45.45,0,0,0,0-.08.36.36,0,0,1,0-.07c.07-.26.15-.52.23-.78a.05.05,0,0,0,0,0c.09-.28.19-.55.29-.81s.1-.25.16-.37a1.89,1.89,0,0,1,.09-.21,1,1,0,0,1,.08-.18,1,1,0,0,1,.12-.25,4.48,4.48,0,0,1,.2-.44l.23-.43c.07-.14.15-.27.23-.4a5,5,0,0,1,.43-.66h0l0-.07h0s0,0,0,0a3.83,3.83,0,0,0,.25-.44s0,0,0,0h0l.24.21.56.5c.2.16.41.35.64.53.57.49,1.25,1,2,1.59l-.2.34v0a13.72,13.72,0,0,0-1.43,2.66,12.6,12.6,0,0,0-.53,1.42c-2.77,8.38-1.45,21.74,1.42,30,3.39,9.81-2.18,50.48-4.22,58.45-1.74,6.81,2.77,21.51,3.94,35.59a68.65,68.65,0,0,1,.28,7.12A43.28,43.28,0,0,0,89.17,344.11Z"/></g><path class="cls-19" d="M130.39,211.23c1.86-4.69-9-14.57-9.33-14.85,4.69,3.26,14.39,11.12,13.39,20,0,0-7.4-3.39-10.53,4.32l0,.06,0-.1Z"/><path class="cls-2" d="M31.85,158.35c-4,5.4-23.49,18.09-23.49,18.09s-.14-.42-2.26.43S3.84,176,4,174.6,1.2,169.48.14,167.35s4-2.16,12.55-6.19S28.8,149.31,30,148s1.63,4.17,2.69,7.15S31.85,158.35,31.85,158.35Z"/><path class="cls-20" d="M126.08,25.41s2.85,7.71,2.53,13.48-9.48-12.12-9.48-12.12Z"/><path class="cls-21" d="M119.2,34.87s5.76,5.54,6.58,9.29c2.72,12.42,10,17.06,9.59,25.76-.43,9.65-8.7,17.06-17.06,21-4.72,2.25-25.91,7.68-40.56-14.65s-8.63-41.67,1.6-45.93S109.4,23.14,119.2,34.87Z"/><path class="cls-22" d="M129.25,40.53c-.82-3.75-6.58-9.29-6.58-9.29-9.8-11.73-29.62-8.74-39.85-4.48A14.47,14.47,0,0,0,76.64,32a12.93,12.93,0,0,1,2.71-1.56c10.23-4.26,30.05-7.25,39.85,4.48,0,0,5.76,5.54,6.58,9.29,2.72,12.42,10,17.06,9.59,25.76a19.88,19.88,0,0,1-4.64,11.56c4.51-4,7.84-9.16,8.11-15.19C139.22,57.59,132,53,129.25,40.53Z"/><path class="cls-20" d="M109.36,40.19c-17.11,3.93-21.64,7-21.64,7v0a.07.07,0,0,1,0,0,11.84,11.84,0,0,1-2.43,12c-4.11,4.76-.86,12.43.47,15.09l0,0c.28.55.47.89.48.93a13.23,13.23,0,0,0-1.61-1.2c-2.38-1.61-6.83-4.33-9.47-5-3.61-.94-18.75-13-16.15-24.62,0,0,0,0,0,0s.06-.27.1-.41a21.91,21.91,0,0,1,.94-2.77h0s0,0,0,0h0A16.65,16.65,0,0,1,67.62,33a8.81,8.81,0,0,1,2-8.56A5.21,5.21,0,0,1,76,23c1.42-8.1,18.11-29.55,38-21,6.56,1.69,10.79,5.62,12.77,10.37C131.05,22.57,124.94,36.61,109.36,40.19Z"/><path class="cls-23" d="M129.67,70.2a11.87,11.87,0,0,1-.16,1.53,8.1,8.1,0,0,1-.27,1.16,7.47,7.47,0,0,1-3.66,4.61,9.84,9.84,0,0,1-7.37.92,13.82,13.82,0,0,1-4.13-1.88,13.17,13.17,0,0,1-1.82-1.42s1.09-3.64,7.16-6.81,9.47-2.65,9.74-2.22A11.53,11.53,0,0,1,129.67,70.2Z"/><path class="cls-24" d="M129.24,72.89a7.47,7.47,0,0,1-3.66,4.61,9.84,9.84,0,0,1-7.37.92,13.82,13.82,0,0,1-4.13-1.88c.21-.17,9-6.54,15.15-3.66A0,0,0,0,1,129.24,72.89Z"/><path class="cls-21" d="M82,72.41c-2.6-2.19-3.49-4-5.83-3s-2.77,6.17.5,8.23,10.37,3.13,10.3,0S84.31,74.32,82,72.41Z"/><path class="cls-25" d="M106.47,76.86c-3.07,2.09-6.75,2-8.22-.13s-.18-5.61,2.88-7.7,6.74-2,8.22.13S109.53,74.77,106.47,76.86Z"/><ellipse class="cls-25" cx="128.91" cy="59.16" rx="5.87" ry="4.14" transform="translate(-12.58 49.22) rotate(-20.63)"/><path class="cls-26" d="M114.36,65.77a3.83,3.83,0,0,1-.35-2.4,3.38,3.38,0,0,1,1.46-2.3,3.14,3.14,0,0,1,2.78-.22,5.91,5.91,0,0,1,1.07.63,5.46,5.46,0,0,1,.8.93,6.39,6.39,0,0,1-1.17,0h-1a2.76,2.76,0,0,0-1.41.37,3.65,3.65,0,0,0-1.06,1.13C115.13,64.43,114.8,65.06,114.36,65.77Z"/><path class="cls-27" d="M102.66,62.62a4,4,0,1,1-5.07-2.2A3.9,3.9,0,0,1,102.66,62.62Z"/><path class="cls-28" d="M101.32,62.49a1.73,1.73,0,1,1-1.73-1.73A1.73,1.73,0,0,1,101.32,62.49Z"/><path class="cls-28" d="M98.41,66.39a.77.77,0,1,1-.9-.61A.77.77,0,0,1,98.41,66.39Z"/><path class="cls-27" d="M128.27,50.1a3.21,3.21,0,1,1-4.09-1.78A3.15,3.15,0,0,1,128.27,50.1Z"/><path class="cls-28" d="M126.77,49.79a1.37,1.37,0,1,1-1.36-1.36A1.36,1.36,0,0,1,126.77,49.79Z"/><path class="cls-28" d="M124.48,52.87a.61.61,0,0,1-.48.71.61.61,0,1,1-.23-1.19A.6.6,0,0,1,124.48,52.87Z"/><path class="cls-20" d="M70.1,33c.29,0-15.79-2.91-14.35,4.35C56.24,39.83,66.76,33.55,70.1,33Z"/><path class="cls-20" d="M72.72,35c.26.14-10.43-12.21-13.88-5.67C57.64,31.62,69.77,33.36,72.72,35Z"/><path class="cls-29" d="M109.36,40.19c-17.11,3.93-21.64,7-21.64,7v0a.07.07,0,0,1,0,0,11.84,11.84,0,0,1-2.43,12c-4.11,4.76-.86,12.43.47,15.09,0,0,0,0,0,0l-1.1-.26c-2.38-1.61-6.83-4.33-9.47-5-3.61-.94-18.75-13-16.15-24.62C59,46.6,59.64,49.8,62.88,54c6.49,8.53,9.07-4,15.89-7.46s3.55-14.2,3.55-14.2c13,11.64,42.7-6.26,44.45-20C131.05,22.57,124.94,36.61,109.36,40.19Z"/><path class="cls-30" d="M119.57,14.5a12.15,12.15,0,0,1-2.4,5.5"/><path class="cls-30" d="M101.22,9.36a34.43,34.43,0,0,1-2.4,12.84c-.14.36-.37.78-.75.79"/><path class="cls-30" d="M93.75,18.74a11.49,11.49,0,0,1-1.27,7.77"/><path class="cls-30" d="M80.41,34.55a9.61,9.61,0,0,1-2.07,7.87"/><path class="cls-30" d="M72.9,30.09v6"/><path class="cls-30" d="M65.27,41.87a14.48,14.48,0,0,0-.8,9.66"/><path class="cls-30" d="M69.46,45.22A13.14,13.14,0,0,0,69.32,51"/><path class="cls-30" d="M110.15,10.7a10.29,10.29,0,0,1-1.89,6.41"/><path class="cls-30" d="M118,9.57a8.84,8.84,0,0,1-2.23,5.18"/><path class="cls-30" d="M82.61,20.84a20.74,20.74,0,0,0,.53,7"/><path class="cls-30" d="M107.83,23.14a8.67,8.67,0,0,1-3.91,6.26,15.34,15.34,0,0,1-7.19,2.34"/><path class="cls-30" d="M86.64,15.76A19.74,19.74,0,0,1,87,21.7"/><path class="cls-30" d="M102.35,4a10.7,10.7,0,0,1,2.21,7.16"/><path class="cls-30" d="M95.57,9a4,4,0,0,1,0,4.6"/><g class="cls-31"><path class="cls-32" d="M71.64,61a9.27,9.27,0,0,0,1.26,2.49"/><path class="cls-32" d="M78.94,64.14A26.94,26.94,0,0,0,80.53,67"/><path class="cls-32" d="M78.87,52.44a22,22,0,0,0,1.33,2.82"/><path class="cls-32" d="M82.24,50.76a40.72,40.72,0,0,0,1.93,5.67"/><path class="cls-32" d="M78.22,58.79c.58,1.19,1.2,2.35,1.86,3.5"/><path class="cls-32" d="M120.76,29.79a11.63,11.63,0,0,1-4.08,3.84"/><path class="cls-32" d="M107.32,36.75a17.32,17.32,0,0,1-5.34.88"/><path class="cls-32" d="M90.06,41.32a10.45,10.45,0,0,0,4-.42"/><path class="cls-32" d="M85,46a10,10,0,0,1,.43,4.91"/><path class="cls-32" d="M64.53,57.61a10.49,10.49,0,0,0,2.29,3.73"/><path class="cls-32" d="M74.17,55.14a18.44,18.44,0,0,0,2.11,4"/></g><path class="cls-13" d="M183.12,64.05c-3.51,6.39-15.43,29-23.51,37.61-3.36-3.81-8.46-9.93-9.34-12.74,0,0,7.65,7.28,10.33,6.63S174.23,79.9,183.12,64.05Z"/><path class="cls-16" d="M141.22,119.19c-2.19,11.93,9,49.51,9,49.51a23.27,23.27,0,0,0-7.22-3.21S141,151.35,138.3,143s-2.53-21.07-2.24-26.58,23-14.52,23.54-14.75c1.73,2,3,3.32,3,3.32C154.36,113.52,141.22,119.19,141.22,119.19Z"/><path class="cls-19" d="M87.59,194.13a13.27,13.27,0,0,1-1.73,5.41s0,0,0,0c-2.68,3.8-3.64,10.18-3.47,16.82-1.27-6.39-9.84-4.24-11.39-3.8,1.53-.52,9.83-3.45,10.46-7.33C82.15,201,87.59,194.13,87.59,194.13Z"/><path class="cls-9" d="M100.17,106.18s23.71,19.44,23.37,44.34-21,36.83-41.78,23.19S58.4,133.8,58.4,133.8s5.45-15.68,6.48-16.71S100.17,106.18,100.17,106.18Z"/><path class="cls-33" d="M100.17,106.18s-34.27,9.89-35.29,10.91a15.48,15.48,0,0,0-1.46,3.09c8.35-2.84,32.51-9.81,32.51-9.81s23.7,19.44,23.36,44.33c-.12,8.35-2.52,15.23-6.44,20.19,6.38-4.84,10.53-13.33,10.69-24.37C123.88,125.62,100.17,106.18,100.17,106.18Z"/><path class="cls-34" d="M100.17,106.18A77.46,77.46,0,0,1,111,117.75h0a45.24,45.24,0,0,0-3.81-11.92l-10.8.36.77.87Z"/><path class="cls-34" d="M126.89,160.3c-.14,1.53-.3,3.26-.63,5.07h0c-1.21,6.69-4.8,14.52-19.15,17.45-12.39,2.53-27.68-.94-33.65-11.68a69.36,69.36,0,0,0-4.1-6.36L63,157.25c-3.54-.53-7-.46-7.36,1.15-2.88-2.41-11-9.63-15.67-17.93h0c-2.93-5.23-4.45-10.89-2.37-16a18.09,18.09,0,0,1,13.3-10.92s-3.66-10.62.31-15c4.52-5,7.2-.68,7.2-.68s-1.19-9,5.85-12.29c5.11-2.39,6.82,2.4,6.82,2.4s14.6-19.61,32.67-16c9.78,1.93,12.28,10.85,10.51,19.78-1.5,7.57-6.07,15.12-11.86,18.41-12.62,7.16-15.86,5.29-21.31,7.85s-7.39,9.77-12.17,10.79c0,0,3.86,6.4,1.13,12.7-2.08,4.81-2.5,8.12-2.08,11.23a21.53,21.53,0,0,0,.61,2.91c1.08,3.9,5.07,7.81,10.17,12.31l.4.34c4.45,3.68,6.43.36,11.83.7s8.58-4.57,8.69-8c.1-2.92,5.72-4,9.21-5.8,3.74-1.93,6.17-7.08,9.92-4.65,3.38,2.18,3.4-3.35,4.32-6.31,0,0,.94.3,1.88,2C126.53,149.15,127.31,155.83,126.89,160.3Z"/><path class="cls-26" d="M109,146c-.18,2.41-3.41,3.18-3.62,4a6.41,6.41,0,0,1,1-2.4h0a10.23,10.23,0,0,0,.76-1.18,1.44,1.44,0,0,0,0-1.55c-.35-.5-2-.61-2.59-1a9.1,9.1,0,0,1-3.43-4.35c-.38-.94,1,.58,1.22,1,.62,1.51,2.21,2.09,3.77,2.48a4.43,4.43,0,0,1,2.34,1.1A2.23,2.23,0,0,1,109,146Z"/><path class="cls-23" d="M111.65,129.71l0,0c-.09,0-.3-.1-1-.78v0a4.45,4.45,0,0,0-1-.77,2.1,2.1,0,0,0-3.08.58,3.36,3.36,0,0,0-.3.6,7.29,7.29,0,0,0-.46,2.16c-.11.92-.47,1.91-.7,1.75a.11.11,0,0,1,0-.05,6.62,6.62,0,0,1-.52-3.24v0a7.73,7.73,0,0,1,.4-2,3.28,3.28,0,0,1,1-1.52c1.61-1.27,3.59,0,4.81,1.33l.2.22,0,0C111.63,129,111.72,129.64,111.65,129.71Z"/><path class="cls-23" d="M91.8,142.71c-.12.33-.64,0-.83-.11l-.15-.1,0,0a3.69,3.69,0,0,0-.53-.26,3.54,3.54,0,0,0-2-.32c-1.6.28-2.22,1.8-2.43,3.45a2.11,2.11,0,0,0,0,.26c0,.09,0,.18,0,.26-.26,2.2-.62,3-.78,2.95s-.77-.75-.9-3.31v-.16c.09-2.23.68-4.64,3-4.86A6.32,6.32,0,0,1,91,141.72C91.14,141.85,91.91,142.39,91.8,142.71Z"/><path class="cls-34" d="M82.82,133.33s-4.47-.49-6.74,5.2c-1.55,3.87,0,9.09.57,9.09,1.48,0,1.19-5,2.21-7.83S83.28,135.09,82.82,133.33Z"/><path class="cls-34" d="M100.54,121.69c0-2.38,4.26-2.6,6.37-1.91s3.84,2,3.85,2.56c0,1.37-2.53.1-4.52-.28C104.5,121.72,100.54,123.36,100.54,121.69Z"/><path class="cls-23" d="M115.06,166.39c-7.66,4.73-14-3.24-14-3.24h0c.37-.13,12.06-4.32,16.74-10.45h0C117.81,152.8,122.56,161.75,115.06,166.39Z"/><path class="cls-35" d="M117.78,152.7a12.35,12.35,0,0,1-5.35,8.37c-4.75,3-11.41,2.08-11.41,2.08h0c.37-.13,12.06-4.32,16.74-10.45Z"/><path class="cls-36" d="M127,159.38c-.75,11.43-5.37,21.31-19.71,24.24-12.39,2.53-27.87-1.73-33.84-12.47a69.36,69.36,0,0,0-4.1-6.36L63,157.25c-3.54-.53-7-.46-7.36,1.15-2.88-2.41-11-9.63-15.67-17.93,16.41,14.91,17-14.56,17-14.56,13.18-5.12,15.69-18.76,15.69-18.76,8.18,6.82,35-4.78,41.58-15.47h0c-1.5,7.57-6.07,15.12-11.86,18.41-12.62,7.16-15.86,5.29-21.31,7.85s-7.39,9.77-12.17,10.79c0,0,3.86,6.4,1.13,12.7-2.08,4.81-2.5,8.12-2.08,11.23v0c.1,3.47,4.07,16,13.8,21C106.14,185.64,125.39,168.87,127,159.38Z"/><path class="cls-9" d="M67.19,168c-2.36,1.24-11.53-5.45-11.9-9.17a3.77,3.77,0,0,1,.48-2.05c1.31-1.87,2.76-.86,6.62-.28,0,0,1.27.28,7.14,8.53C69.53,165,69.54,166.74,67.19,168Z"/><path class="cls-37" d="M88.07,173.94a4.61,4.61,0,0,0,2.69,3"/><path class="cls-37" d="M82.32,173a24.51,24.51,0,0,0,1.75,2.43"/><path class="cls-37" d="M94.73,173.47a8.51,8.51,0,0,0,1.49,2.21"/><path class="cls-37" d="M100.06,176.23a2.75,2.75,0,0,0,1.33.69"/><path class="cls-37" d="M99.65,169a8.16,8.16,0,0,1,1.12,2.32"/><path class="cls-37" d="M99,171.54c.32.61.67,1.2,1,1.77"/><path class="cls-37" d="M104.07,171.89a4.67,4.67,0,0,0,1.2,1.58,8.25,8.25,0,0,1,1,.86"/><path class="cls-37" d="M103.51,174.74a3.35,3.35,0,0,0,2.17,1.39"/><path class="cls-37" d="M111,172.46a6.26,6.26,0,0,0,2.35,1.66"/><path class="cls-37" d="M89.71,170.9c.52.41.5,1.34,1.1,1.62"/><path class="cls-37" d="M93.21,175.79c.32.38.66.75,1,1.1a2.46,2.46,0,0,0,.86.61"/><path class="cls-37" d="M106.86,168.55l1.26,2.07"/><path class="cls-37" d="M114.65,171.45l2.35,1.17"/><path class="cls-37" d="M116.86,168.23A6.25,6.25,0,0,0,118.5,170"/><path class="cls-37" d="M120.18,166.54c.29.47.59.93.89,1.4"/><path class="cls-37" d="M120.26,161.49a6,6,0,0,1,.86,1.94"/><path class="cls-37" d="M124.64,163.42c.21.63.41,1.26.62,1.9"/><path class="cls-37" d="M120.81,153.85a27.19,27.19,0,0,1,.63,3.11"/><path class="cls-37" d="M122.27,159.7a8.73,8.73,0,0,1,.3,2.44"/><path class="cls-38" d="M106.09,79.41c-.44,4.17-1.3,8.43-3.57,12a32.91,32.91,0,0,1-2.94,3.72"/><path class="cls-38" d="M96.5,92.31,92,98.9c-.91,1.33-2.12,2.81-3.72,2.7"/><path class="cls-38" d="M96.58,76.25a12.81,12.81,0,0,1,1.29,11.32"/><path class="cls-38" d="M87.54,81.25a29.7,29.7,0,0,1-.18,6.53"/><path class="cls-38" d="M83.46,89.57a25.39,25.39,0,0,1-7.19,14.78"/><path class="cls-38" d="M73.68,96.29a16,16,0,0,1-1.9,9.07"/><path class="cls-38" d="M69.07,91.11a23.07,23.07,0,0,1-2.38,9.36"/><path class="cls-38" d="M60.44,104.15a49.11,49.11,0,0,1,.13,7.86"/><path class="cls-38" d="M41.17,132.24a14.65,14.65,0,0,0,5.08,9.23"/><path class="cls-38" d="M45.32,124.38a24.82,24.82,0,0,0-.35,4.56,4.64,4.64,0,0,0,.79,3"/><path class="cls-38" d="M51,123.87a12.93,12.93,0,0,0,2.87,6.51"/><path class="cls-38" d="M53.36,109c-.37,1.76.38,3.54,1.12,5.18s1.49,3.33,2.24,5"/><path class="cls-38" d="M66,111.46c-.05,3.64-2.28,6.85-4.41,9.8"/><path class="cls-38" d="M92.21,87.6A21.87,21.87,0,0,1,90.78,94c-.27.69-.65,1.44-1.36,1.64"/><path class="cls-38" d="M110.38,78.25c.22,1.83.43,3.67.65,5.5"/><path class="cls-38" d="M101.41,74.57q.32,2.43.78,4.83"/><path class="cls-38" d="M106.42,93.48a8.29,8.29,0,0,1-3.82,5.29"/><path class="cls-13" d="M26.89,83.21s-.19,6-1.28,7.6-1.19-.52-1.19-.52,1.72-2.27,2.11-7.08Z"/><path class="cls-13" d="M122.68,241.71c-1.33-1.24-4.8-2.29-5.14-2.48l2,6.4,2.37,1.43,2.67-1.18Z"/><path class="cls-15" d="M154.79,206.4c-1.41,3.25-12.06,21.6-18.89,32.7-1.69,2.75-3.15,5.05-4.18,6.57a17,17,0,0,1-1.35,1.84,4.29,4.29,0,0,1-3.29,1.05A19.71,19.71,0,0,1,120.7,247s.27-.7.72-1.92l.59-1.56h0c1-2.7,2.5-6.72,4.12-11.12,1-2.58,1.93-5.28,2.89-7.93a.56.56,0,0,0,0-.12l.07-.18.05-.14c2.58-7.12,4.9-13.71,5.52-16a21,21,0,0,0,.3-6.76,71,71,0,0,0-2-11.09c5.62-1.38,11.78-2.31,16.26-1.36,3,.64,5.19,2.09,6,4.78l.17.59h0S156.76,201.86,154.79,206.4Z"/><path class="cls-13" d="M155.46,194.12h0c-7.22-4.7-20.46,7.06-20.46,7.06a69.67,69.67,0,0,0-2-11.08c5.62-1.39,11.79-2.31,16.26-1.36,3,.64,5.19,2.09,6,4.77Z"/><path class="cls-9" d="M70.16,227.21c.65,7.81,1.51,14.18,1.51,14.18a23.66,23.66,0,0,1-1.27,2.26c-1.79,2.83-5,6.6-6.87.36-.89-3-2.21-8.21-3.58-13.88-2.64-10.93-5.45-23.7-5.74-26.7-.43-4.57,2.21-10.53,2.21-10.53l0-.06.41-.42.06-.07c1.6-1.54,6.93-5.79,15.87-4.47h0a28.24,28.24,0,0,1,6,1.61,45.28,45.28,0,0,0-7.51,10.22c-.24.51-.47,1-.66,1.52-1.8,4.8-1.33,16.45-.53,26Z"/><path class="cls-39" d="M71.67,241.39s-5.52,11.54-8.14,2.62c-.89-3-2.21-8.21-3.58-13.88,0,0,7,1.36,10.21-2.92C70.81,235,71.67,241.39,71.67,241.39Z"/><path class="cls-13" d="M71.35,199.71c1.78-8.36-14.41-7.36-14.41-7.36,1.6-1.54,6.93-5.79,15.87-4.47h0a28.24,28.24,0,0,1,6,1.61A45.28,45.28,0,0,0,71.35,199.71Z"/><path class="cls-40" d="M63.29,243.16a8.14,8.14,0,0,0,8.16-3.5s2.31.1,4.2,5.63c1.2,3.49-14,11.28-20.21,12.36s-2-6.86,1-8.44S61.58,243.29,63.29,243.16Z"/><path class="cls-39" d="M135.9,239.1a88.5,88.5,0,0,1-5.53,8.4c-2.52,2.66-9.66-.51-9.66-.51s2.51-6.7,5.42-14.62c0,0,3.92,6.6,9.49,6.71Z"/><path class="cls-9" d="M182,289.7c-.69,4.45-9.19,9.6-18.29,10.44-5.84.68-33.16-27.24-38.87-30.73-7.52-4.58-13.62-3.76-16.17-6.2s-7.09-8.63-5.16-10.66,2.6-1.05,2.7-.93c-.1-.17-1.31-2.33.16-3.79a4.36,4.36,0,0,1,3.59-1.18,2.19,2.19,0,0,1,0-2.9c1.22-1.61,3.9-.33,3.9-.33s-1.15-2.35.31-3.88c1-1.06,2.51-.67,3.36-.31a1.2,1.2,0,0,1,.77.85c1,5.27,6.93,7.12,6,6.41s-2.93-5.3-.63-8.57,2.56,2.66,5,6.29,3.37,11.12,6.86,15.62,21,10.91,21,10.91h0c.93.06,1.82.15,2.69.28C176.63,273.63,182,289.7,182,289.7Z"/><path class="cls-13" d="M182,289.7c-.69,4.45-9.19,9.6-18.29,10.44,9.16-4.49,16.07-13.47-4.43-29.12C176.63,273.63,182,289.7,182,289.7Z"/><path class="cls-41" d="M158,342.31c-1,.05-2,.05-3.13,0-1.44-.06-2.85-.14-4.21-.24-11.74-.9-20.81-3.32-28.15-2.58a18.12,18.12,0,0,0-6.27,1.66,15,15,0,0,0-2,1.17c.11-.3,2-5.1,4.2-11.95h0a.43.43,0,0,0,0-.05c.46-1.43.93-3,1.4-4.55.06-.18.11-.37.16-.55l.54-1.86c-.53.12-1.07.23-1.6.33-6,1.22-11.74,2-15.92,1.54a132.24,132.24,0,0,1-15.32-2.53l-.61-.14c-.89-.2-1.77-.4-2.62-.61h-.06l-1.44-.35c0,.14,0,.28.08.42q.26,1.44.57,2.76a51.4,51.4,0,0,0,1.67,5.67l.33.89s0,0,0,0a46.26,46.26,0,0,0,3.25,6.81h0a30.39,30.39,0,0,0,2.83,4.13c-.13-.06-1.13-.49-2.75-1.13-.81-.32-1.77-.7-2.85-1.11l-.56-.22c-1.18-.46-2.5-.94-3.92-1.43-10.67-3.77-26.92-8.42-34.15-4.82a26.46,26.46,0,0,1-6.24,2.17c.36-2.11.75-4.32,1.18-6.56.19-1,.39-2,.59-3,.74-3.66,1.54-7.36,2.4-10.87.3-1.23.61-2.45.93-3.62.16-.6.31-1.22.45-1.84A256.66,256.66,0,0,0,83.14,314h0l3.06.13c9.55.38,20.36.39,32.43-.15,6.47-.28,13.3-.72,20.51-1.36q5.15-.45,10.55-1l.51,0c0,.28.07.57.11.86.75,5.54,2.88,13,4.88,19.93.07.26.15.54.23.8.12.41.23.81.35,1.21C156.6,337.19,157.37,339.9,158,342.31Z"/></g></g></g></svg>