<svg xmlns="http://www.w3.org/2000/svg" xmlns:xlink="http://www.w3.org/1999/xlink" viewBox="0 0 352.38 266.92"><defs><style>.cls-1{fill:#2993a1;}.cls-1,.cls-10,.cls-11,.cls-12,.cls-13,.cls-14,.cls-15,.cls-16,.cls-17,.cls-18,.cls-19,.cls-2,.cls-20,.cls-21,.cls-22,.cls-23,.cls-24,.cls-25,.cls-26,.cls-27,.cls-3,.cls-4,.cls-5,.cls-6,.cls-7,.cls-8,.cls-9{fill-rule:evenodd;}.cls-2{fill:url(#GradientFill_2);}.cls-3{fill:url(#GradientFill_2-2);}.cls-4{fill:url(#GradientFill_2-3);}.cls-5{fill:#86979c;}.cls-6{fill:#00697f;}.cls-7{fill:#003250;}.cls-8{fill:#f5a428;}.cls-9{fill:#eb6307;}.cls-10{fill:#f0871d;}.cls-11{fill:#e44b0a;}.cls-12{fill:#89d9d8;}.cls-13{fill:#54b5b0;}.cls-14{fill:#ea5e04;}.cls-15{fill:#db420b;}.cls-16,.cls-22{fill:#adccd4;}.cls-16,.cls-27{stroke:#d9d9d9;stroke-linecap:round;stroke-linejoin:round;stroke-width:0.22px;}.cls-17,.cls-27{fill:#fff;}.cls-18{fill:#e6eaef;}.cls-19{fill:#ef8d7b;}.cls-20{fill:#f7e6d8;}.cls-21{fill:#ecbaa2;}.cls-23{fill:#8caeb7;}.cls-24{fill:#cfe9ef;}.cls-25{fill:#133f63;}.cls-26{fill:#072f49;}</style><linearGradient id="GradientFill_2" x1="281.66" y1="212.47" x2="293.08" y2="169.11" gradientUnits="userSpaceOnUse"><stop offset="0" stop-color="#00000b"/><stop offset="1" stop-color="#152d44"/></linearGradient><linearGradient id="GradientFill_2-2" x1="128.59" y1="184.34" x2="50.09" y2="128.84" xlink:href="#GradientFill_2"/><linearGradient id="GradientFill_2-3" x1="193.23" y1="155.04" x2="350.25" y2="155.04" xlink:href="#GradientFill_2"/></defs><title>mother</title><g id="Camada_2" data-name="Camada 2"><g id="OBJECTS"><path class="cls-1" d="M74,7.76a.45.45,0,0,0-.81-.3,63.21,63.21,0,0,1-4.5,4.81c-.94.94-1.89,1.89-2.85,2.92-5.79,6.17-10,13.07.09,22.48a14.41,14.41,0,0,1,3.83,6,101.81,101.81,0,0,0,2.76,16.63,36.13,36.13,0,0,0-3.57-5.17,7.78,7.78,0,0,1-1.19-3.67c-.52-7.62-4.93-8.37-9.65-8-.86.06-1.74.16-2.6.25a33.06,33.06,0,0,1-3.81.28.46.46,0,0,0-.27.82s1.13.77,2,4.64a9.81,9.81,0,0,0,2.22,4.81A5.85,5.85,0,0,0,60,55.9a16.6,16.6,0,0,0,3.72-.53c1.83-.42,3.41-.77,4.52.36l0,0A34.5,34.5,0,0,1,74,65.68a96.74,96.74,0,0,0,6.21,15.14s0,0,0,.05c.76,1.47,1.56,2.95,2.41,4.42-1.05-.83-2.17-1.66-3.37-2.48a12.66,12.66,0,0,1-3.6-5.26C71.56,66.29,64.59,67.1,57.6,69.65c-1.27.47-2.58,1-3.87,1.55A54.78,54.78,0,0,1,48,73.33a.45.45,0,0,0-.34.44.42.42,0,0,0,.3.42h0s2.17.71,5.26,6.37c1.62,3,3.39,5.11,5.46,6.29a9.08,9.08,0,0,0,7.34.64A26.14,26.14,0,0,0,71.43,85c2.69-1.49,5-2.77,7.35-1.48a56.26,56.26,0,0,1,5.25,4c1.32,2.15,2.74,4.29,4.29,6.42-3.55-.38-7.34.74-11.13,2.28-1.62.66-3.24,1.39-4.83,2.12a71.4,71.4,0,0,1-7.18,3,.45.45,0,0,0-.34.45.44.44,0,0,0,.33.42c.23.08,3,1.11,7,7.88,2.18,3.69,4.5,6.28,7.16,7.68a11.37,11.37,0,0,0,9.23.47,32.49,32.49,0,0,0,6.73-3.34c.66-.4,1.31-.78,1.94-1.14l2.12-10.5c-2.75-5.68-6.11-8.28-9.78-9.08-1.75-2.38-3.35-4.76-4.82-7.14,0,0,0,0,0,0q-2-3.3-3.69-6.58A43.23,43.23,0,0,1,79,63.78s0,0,0-.06c.33-2.18,2.33-3,4.67-4A21.58,21.58,0,0,0,88,57.35a7.6,7.6,0,0,0,3.34-5.2A12.82,12.82,0,0,0,90,45.32c-2-4.63-1.57-6.45-1.51-6.63a.47.47,0,0,0-.06-.43.45.45,0,0,0-.63-.09,45.79,45.79,0,0,1-4.33,2.69c-1,.56-2,1.13-3,1.77-5.27,3.31-9.37,7.51-4,16a10.63,10.63,0,0,1,1.62,4.94,48.14,48.14,0,0,0,.85,12.49,97.88,97.88,0,0,1-3.68-9.46.11.11,0,0,0,0,0s-.11-.43-.38-1.17a99.76,99.76,0,0,1-4.24-21.71v-.11c-.33-3.09,1.89-4.92,4.54-7.09a30.4,30.4,0,0,0,4.58-4.36,10.1,10.1,0,0,0,2.54-7.78C82,21.69,80.55,19,78.21,16,73.73,10.33,74,7.76,74,7.76Zm21,117.63a76.28,76.28,0,0,0-6.44,11.06,87,87,0,0,1-4.67,8.4.45.45,0,0,0,.12.62.46.46,0,0,0,.39.06c.22-.06,2-.4,6.2,1.7l4.4-21.84Zm10.28-50.91-4.83,23.9c-.3-.23-.62-.44-.95-.65-13.27-8.36-9.51-17.91-6.06-26.67a58.62,58.62,0,0,0,2.21-6.28.44.44,0,0,1,.55-.31.42.42,0,0,1,.32.33c.07.22.94,2.92,6.39,7.51C103.67,73,104.46,73.76,105.18,74.48Z"/><path class="cls-2" d="M340.73,198.09c.06-.61.1-1.23.14-1.85,0-1.09-1-33.4-35.61-38C270,153.48,218.78,176.08,227.87,232q2.56,15.75,5.08,28.43c8.16-3.24,15.18-7.7,20.34-13.38,21.47-23.61,42.94-28.82,69-38.94A81.44,81.44,0,0,0,340.73,198.09Z"/><path class="cls-3" d="M48.22,129.37c-14.89,21.06,2.27,42.72,27.21,54.47,26.68,12.58,32.2,23.61,38.94,40.48.49,1.21,1,2.39,1.6,3.54a56.33,56.33,0,0,0,17-8.72c15.32-11.95,20-79.39-21.93-98.58C70.3,101.88,49.32,127.94,48.22,129.37Z"/><path class="cls-4" d="M349.46,109.14a.45.45,0,0,1,.78.35,64.38,64.38,0,0,0-.11,6.59c0,1.33,0,2.68,0,4.08-.14,8.46-2,16.31-15.72,16.08a14.57,14.57,0,0,0-6.91,1.62,101.69,101.69,0,0,1-13.56,10,35.39,35.39,0,0,1,6.17-1.23,7.71,7.71,0,0,0,3.4-1.81c5.68-5.11,9.36-2.58,12.54.94.57.64,1.13,1.32,1.69,2a33.54,33.54,0,0,0,2.54,2.85.46.46,0,0,1,0,.64.44.44,0,0,1-.39.13s-1.35-.23-4.65,2a9.88,9.88,0,0,1-4.95,1.9,5.82,5.82,0,0,1-4.35-1.84,16.17,16.17,0,0,1-2.3-3c-1-1.58-1.91-2.93-3.51-2.89h0a34.05,34.05,0,0,0-11,3.14,97.85,97.85,0,0,1-15,6.54l-.06,0c-1.56.53-3.17,1-4.81,1.5,1.34.13,2.72.32,4.15.57a12.74,12.74,0,0,0,6.24-1.28c10.8-5.21,15.25.22,18.48,6.92.59,1.21,1.16,2.52,1.71,3.8a57.24,57.24,0,0,0,2.63,5.53.44.44,0,0,1-.05.55.46.46,0,0,1-.51.1h0s-2.06-1-8.22.91c-3.24,1-6,1.3-8.3.71a9.1,9.1,0,0,1-5.71-4.65,25.68,25.68,0,0,1-2.18-5.53c-.9-2.95-1.67-5.48-4.25-6.18a56.86,56.86,0,0,0-6.58-.76c-2.43.62-4.95,1.17-7.55,1.62,2.82,2.2,4.76,5.64,6.41,9.38.71,1.61,1.36,3.26,2,4.89a71.88,71.88,0,0,0,3.09,7.13.45.45,0,0,1-.6.63c-.22-.1-2.92-1.28-10.52.79-4.13,1.12-7.6,1.37-10.48.53a11.46,11.46,0,0,1-7-6.09,33.25,33.25,0,0,1-2.51-7.08c-1-3.82-1.88-7.09-5.21-8.11-2.19-.47-4.3-.81-6.31-1q-5.5-.53-11.36-1.58l-.08,0c-2.8-.5-5.66-1.11-8.57-1.81l-.21-.05h-.05q-3.27-.8-6.64-1.75a64,64,0,0,1,5.14,4,17.28,17.28,0,0,0,9.26,2.58c13.67.25,17.35,5.79,17.22,13.12-.08,4.58-1.69,9.83-3.24,14.91a88,88,0,0,0-2.5,9.28.44.44,0,0,1-.52.36.43.43,0,0,1-.32-.23c-.16-.25-2-2.84-11.28-4.39-5.08-.85-8.81-2.31-11.08-4.67s-3.09-5.66-2.28-10.06a43.11,43.11,0,0,1,3-8.87c2-4.63,3.68-8.6,1.13-11.34a65.79,65.79,0,0,0-7.46-5.52,207.32,207.32,0,0,1-24.7-9.33.45.45,0,0,1-.23-.59.46.46,0,0,1,.6-.23,207.53,207.53,0,0,0,24.63,9.31h0q4.72,1.42,9.26,2.53c.87-.59,1.75-1.21,2.64-1.85,3.31-2.78,3.27-6.55,3.23-11a38.12,38.12,0,0,1,.59-8.4,16.26,16.26,0,0,1,5.56-9.58c2.81-2.31,6.56-3.83,11.28-4.8,8.79-1.82,11.35-4.44,11.55-4.65h0s.05,0,.08-.06h0a.54.54,0,0,1,.22,0h.12a.53.53,0,0,1,.15.08h0a.24.24,0,0,1,.06.08h0a.43.43,0,0,1,0,.23h0v0h0a80.77,80.77,0,0,0-1.21,8.81c-1.28,12.45-2.67,26-22.23,27.14a20.57,20.57,0,0,0-9,2.79l-2,1.4q3.94.93,7.76,1.62a76.24,76.24,0,0,0,24-4.25l.07,0c3.1-1.3,3.86-4,4.75-7.11a26.16,26.16,0,0,1,2.24-5.92,12.46,12.46,0,0,1,6.35-5.78,21.73,21.73,0,0,1,9.72-1.12c7.1.51,9.61-.83,9.81-.94a.45.45,0,0,1,.46,0,.44.44,0,0,1,.17.61,60.91,60.91,0,0,0-2.77,6c-3.63,8.69-7.58,18.17-22.92,14.93a17.48,17.48,0,0,0-7.42.12,83.53,83.53,0,0,1-20,4.19c1.67.25,3.31.46,4.94.65l2,.21q6.21.6,12,.59a16,16,0,0,0,2.51-.87c7.08-3.11,11.93-2.79,15.49-.58,2.92-.48,5.73-1.08,8.44-1.77h0q3.74-1,7.23-2.14a43.7,43.7,0,0,0,13.13-10.53l0-.06c1.28-1.78.44-3.8-.53-6.15a21.6,21.6,0,0,1-1.54-4.72,7.65,7.65,0,0,1,1.22-6.06,12.9,12.9,0,0,1,5.74-4c4.68-1.92,5.61-3.54,5.7-3.71a.45.45,0,0,1,.85.11,46.34,46.34,0,0,0,1.24,4.94c.31,1.09.63,2.2.91,3.35,1.48,6,1.5,11.91-8.25,14.29a10.66,10.66,0,0,0-4.6,2.42,47.57,47.57,0,0,1-9.3,8.37,93,93,0,0,0,9.22-4.23l0,0s.39-.23,1.1-.58a99.76,99.76,0,0,0,18.15-12.63l.08-.09c2.39-2,2.06-4.84,1.67-8.25a30.1,30.1,0,0,1-.25-6.31,10.09,10.09,0,0,1,3.58-7.36c2.07-1.68,5-2.66,8.73-3.16,7.16-1,8.78-2.94,8.79-3Z"/><path class="cls-5" d="M231.24,33.71c8-14.46,18.35-19.93,26.71-20.1A16.83,16.83,0,0,1,267.27,16a11.73,11.73,0,0,1,5.19,6.54c1.26,4.25-.09,9.48-5.4,14.52-3.19,3-6.67,6.09-10.41,9a107.82,107.82,0,0,1-12.08,8.25c-6.38,3.72-10.92,5.27-14,5.28a5.27,5.27,0,0,1-4.74-2.18A8.83,8.83,0,0,1,224.74,52c.33-5.15,3.13-12.18,6.5-18.28Zm-3.19,23.51s.79-1.54,2.22-3.94a.41.41,0,0,0,0-.09l.14-.24c1.18-.37,8.15-2.5,11.59-2.68a.5.5,0,0,0,.46-.52.49.49,0,0,0-.52-.46c-3,.15-8.35,1.68-10.77,2.4,1.44-2.34,3.33-5.24,5.58-8.3,1.39-.37,12.24-3.13,18.37-1.88a.49.49,0,0,0,.57-.39.47.47,0,0,0-.38-.57c-5.42-1.11-14.29.79-17.63,1.59a88.67,88.67,0,0,1,7.42-8.66c1.18-.29,12.17-2.87,19.08.49a.49.49,0,1,0,.43-.88c-5.93-2.88-14.62-1.61-18.21-.9a51,51,0,0,1,8.87-6.95.29.29,0,0,0,.14-.08l.44-.26c1.83,0,8-.06,10.64,1a.49.49,0,0,0,.37-.91c-2.17-.9-6.46-1.09-9.16-1.11a25.32,25.32,0,0,1,7.54-2.45.49.49,0,0,0,.41-.56.48.48,0,0,0-.55-.41,27.06,27.06,0,0,0-8.61,2.94c1.26-2,3.37-5.33,4.09-5.8a.51.51,0,0,0,.13-.69.49.49,0,0,0-.68-.13c-1.15.76-4.78,6.76-5.29,7.61a52.35,52.35,0,0,0-9.29,7.33c.24-2.48,1.11-8,4.19-11.73a.49.49,0,1,0-.76-.62c-3.9,4.71-4.43,12.13-4.49,13.41a90.77,90.77,0,0,0-7.29,8.48c.3-3.29,1.1-10.45,2.57-12.92a.49.49,0,1,0-.84-.51c-1.92,3.24-2.74,13.56-2.83,14.9-2.34,3.17-4.28,6.15-5.74,8.55-.07-2.79-.06-8.37,1-10.83a.5.5,0,0,0-.26-.65.49.49,0,0,0-.64.25c-1.45,3.3-1.12,11.55-1.06,12.77-1.41,2.38-2.19,3.89-2.2,3.91a.48.48,0,0,0,.21.66.48.48,0,0,0,.66-.21ZM258,14.59c-8.06.17-18.07,5.5-25.87,19.6-3.31,6-6.06,12.87-6.38,17.86a7.8,7.8,0,0,0,.91,4.84,4.33,4.33,0,0,0,3.92,1.75c2.93,0,7.3-1.52,13.52-5.15a103.73,103.73,0,0,0,12-8.18c3.73-2.92,7.18-6,10.34-9,5-4.75,6.3-9.61,5.14-13.53a10.8,10.8,0,0,0-4.77-6A15.92,15.92,0,0,0,258,14.59Z"/><path class="cls-6" d="M256,231.74S284,179,349,182c0,0,6.11-.88,2,6.87S315.08,244.22,256,231.74Z"/><path class="cls-7" d="M262.54,229.29a.87.87,0,0,1-.88-1.5s2.37-1.39,6.32-3.64l.09-.05.55-.32c1.79-4.87,7.56-12.82,7.58-12.84a.86.86,0,0,1,1.21-.2.87.87,0,0,1,.2,1.21,87.32,87.32,0,0,0-6.49,10.41c3.48-2,7.76-4.37,12.55-7,.53-7.51,6.06-15.11,6.08-15.13a.87.87,0,0,1,1.41,1s-4.72,6.49-5.64,13.11c5.27-2.89,11.09-6,17.11-9.16.78-7.33,5.64-14,5.65-14a.86.86,0,1,1,1.41,1,32.66,32.66,0,0,0-5.17,12c6.34-3.29,12.87-6.57,19.16-9.56,0-3.8,3.84-10.16,3.85-10.18a.86.86,0,0,1,1.19-.3.87.87,0,0,1,.31,1.19s-3.08,5.13-3.56,8.45c7.46-3.5,14.53-6.55,20.53-8.69a.87.87,0,0,1,1.11.53.86.86,0,0,1-.52,1.1c-5.37,1.92-11.59,4.56-18.17,7.6,3.49.08,8.49.35,11.09,1.22a.87.87,0,1,1-.55,1.65c-3.67-1.22-12.8-1.18-14.19-1.17-6.19,2.93-12.61,6.15-18.88,9.4,5.08.15,14.65.69,20.44,2.61a.87.87,0,1,1-.55,1.65c-7.38-2.45-21.26-2.58-23.11-2.59-5.54,2.9-10.9,5.78-15.8,8.47,4.62.39,13.78,1.45,21.09,4a.87.87,0,1,1-.58,1.63c-9.18-3.23-21.45-4-23.31-4.12-4.93,2.72-9.3,5.17-12.79,7.15a90.4,90.4,0,0,1,15.87,3,.86.86,0,0,1-.51,1.65,96.54,96.54,0,0,0-18-3.12C264.83,228,262.57,229.27,262.54,229.29Z"/><path class="cls-1" d="M256.55,231.58s.29-59.74,59.19-87.3c0,0,5-3.61,4.95,5.16S314.67,215.15,256.55,231.58Z"/><path class="cls-7" d="M261.2,226.35a.85.85,0,0,1-1.19.28.86.86,0,0,1-.28-1.19s1.46-2.34,3.91-6.17l.05-.08.34-.53c-.68-5.15.73-14.87.74-14.9a.87.87,0,0,1,1.72.24,86,86,0,0,0-.9,12.23c2.16-3.36,4.84-7.47,7.85-12-3-6.9-1.66-16.2-1.65-16.23a.86.86,0,0,1,1-.74.88.88,0,0,1,.74,1s-1.17,7.94,1.1,14.23c3.32-5,7-10.49,10.89-16.07-2.71-6.84-1.52-15-1.52-15a.88.88,0,0,1,1-.74.86.86,0,0,1,.74,1,32.7,32.7,0,0,0,1,13.06c4.09-5.87,8.35-11.8,12.53-17.37-1.75-3.37-1.32-10.78-1.32-10.8a.87.87,0,0,1,1.73.09s-.34,6,.78,9.13c5-6.56,9.82-12.55,14.15-17.23a.85.85,0,0,1,1.22,0,.87.87,0,0,1,.05,1.22c-3.86,4.19-8.14,9.42-12.56,15.17,3.14-1.55,7.69-3.63,10.39-4.07a.85.85,0,0,1,1,.71.86.86,0,0,1-.71,1c-3.82.63-11.88,4.9-13.1,5.56-4.12,5.48-8.32,11.31-12.36,17.1,4.57-2.23,13.3-6.2,19.32-7.19a.87.87,0,0,1,.28,1.72c-7.68,1.26-20,7.59-21.67,8.45-3.55,5.14-7,10.18-10.05,14.84,4.27-1.8,12.87-5.12,20.54-6.24a.86.86,0,1,1,.25,1.71c-9.64,1.41-20.86,6.41-22.56,7.19-3.1,4.69-5.83,8.9-8,12.27A92.09,92.09,0,0,1,282,213.09a.87.87,0,0,1,1,.7.86.86,0,0,1-.69,1c-7.3,1.36-15.85,4.94-17.38,5.59C262.61,224.1,261.22,226.32,261.2,226.35Z"/><path class="cls-8" d="M251.46,110.24S261.88,113.59,281,96s27.67-25.61,33.29-20.66,8.83,14.63-8,25.36S265.75,119.34,251.46,110.24Z"/><path class="cls-9" d="M258.72,111.92a.43.43,0,0,1-.34-.52.49.49,0,0,1,.49-.45,41.31,41.31,0,0,0,12-1.18c.47-.27,7.66-4.49,11.31-11.54a.42.42,0,0,1,.58-.22.49.49,0,0,1,.13.65,31.63,31.63,0,0,1-9.46,10.49,66.58,66.58,0,0,0,7.58-2.53.52.52,0,0,1,.19-.08q1.92-.77,3.93-1.71c.49-.44,10.15-9.33,10.48-17.88a.51.51,0,0,1,.44-.51.39.39,0,0,1,.4.45c-.25,6.71-5.85,13.52-8.9,16.75,2.06-1.06,4.21-2.27,6.41-3.65a.42.42,0,0,1,.14-.09,95.08,95.08,0,0,0,8.72-6.24c.46-.66,5.2-7.61,4.65-14.46a.54.54,0,0,1,.38-.57.39.39,0,0,1,.46.38c.41,5.09-1.91,10.19-3.49,13,.9-.76,1.81-1.55,2.73-2.38l0,0q3.61-3.25,7.3-7.19a.39.39,0,0,1,.6,0,.55.55,0,0,1-.06.69c-2.16,2.31-4.3,4.43-6.43,6.39,1.6-.06,4.53-.35,6.29-1.61a.36.36,0,0,1,.57.14.55.55,0,0,1-.18.67c-2.46,1.76-6.87,1.8-7.76,1.79A101.07,101.07,0,0,1,296,99.72c2.83-.29,8.42-1.14,12-3.4a.37.37,0,0,1,.56.17.56.56,0,0,1-.22.66c-4.88,3.06-13.11,3.63-14.1,3.68a81,81,0,0,1-11.05,5.85c2.65.15,7.26.23,8.95-.83a.36.36,0,0,1,.56.17.57.57,0,0,1-.21.67c-2.52,1.57-10.37.91-11.3.83C267.84,112.84,258.76,111.92,258.72,111.92Z"/><path class="cls-10" d="M251.31,109.35s4.66,7.8,22.83,6,26.33-2.67,27.58,3.67-.82,14.59-14.91,12.9S255.88,123.1,251.31,109.35Z"/><path class="cls-11" d="M254.82,114.34a.44.44,0,0,1,0-.54.31.31,0,0,1,.46,0,31.75,31.75,0,0,0,7.4,5.56c.38.07,6.24,1,11.19-1.82a.3.3,0,0,1,.43.16.43.43,0,0,1-.19.51,18.26,18.26,0,0,1-9.7,2.09,45.23,45.23,0,0,0,5.39,2.3.33.33,0,0,1,.15,0c.94.33,1.93.64,3,.93.46,0,9.63-.94,13.28-6.55a.32.32,0,0,1,.46-.12.38.38,0,0,1,.05.52c-2.86,4.41-8.84,6.06-11.92,6.62a50.46,50.46,0,0,0,5.18.93.23.23,0,0,1,.12,0,56.61,56.61,0,0,0,7.56.4c.53-.2,6.08-2.4,8.54-7.33a.34.34,0,0,1,.45-.19.39.39,0,0,1,.11.5,16.78,16.78,0,0,1-7.28,7c.83,0,1.68-.1,2.54-.17h0a66.8,66.8,0,0,0,7.12-1,.31.31,0,0,1,.35.31.43.43,0,0,1-.31.44c-2.18.42-4.28.72-6.3.92,1,.81,2.76,2.17,4.29,2.24a.32.32,0,0,1,.27.4.39.39,0,0,1-.37.36c-2.14-.11-4.7-2.43-5.21-2.91a58.33,58.33,0,0,1-10.61-.06c1.75,1.3,5.32,3.69,8.32,4.08a.33.33,0,0,1,.26.41.39.39,0,0,1-.4.34c-4.05-.52-9-4.5-9.63-5a49.89,49.89,0,0,1-8.74-1.9c1.47,1.5,4.1,4,5.5,4.18a.34.34,0,0,1,.26.42.39.39,0,0,1-.4.33c-2.09-.27-6.35-4.88-6.86-5.43C259.72,119.8,254.85,114.36,254.82,114.34Z"/><path class="cls-12" d="M100.46,186.63s-8.06-7.83-21.32-5.09S69.55,169,61.58,168.63s-10.92,6.05-22.33.88-22.1-4.65-23.52,2.66,6.66,15.88,17.82,19.5S44,206.49,49.66,213.58s15.06,5.51,24,3.18,9.92,21.09,27.84,15.8S114.28,197.31,100.46,186.63Z"/><path class="cls-13" d="M105.06,214.58a.48.48,0,0,0,.64.26.49.49,0,0,0,.27-.64,26.61,26.61,0,0,0-9-10.94c-.5-1.36-4.16-11.15-8.2-15a.49.49,0,0,0-.7,0,.5.5,0,0,0,0,.69c3.29,3.12,6.35,10.43,7.51,13.44a18.42,18.42,0,0,0-9.73-2.35c-5.32.15-9,.14-12-.57A41,41,0,0,1,70,185.94a.49.49,0,1,0-1,.1,42.44,42.44,0,0,0,3.61,13.1c-.39-.13-.76-.28-1.12-.44-3.29-1.5-5.8-4.45-9.32-10a13.84,13.84,0,0,0-4.68-4.5c-.43-1.24-3-8.58-5.43-10.8a.49.49,0,1,0-.67.71c1.86,1.74,3.94,7,4.81,9.4-4.19-2-9.33-2.5-14.12-2.95l-1.65-.16a18.38,18.38,0,0,1-3-6.28.49.49,0,0,0-1,.19,18.12,18.12,0,0,0,2.7,6c-4.19-.46-7.83-1.16-9.78-3.27a.49.49,0,1,0-.72.67c2.35,2.54,6.64,3.2,11.47,3.68h0c.62.07,1.24.12,1.87.18,2.19.21,4.45.42,6.65.79a74.85,74.85,0,0,0-12.18,3.1.49.49,0,0,0,.37.91c4.61-1.85,13.4-3.31,14.45-3.48,4.1,1,7.77,2.77,10.06,6.38,3.63,5.71,6.24,8.77,9.75,10.36A18.76,18.76,0,0,0,78,201.05c-3.83,1.06-9.76,3.18-13.82,6.84a.49.49,0,0,0,.65.73c6-5.42,16.34-7.35,17.07-7.48,1.24,0,2.57,0,4-.08A17.61,17.61,0,0,1,96.26,204a.34.34,0,0,0,.11.07,22.88,22.88,0,0,1,5.08,4.68A30.59,30.59,0,0,0,89,211.4a.49.49,0,0,0-.24.65.5.5,0,0,0,.65.24,29.14,29.14,0,0,1,12.87-2.58A24.23,24.23,0,0,1,105.06,214.58Z"/><path class="cls-12" d="M226.26,63.27s8.06-7.83,21.33-5.09,9.58-12.55,17.56-12.9,10.92,6,22.33.87S309.57,41.5,311,48.81s-6.66,15.88-17.81,19.5-10.5,14.82-16.11,21.91-15.06,5.51-24,3.18-9.92,21.1-27.84,15.8S212.45,74,226.26,63.27Z"/><path class="cls-13" d="M221.67,91.22a.51.51,0,0,1-.65.27.48.48,0,0,1-.26-.64,26.6,26.6,0,0,1,9-10.95c.5-1.36,4.15-11.14,8.2-15a.49.49,0,0,1,.69,0,.48.48,0,0,1,0,.69c-3.28,3.12-6.34,10.44-7.51,13.44a18.48,18.48,0,0,1,9.74-2.35c5.32.16,9,.14,12-.57a41.21,41.21,0,0,0,3.89-13.57.49.49,0,0,1,.54-.44.5.5,0,0,1,.44.54,42.35,42.35,0,0,1-3.61,13.1c.39-.13.76-.28,1.12-.44,3.29-1.5,5.8-4.45,9.32-10a13.69,13.69,0,0,1,4.68-4.51c.43-1.23,3-8.58,5.43-10.8a.49.49,0,0,1,.67.71c-1.86,1.74-3.94,7-4.81,9.4,4.19-2,9.33-2.5,14.12-2.95l1.65-.16a18.43,18.43,0,0,0,3-6.27.5.5,0,0,1,.58-.39.49.49,0,0,1,.39.57,18.32,18.32,0,0,1-2.71,6c4.2-.46,7.84-1.16,9.79-3.27a.48.48,0,0,1,.69,0,.49.49,0,0,1,0,.69c-2.35,2.54-6.64,3.2-11.47,3.68h0l-1.86.17c-2.19.21-4.45.42-6.65.79a74.48,74.48,0,0,1,12.17,3.1.48.48,0,0,1,.27.64.49.49,0,0,1-.64.27c-4.6-1.85-13.39-3.31-14.45-3.48-4.09,1-7.76,2.77-10.05,6.38-3.63,5.71-6.25,8.77-9.75,10.36a18.82,18.82,0,0,1-6.86,1.46c3.83,1.07,9.77,3.18,13.83,6.84a.49.49,0,1,1-.65.73c-6-5.42-16.35-7.35-17.07-7.48-1.24,0-2.58,0-4-.08a17.66,17.66,0,0,0-10.34,2.89l-.12.08a22.61,22.61,0,0,0-5.08,4.67,30.76,30.76,0,0,1,12.5,2.7.49.49,0,1,1-.4.89,29.14,29.14,0,0,0-12.87-2.58A24.23,24.23,0,0,0,221.67,91.22Z"/><path class="cls-14" d="M80.15,137.12S48.71,104.59,2.06,120.37c0,0-4.63.64,0,5.41S39.76,158.57,80.15,137.12Z"/><path class="cls-15" d="M74.87,136.7a.65.65,0,0,0,.79-.47.66.66,0,0,0-.47-.8l-5.36-1.33h-.07l-.47-.12c-2.32-3.17-8.19-7.75-8.21-7.76a.65.65,0,0,0-.92.11.66.66,0,0,0,.11.92,66.16,66.16,0,0,1,6.9,6.22c-3-.71-6.56-1.56-10.6-2.47-2-5.36-7.58-9.73-7.59-9.74a.66.66,0,0,0-.93.11.66.66,0,0,0,.11.92S53,126,55,130.64c-4.44-1-9.33-2.06-14.37-3.09-2.1-5.16-7-9-7-9a.66.66,0,0,0-.92.11.64.64,0,0,0,.11.92,24.81,24.81,0,0,1,6.28,7.68c-5.3-1.07-10.74-2.09-15.94-2.94-.81-2.77-4.92-6.6-4.94-6.61a.66.66,0,0,0-.93,0,.67.67,0,0,0,0,.93s3.31,3.09,4.35,5.41c-6.15-1-11.93-1.73-16.75-2a.66.66,0,0,0-.7.62.65.65,0,0,0,.62.69c4.3.27,9.38.89,14.81,1.72-2.53.8-6.11,2-7.82,3.21a.67.67,0,0,0-.17.92.66.66,0,0,0,.92.17c2.41-1.66,9.06-3.54,10.07-3.82,5.13.84,10.48,1.84,15.72,2.88C34.66,129.6,27.81,132,24,134.61a.65.65,0,1,0,.74,1.08C29.6,132.36,39.67,129.36,41,129c4.63.95,9.14,1.92,13.27,2.85a70.14,70.14,0,0,0-14.5,7.34.65.65,0,1,0,.75,1.07c6-4.27,14.77-7.41,16.11-7.88,4.15.94,7.85,1.82,10.8,2.53a68.89,68.89,0,0,0-10.93,5.48.67.67,0,0,0-.19.91.66.66,0,0,0,.91.18,73,73,0,0,1,12.44-6Z"/><path class="cls-8" d="M79.7,137.11S67,93.7,18.35,86c0,0-4.4-1.59-2.52,4.79S34,137.33,79.7,137.11Z"/><path class="cls-9" d="M75.22,134.29a.66.66,0,0,0,.93,0,.65.65,0,0,0-.05-.92s-1.55-1.4-4.13-3.68l-.06,0-.36-.32c-.58-3.89-3.64-10.67-3.65-10.69a.66.66,0,1,0-1.2.54,67.76,67.76,0,0,1,3.21,8.71c-2.28-2-5.08-4.43-8.23-7.11.76-5.65-2.19-12.14-2.2-12.16a.66.66,0,0,0-1.2.54s2.51,5.53,2.18,10.58c-3.47-3-7.31-6.16-11.29-9.41.54-5.55-2-11.24-2.05-11.26a.66.66,0,1,0-1.2.53,24.63,24.63,0,0,1,2,9.72c-4.2-3.41-8.54-6.84-12.75-10,.57-2.82-1.29-8.12-1.3-8.14A.67.67,0,0,0,33,90.7a.66.66,0,0,0-.4.84s1.49,4.27,1.34,6.81c-5-3.73-9.77-7.07-13.9-9.58a.66.66,0,0,0-.68,1.12C23.07,92.13,27.28,95,31.7,98.3c-2.6-.47-6.35-1-8.41-.79a.65.65,0,0,0-.57.73.66.66,0,0,0,.73.58c2.91-.35,9.67,1.08,10.7,1.3,4.14,3.12,8.41,6.49,12.57,9.86-3.8-.67-11-1.73-15.56-1.19a.65.65,0,0,0-.58.73.66.66,0,0,0,.73.58c5.85-.69,16.16,1.33,17.54,1.61,3.66,3,7.19,6,10.42,8.69A70.75,70.75,0,0,0,43,120.16a.67.67,0,0,0-.57.74.65.65,0,0,0,.74.56c7.31-1,16.53.3,17.92.51,3.24,2.77,6.11,5.25,8.4,7.26A68.89,68.89,0,0,0,57.28,129a.66.66,0,1,0,.13,1.31,73.17,73.17,0,0,1,13.82.43C73.73,132.94,75.2,134.27,75.22,134.29Z"/><path class="cls-16" d="M236,178.13s-20.32,6.19-31.84,20.51c-11.17,13.9-78,39.78-94.72,43.59-11.68,2.66-20.43-11-20.26-29.07s-1.78-31.38-1.62-34,.89-6.1,2.29-6.78,14.41,2.36,28.59-.14c0,0,7.9-1.51,7.07.9-2.75,8.06,4.82,21.56,1.41,30-.35.88,6.92-6.43,16.22-15.6,10.58-10.42,23.78-23.27,31.39-29.27,6.66-5.24,11.53-18.9,11.53-18.9s26.59-16.12,29.37-16.65,19.88-2.59,22.09-1.87,9.54,4.53,9.54,4.53S252.06,148.72,236,178.13Z"/><path class="cls-17" d="M131.35,109.35a159.84,159.84,0,0,0,3.57,26.3c3.12,13.77-3.12,25.46-1.82,30.13s2.6,8.58.78,11.44-13,18.44-25.46,18.18-36.89-12.73-39.23-22.34-14.55-16.63-22.08-19.23,32.28-49.16,31.17-61S132.58,95,131.35,109.35Z"/><path class="cls-18" d="M103.6,194.83c-10.43-2.05-24.81-9.29-31.24-16.45,17.12-12.72,18-49.1,11.89-64.12-2.49-6.17-6.41-8.6-10.35-9.23,2.84-5.22,4.63-9.6,4.38-12.24C78,90,80.94,88.61,85.53,88.37c7.2,13.59,16,30.52,17.32,34.22,2.22,6.38,1.12,71.47,1.12,71.47l-.37.77ZM65.9,166.47h0s4.47-21.68,9.74-34.17c4.58-10.84-6.73,11.76-21.23,24.82A37.45,37.45,0,0,1,65.9,166.47Z"/><path class="cls-18" d="M132.23,119.75c.48,4,1.19,8.86,2.26,14-4.33-2.16-8.34-6.78-10.47-7.34-2.92-.77-4.45,1.73-5.69,4.16s-3.41-3-6.46-3-3.16,7.51-3.16,7.51l-1.35,7.06s-3.47-10.27-3.33-11.38-2.08-5.14-3.89-9.58-9.3-13.18-16.79-19.29A33.14,33.14,0,0,1,78,95.69a8.73,8.73,0,0,0,.32-2.9c-.25-2.76,2.53-4.12,6.94-4.4C86.31,99,99.39,101.8,103.68,104.51c4.51,2.84,6.32,12,11.8,13.32s10.45-2.07,10.45-2.07Z"/><path class="cls-19" d="M164.24,109.27c-.28.83-9,8.65-9,8.65s17.63,8.15,20.41,19.11,24.43-11.8,21.23-18.46S164.24,109.27,164.24,109.27Z"/><path class="cls-20" d="M181.73,42.75s-10.07,4.51-13.67,10.41S166,63.36,161.6,67.94s-13,6.46-14.15,7.57-.42,3.19.41,4.92,2.15,3,1.53,4.79-2.78,1.88-3.16,3.16.31,5.66.14,6.42-2.19,2.26-2.67,3.4,1,4.06-.63,6.35-2.88,3.71-2.74,5.07,1.74,5.76,12.08,7.77,22.27,3.75,28,1.53,12.63-9.16,14-9.3,11.8-12.29,13.74-19.78-18.32-48.3-18.32-48.3Z"/><path class="cls-21" d="M181.73,42.75s-10.07,4.51-13.67,10.41a18.82,18.82,0,0,0-1.4,2.75s4.26-6.15,9.34-7.53c0,0-1.81,11,5,24.91s9.3,29-.14,36.65-24.15,7.88-32.2,6.51c1.11.35-2.12-.2,3.76.94s22.83,4.37,28.52,2.15,12.07-9.78,13.46-9.92,11.8-12.29,13.74-19.78-18.32-48.3-18.32-48.3Z"/><path class="cls-22" d="M252.17,142.44,243.94,156s2.95,11.66,3.92,19.3,3.75,10,4.58,16-6,32.48-.14,56.35c0,.11,0,.23.07.34-15.14,15.6-42.55,21.71-75.4,17.76-12.07-2.95-19.76-4.59-29.72-9.3-2.63-13.9,3-43,7.27-50.89,5.9-10.93,15.86-35.22,15.86-35.22s19.19-34.28,25-36.22S246.75,116.35,252.17,142.44Z"/><path class="cls-23" d="M252.17,142.44,243.94,156s2.95,11.66,3.92,19.3,3.75,10,4.58,16-6,32.48-.14,56.35c0,.11,0,.22.08.33-6.66,6.86-16.09,11.86-27,15,21-31.66,4.57-44.52-6.75-46-17.29-2.24-41.73,19.92-52,24.75-9.74,4.57-13.18,11.12-14.1,17-1.8-.73-3.56-1.49-5.28-2.31-2.63-13.9,3-43,7.27-50.89,5.9-10.93,15.86-35.22,15.86-35.22s2-3.61,4.94-8.54a311.67,311.67,0,0,0,43.77-14.46c12.13-5.08,22.39-8.32,31.21-10.07A18.58,18.58,0,0,1,252.17,142.44Z"/><path class="cls-20" d="M113.18,212.75l4.36-7.51s-8.77-40.65-8.25-64-.69-28.18-1.67-30.26-12-54.41-12-54.41A55.68,55.68,0,0,0,89.72,61a8.93,8.93,0,0,0-2.57,5.83S82,70.62,81.46,73.05a9.84,9.84,0,0,0-.21,4S78,81,78,83.67s-1,4.85-2.08,7.49-.56,6.11,4.44,12.35,13.19,15.55,12.91,29.43-10,69.95-8.05,81.89S113.18,212.75,113.18,212.75Z"/><path class="cls-21" d="M113.18,212.75l3.49-6c-6.94-5.3-17.35-18.18-17.35-18.18s-4.94,2-5.63-10.75,3-43.26-1.43-53.7h0a33.64,33.64,0,0,1,1,8.84c-.28,13.88-10,69.95-8.05,81.89s28-2.08,28-2.08Zm-3.89-71.48c-1.29-21.85-8.11-24.81-16.57-30.22s-12.29-20-15.2-18.46-.64,5.82-.53,6c-1.82-3.34-1.86-5.6-1.08-7.45a26.2,26.2,0,0,0,1.92-5.6c-.07.68,0,1.9,1.22,1.75,1.71-.2,2.13-2.38,2.13-2.38s6.4-3.27,3.9-6.29-5.51.8-5.52.82A24.11,24.11,0,0,1,81.25,77a9.84,9.84,0,0,1,.21-4,6,6,0,0,1,1.33-2.25c-1.63,3,.63,2.88,2.88,1.9s3.2-3.57,2.75-4.78S86,67.73,86,67.73c.69-.57,1.17-.93,1.17-.93a6.72,6.72,0,0,1,.14-1.31c0,1.26,1.33,1.77,2-1.15A3.3,3.3,0,0,0,89,61.81a7.24,7.24,0,0,1,.72-.84A30.46,30.46,0,0,1,93,58.36l1.85.43L93.76,84.33l7.5-1.25c2.88,13.33,5.88,26.89,6.36,27.93C108.6,113.09,109.81,118,109.29,141.27Z"/><path class="cls-24" d="M231.25,186.55s-20,7.25-30.73,22.16c-10.42,14.47-75.79,43.82-92.29,48.51-11.53,3.27-21-9.94-21.76-28S83,198,83.06,195.36s.57-6.13,1.93-6.89,14.52,1.6,28.55-1.64c0,0,7.8-1.92,7.1.53-2.32,8.19,5.5,18,2.54,26.56-.66,1.91,31.94-32,45.63-44,6.38-5.59,10.53-19.49,10.53-19.49s25.7-17.5,28.45-18.17,19.71-3.63,22-3,9.76,4,9.76,4S245.78,156.34,231.25,186.55Z"/><path class="cls-22" d="M208.94,207.39c-24,17.43-56.31,37.21-100.71,49.83-11.53,3.27-21-9.94-21.76-28S83,198,83.06,195.36s.57-6.13,1.93-6.89c.69-.38,4.44,0,9.81.12h0s-6.19.32-7.16,4.49,4.51,12.84,4.24,16.86-3.13,24.57,5.48,30.81,3.88,13.19,32.89,1.53c12.4-5,85.76-55.1,91.89-64.4,7.49-11.38,16.83-23.29,9.64-35.83-2.4-4.18.47-7.75,5.71-9.69l2,.91C248.69,167.05,233.54,189.54,208.94,207.39Z"/><path class="cls-25" d="M168.16,53a14.62,14.62,0,0,1,4.3-12c8.27-8.07,7.21-14.73,17.58-16.15,20-2.72,41.07-5,51.27,20.93,29.65,6.81,28.25,31.29,23.38,49.45-5.84,21.75,7,33.9,4.71,47.93-.31,5.45-1.81,11.1-3.33,22.64-2.63,20,6.38,25.26,8.88,46.64S265,243.23,250.71,239s-10.18-23.5-9.62-33.77-13.33-11.38-6.67-28.32,3.2-27.06-2.63-34.83-18.48-4.81-18.95-4.7c-14.69,5.05-30.67,25.82-43.07,31.66,0,0-12.71-24.69,5.95-42s23-32.76,15-48-12.76-25.75-9-36.19C181.73,42.75,172.32,47.16,168.16,53Z"/><path class="cls-26" d="M168.16,53a14,14,0,0,1,4.3-12,32.91,32.91,0,0,0,5-6.41h0c.08-.13,2.78-4.1,5.24-4.65s3.68,1.39,3.33,3.26-3.2,5-4.33,9.57c0,0-9.41,4.41-13.57,10.25Zm92.37,186.68a21.27,21.27,0,0,1-9.82-.71c-14.24-4.26-10.18-23.5-9.62-33.77s-13.33-11.38-6.67-28.32,3.2-27.06-2.63-34.83a11.71,11.71,0,0,0-1.69-1.81h0S246.28,149.61,246,165s-4.15,16.77,3.62,30.65-10.1,42,10.9,44ZM195,148.79c-4.78,3.3-12,13.78-25.24,20.22,0,0-12.71-24.69,5.95-42s23-32.76,15-48c0,0,11.61,18.5,5.9,35.65s-5.36,25.39-1.6,34.2Zm-14.33-102c.47-1.76.84-3.18,1-4A21.86,21.86,0,0,0,180.68,46.77Z"/><path class="cls-20" d="M108.78,37.64s1.69-1.3,1.43-9.48S112.42,7.25,126.57,2.7s26.24,2.47,32.35,10.13a34,34,0,0,1,7.19,28.65C163.94,53,158.4,54.21,155,57.19s-3.51,4.19-3.93,6.72-.17,3.28-1,3.64-2.79.2-3.64.46a3.58,3.58,0,0,0-1.78,2.24c-.2.71-1.27.65-2.08.65a1.39,1.39,0,0,0-1.5,1.26c-.06.78-5.94,2.83-9.7.75S103.06,44.79,108.78,37.64Z"/><path class="cls-21" d="M108.78,37.64s1.69-1.3,1.43-9.48a30.39,30.39,0,0,1,2.61-13.75c13.9-3,29.68-6.08,40.35-7.11a31.32,31.32,0,0,1,5.75,5.53,57.18,57.18,0,0,1,6.23,9.78c-.93,5.56-2.13,10.5-2.13,10.5l-1.53,6.25S151.15,33,145,34.92s-7.71,4.44-9,5-1.09-4.75-1.83-6.26,0-2,0-2a11.28,11.28,0,0,0-3.19-1.31c-.9,0-.7,1.31-.7,1.31s-5.9,1.18-4.44,9.3a3.36,3.36,0,0,0,2.78,2.43c2.15.14-3.75,5.49-.14,13.67a90.25,90.25,0,0,1,5.13,15s-.9.31-2.38.77C126.86,70.1,103.14,44.69,108.78,37.64Z"/><path class="cls-25" d="M108.86,37.56c.33-.38,1.57-2.3,1.35-9.4C110,20,112.42,7.25,126.57,2.7s25.18-4.24,36.54,7.85.51,25.06,7,30.73c-.06,0-4.71,1.21-13.44-4.87s-17-2.73-19.74-.13S135.54,33,132.29,32s-8.57-.06-12.47,4.1C116.56,39.56,111.43,39.9,108.86,37.56Z"/><path class="cls-27" d="M125.28,116.55c-3.32,3.06-7.67,5.72-9.1,7.6s-4.8-4.74-10.32-7.86-9.16-7.53-14.29-12.72S80.4,93.89,81.18,84.93s7.4-12.86,8-15.2-.26-6,2.21-9.35,3.38-4.36,4-8.77S98,46.22,98,46.22s-.46-6.17,3.5-7.73c5.11-2,12.69,2.27,18.17,7,4.3,3.73,8.14,7.17,10.13,10.64,1.15,2,1.18,5,1.65,5.5,2.07,2.21,5.13,2.15,5.78,5.78s3.11,2.28,3.79,4.71-.61,3.48-3.14,4.52-2.47,1.1-1.5,4.35-.91,4.29-1.69,9.22-.58,18.32.52,21.17-2.21,3.38-3,3.84S125.28,116.55,125.28,116.55Z"/><path class="cls-18" d="M129.66,55.42c.94,2.16.41,4.79,1.79,6.25a13.26,13.26,0,0,0,3.11,2.17c-4-1.5-4.33,3.12-3.22,5.31s1.56,4.38,4.44,6a4.68,4.68,0,0,0,4.85-.15,7,7,0,0,1-2.75,1.71c-2,.81-2.37,1-2,2.61h0c-1.86-5-4.95-5.14-6.06-5.21C128,74,115.78,84,119,91.25c1.18,2.71,6.81,9.39,9.87,12.12s5.41-2.51,5.41-2.51h0c.07,4.6.4,9,1,10.56a2.19,2.19,0,0,1-.1,2.15c-5.25.43-8.79-3.31-9.5-5.56-1-3.24-14.57-15-14.57-18.18s4.37-9.16,6.11-11.52S125.48,67.61,123,66s-1.8-9.51-6-9.44-4.72-3.33-3.33-1.88,6-2.05,7.56,1.81,5.21,8,6.8,5.69S129.66,55.48,129.66,55.42Z"/><path class="cls-20" d="M128.72,107.79a19.4,19.4,0,0,0,5.49,2.66c2.3.45,8.63.45,10.22.81a8.78,8.78,0,0,1,4.71,3.12c.81,1.33-1.43,1.65-2.76,1.07s-2.85-1.79-3.31-1.79,2.89,2,3,3a13.24,13.24,0,0,1-.72,4.55,4.28,4.28,0,0,1-1.3.87s-.09,3.93-1.59,4.26-2.63-1.92-2-4.74a10.15,10.15,0,0,1-2.95-2.21s-1.37-.52-1.69-.62,1.59,2,1.78,2.57-.09,2.53.1,4.41-2.7,3.54-3.31-2c0,0-.39-.45-.39-.65s-1.72-.39-2.11-.62-9.32,1.43-11.14-4S128.72,107.79,128.72,107.79Z"/><path class="cls-21" d="M149.29,114.71c.27,1.05-1.69,1.27-2.91.74s-2.85-1.79-3.31-1.79c-.09,0,0,.09.15.24h0c-1.05-.82-1.13-1.53-.64-1.4s3.12,1.5,4.75,2.23,1.95,0,2,0Zm-3.95,6.49a4.28,4.28,0,0,1-1.3.87c0-1.46-.31-4-.21-3.89s.09-.21.17,1.52,1.34,1.5,1.34,1.5Zm-2.89,5.13c-1.49.32-2.63-1.92-2-4.74a10.15,10.15,0,0,1-2.95-2.21s-1.37-.52-1.69-.62c-.06,0-.05,0,0,.12h0c-.37-.52-.21-1.1.12-1a10.68,10.68,0,0,0,1.84.1c.26,0,.47.87.92,1.22a21.79,21.79,0,0,1,2.79,2.17,6.36,6.36,0,0,0-.43,2.46,2.47,2.47,0,0,0,1.41,2.48Zm-5.23.81c-.05,0-.79.63-1.46-1.21a6.28,6.28,0,0,1-.57-3c0-.35-.17-.66-1.08-.6s-1.77-.77-2-.83-8.31-1.35-5.6-8c.89-2.2-.12-3-1.85-2.86-2.44,2-4.89,4.91-3.9,7.88,1.82,5.45,10.75,3.8,11.14,4s2.11.43,2.11.62.39.65.39.65C134.81,127.7,136.41,128,137.22,127.14Z"/><path class="cls-27" d="M125.28,116.55c-3.32,3.06-7.67,5.72-9.1,7.6s-4.8-4.74-10.32-7.86-9.16-7.53-14.29-12.72S80.4,93.89,81.18,84.93s7.4-12.86,8-15.2-.26-6,2.21-9.35,3.38-4.36,4-8.77S98,46.22,98,46.22s2.69-5.24,12-2.46,14.08,13.37,16.62,18.56-3.12,13.25-7.15,18.38c-9,11.48-7.42,8.12,4.91,20.85,4,4.09,6,4.22,5.64,7.06S125.28,116.55,125.28,116.55Z"/><path class="cls-18" d="M125.28,116.55c-3.32,3.06-7.67,5.72-9.1,7.6s-4.8-4.74-10.32-7.86-9.16-7.53-14.29-12.72S80.4,93.89,81.18,84.93s7.4-12.86,8-15.2-.26-6,2.21-9.35,3.38-4.36,4-8.77S98,46.22,98,46.22a16.9,16.9,0,0,1,3.15-1.38c.75,2.06,2.85,3.6,5.66,4.84,3.6,1.6,7.35,7.22-.35,2S97.92,54.4,94.73,61.91s-.29,6.79-1.94,8.73-7.47,4.11-7.64,16.1c-.07,5.14,30.26,31.07,30.33,31.09,5.48,1.32,10.44-2.06,10.45-2.07Z"/></g></g></svg>