<svg xmlns="http://www.w3.org/2000/svg" viewBox="0 0 143.6 129.78"><defs><style>.cls-1{fill:#662a18;}.cls-2{opacity:0.29;}.cls-3{fill:#040000;}.cls-4{opacity:0.61;}.cls-5{fill:#7c4a41;}.cls-6{opacity:0.15;}.cls-7{opacity:0.47;}.cls-8{fill:#7f4236;}.cls-9{fill:#c46653;}.cls-10{opacity:0.36;}.cls-11{opacity:0.27;}.cls-12{opacity:0.41;}.cls-13{fill:#050504;}.cls-14{fill:#e8dec8;}</style></defs><title>candy icon</title><g id="Camada_2" data-name="Camada 2"><g id="_1" data-name="1"><path class="cls-1" d="M127.32,120.33c-3-7.8,5.52-13,10.1-31.2A70,70,0,1,0,3.81,92.85c4.76,15.45,12,20.37,9,27.76a4.9,4.9,0,0,0,3.11,8.68H124.59a4.89,4.89,0,0,0,2.73-9Z"/><g class="cls-2"><path class="cls-3" d="M100.88,23.62c12.22,8.55,17.1,25.78,17.59,40a68.55,68.55,0,0,1-12.36,42.08,3.48,3.48,0,0,0,5,4.77c14-10.19,21-28,19.52-45.07C129,47,118.86,30.59,105.35,18.41c-3.48-3.15-8.39,1.68-5.37,5.23,9.5,11.18,15.59,24.76,18.73,39,2.44,11.09,5.14,25.05.49,35.94-3.23,7.56-9.65,9.4-17.37,9.63s-15.34,0-23-.56c-16.6-1.13-33.43-3-49.59-7.07-3.38-.85-6.2,4.36-2.73,6.06,8.47,4.14,17.78,4.66,27.07,4.41,9.71-.26,19.64-.49,29-3.19,17-4.91,29.14-18.2,39.24-32.12l-6.43-3.17C112,91,92.25,98.93,76.84,105c-3.19,1.25-2.87,6.24.65,6.73,15.42,2.12,28.33-7.9,39.25-17.48l-4.35-5.47a124.36,124.36,0,0,0-14,15.5c-1.78,2.33.59,6.58,3.62,5.5a17.56,17.56,0,0,0,9.53-7.42c2.21-3.47-2.34-7.52-5.4-4.56-1.65,1.58-3.31,3.17-4.94,4.78l5.43,4.55A106.4,106.4,0,0,1,113,98c2.1-2.63-1.67-5.51-4.09-3.61a36.82,36.82,0,0,0-8.36,8.9c-2.32,3.47,2.39,7.46,5.43,4.55,1.65-1.57,3.27-3.17,4.91-4.77l-5.41-4.56a9.25,9.25,0,0,1-4.81,4.09l3.62,5.5a112.79,112.79,0,0,1,12.48-13.91c3.31-3.14-.81-8.62-4.35-5.47-9.33,8.28-20.42,17.9-33.79,16,.21,2.24.43,4.48.64,6.73,18.57-7.16,38.48-16.4,43.56-37.53.88-3.69-4-6.07-6.43-3.18C106.2,83.06,96.25,96.25,80,100.44c-7.73,2-15.77,2.44-23.7,2.88-9.28.5-18.26.85-27-2.7l-2,6.37c14.74,2.73,29.37,5.38,44.36,6.4,7.35.49,14.73.68,22.09.61,6.3,0,13.14.38,19.16-1.81,21.78-7.93,15.66-41.51,11-58.08a95.8,95.8,0,0,0-18.54-35.7L100,23.64c11.93,11,21.77,25.56,23.25,42.1C124.56,80.64,119,96,106.78,105l5,4.77A74.91,74.91,0,0,0,125.18,64c-.72-16.38-6.64-36.07-22.36-43.9-2.12-1.05-3.87,2.13-1.94,3.48Z"/></g><g class="cls-2"><path class="cls-3" d="M15.51,126.8c9,.57,17.79-.26,26.77-.75,8.54-.47,17-.34,25.6-.14s17,0,25.5.06c4.16,0,8.34.18,12.5.18,3.07,0,6.08-.49,9.15-.5a26.73,26.73,0,0,0,6.07-.38c1.71-.38,1-2.49-.28-2.88a21.27,21.27,0,0,0-5.41-.67c-2.92-.17-5.77-.79-8.67-.92-4.13-.19-8.3-.12-12.44-.14-9,0-18-.17-27,.4s-18,1.25-27,1.46c-8.48.2-16.77.5-25.1,2.2-1.25.25-.74,2,.35,2.08Z"/></g><g class="cls-2"><path class="cls-3" d="M25.07,115.89c5.29.79,10.64.24,16,.27,5.91,0,11.82.19,17.72.39,11.25.39,22.54,1,33.77-.14,9.23-.9,20.72-2.52,28.45-8.09,4.34-3.13,6-7.57,7.48-12.55,1.57-5.41,3.58-11.31,2.92-17-.29-2.5-4.15-2.86-5.29-.81-2.67,4.8-3.36,10.66-4.88,15.9s-3.46,8.17-8.63,10.21c-9.09,3.61-19.07,4.74-28.77,5.13-9.41.37-18.81,0-28.22-.22-10.06-.19-21.69-.89-31.07,3.23a1.92,1.92,0,0,0,.55,3.68Z"/></g><g class="cls-4"><path class="cls-3" d="M124.22,125c-8.62-1.34-18.28,0-27,.22-8.93.19-17.83-.25-26.75-.18-8.29.06-16.58.28-24.87.33-7.83,0-16.19-.8-23.91.56-1.62.29-1,2.61.29,2.87,8.55,1.68,18.28.63,27,.61,8.39,0,16.78.09,25.16-.15,9-.27,17.93-1,26.9-1.23,7.54-.22,15.92.43,23.29-1.28a.89.89,0,0,0-.08-1.75Z"/></g><path class="cls-5" d="M83,35.52c-4.34-13.87-20.33-19-33.46-15.3C34.92,24.37,23.1,37.55,22.25,53c-.76,13.91,8.38,29.44,23.42,30a3.17,3.17,0,0,0,1.78.94c14.87,3,25.36-6.92,33.44-18a3.13,3.13,0,0,0,.31-.56l0-.06C87.85,56.79,88,44.75,83,35.52Z"/><g class="cls-6"><path class="cls-3" d="M16.11,96c21.74,13.61,53.18,10.64,76.19,1.64,19.53-7.65,37.31-23.32,40.53-44.91,1-7.07-8.31-8.36-11.13-2.65C111.94,69.94,90.59,80.5,69.83,84.71a158.57,158.57,0,0,1-32.65,3.5c-9.4-.08-19.41-1.62-25.64-9.36-4.4-5.47-12,1.7-8.31,7.18,3.46,5.1,3,12,6.09,17.37s8.06,8.56,13.82,10.3,11.76,1.86,17.65,2l24.11.52c24.23.5,55.53,1.51,67.95-24.16,6.35-13.11,6-27.93.75-41.32-1.87-4.79-9.47-1.9-9.36,2.61.47,19-12.66,36.43-29.91,43.44-10.54,4.28-22.9,4.48-34.14,4.41a133.44,133.44,0,0,1-37.53-5.33c-5.12-1.53-8.39,6.52-3,7.94a172.51,172.51,0,0,0,41.71,5.92c13.29.17,27.82.14,40.09-5.64,19.68-9.28,31.85-29.49,32.73-50.91l-9.81,1.43c3.78,12,4,26.61-3.93,37.12-8.58,11.31-23.92,13.14-37.09,13.41-16.06.33-32.52.12-48.55-.86C29.31,103.93,22.26,103,19,98c-1.81-2.78-2.27-6.2-3.13-9.34a31.46,31.46,0,0,0-4.32-9.81L3.23,86c7.56,9.36,19.37,12.59,31,13.24a148.06,148.06,0,0,0,39.27-3.36c24.55-5.37,47.54-18.4,59-41.58l-11.13-2.65c-2.67,17.85-19,29.66-34.85,35.58A95,95,0,0,1,53.84,93a103.3,103.3,0,0,1-16.47-1.28c-5.89-.94-11.79-1.65-17.7-2.55-3.42-.52-7.28,4.52-3.56,6.86Z"/></g><g class="cls-6"><path class="cls-3" d="M22.73,27.77c3-5.67,13.4-7.49,19.08-8.48a212.83,212.83,0,0,1,22.52-2.55c8.29-.55,17-.29,24.84,2.7a32.61,32.61,0,0,1,9.38,5.4c2.41,2,4.15,4.74,7,6.21a3.38,3.38,0,0,0,4.94-3.64c-1.19-7.17-11-11.89-17.19-14-9.17-3.13-18.81-3-28.33-2.07-9.13.91-18.44,1.81-27.36,4.08C32.31,16.78,19.05,20,20.66,27.53a1.13,1.13,0,0,0,2.07.24Z"/></g><g class="cls-6"><path class="cls-3" d="M21.46,34.59c3-2,5.31-5,8.11-7.27,2.14-1.73,4.12-3.57,6.39-5.15a54.94,54.94,0,0,1,14.82-7.43,48.09,48.09,0,0,1,29-.16c19.67,6.35,33.5,26.34,34.67,46.67.24,4.09,7.19,3.53,7.45-.4,1.76-26.63-17.17-52.27-43.44-58A58.47,58.47,0,0,0,41.05,7.3a56.52,56.52,0,0,0-14.11,9.53c-3.88,3.62-9.2,9.91-9.6,15.54a2.63,2.63,0,0,0,4.12,2.22Z"/></g><g class="cls-7"><path class="cls-8" d="M18.87,72.44c1.83-8,1.73-16.26,4.64-24.06a33.23,33.23,0,0,1,14.19-17C44.84,27.06,53,25,61.23,24.12a113.8,113.8,0,0,1,13.05-.75c3,0,7.93,0,9.56,3.15l4.7-4.58C71.86,12.69,52.36,19.29,38,29.82,24,40.12,12.55,57,18.9,74.91c1.14,3.23,6.12,2.7,6.62-.7q1.05-7.3,2.11-14.61a92,92,0,0,0,.66-13.28c0-2.22-3.55-3.08-4.2-.78a95.58,95.58,0,0,0-3.18,13q-1.07,7.29-2.12,14.6l6.62-.71C19.93,57,30.88,43.09,42.89,34.59c12.48-8.83,28.51-14.1,42.77-6.16,2.49,1.39,6-2,4.7-4.58-4.17-8.07-13.49-7.58-21.41-7.2-10.22.49-20.62,2-29.91,6.52C30.3,27.42,22.84,34.29,19,43.31a60,60,0,0,0-4.08,29c.25,2.17,3.5,2.2,4,.14Z"/></g><g class="cls-7"><path class="cls-8" d="M19.77,57c-2.31,11,4,21.61,13.59,26.73C44.94,89.85,58.17,87,69.71,82.3s20-12.61,23.29-25C95.76,47,98.45,31.65,86.85,25.69c-3-1.55-6.18,2.34-4.45,5.07,3.22,5.07,4.65,10.76,5.66,16.63S90.45,60,88.67,66c-3,10-14.84,12.86-23.75,14.93-3,.69-4.66,5.86-.9,6.86,4.06,1.08,8.73.92,10.41-3.61.88-2.37-1-5.32-3.68-4.72q-7.65,1.66-15.3,3.33c-5,1.09-9.48,1.83-14.21-.62-6.57-3.41-11.88-9.09-19.78-9.06a3.67,3.67,0,0,0-2.64,6.42,37.52,37.52,0,0,0,53.59-1.39c7.52-8.1,10-18.3,10.35-29.11.14-5.16.83-11.09-2.51-15.45a15.34,15.34,0,0,0-5-4c-1.74-.93-5-1.33-6.42-2.58l1.29,2.31,0,.35c-.66.66-1.31,1.32-2,2l.68-.25L65.46,31l-.27-.32L65.25,28c-.08.25-.15.49-.22.74.65-.67,1.3-1.33,2-2l-.63.36c-3.82,2.22-1.51,8.81,2.49,6.49,3-1.76,4.56-6.09,1-8.31-3.35-2.09-7.37,1.42-6.61,5.08.93,4.5,7.45,4,10.42,6.63,2.62,2.34,2.27,5.78,2.24,9a77.12,77.12,0,0,1-.73,11A30.92,30.92,0,0,1,55,81.63c-11.21,3.93-23.56.25-31.85-7.89q-1.33,3.21-2.65,6.42c8.2,0,13.79,7.67,21.3,10,4.28,1.35,8.59.85,12.91-.05C60.36,89,66,87.68,71.62,86.45l-3.68-4.72c0-.66-.38-.88-1.24-.66l-.9,6.86c11.22-2.61,24.51-6.56,29-18.46,2.59-6.85,1.52-14.37.34-21.39-1.25-7.46-2.92-14.73-7-21.22l-4.44,5.07c8.4,4.4,4.14,19.73,1.69,26.66C82.1,68,74.6,73.18,65.57,76.61,56.73,80,47,82.53,37.86,78.87A21.87,21.87,0,0,1,24,57.32c.15-2.64-3.7-2.83-4.22-.36Z"/></g><g class="cls-7"><path class="cls-8" d="M76,24.85c5,8.06,7.13,16,5.5,25.44-.36,2.08,2.71,3.21,3.43,1.08,3.19-9.57.55-21.37-7.24-28.09A1.16,1.16,0,0,0,76,24.85Z"/></g><g class="cls-7"><path class="cls-8" d="M38.14,123.3a134.36,134.36,0,0,0,19-1.22c1.61-.23,1.14-2.63-.35-2.67a123.52,123.52,0,0,0-19,.87c-2.07.25-1.58,3,.37,3Z"/></g><g class="cls-7"><path class="cls-8" d="M37,121.29c10.54,1,21.52-.59,32.06-1.37,10.78-.79,21.5-2,32.22-3.3,1.69-.2,1.07-2.84-.49-2.78-11,.45-21.88,1-32.81,1.81-10.32.78-21.1.8-31.22,3.07a1.3,1.3,0,0,0,.24,2.57Z"/></g><g class="cls-7"><path class="cls-9" d="M24.36,122.67c8.08,1.2,16.71.29,24.86.16,8.85-.13,17.71-.34,26.52-1.09,1-.09.78-1.54-.16-1.59-9.1-.41-18.21-.27-27.31-.07-7.87.18-16.29-.44-24.05,1.08-.77.16-.55,1.41.14,1.51Z"/></g><g class="cls-7"><path class="cls-9" d="M61.33,56.54c.55,0,.44-.89-.09-.89s-.43.89.09.89Z"/></g><g class="cls-10"><path class="cls-9" d="M57.91,24.17C49.67,22.84,41.16,32.73,37.51,39,33.65,45.7,29,58.14,34,65.17c1.15,1.6,4.27,1.11,4.84-.81,1.21-4.09.39-8.36,1.27-12.54a33.06,33.06,0,0,1,4.14-10.45,34,34,0,0,1,6.38-7.76c2.7-2.39,6.15-4,8.39-6.86a1.75,1.75,0,0,0-1.14-2.58Z"/></g><g class="cls-11"><path class="cls-9" d="M58.05,25.2A111.17,111.17,0,0,0,45,41.84c-3.8,6-6.46,12.49-10,18.59-1.76,3,3.15,5.06,4.84,2.2,5.49-9.33,10.42-18.84,18.77-26l-3.8-3.71C51.27,37.38,35.73,58,46.61,61.83c1.54.55,4.31-.75,3.26-2.76-3.55-6.79,5.33-18,9.24-23,1.93-2.44-1.4-5.74-3.8-3.7-8.85,7.52-15.18,17.71-20.33,28L40.05,62c2.74-12.77,11.69-25.31,19.8-35.24.91-1.11-.82-2.61-1.8-1.56Z"/></g><g class="cls-12"><path class="cls-13" d="M138.15,58.25c0-.1-.05-.2-.07-.3a4.25,4.25,0,0,1-1.21-1.86c-.79-2.48-1.65-4.94-2.52-7.39-7.65-4.37-17.62-2.89-25.28,1.16-19.79,10.5-25.63,34.91-23.69,55.68.14,1.51,2.76,1.88,2.86.19,1-18.22,3.63-36.87,19.49-48.33,7.6-5.49,21-9.43,28-1.15a19.92,19.92,0,0,1,3,5C138.54,60.24,138.37,59.24,138.15,58.25Z"/></g><g class="cls-12"><path class="cls-13" d="M129.54,34.93c-.72-1.08-1.5-2.12-2.3-3.15A40.28,40.28,0,0,0,117,32,68.51,68.51,0,0,0,86.78,43.79C77.67,50.3,73.31,59.09,71.27,69.9c-2.26,12-4,25.35-1.79,37.45.19,1,1.75,1.35,1.94.14C73,97.45,73,87.28,74.78,77.25c1.63-9.19,3.58-18.86,10.52-25.63,6.17-6,14.56-10,22.73-12.44,4.94-1.49,16.68-4.91,22.48-1.38C130.18,36.84,129.85,35.89,129.54,34.93Z"/></g><g class="cls-12"><path class="cls-13" d="M109.59,15.59A48.55,48.55,0,0,0,95,18.15,45.29,45.29,0,0,0,72.46,34.29c-6.84,9.52-8.84,21.65-10.5,33Q60.52,77.11,59.85,87c-.46,6.6-1.47,14.09.37,20.53a1.28,1.28,0,0,0,2.45.09c1.52-5.42,1.07-11.5,1.41-17.09q.51-8.11,1.55-16.18c1.41-10.88,2.8-22.63,8-32.46A39.44,39.44,0,0,1,92.07,24.84a40.77,40.77,0,0,1,12.27-3.45c4.48-.53,8.86.37,13.27.41C115.06,19.61,112.36,17.54,109.59,15.59Z"/></g><g class="cls-12"><path class="cls-13" d="M108.12,14.56c-16.55-.1-32,11.52-41.09,24.75-6.2,9-10.12,19.53-12.62,30.16-1.34,5.69-2.31,11.46-3.11,17.25-.77,5.54-2.06,11.57-1.64,17.17.09,1.27,2,1.88,2.39.46,1.34-4.52,1.38-9.5,2-14.17.73-5.56,1.59-11.1,2.76-16.57,2.3-10.67,5.67-21.42,11.52-30.72,9.55-15.22,25.06-25.52,43-26C110.28,16.07,109.2,15.31,108.12,14.56Z"/></g><g class="cls-12"><path class="cls-13" d="M39.94,103.81c2.79-10.89-.57-22.18,1.3-33.14a93.73,93.73,0,0,1,9.35-26.73c4.29-8.27,9.78-16.1,16.92-22.16a53.15,53.15,0,0,1,10.21-6.85,46.81,46.81,0,0,1,7.58-3c1.54-.48,6.66-2.47,8-1.2A1.37,1.37,0,0,0,95.53,10c2.45-8.89-19-.43-21.54.86C64.51,15.65,56.7,23.31,50.67,32A93.91,93.91,0,0,0,37.43,60.92,59.63,59.63,0,0,0,35,77.16c.1,8.91,3.13,17.45,3.35,26.39a.84.84,0,0,0,1.64.26Z"/></g><g class="cls-12"><path class="cls-13" d="M32.9,110.6c1.62-4.41-2.67-6.72-5.2-9.66-3.16-3.69-5.08-8.4-6.46-13a64.52,64.52,0,0,1-1.95-29.25c2-11.2,9.08-20.84,16.76-28.89A169.55,169.55,0,0,1,48.47,18.22c2.06-1.77,4.1-3.59,6.25-5.25C58,10.43,61.06,9.43,64.86,7.76c1.45-.64.91-2.45-.43-2.8-5.92-1.52-11.93,3.48-16.18,7C43.55,15.75,39,19.8,34.66,24.08c-8.43,8.37-16.3,18.39-19,30.21-2.22,9.59-1.11,20.3,1.09,29.79A52.37,52.37,0,0,0,22,98.17a28.61,28.61,0,0,0,3.67,5.14c2.07,2.26,4.89,3.88,5.65,7.08.17.7,1.34,1,1.62.21Z"/></g><g class="cls-12"><path class="cls-13" d="M29.44,94.64c-1.32-9.32-2.71-18.87-2.07-28.3a71.39,71.39,0,0,1,5.79-23c5.72-13.48,15-25.91,27.31-34,1.09-.72-.22-2.37-1.31-1.71C45.9,15.65,36.57,29,30.84,43.16a75.33,75.33,0,0,0-5.47,22c-.8,10,.85,19.82,2.49,29.64.15.91,1.72.81,1.58-.16Z"/></g><g class="cls-12"><path class="cls-13" d="M98.91,107.6c.8-5.27-.65-10.92-.74-16.25-.1-6.16.43-12.43,2.63-18.25a29.18,29.18,0,0,1,9.14-12.65c4.27-3.27,9-4.22,14.2-5,1.33-.21,1-2.23-.12-2.48-10.64-2.31-20.5,7.32-24.86,16.08C96.29,74.8,95.23,81.37,95,87.77s-.32,14.1,2,20a1,1,0,0,0,1.93-.16Z"/></g><g class="cls-12"><path class="cls-13" d="M13,93.77C11.35,86.32,8.64,79.35,7.73,71.7c-1-8.26-.17-16.27.13-24.52A1.22,1.22,0,0,0,5.5,46.7C3,54.62,3.18,63.52,4.19,71.67c.95,7.61,2.54,16.16,6.71,22.72.64,1,2.42.8,2.11-.62Z"/></g><path class="cls-14" d="M85,102.09c.83-18.6,3.73-38.26,20.52-49.42,7.76-5.15,20.66-8.4,27.49-.28,2.77,3.3,4.18,7.49,5,11.65s.52,8.74,2.16,12.59a1.68,1.68,0,0,0,3.18-.37c.81-5.38-.69-12.28-2.32-17.43a24.45,24.45,0,0,0-7.14-11.42c-7.94-6.76-19.66-5.12-28.2-.4C86.42,57.67,81,81.49,82.62,101.93c.11,1.26,2.32,1.57,2.38.16Z"/><path class="cls-14" d="M68.26,103.86c1.17-9.52,1.3-19.09,2.86-28.58,1.42-8.67,3-18.25,8.73-25.24s15-11.61,23.58-14.4c6.58-2.15,25.17-7.75,27.45,2.79a1.39,1.39,0,0,0,2.73-.16c1-10.76-12.28-10.48-19.55-9.46A68.22,68.22,0,0,0,84.33,40.34C75.64,46.47,71.1,54.64,69,64.93c-2.58,12.41-4.27,26.22-2.31,38.82.13.87,1.49,1.12,1.61.11Z"/><path class="cls-14" d="M59.47,104c1.2-5.22.89-10.81,1.19-16.14q.51-8.59,1.6-17.15c1.4-10.88,2.79-22.69,8-32.51A40,40,0,0,1,89.4,20.63a41.44,41.44,0,0,1,13.15-3.4c4.91-.42,9.65.73,14.53.63a1.39,1.39,0,0,0,.6-2.64c-7.2-4.77-19.09-2.6-26.69.14A44.5,44.5,0,0,0,69.14,31.92c-6.45,9.56-8.31,21.53-9.92,32.71q-1.41,9.8-2,19.68c-.43,6.38-1.23,13.34.26,19.61a1.06,1.06,0,0,0,2,.07Z"/><path class="cls-14" d="M111.08,11.66C92.13,8.45,74,21.34,63.85,36.44c-6,8.89-9.74,19.16-12.17,29.53-1.33,5.67-2.31,11.42-3.11,17.19-.77,5.59-1.93,11.5-1.7,17.15,0,1.06,1.68,1.57,2,.38,1.19-4.57,1.32-9.45,1.93-14.13.72-5.58,1.58-11.14,2.77-16.64,2.3-10.7,5.7-21.45,11.56-30.78,10-15.92,26.75-26.77,45.86-26,.82,0,.87-1.3.1-1.43Z"/><path class="cls-14" d="M36.81,100.18C39.33,89.24,35.89,78,37.76,67a94.06,94.06,0,0,1,9.68-27.48c4.38-8.29,10-16.08,17.23-22.1a51.58,51.58,0,0,1,11.11-7.11c2.06-1,12.57-5.82,14.42-3.64.6.72,1.92.74,2.1-.37C93.67-2,74.52,6,71.8,7.34,62.14,12.1,54.21,19.85,48.11,28.65A94.31,94.31,0,0,0,34.77,58a56.16,56.16,0,0,0-2.29,17c.38,8.4,2.94,16.42,3,24.89,0,.77,1.17,1,1.36.21Z"/><path class="cls-14" d="M29.78,106.93c1.32-4.19-2.48-6.29-5-9.05-3.13-3.48-5.09-8-6.5-12.38a66.1,66.1,0,0,1-2.57-29.23C17.36,44.83,24.27,35,32,26.74c8.41-9,18.13-18.5,29.79-22.8,1.23-.45.75-2.11-.36-2.33-5.94-1.19-11.59,3.5-15.87,7C40.85,12.48,36.26,16.51,32,20.79c-8.46,8.42-16.42,18.52-19,30.43-2,8.89-1.1,18.62.72,27.46a55.21,55.21,0,0,0,5.09,14.87,30.55,30.55,0,0,0,3.51,5.29c2.06,2.46,5.52,4.32,6.17,7.73.1.57,1.12,1.2,1.39.36Z"/><path class="cls-14" d="M26.32,91C25,81.71,23.57,72.17,24.21,62.72a71.62,71.62,0,0,1,5.79-23c5.73-13.51,15-26,27.37-34,.92-.6-.18-2-1.1-1.43-13.2,8-22.53,21.28-28.26,35.4a74.74,74.74,0,0,0-5.46,22c-.81,10,.82,19.79,2.44,29.58.13.76,1.45.68,1.33-.14Z"/><path class="cls-14" d="M95.33,103.9c-.1-12-2.84-23.67,1.86-35.32,4.06-10,12.68-17,23.6-17.46.72,0,.59-1-.06-1.07-10.07-1.11-19,6.68-23.38,15.08-5.9,11.22-5.57,26.64-2.86,38.73.1.41.84.58.84,0Z"/><path class="cls-14" d="M9.37,90.28c-2.68-8.13-5.13-16-5.92-24.56-.69-7.45-.11-14.77.71-22.19.06-.53-.85-.76-1-.2C-.3,58.46,1.53,76.61,8.5,90.53c.22.46,1.05.3.87-.25Z"/></g></g></svg>