<svg xmlns="http://www.w3.org/2000/svg" xmlns:xlink="http://www.w3.org/1999/xlink" viewBox="0 0 1366 768"><defs><style>.cls-1{isolation:isolate;}.cls-2{fill:#d8b0e2;}.cls-3{fill:#ffb87f;}.cls-4{fill:#f39f6d;}.cls-5{fill:#34283b;}.cls-6{fill:#8a8c8e;opacity:0.75;}.cls-11,.cls-6{mix-blend-mode:screen;}.cls-7{fill:#0b0b0b;}.cls-11,.cls-8{fill:#60c3de;}.cls-9{fill:#b9b1bb;}.cls-10{fill:#8d7f90;}.cls-11{opacity:0.55;}.cls-12{fill:#ffd3b0;}.cls-13{fill:#ffcea7;}.cls-14{fill:#cde136;}.cls-15{fill:#eaeaea;}.cls-16{fill:#8baa56;opacity:0.5;mix-blend-mode:multiply;}.cls-17{opacity:0.32;mix-blend-mode:overlay;fill:url(#radial-gradient);}.cls-18{fill:#662a18;}.cls-19{opacity:0.29;}.cls-20{fill:#040000;}.cls-21{opacity:0.61;}.cls-22{fill:#7c4a41;}.cls-23{opacity:0.15;}.cls-24{opacity:0.47;}.cls-25{fill:#7f4236;}.cls-26{fill:#c46653;}.cls-27{opacity:0.36;}.cls-28{opacity:0.27;}.cls-29{opacity:0.41;}.cls-30{fill:#050504;}.cls-31{fill:#e8dec8;}</style><radialGradient id="radial-gradient" cx="613.97" cy="415.89" r="285.08" gradientUnits="userSpaceOnUse"><stop offset="0" stop-color="#ffc9bd"/><stop offset="0.15" stop-color="#e6b2ad"/><stop offset="0.55" stop-color="#a87b87"/><stop offset="0.85" stop-color="#82596f"/><stop offset="1" stop-color="#734c66"/></radialGradient></defs><title>encomenda</title><g class="cls-1"><g id="Camada_2" data-name="Camada 2"><path class="cls-2" d="M962.36,252.59S873.2,58.24,739,53.41C489.83,44.45,576,290.78,134.07,300c-163.88,3.42,100.51,489.24,381,416.41,259.21-67.31,431.23,44.48,431.23,44.48s292-5.06,143.41-187.21C989.59,451,962.36,252.59,962.36,252.59Z"/></g><g id="Camada_1" data-name="Camada 1"><path class="cls-3" d="M652.92,376.43s75.66-106.25,90.83-96.64,19.84,43.81-77.9,145.07C665.85,424.86,649.42,388.1,652.92,376.43Z"/><path class="cls-4" d="M652.92,376.43s75.66-106.25,90.83-96.64,19.84,43.81-77.9,145.07C665.85,424.86,649.42,388.1,652.92,376.43Z"/><path class="cls-3" d="M459.28,674.58s14-69.85,4.38-94.88-20.14-80.18-14.88-102.07,20.42-91,13.42-129,10.5-32.19,26.26-14.34,27,46.71,17.4,90.59c-12.27,56.21,15.41,64.09,22.34,73.94s42.61,60.31,15.15,98.9-23.67,92.57-23.67,92.57S501.29,688.58,459.28,674.58Z"/><path class="cls-4" d="M491.36,337.81c1.25,20.78,3.21,47-1.71,68.49-6.13,26.75-18.91,48.82-10.16,75.74,5.61,17.28,16.69,33.66,19.46,51.85,2.52,16.58,1.3,36.14,7.51,51.69,8,20,25.62,14.14,41,5.27,19.18-37.47-12.77-82.72-19.3-92-6.93-9.85-34.61-17.73-22.34-73.94C514.84,383.79,505.53,355.85,491.36,337.81Z"/><path class="cls-3" d="M568.69,699.09a790.47,790.47,0,0,1-109.41-24.51s84.9-274.85,105.91-316,117.53-9,127,20.45-5.9,155.52-26.2,180.89-54.47,65.63-67.15,72.63S568.69,699.09,568.69,699.09Z"/><path class="cls-4" d="M538.47,488.8c-7.35,10.37-40-1.13-42.32,11.06-4.72,24.44-19.63,84.93,36.21,114.49,26.22,13.88,58.17,7.4,88.34-1.57,14.82-15.68,32.72-37.1,45.33-52.85,20.3-25.37,35.71-151.45,26.2-180.89s-106-61.59-127-20.45c-7.25,14.2-22.11,56.26-38.46,105.21C537.73,466,546.69,477.19,538.47,488.8Z"/><path class="cls-4" d="M576.15,670.45c-24.29,3.4-61.11,10.15-78.77-7.25C477,643.07,494.45,628,486,603.68c-3.94-11.35-16.06-28.19-19.84-39.59-6.88-20.81-16.61-60.75-18.69-67.1.81,26.06,9.41,63.11,16.19,82.71,9.8,28.35-4.38,94.88-4.38,94.88a790.47,790.47,0,0,0,109.41,24.51s4.09-13.87,9.73-29C577.67,670.21,576.89,670.35,576.15,670.45Z"/><path class="cls-5" d="M490.4,272.93l12.78,301.7a14.71,14.71,0,0,0,13.68,14.16c30.13,1.89,106.63,5.67,171.26.31a14.73,14.73,0,0,0,13.39-14.22l11.47-302a14.74,14.74,0,0,0-14.61-15.4H505A14.74,14.74,0,0,0,490.4,272.93Z"/><path class="cls-6" d="M709.09,375.34,713,272.87a14.74,14.74,0,0,0-14.61-15.4H579C605.88,283.61,693.2,361.64,709.09,375.34Z"/><path class="cls-6" d="M492.67,315.61c14.44,13,207.83,180.57,211.74,183l1.52-40.16-.86-.64c-31.9-23.87-200-182.45-211.67-194.51a14.91,14.91,0,0,0-3,9.64l1.79,42.22Z"/><path class="cls-6" d="M496.15,408.66l1.23,29.12L688.12,589.1a14.64,14.64,0,0,0,13.12-12.17C699.6,575.62,521.35,432.32,496.15,408.66Z"/><path class="cls-7" d="M509.32,275.64l11.55,274.91h0s93.17,7.43,162.78,0L694,275.64H509.32Z"/><path class="cls-8" d="M513.68,282.2l11,261.94h0s88.77,7.08,155.1,0l9.87-261.94h-176Z"/><path class="cls-9" d="M611.45,571.87c0,4.44-3.92,8-8.76,8s-8.76-3.59-8.76-8,3.93-8,8.76-8S611.45,567.43,611.45,571.87Z"/><path class="cls-10" d="M606.45,573.9a6.4,6.4,0,0,1-6.66-6.11,5.88,5.88,0,0,1,.23-1.52,6.12,6.12,0,0,0-4,5.6,6.4,6.4,0,0,0,6.66,6.11,6.56,6.56,0,0,0,6.43-4.6A7.14,7.14,0,0,1,606.45,573.9Z"/><polygon class="cls-9" points="576.25 264.93 576.25 272.16 616.58 272.16 616.58 265.98 576.25 264.93"/><path class="cls-9" d="M631,268.54a4.18,4.18,0,1,1-4.14-3.61A3.9,3.9,0,0,1,631,268.54Z"/><path class="cls-11" d="M642.24,324.43c15,13.37,30.89,26.87,46.33,40.85l3.26-86.36h-102C607.5,293.56,624.53,308.65,642.24,324.43Z"/><path class="cls-12" d="M464.09,378.78c.27.62.87.85,2.12,1,1.51.19,4.51,0,6-2.18,3.68-5.5,4.06-12.46,4.72-19.06.46-4.53,1.09-10.13-.39-14.56-1.94-6.62-11.32-13.53-15.34-16.25-.95,4.51-.76,11.3,1,20.92a117.44,117.44,0,0,1,1.7,18.05c.09,3.47,0,6.93,0,10.39A4.2,4.2,0,0,0,464.09,378.78Z"/><path class="cls-3" d="M709.1,376.59c-10.35,11.18-25.38,27.6-34,43.8-11.88,22.45,1.5,38.57,19,26.36a107.33,107.33,0,0,0,25.74-24.26c2-2.53,6-15.65,3.72-26C720.55,382.6,711.38,374.12,709.1,376.59Z"/><path class="cls-4" d="M698.71,388.34c-9.54,11.4-18.92,23.28-23.56,32.05-11.88,22.45,1.5,38.57,19,26.36a166,166,0,0,0,15-12.07C701.52,420.64,698.31,404.12,698.71,388.34Z"/><path class="cls-13" d="M690.74,417.78a6.64,6.64,0,0,0-8,2c-3.67,4.72-9.06,13.62-4.45,20.68,6.52,10,15.72-.39,19.33-5.23a6.72,6.72,0,0,0,1.26-5.11C698.3,426.51,696.45,420.44,690.74,417.78Z"/><path class="cls-3" d="M713.75,430.14c-8.38,7.53-26.13,24.2-34.69,40.85-10.49,20.43,3.29,36.51,18.72,25a189.67,189.67,0,0,0,26.46-23.52c2.58-2.84,5.89-12.09,3.49-24.64S715.65,428.43,713.75,430.14Z"/><path class="cls-4" d="M707.31,465.39c-2.52-8.62-5.59-16-4.91-24.67-9.55,10.42-19,21.76-23.34,30.27-10.49,20.43,3.29,36.51,18.72,25,4.8-3.57,10.8-8.46,16.79-13.95C711.18,477.12,709,471.24,707.31,465.39Z"/><path class="cls-13" d="M693.32,470.93a6.85,6.85,0,0,0-7.48,1.65c-3.44,3.82-8.38,11.95-4.06,17.67,6.11,8.08,12.64-1,16-4.89a9,9,0,0,0,1.68-5.68C698.93,476.73,698.68,473.09,693.32,470.93Z"/><path class="cls-3" d="M718.44,476.47c-7.22,6.58-16.55,15.89-22.4,24.79-10.68,16.26-3.14,31.45,11.28,23,7.58-4.42,15.29-8.78,21.13-14.1,1.95-1.77,5.3-13.52.38-24.57C726,479.24,721.08,474.07,718.44,476.47Z"/><path class="cls-4" d="M714.62,482.15c-.29-.41-.56-.83-.82-1.25-6.26,6-13.08,13.24-17.76,20.36-10.68,16.26-3.14,31.45,11.28,23,5-2.91,9.92-5.85,14.4-9C715.37,506.28,713.91,493.61,714.62,482.15Z"/><path class="cls-13" d="M705.16,503.78a5.65,5.65,0,0,0-6.17,1.36c-2.84,3.15-6.91,9.85-3.35,14.57,5,6.66,10.42-.79,13.21-4a7.43,7.43,0,0,0,1.39-4.69C709.78,508.56,709.57,505.56,705.16,503.78Z"/><path class="cls-14" d="M723.21,80c-56.9,0-103,39.73-103,88.73,0,31.27,18.82,58.71,47.2,74.51l-26.53,42.44,67.5-29.24a119,119,0,0,0,14.86,1c56.89,0,103-39.73,103-88.74S780.1,80,723.21,80Z"/><path class="cls-15" d="M687.75,145.66s5.36,73.87,6.5,75S786.87,146,785,141.83s-22.58-14.16-25.64-10.71-46.69,44.43-46.69,44.43,0-34.1-1.54-36S687.75,145.66,687.75,145.66Z"/><path class="cls-16" d="M685.34,201.64c-21-12.91-40.94-32.71-53.49-55.7a68.23,68.23,0,0,0-5,25c0,27.93,21.54,54.64,46.89,68.75l-23.7,37.91,57.5-26.11a107.12,107.12,0,0,0,13.27.91c40.84,0,78.1-22.56,90.66-54.2C771.87,217.56,725,226,685.34,201.64Z"/><path class="cls-17" d="M723.21,257.47c56.89,0,103-39.73,103-88.74S780.1,80,723.21,80s-103,39.73-103,88.73c0,31.27,18.83,58.71,47.2,74.51l-8.89,14.23H505a14.42,14.42,0,0,0-11.56,5.87l-.05,0c-.13.18-.22.37-.34.55-.23.34-.45.67-.65,1s-.49.93-.71,1.41-.31.7-.44,1.06a14.69,14.69,0,0,0-.47,1.76c-.07.32-.17.62-.22.95a15.27,15.27,0,0,0-.17,2.88l1.79,42.22h0l1.07,25.22c-.63-.87-1.25-1.74-1.9-2.56h0c-.95-1.2-1.92-2.37-2.9-3.48C476.7,321,464,314.45,461.18,327.75h0a34.56,34.56,0,0,0-.51,8.34,1.47,1.47,0,0,0,0,.21c.07,1.54.22,3.24.43,5,0,.23,0,.42.06.66.25,2.06.59,4.27,1,6.67h0c.51,2.8.87,5.63,1.13,8.46.07.75.11,1.54.17,2.31.17,2.36.33,4.72.39,7.08,0,.18,0,.36,0,.53.08,3.36,0,6.7,0,10.05,0,0,0,.05,0,.09-.9,37.38-11,83.33-15.12,100.43-5.26,21.89,5.25,77,14.88,102.07,1.81,5.24,2.79,11.79,3.21,19,0,.48,0,1,.05,1.44,0,.8.05,1.62.07,2.43.61,30.5-7.71,72-7.71,72,42,14,60.4,15.75,60.4,15.75s0-.17,0-.23c29,6.27,49,9,49,9s4.09-13.87,9.73-29h0c6.06-16.22,13.9-33.9,20.46-37.53,8-4.43,24.63-22.17,40.9-41,16.26-.38,32.65-1.14,48.34-2.44a13.34,13.34,0,0,0,2.55-.46c.32-.08.62-.22.93-.32a14.54,14.54,0,0,0,1.43-.55c.38-.18.73-.4,1.09-.61s.69-.39,1-.62a12.77,12.77,0,0,0,1.15-.91c.23-.2.47-.4.69-.61a14.57,14.57,0,0,0,1.12-1.24c.15-.18.29-.35.42-.53a14.75,14.75,0,0,0,1-1.58l.21-.39a16.26,16.26,0,0,0,.84-1.91,1.87,1.87,0,0,0,.07-.22,15.06,15.06,0,0,0,.85-4.27L703.36,526c.45-.14.88-.24,1.34-.43a21.32,21.32,0,0,0,2.62-1.31c7.58-4.42,15.29-8.78,21.13-14.1,1.95-1.77,5.3-13.52.38-24.57-2.12-4.75-5.37-8.81-8-9.6,1.15-1.17,2.34-2.33,3.4-3.51,2.58-2.84,5.89-12.09,3.49-24.64s-12.08-19.44-14-17.73l-2.28,2.07c2.75-2.86,5.45-6,8.39-9.72,2-2.53,6-15.65,3.72-26-3-13.85-12.2-22.33-14.48-19.86l-.06.06v0c52.49-64.47,47.16-88.95,34.71-96.84-5.26-3.33-17.78,7.25-31.89,22.5l.51-13.33.61-16.09h0A14.88,14.88,0,0,0,708.91,262a14.69,14.69,0,0,0-5.31-3.52l4.75-2.06A119,119,0,0,0,723.21,257.47Z"/><g id="_1" data-name=" 1"><path class="cls-18" d="M645.38,440.05c-2.32-6,4.28-10.07,7.83-24.18a54.26,54.26,0,1,0-103.57,2.88c3.69,12,9.3,15.79,7,21.52A3.8,3.8,0,0,0,559,447h84.24a3.79,3.79,0,0,0,2.11-7Z"/><g class="cls-19"><path class="cls-20" d="M625.23,364.73c9.47,6.63,13.25,20,13.63,31a53.1,53.1,0,0,1-9.58,32.62,2.7,2.7,0,0,0,3.88,3.7c10.85-7.9,16.28-21.71,15.13-34.94-1.26-14.26-9.12-27-19.6-36.42-2.69-2.45-6.5,1.3-4.16,4.05A69.45,69.45,0,0,1,639.05,395c1.89,8.6,4,19.42.38,27.86-2.5,5.86-7.48,7.29-13.46,7.47a170.78,170.78,0,0,1-17.83-.44c-12.87-.87-25.92-2.32-38.44-5.48-2.62-.66-4.81,3.38-2.12,4.7,6.56,3.21,13.78,3.61,21,3.42,7.53-.2,15.23-.38,22.48-2.47,13.18-3.81,22.59-14.11,30.42-24.9l-5-2.46c-2.63,14.29-17.94,20.43-29.89,25.14-2.47,1-2.22,4.84.51,5.22,11.95,1.64,22-6.13,30.42-13.55l-3.37-4.24a95.76,95.76,0,0,0-10.85,12c-1.38,1.81.46,5.1,2.8,4.26a13.57,13.57,0,0,0,7.39-5.75c1.72-2.69-1.81-5.83-4.18-3.53-1.28,1.22-2.57,2.45-3.83,3.7l4.21,3.53a84.42,84.42,0,0,1,4.93-7.08c1.63-2-1.29-4.27-3.17-2.8a28.71,28.71,0,0,0-6.48,6.9,2.77,2.77,0,0,0,4.21,3.53c1.28-1.22,2.54-2.46,3.81-3.7l-4.2-3.53a7.19,7.19,0,0,1-3.72,3.17l2.8,4.26a87.55,87.55,0,0,1,9.68-10.78c2.56-2.44-.63-6.68-3.38-4.24-7.23,6.42-15.82,13.87-26.19,12.4.16,1.74.33,3.47.5,5.22,14.39-5.55,29.83-12.71,33.76-29.09a2.87,2.87,0,0,0-5-2.47c-7.91,9.55-15.62,19.78-28.22,23-6,1.55-12.22,1.9-18.37,2.24-7.19.38-14.15.66-20.93-2.1l-1.55,4.94c11.43,2.12,22.77,4.17,34.39,5,5.7.38,11.42.53,17.12.48,4.89,0,10.19.29,14.85-1.41,16.89-6.15,12.14-32.18,8.53-45a74.3,74.3,0,0,0-14.37-27.67l-4.16,4.05c9.24,8.53,16.87,19.81,18,32.64,1,11.55-3.3,23.45-12.77,30.43l3.88,3.7A58.15,58.15,0,0,0,644.07,396c-.56-12.7-5.15-28-17.34-34-1.64-.82-3,1.65-1.5,2.69Z"/></g><g class="cls-19"><path class="cls-20" d="M558.73,444.67c7,.45,13.79-.2,20.75-.58,6.62-.36,13.18-.26,19.84-.11s13.18,0,19.77,0c3.22,0,6.46.14,9.69.14,2.38,0,4.71-.38,7.09-.39a20.65,20.65,0,0,0,4.71-.29c1.32-.3.77-1.93-.22-2.23a16,16,0,0,0-4.19-.52c-2.27-.14-4.48-.62-6.72-.72-3.21-.14-6.44-.09-9.65-.1-7,0-13.95-.14-20.93.31s-14,1-20.93,1.13a108.27,108.27,0,0,0-19.45,1.7c-1,.2-.58,1.55.27,1.61Z"/></g><g class="cls-19"><path class="cls-20" d="M566.14,436.15c4.1.61,8.24.18,12.4.21,4.58,0,9.16.14,13.74.3,8.72.3,17.47.77,26.17-.11,7.16-.7,16.06-1.95,22.06-6.27,3.36-2.43,4.65-5.87,5.8-9.73,1.21-4.19,2.77-8.77,2.26-13.18-.23-1.93-3.22-2.21-4.1-.62-2.07,3.72-2.61,8.26-3.78,12.32S638,425.4,634,427c-7,2.79-14.79,3.67-22.31,4-7.29.29-14.58,0-21.87-.17-7.8-.15-16.82-.69-24.09,2.51a1.49,1.49,0,0,0,.43,2.85Z"/></g><g class="cls-21"><path class="cls-20" d="M643,443.12c-6.69-1-14.17,0-20.93.17-6.93.15-13.83-.19-20.74-.13-6.43,0-12.85.21-19.28.25-6.07,0-12.55-.62-18.53.44-1.26.22-.78,2,.22,2.22,6.63,1.3,14.17.49,20.93.47,6.5,0,13,.07,19.5-.11,7-.21,13.9-.78,20.86-1,5.84-.17,12.34.34,18.05-1a.69.69,0,0,0-.06-1.36Z"/></g><path class="cls-22" d="M611.12,374c-3.36-10.75-15.76-14.73-25.94-11.86-11.33,3.22-20.49,13.43-21.15,25.41-.59,10.78,6.49,22.82,18.15,23.25a2.43,2.43,0,0,0,1.38.73c11.53,2.33,19.66-5.36,25.92-13.95a2.67,2.67,0,0,0,.25-.43v-.05C614.88,390.45,615,381.11,611.12,374Z"/><g class="cls-23"><path class="cls-20" d="M559.34,420.84c16.85,10.55,41.22,8.25,59.06,1.27,15.14-5.93,28.92-18.07,31.42-34.81.77-5.48-6.44-6.48-8.63-2.05-7.57,15.39-24.12,23.58-40.21,26.84a122.34,122.34,0,0,1-25.31,2.71c-7.28-.06-15-1.25-19.87-7.25-3.41-4.24-9.31,1.32-6.45,5.56,2.69,4,2.33,9.31,4.73,13.47s6.24,6.63,10.71,8,9.11,1.44,13.68,1.55l18.69.41c18.78.38,43.05,1.17,52.67-18.73,4.93-10.16,4.65-21.65.58-32-1.45-3.72-7.34-1.48-7.25,2,.36,14.73-9.82,28.24-23.19,33.67-8.17,3.32-17.75,3.48-26.46,3.42a103,103,0,0,1-29.09-4.13c-4-1.18-6.51,5.06-2.33,6.16a134.33,134.33,0,0,0,32.33,4.59c10.31.13,21.57.1,31.08-4.38,15.26-7.19,24.69-22.86,25.37-39.46l-7.6,1.11c2.93,9.3,3.1,20.62-3,28.77-6.65,8.77-18.54,10.19-28.75,10.4-12.45.25-25.21.09-37.64-.67-4.26-.27-9.72-1-12.25-4.87-1.4-2.15-1.76-4.8-2.43-7.24a24.07,24.07,0,0,0-3.35-7.6l-6.45,5.54c5.86,7.26,15,9.76,24,10.26a114.56,114.56,0,0,0,30.45-2.6c19-4.16,36.85-14.26,45.73-32.23l-8.63-2.06c-2.07,13.84-14.72,23-27,27.58a73.72,73.72,0,0,1-25.33,4.48,79.1,79.1,0,0,1-12.77-1c-4.57-.72-9.14-1.27-13.72-2-2.65-.41-5.64,3.5-2.76,5.32Z"/></g><g class="cls-23"><path class="cls-20" d="M564.32,368c2.33-4.39,10.39-5.8,14.79-6.57a165.08,165.08,0,0,1,17.46-2c6.43-.42,13.18-.22,19.26,2.09a25.61,25.61,0,0,1,7.27,4.19c1.86,1.55,3.21,3.67,5.42,4.81a2.62,2.62,0,0,0,3.56-1,2.59,2.59,0,0,0,.27-1.79c-.92-5.56-8.52-9.21-13.32-10.85-7.11-2.43-14.58-2.33-22-1.6-7.08.7-14.3,1.4-21.21,3.16-4.11,1.05-14.39,3.55-13.14,9.39a.87.87,0,0,0,1.08.59A.85.85,0,0,0,564.32,368Z"/></g><g class="cls-23"><path class="cls-20" d="M563.34,373.24c2.32-1.55,4.11-3.88,6.28-5.64,1.66-1.34,3.2-2.76,5-4a42.56,42.56,0,0,1,11.49-5.76,37.25,37.25,0,0,1,22.48-.12c15.24,4.92,26,20.42,26.87,36.17.19,3.18,5.58,2.74,5.78-.31,1.36-20.64-13.31-40.51-33.68-45a45.39,45.39,0,0,0-29,3.45,44,44,0,0,0-10.93,7.39c-3,2.81-7.14,7.68-7.45,12a2,2,0,0,0,3.2,1.72Z"/></g><g class="cls-24"><path class="cls-25" d="M561.33,402.58c1.42-6.2,1.34-12.61,3.6-18.65a25.75,25.75,0,0,1,11-13.18,43.88,43.88,0,0,1,18.24-5.63,87.61,87.61,0,0,1,10.11-.58c2.33,0,6.15,0,7.41,2.44l3.65-3.55c-12.93-7.17-28.05-2.05-39.18,6.11-10.85,8-19.73,21.07-14.81,34.95a2.69,2.69,0,0,0,5.14-.54q.81-5.65,1.63-11.32a70.94,70.94,0,0,0,.51-10.3c0-1.72-2.75-2.39-3.25-.6a74,74,0,0,0-2.47,10.07q-.82,5.65-1.64,11.32l5.13-.55c-4.25-12,4.24-22.74,13.55-29.33,9.67-6.85,22.1-10.93,33.15-4.78,1.93,1.08,4.66-1.55,3.65-3.55-3.23-6.25-10.46-5.87-16.6-5.58-7.92.38-16,1.55-23.18,5.06-6.78,3.29-12.56,8.62-15.54,15.61a46.56,46.56,0,0,0-3.16,22.48c.19,1.68,2.71,1.7,3.1.11Z"/></g><g class="cls-24"><path class="cls-25" d="M562.17,390.61c-1.79,8.53,3.1,16.75,10.53,20.72,9,4.74,19.23,2.54,28.18-1.11s15.5-9.77,18-19.38c2.14-8,4.23-19.88-4.76-24.5-2.33-1.2-4.79,1.81-3.45,3.93,2.49,3.93,3.6,8.34,4.38,12.89s1.86,9.78.48,14.43c-2.33,7.75-11.51,10-18.41,11.57-2.33.53-3.61,4.54-.7,5.32,3.15.83,6.77.71,8.07-2.8.68-1.84-.78-4.12-2.85-3.66l-11.86,2.58c-3.88.85-7.35,1.42-11-.48-5.09-2.64-9.21-7.05-15.33-7a2.84,2.84,0,0,0-2.05,5,29.08,29.08,0,0,0,41.13-.64L603,407c5.83-6.28,7.76-14.19,8-22.57.11-4,.64-8.59-2-12a11.83,11.83,0,0,0-3.88-3.11c-1.34-.72-3.87-1-5-2l1,1.8v.27L599.65,371l.53-.2-2.59-.31-.21-.25,0-2.08c-.06.19-.11.38-.17.57.51-.52,1-1,1.55-1.55l-.49.28c-3,1.72-1.17,6.83,1.93,5,2.33-1.36,3.54-4.72.78-6.44-2.6-1.62-5.71,1.1-5.12,3.94.72,3.49,5.77,3.1,8.07,5.14,2,1.81,1.76,4.48,1.74,7a59.2,59.2,0,0,1-.57,8.52,24,24,0,0,1-15.66,19.1c-8.69,3.05-18.27.2-24.69-6.11l-2.06,5c6.36,0,10.69,5.95,16.52,7.75,3.31,1.05,6.65.66,10,0,4.38-.86,8.75-1.89,13.11-2.84l-2.85-3.66c0-.51-.3-.68-1-.51l-.7,5.32c8.7-2,19-5.09,22.48-14.31,2-5.31,1.18-11.14.26-16.58-1-5.79-2.26-11.42-5.42-16.45l-3.44,3.93c6.51,3.41,3.2,15.29,1.31,20.66-2.56,7.3-8.37,11.31-15.37,14-6.85,2.63-14.39,4.59-21.48,1.75a16.93,16.93,0,0,1-10.74-16.7c.11-2.05-2.87-2.2-3.27-.28Z"/></g><g class="cls-24"><path class="cls-25" d="M605.62,365.69c3.87,6.25,5.52,12.4,4.26,19.72-.28,1.61,2.1,2.49,2.66.84,2.47-7.42.43-16.57-5.61-21.78a.91.91,0,0,0-1.27.09A.89.89,0,0,0,605.62,365.69Z"/></g><g class="cls-24"><path class="cls-25" d="M576.27,442a103.71,103.71,0,0,0,14.73-.94c1.24-.18.88-2-.27-2.07a95.37,95.37,0,0,0-14.73.67,1.17,1.17,0,0,0,.28,2.33Z"/></g><g class="cls-24"><path class="cls-25" d="M575.38,440.45c8.17.77,16.69-.46,24.86-1.07,8.35-.61,16.66-1.55,25-2.55,1.31-.16.83-2.21-.38-2.16-8.52.35-17,.78-25.43,1.4-8,.61-16.36.62-24.2,2.38a1,1,0,0,0,.18,2Z"/></g><g class="cls-24"><path class="cls-26" d="M565.59,441.52c6.26.93,12.95.22,19.27.12,6.86-.1,13.73-.26,20.55-.85.78-.06.61-1.19-.12-1.23-7-.32-14.12-.21-21.17-.05-6.1.14-12.63-.34-18.64.84-.6.12-.43,1.09.11,1.17Z"/></g><g class="cls-24"><path class="cls-26" d="M594.24,390.25c.43,0,.35-.69-.07-.69S593.84,390.25,594.24,390.25Z"/></g><g class="cls-27"><path class="cls-26" d="M591.59,364.83c-6.38-1-13,6.64-15.81,11.5-3,5.19-6.6,14.83-2.72,20.28a2.26,2.26,0,0,0,3.75-.62c.94-3.17.3-6.48,1-9.72a25.5,25.5,0,0,1,3.2-8.11,26.71,26.71,0,0,1,5-6c2.09-1.85,4.77-3.1,6.5-5.32A1.35,1.35,0,0,0,592,365a1.37,1.37,0,0,0-.38-.15Z"/></g><g class="cls-28"><path class="cls-26" d="M591.7,366a86.28,86.28,0,0,0-10.11,12.9c-3,4.65-5,9.68-7.76,14.41-1.36,2.32,2.45,3.92,3.76,1.7,4.25-7.23,8.07-14.6,14.55-20.15l-2.95-2.88c-2.74,3.46-14.79,19.45-6.36,22.41,1.2.43,3.34-.58,2.53-2.14-2.75-5.26,4.13-13.95,7.16-17.82a2.07,2.07,0,0,0-2.94-2.87c-6.86,5.83-11.77,13.73-15.76,21.7l3.93,1.27c2.12-9.9,9.06-19.62,15.35-27.32C593.8,366.31,592.46,365.15,591.7,366Z"/></g><g class="cls-29"><path class="cls-30" d="M653.79,391.58a1.55,1.55,0,0,0,0-.23,3.26,3.26,0,0,1-.94-1.45c-.61-1.92-1.28-3.82-1.95-5.72-5.93-3.39-13.66-2.24-19.6.9-15.34,8.13-19.87,27.06-18.36,43.16.11,1.17,2.14,1.45,2.21.14.78-14.12,2.82-28.58,15.11-37.46,5.89-4.26,16.28-7.31,21.71-.89a15.54,15.54,0,0,1,2.32,3.87C654.1,393.12,654,392.35,653.79,391.58Z"/></g><g class="cls-29"><path class="cls-30" d="M647.12,373.5c-.56-.84-1.16-1.64-1.78-2.44a31.49,31.49,0,0,0-7.94.17A53.15,53.15,0,0,0,614,380.37c-7.06,5.05-10.44,11.86-12,20.24-1.75,9.3-3.1,19.65-1.39,29,.15.78,1.36,1.05,1.51.11,1.22-7.78,1.22-15.67,2.6-23.44,1.26-7.13,2.78-14.62,8.16-19.87,4.78-4.65,11.28-7.75,17.62-9.64,3.82-1.16,12.93-3.81,17.42-1.07C647.62,375,647.36,374.25,647.12,373.5Z"/></g><g class="cls-29"><path class="cls-30" d="M631.65,358.51a37.92,37.92,0,0,0-11.31,2A35.2,35.2,0,0,0,602.87,373c-5.3,7.38-6.85,16.78-8.14,25.58q-1.11,7.61-1.63,15.28c-.36,5.11-1.14,10.92.28,15.91a1,1,0,0,0,1.21.71,1,1,0,0,0,.69-.64c1.18-4.2.83-8.92,1.1-13.25s.66-8.37,1.2-12.54c1.09-8.43,2.17-17.54,6.2-25.16a30.59,30.59,0,0,1,14.29-13.22,31.51,31.51,0,0,1,9.51-2.67c3.48-.41,6.87.28,10.29.31C635.89,361.63,633.8,360,631.65,358.51Z"/></g><g class="cls-29"><path class="cls-30" d="M630.51,357.71c-12.82-.08-24.8,8.93-31.85,19.19-4.8,7-7.84,15.14-9.78,23.38-1,4.41-1.79,8.88-2.41,13.37-.6,4.29-1.6,9-1.27,13.31.07,1,1.55,1.46,1.85.35,1-3.5,1.07-7.36,1.55-11,.57-4.31,1.23-8.6,2.14-12.84,1.78-8.28,4.4-16.61,8.93-23.82,7.4-11.8,19.43-19.78,33.33-20.15C632.19,358.88,631.35,358.29,630.51,357.71Z"/></g><g class="cls-29"><path class="cls-30" d="M577.66,426.85c2.17-8.45-.44-17.2,1-25.69a72.56,72.56,0,0,1,7.25-20.72A56.11,56.11,0,0,1,599,363.26,41,41,0,0,1,607,358a36.34,36.34,0,0,1,5.88-2.33c1.19-.37,5.16-1.91,6.2-.93a1.08,1.08,0,0,0,1.73-.56c1.89-6.89-14.73-.34-16.7.66-7.35,3.72-13.4,9.65-18.08,16.39a72.86,72.86,0,0,0-10.26,22.42,46.24,46.24,0,0,0-1.89,12.59c.08,6.9,2.43,13.52,2.6,20.45a.66.66,0,0,0,.65.66.65.65,0,0,0,.62-.45Z"/></g><g class="cls-29"><path class="cls-30" d="M572.21,432.27c1.25-3.42-2.07-5.21-4-7.49a27.54,27.54,0,0,1-5-10.07A49.9,49.9,0,0,1,561.66,392c1.55-8.68,7-16.15,13-22.39q4.59-4.72,9.63-9c1.59-1.37,3.17-2.78,4.84-4.07,2.54-2,4.92-2.74,7.86-4a1.15,1.15,0,0,0-.33-2.17c-4.59-1.18-9.25,2.7-12.54,5.43-3.65,2.94-7.18,6.08-10.54,9.39-6.53,6.49-12.63,14.26-14.73,23.42-1.72,7.44-.86,15.74.85,23.09a40.36,40.36,0,0,0,4.07,10.93,22.32,22.32,0,0,0,2.84,4c1.61,1.75,3.79,3,4.38,5.49.13.54,1,.77,1.26.16Z"/></g><g class="cls-29"><path class="cls-30" d="M569.52,419.79c-1-7.23-2.1-14.63-1.6-21.94A55.31,55.31,0,0,1,572.41,380c4.43-10.45,11.63-20.08,21.17-26.35.84-.56-.17-1.84-1-1.33-10.28,6.22-17.51,16.57-21.95,27.54a58.12,58.12,0,0,0-4.24,17.06c-.62,7.75.66,15.36,1.93,23C568.42,420.62,569.63,420.54,569.52,419.79Z"/></g><g class="cls-29"><path class="cls-30" d="M623.38,429.83c.62-4.08-.51-8.46-.58-12.59a38.18,38.18,0,0,1,2-14.15,22.69,22.69,0,0,1,7.09-9.81c3.31-2.53,7-3.27,11-3.87,1-.16.78-1.73-.09-1.92-8.25-1.79-15.89,5.67-19.27,12.46a35.31,35.31,0,0,0-3.23,14.51c-.17,5-.24,10.93,1.56,15.51a.77.77,0,0,0,1.49-.13Z"/></g><g class="cls-29"><path class="cls-30" d="M556.78,419.09c-1.28-5.77-3.38-11.17-4.08-17.1-.78-6.41-.14-12.62.1-19a1,1,0,0,0-.91-1,.93.93,0,0,0-.92.61c-1.94,6.14-1.8,13-1,19.35.74,5.9,2,12.53,5.2,17.61.5.78,1.88.62,1.64-.48Z"/></g><path class="cls-31" d="M612.59,425.56c.65-14.42,2.89-29.66,15.91-38.31,6-4,16-6.51,21.31-.21a19.64,19.64,0,0,1,3.87,9c.64,3.22.41,6.77,1.68,9.76a1.3,1.3,0,0,0,2.46-.29c.63-4.17-.53-9.52-1.79-13.51a18.92,18.92,0,0,0-5.54-8.85c-6.15-5.24-15.24-4-21.86-.31-14.94,8.26-19.14,26.72-17.88,42.57C610.83,426.42,612.55,426.66,612.59,425.56Z"/><path class="cls-31" d="M599.62,426.85c.9-7.38,1-14.8,2.21-22.16,1.1-6.72,2.33-14.15,6.77-19.56s11.63-9,18.28-11.17c5.1-1.66,19.51-6,21.28,2.17a1.08,1.08,0,0,0,1.3.79,1.07,1.07,0,0,0,.81-.92c.78-8.34-9.51-8.12-15.15-7.33a52.93,52.93,0,0,0-23,8.94c-6.73,4.75-10.25,11.08-11.88,19.06-2,9.62-3.31,20.32-1.79,30.09.1.67,1.15.87,1.25.09Z"/><path class="cls-31" d="M592.8,427c.93-4,.69-8.38.93-12.51q.39-6.66,1.24-13.29c1.08-8.44,2.16-17.59,6.2-25.2A31,31,0,0,1,616,362.42a31.94,31.94,0,0,1,10.2-2.64c3.8-.32,7.48.57,11.26.49a1.07,1.07,0,0,0,1.07-1.08,1.1,1.1,0,0,0-.6-1c-5.59-3.69-14.8-2-20.69.11a34.44,34.44,0,0,0-16.94,12.84c-5,7.41-6.44,16.69-7.69,25.35q-1.1,7.61-1.55,15.26c-.33,5-.95,10.34.2,15.2a.82.82,0,0,0,1,.54.8.8,0,0,0,.52-.48Z"/><path class="cls-31" d="M632.81,355.46C618.12,353,604.07,363,596.2,374.67c-4.65,6.89-7.55,14.85-9.44,22.89-1,4.4-1.79,8.86-2.41,13.33s-1.49,8.91-1.31,13.29c0,.82,1.3,1.22,1.55.3.92-3.55,1-7.33,1.49-11,.56-4.32,1.23-8.63,2.15-12.89,1.78-8.3,4.42-16.63,9-23.86,7.75-12.35,20.74-20.76,35.55-20.16.64,0,.67-1,.08-1.11Z"/><path class="cls-31" d="M575.24,424.08c2-8.48-.72-17.19.73-25.72a72.7,72.7,0,0,1,7.51-21.3,56.18,56.18,0,0,1,13.35-17.13,40,40,0,0,1,8.62-5.51c1.59-.78,9.74-4.51,11.17-2.82.47.55,1.49.57,1.63-.29,1.06-6.44-13.78-.23-15.89.8-7.49,3.69-13.63,9.7-18.36,16.52a72.93,72.93,0,0,0-10.34,22.76,43.17,43.17,0,0,0-1.78,13.17c.3,6.51,2.28,12.73,2.33,19.3a.54.54,0,0,0,1,.16Z"/><path class="cls-31" d="M569.79,429.17c1-3.25-1.92-4.87-3.88-7a26.59,26.59,0,0,1-5-9.6,51.32,51.32,0,0,1-2-22.66c1.28-8.87,6.64-16.49,12.63-22.89,6.52-7,14-14.34,23.09-17.67.95-.35.58-1.64-.28-1.81-4.6-.92-9,2.71-12.3,5.43a141,141,0,0,0-10.51,9.44c-6.56,6.52-12.73,14.35-14.73,23.59-1.55,6.89-.85,14.43.56,21.28a43.21,43.21,0,0,0,3.94,11.53,24.51,24.51,0,0,0,2.72,4.1c1.6,1.91,4.28,3.35,4.79,6,.08.44.87.93,1.08.28Z"/><path class="cls-31" d="M567.09,417c-1-7.21-2.13-14.6-1.64-21.93a55.77,55.77,0,0,1,4.49-17.82c4.44-10.48,11.63-20.16,21.22-26.36.71-.47-.14-1.55-.85-1.11-10.24,6.2-17.47,16.5-21.91,27.44a57.79,57.79,0,0,0-4.23,17.06c-.63,7.75.63,15.34,1.89,22.93.1.58,1.12.52,1-.11Z"/><path class="cls-31" d="M620.58,427c-.08-9.31-2.2-18.35,1.44-27.38,3.15-7.76,9.83-13.18,18.29-13.54.56,0,.46-.77,0-.83-7.81-.86-14.73,5.18-18.13,11.69-4.57,8.7-4.31,20.65-2.21,30,.07.32.65.45.65,0Z"/><path class="cls-31" d="M554,416.41c-2.08-6.3-4-12.4-4.59-19a83.85,83.85,0,0,1,.55-17.2c0-.41-.66-.59-.78-.16-2.68,11.73-1.26,25.8,4.14,36.59C553.46,417,554.11,416.83,554,416.41Z"/></g></g></g></svg>