<svg xmlns="http://www.w3.org/2000/svg" viewBox="0 0 716.39 716.53"><defs><style>.cls-1{fill:#e4a8a4;}.cls-2{fill:#734f20;}.cls-3{fill:#775227;}.cls-4{fill:#d1998e;}.cls-5{fill:#c99386;}.cls-6{fill:#805930;}.cls-7{fill:#8c633e;}.cls-8{fill:#966a49;}.cls-9{fill:#f5e4ae;}.cls-10{fill:#43a8ae;}.cls-11{fill:#3e9191;}.cls-12{fill:#f6e5af;}.cls-13{fill:#508e86;}.cls-14{fill:#558678;}.cls-15{fill:#d67382;}.cls-16{fill:#d57282;}.cls-17{fill:#f5e4af;}.cls-18{fill:#3e8b8a;}.cls-19{fill:#967746;}.cls-20{fill:#724f20;}.cls-21{fill:#d67282;}.cls-22{fill:#3e9090;}.cls-23{fill:#724e20;}.cls-24{fill:#d57281;}.cls-25{fill:#3e908f;}.cls-26{fill:#e3a7a3;}.cls-27{fill:#d47181;}.cls-28{fill:#d47281;}.cls-29{fill:#714e20;}.cls-30{fill:#d69e9a;}.cls-31{fill:#6e4d20;}.cls-32{fill:#6d4c20;}.cls-33{fill:#6f4926;}</style></defs><title>Ativo 3</title><g id="Camada_2" data-name="Camada 2"><g id="Layer_1" data-name="Layer 1"><path class="cls-1" d="M91.18,601.14c-5.56-13.61-16.79-23.2-25-34.93a374.5,374.5,0,0,1-44-83.05,336.9,336.9,0,0,1-15.42-54A359.55,359.55,0,0,1,.91,385.76c-1-14.15-1.06-28.28-.73-42.4a325.14,325.14,0,0,1,5.19-48.47,354.37,354.37,0,0,1,30.18-93,348.42,348.42,0,0,1,36.21-59,365,365,0,0,1,42.38-47,353.8,353.8,0,0,1,66.08-48.72A365.85,365.85,0,0,1,236.7,21a361.83,361.83,0,0,1,65-16.71c24.89-4.09,50-4.91,75.08-3.92a335.68,335.68,0,0,1,45,5.17,356.53,356.53,0,0,1,92.57,30,349.27,349.27,0,0,1,59,36.17A360.08,360.08,0,0,1,621,114.8a351.86,351.86,0,0,1,48.07,65.32,368.77,368.77,0,0,1,25.8,55.54A361.05,361.05,0,0,1,712.1,302c4,24.72,4.91,49.63,3.91,74.57a333.46,333.46,0,0,1-5.24,45.46A358.88,358.88,0,0,1,602.15,620.62a354.46,354.46,0,0,1-66.08,48.72,368.22,368.22,0,0,1-56.48,26.15,360.19,360.19,0,0,1-65,16.72c-24.89,4.08-50,5-75.08,3.92a338.24,338.24,0,0,1-45.44-5.28,356.94,356.94,0,0,1-91.16-29.53,329.18,329.18,0,0,1-59.88-36.57c-6.57-5.08-13.11-10.22-19.4-15.64-2.54-2.19-6.14-1.51-8.41-3.91,1.56-1.48,3.38-1,5.18-.65,17.88,3.76,34.84-5.17,41.64-21.93,8.24-20.33-2.4-42.33-23.91-49.44C118.87,546.81,97.33,559,92,579.3c-1.48,5.59-2.13,11.06-.15,16.67C92.4,597.68,92.67,599.57,91.18,601.14Z"/><path class="cls-2" d="M91.18,601.14c.54-3.94-1.87-7.33-2-11.23-.5-19.35,13.16-35.87,32.78-39.37,17.57-3.14,36.46,8.55,42.22,26.13a38.58,38.58,0,0,1-37.74,50.5c-3.89-.11-7.28-2.5-11.22-2A41.18,41.18,0,0,1,91.18,601.14Z"/><path class="cls-2" d="M569.19,424.35c-3.37,14.9-6.7,29.81-10.14,44.7-2.91,12.62-5.79,25.25-9,37.8-1,3.84.06,5.29,3.7,6.27,13.27,3.6,22.38,12.16,25.59,25.37,1.64,6.76,4,9.49,10.94,11.32a35.86,35.86,0,0,1,26.79,39.71c-2.7,18.73-18,31.6-37.64,31.64-15,0-30,0-45,0-3.89,0-7.84-.27-11.14-2.22-3.78-2.23-6.65-2.07-9.75,1a7.12,7.12,0,0,1-4.29,2.37c-2.18,1.47-4.94,1.57-7.14,3a29,29,0,0,1-10.76,1.8q-139.72,0-279.46,0A39,39,0,0,1,174.32,597Q160,535.83,145.55,474.69q-4.11-17.47-8.19-35c-.23-1-.23-2-1.22-2.6-.17-1.72,1.23-2.21,2.32-2.81,7.44-4.12,13.59-9.75,19.22-16,1-1.11,1.95-3.49,4.12-1.26-.78,12.44,3.93,23.89,6.57,35.67C174,477.88,180.1,503,186,528.1c4.71,19.94,9.34,39.9,14.1,59.83,2.18,9.15,6.24,12.1,14.56,12,3.73,0,4.61-1.41,3.76-4.9-2.87-11.82-6.1-23.55-9.2-35.3-8.35-31.56-16.35-63.21-24.77-94.75-1.58-5.9,0-11.07,4.48-14.94,4.93-4.26,10.66-4,16.43-1.54a17.05,17.05,0,0,1,6.74,9.62c8.18,30.87,16,61.83,24.19,92.71.59,6.55,3.17,12.62,4.66,19a9.45,9.45,0,0,1,.5,1.56c2.19,7.66,4.58,15.26,6.26,23,.85,3.93,2.89,5.63,6.92,5.45,4.31-.19,8.63-.1,13,0,3.59.06,4.93-1.25,4.67-5.08-1.07-15.7-2.48-31.37-3.69-47-.38-4.91-.35-9.93-1.57-14.79-2.53-22.52-3.63-45.17-6.28-67.67a18.26,18.26,0,0,1,.27-5.94,30.61,30.61,0,0,1,5-9.12c10-7.28,22.14-1.86,23.34,10.7,1.13,11.73,2.1,23.48,3.11,35.23,1.6,18.69,3,37.4,5,56.06a14.79,14.79,0,0,1,.11,2.49,225.32,225.32,0,0,0,2.36,27.22,95.36,95.36,0,0,1,.9,11.93c.13,4.05,2,6,6.23,5.91q12.46-.19,24.94,0c4.06.06,5.64-1.64,5.58-5.65-.17-12.14.18-24.28.16-36.42q-.06-46.64,0-93.29c0-3.16-.07-6.33,1.22-9.32,6.48-11.07,19.2-11.15,25.51-.16,1.37,2.83,1.08,5.86,1.08,8.85q0,50.23,0,100.47c0,9.66.23,19.32.21,29,0,5.85.57,6.43,6.16,6.48,8.16.07,16.33,0,24.49,0,4.23,0,5.82-1.89,6.17-6,1.48-17.37,3.42-34.7,5.08-52.06a60.36,60.36,0,0,0,0-7c1.11-12.74,2.05-25.5,3.34-38.22,1-10.09,1.4-20.22,2.61-30.29.31-2.65.61-5.29,1.18-7.89,1.6-7.3,7.6-11.84,14.84-11.32,6.86.49,12.13,5.78,12.83,13,.64,6.68-.61,13.29-1.2,19.89-2.32,26-4.63,52-6.75,78-.32,4-.85,7.94-1.26,11.9-1.31,9-1.56,18.17-2,27.28-.1,2,1,2.68,2.75,2.73,5.65.14,11.31.16,17,0,2.64-.09,3.74-1.83,4.31-4.1,2.7-10.79,6.53-21.28,8.49-32.27,7.72-28.55,14.87-57.26,22.56-85.83,1.64-6.1,3.1-12.24,4.67-18.36,1.12-4.32,3.1-8.05,6.86-10.66,5.91-2.52,11.87-2.77,17,1.44s5.45,10,3.83,16.05c-6.47,24.13-12.63,48.34-18.94,72.52-4.79,18.37-9.76,36.7-14.44,55.1-1.48,5.78-.9,6.4,5,6.23,6.69-.2,10.48-2.92,12.3-9.57,2.51-9.16,4.33-18.42,4.26-28-.05-8.27-1.23-16.66,1.49-24.81,1.39-4.17,3.08-8.29,6-11.41,4.24-4.51,5.91-9.92,7.22-15.63q8.93-38.72,18.19-77.34c1.35-5.69,2.78-11.37.85-17.22.95-5.45,5.17-9.1,7.65-13.72.72-1.32,1.91-1.1,2.65.29a19.68,19.68,0,0,1,1.51,4.72c1.85,7.45,6,12.82,13.58,15.09A4.61,4.61,0,0,1,569.19,424.35Z"/><path class="cls-2" d="M193.42,303.32c-1.41-8.22-2.66-16.5-.88-24.76,4.18-19.46,16.59-30.86,35.77-35a7.27,7.27,0,0,0,5.72-4.48c6.88-13.65,18.26-20.76,33.42-21.58,3.34-.18,4-2.2,5.19-4.38,7.53-14,19.14-21.34,35.15-21,5.66.1,10.92,2.6,16.54,3.43,10.61,1.56,21.15,2.2,31.79.81,5.48-2.37,11.63-.86,17.15-3a1.22,1.22,0,0,0,.86-.08c6-1.76,12-3.43,18.08-5,11.48-3,22.06-8.29,33-12.65a25.37,25.37,0,0,1,35.18,23.4c.2,14.45-4,27.49-12,39.43-.79,1.19-2.49,2.34-1.72,3.84s2.7.68,4.12.76c8.78.49,17.65-1,26.38,1A44.32,44.32,0,0,1,511,297c-.38,1.78-.33,3.86-1.26,5.3-3.68,5.67-.27,6.76,4.36,8.59,29.62,11.67,41.73,42.2,33.73,70.87-.85,3.05-2,5.87,2.11,7.34.11.12.31.22.33.36.85,5.75-7.1,20.16-12.47,22.66a56.25,56.25,0,0,0-14.4-1.59c-2.62-2.63-1.76-5.9-1.44-8.95.41-3.8,1.28-7.55,2-11.3a39,39,0,0,0-1.56-20.12c.8-9.91,0-19.19-7.65-26.89-6.17-6.24-13.66-8.84-22-9.35-7.81-.49-15.66-.12-23.49-.13a12.84,12.84,0,0,0-8.57,3.47c-14.65,12.36-34.45,13.08-49.71,1.41a23.29,23.29,0,0,0-15.15-5c-61.83.22-123.66-.08-185.49.21a12.31,12.31,0,0,1-1.49-.13c-2.42-1.16-1.32-3.13-.88-4.73,1.06-3.85,1.71-7.77,2.4-11.69a18.3,18.3,0,0,0-1-9.78c-1.81-4.82-5.76-6.76-10.76-5.41C196.93,302.62,195.37,303.83,193.42,303.32Z"/><path d="M523.09,370.45c5.43,7.86,2.77,16.27,1.57,24.55-.73,5-2.59,10-.87,15.16,5.78,5.35,5.78,5.35,14.42,1.29,6.26-6.22,9.4-14.08,11.76-22.36,1.72-4.26,3.16-8.65,5.21-12.74,5.34-10.66,13.23-18.68,24.92-22.25,6.79-2.07,14-.18,17.36,4.27,3.54,4.63,3.55,12.44.06,18.4A24.28,24.28,0,0,1,587.27,386c-.89.47-2.15,1.57-3-.08-.73-1.49-.56-2.72,1.29-3.57,5.48-2.5,9.1-6.66,10.14-12.68,1.49-8.6-5.09-14.26-13.4-11.66-6.37,2-10.84,6.36-14.35,11.77a47.54,47.54,0,0,0-7.69,28.4,20.3,20.3,0,0,1,1.37,5.74c.74,6,3.76,10.76,7.62,15.15,4.86,2.11,9.24.92,13-2.43a34.51,34.51,0,0,0,11.09-20.66c.61-3.77,1.27-7.54,2.14-11.26.36-1.55.45-3.78,3.44-2.62,2.23.86,4,1.3,3.06,4.36a58.34,58.34,0,0,0-1.92,21.77c.32,3.47,1.08,6.78,5,7.83s6.44-1.07,8.59-3.81c5.1-6.5,7.55-14.38,11.17-21.65,5.42-10.85,2.84-22.59,4.49-33.85.32-2.22-1.53-2.17-3-2.39a53.73,53.73,0,0,1-17.88-6c-1.5-.81-3.16-1.49-2.07-3.7,1.35-2.75,2.82-.55,4,.08a56.81,56.81,0,0,0,16.41,5.69c2.55.47,3.44-.23,3.87-2.78a93.66,93.66,0,0,1,7.57-25.24c1.89-3.92,4-7.72,7.59-10.38,4.46-3.31,8.37-1.88,9.67,3.52,1.46,6.08-.36,11.93-1.74,17.72-1.34,5.63-3.29,11.13-5.1,17.12,7.12.32,13.62-1.64,20.11-3.38,3.69-1,7.28-2.33,10.86-3.66,1.84-.68,3.08-.74,3.86,1.45s-1.1,2.06-2.09,2.43c-10,3.71-20,7.35-30.89,7.32-2.9,0-4.53.9-5.44,3.78a43.33,43.33,0,0,1-4,9.65c-7.67,12.55-4.48,25.27-1,38a21,21,0,0,0,2.85,5.79c4.4,6.72,11.65,7.45,17.32,1.71,5.13-5.19,8.09-11.75,10.84-18.37,1.91-4.6,3.59-9.3,5.36-14,.58-1.51,1.42-1.95,3.06-1.3s1.33,1.38.87,2.63c-4,10.94-7.7,22-14.78,31.48-2.83,3.79-6.15,7-10.79,8.52-8.21,2.68-16.31-1.11-20.57-9.67-3.13-6.29-4-13.21-5.38-20.65-2.51,5.34-4.66,10.16-7,14.87a38.14,38.14,0,0,1-6.79,9.82c-7.66,7.69-17.6,5.33-21-5-.26-.78-.55-1.55-1.12-3.13-5.2,9.95-12.2,16.34-23.63,15.61-12.52-2.16-17.64-10.74-19.21-22.72l-8.88,13.58c-2.51,5.35-7.27,7-12.6,7.23-5.52.2-9.4-2.75-12-7.54a15.2,15.2,0,0,1-1.86-5.64c-1.61-6,.28-11.83,1.07-17.71.28-2.13.8-4.23,1.11-6.36s1.34-4.44,1.49-6.76c.13-2.06-.25-4.07-2.19-5.19s-3.89-.29-5.49,1a31.87,31.87,0,0,0-8.84,10.56,121.72,121.72,0,0,0-10.75,25.45c-1.4,4.22-2.69,8.48-4.28,12.63-.94,2.46-2.57,3.85-5.33,3.12s-3.7-2.64-3.43-5.25c.4-3.93,1.31-7.79,1.72-11.72,1.18-8.3,2.06-16.65,3-25,.08-4.3.15-8.6,0-12.91,0-1.81.05-3.95-2-4.66-2.35-.79-3.63,1.16-4.79,2.73-3,4-4.17,9-6.68,13.29-2.53,5.45-5.39,10.64-9.86,14.86-3.1,2.92-6.4,5.38-10.53,6.39-3.28.8-5.29,2.58-6,5.84-3.15,6.93-7.09,13.2-14.16,16.84-15.05,7.75-30.7,1-37.72-16.21-.7-2.63-1.71-5.2-1.55-8.1.12-.55-1.06.19-.42,0,.39,3.28-2.16,5.28-3.38,7.87-4.54,7.43-10.32,13.49-18.71,16.48-16.51,5.9-32.85-.71-40.77-16.38-1.94-4.25-2.66-8.81-3.41-14.38-3.92,5-8.83,7.35-14.22,8.9-2.4.7-2.87,3-3.66,5-3.17,6.93-7.11,13.2-14.19,16.84-15.05,7.73-30.69,1-37.7-16.26-.58-2.42-1.79-4.78-1.09-7a28.49,28.49,0,0,1-2.85,7.21c-3.19,5.44-6.37,10.8-11.94,14.37-9.83,6.3-24.65,2-23.32-12.74-.54-9.49,3.14-18.18,5.07-27.19a21.52,21.52,0,0,0,1-8.28c-.32-4.36-2.54-5.86-6.66-4.24a18.66,18.66,0,0,0-8.57,6.45c-1.06,1.47-2.39,2.72-3.52,4.13a142.49,142.49,0,0,0-13.37,27.31c-1.62,4-2.82,8.11-4.73,12-.83,1.7-2,3.11-4.14,2.9-2.35-.23-2.74-2.06-3.06-3.89a54,54,0,0,1-1.06-12.3C176,383,175.92,357,180,331.39c1.08-6.79,1.65-14,7-19.35a47.22,47.22,0,0,1,6.48-8.72c9.12-6.83,18.16-2.45,18.54,10.08.2,6.82-1.9,13.33-3.75,19.84,1.37,2.23,0,4.15-.76,6.1-5.55,15.11-12.5,29.6-19.42,44.1-4.1,6.28-3.11,13.71-4.48,20.6-.33.61,1,0,.35.07-.15,0-.21-.12-.12-.42,2.15-7.22,6-13.59,9.76-20a64.32,64.32,0,0,1,9.75-12c6.8-6.45,13.28-8.49,19.25-5.28,7.22,3.88,8.45,10.58,7.65,18-1.38,8.23-4.48,16.07-5.64,24.35a42.66,42.66,0,0,0-.14,4.93c.11,2.46.81,4.55,3.37,5.53a5.86,5.86,0,0,0,6.38-1.4,35.22,35.22,0,0,0,7.14-8.16c4.54-8.15,8.47-16.54,10.78-25.62,2.9-8.19,6.38-16,13-22,1.39-1.25,3-3.48,5-1.65s.18,3.67-.94,5.26A51.13,51.13,0,0,0,261,382.58c-1.81,8.91-1.38,17.59,2.73,25.87,8.14,14.85,23.65,15,33.52.23,1.47-2.69-.46-3.06-2.36-3.47-3.88-.84-7.73-1.8-11.19-3.87a28.92,28.92,0,0,1-13.64-18.66,25.82,25.82,0,0,1,2.28-20.74,17.57,17.57,0,0,1,27.36-4.44c5.27,4.87,7.67,11.18,8.62,18.09.35,2.63.69,5.27,1,7.9.56,4.6-1.57,9.07-.77,14.22,7.22-2.58,12-7.06,14.5-14,3.44-10.73,7.79-20.94,17.29-27.86C347,351,353.8,350,362.3,350.9c8.26.84,8.3,5.44,9.77,10.66,2.35,8.3,2.25,16.06-4.2,22.71-4.46,3.69-9.09,4.13-13.91.69-4.64-4.8-4.62-10.31-2.38-16.12a32.09,32.09,0,0,1,5.49-8.81c.61-.73,1.55-1.5.86-2.58s-1.76-.87-2.72-.77a18.12,18.12,0,0,0-14.46,9.26,36.77,36.77,0,0,0-5.27,18.9c.1,7.88-.7,15.88,3.25,23.21,6.85,14.29,28.54,18.31,39.66.66A73,73,0,0,0,390.12,384c2.89-8.18,6.38-16,13-22,1.39-1.25,3-3.47,5-1.6s.13,3.68-1,5.26a51.18,51.18,0,0,0-8.11,16.9c-1.81,8.92-1.38,17.59,2.73,25.87,8.14,14.85,23.65,15,33.52.23,1.47-2.69-.46-3.06-2.36-3.47-3.88-.84-7.73-1.8-11.19-3.87a28.92,28.92,0,0,1-13.64-18.66,25.82,25.82,0,0,1,2.28-20.74,17.56,17.56,0,0,1,27.35-4.44c5.27,4.86,7.68,11.17,8.62,18.08.36,2.64.7,5.28,1,7.91.57,4.59-1.59,9.08-.77,14.09,7.48-2.22,11.81-7.33,14.82-13.88,2.38-4.58,4.62-9.22,6.94-13.82a26.05,26.05,0,0,1,2.49-4.32c3.32-4.28,7.21-7.6,13.11-6.26s8.11,5.86,9.23,11.2a14.79,14.79,0,0,1,.25,2.48,95.55,95.55,0,0,0,.06,11c.19,2,.29-.57.68-.26,4.26-6.82,8.69-13.44,16.58-16.59Q519,363.77,523.09,370.45Z"/><path class="cls-2" d="M419.08,136.26c-2.72,8.08-7.89,14.42-13.88,20.31-8.52,8.36-16.78,17-25.15,25.49-4.24,4.51-8.67,8.72-15,10.12l0,0c-4.66,2.28-9.31,1.45-14,0A39.5,39.5,0,0,1,336.49,182c-10.65-11.22-22.68-21.16-32.3-33.28-9.78-12.32-10.91-26.28-3.59-40.22,7-13.34,18.78-19.36,33.64-19a30.56,30.56,0,0,1,18.9,6.72c4.91,4.54,4.91,4.54,10,.07,18.85-13.67,48.05-6,56,20A30.16,30.16,0,0,1,419.08,136.26Z"/><path d="M161.2,416.22c-7.16,8.4-15.22,15.72-25.06,20.91-15.44,7.51-31.61,10.26-48.51,6.63C64,438.69,47.39,424.43,40.55,401.6c-11-36.6-4.35-70.29,22.67-98.4a66.2,66.2,0,0,1,46.66-20.94c3.21-.11,6.7-.18,9.29,1.38,6.55,3.95,12.73,3.09,19.13.05a24.26,24.26,0,0,1,3.86-1c1.06-.3,1.91-.36,2.39.92.56,1.46-.61,1.71-1.43,2.1-3.29,1.55-6.62,3-10.32,4.71,13.41,13.19,15.09,28.66,10.25,45.43a29.35,29.35,0,0,1-10.39,15.51c-7.28,5.58-15.27,6.45-23.52,2.8s-12.35-10.42-13-19.23c-1.08-14.55,5.12-26.1,15.27-35.93a91.92,91.92,0,0,1,12.22-9.38c-7.92-4.18-15.64-4-23.5-1.78C85.38,292,73.81,301,65.46,313.42c-19.51,29-23.68,60.23-9,92.34,13.72,30.07,50,41.22,78.79,25.52,3.1-4,8-5.79,11.79-8.92,4.83-3.94,8.66-8.66,12.5-13.43a30.62,30.62,0,0,1,2.42-3.15c1.34-1.27,2.86-1.81,4.47-.61s1.07,2.62.39,4c-.5,1.05-1.16,2-1.74,3C164,413.76,163.32,415.69,161.2,416.22Z"/><path class="cls-2" d="M164,412.4c.5-1,1-2,1.49-3.09.53-1.21,2.29-2.49.23-3.74-1.79-1.08-2.65.38-3.49,1.66a68.36,68.36,0,0,1-18.88,19.35c-2.58,1.73-5.38,3.14-8.08,4.7-2.77-14.68,1.14-27.23,12-37.58a7.7,7.7,0,0,1,2.28-1.91c7.78-2.74,6.91-8.05,5.24-14.56a53.53,53.53,0,0,1,3.35-36c1.08-1.46,1.09-3.4,2.13-4.88,6.19-11.11,14.85-19.5,26.75-24.32-5.55,13.37-6.62,27.53-8,41.74-1.78,18.51-1.43,37.09-2.8,55.6C172.16,410.7,168.38,412.83,164,412.4Z"/><path class="cls-3" d="M569.29,419c-8.29-4.69-9-12.63-9-20.89C565.85,404,567.71,411.46,569.29,419Z"/><path class="cls-4" d="M351.12,192.13l14,0c-.07.77-2.71,2.31.59,2.06,2.54-.19,5-1.51,7.6-.86-5.45,2.48-11.29,2.78-17.15,3l2.33-1.75C355.79,193.92,352.72,194.82,351.12,192.13Z"/><path class="cls-4" d="M365,192.18c5.81-2.19,10.2-6.46,15-10.12C376.39,187.42,372.16,191.94,365,192.18Z"/><path class="cls-5" d="M419.08,136.26a49.35,49.35,0,0,0,.06-20c.95.45,1.88,1.17,1.81,2.19C420.5,124.4,423.15,130.69,419.08,136.26Z"/><path class="cls-4" d="M392.21,188.31a61.8,61.8,0,0,1-18.08,5A47.9,47.9,0,0,1,392.21,188.31Z"/><path class="cls-6" d="M363.14,96.3c-4.15,6-6.05,6-10-.07Q358.11,100.58,363.14,96.3Z"/><path class="cls-7" d="M502.13,625.34c1.88-2.2,4.57-2.44,7.14-3C507.41,624.58,504.83,625.1,502.13,625.34Z"/><path class="cls-8" d="M160.19,336.36a5.44,5.44,0,0,1-2.13,4.88A5.56,5.56,0,0,1,160.19,336.36Z"/><path class="cls-9" d="M127.54,601.4A12.72,12.72,0,1,1,140.42,589,12.67,12.67,0,0,1,127.54,601.4Z"/><path class="cls-10" d="M262.21,458.34q2.15,26.27,4.29,52.52c.6,7.43,1.13,14.87,1.69,22.31.78,5.91.79,11.88,1.27,17.81.51,6.28,1.17,12.52,2,18.75.94,7,.11,8-6.82,8.07-4.15.06-8.33-.22-12.46.07-6,.41-11-.35-12.09-7.59l0,0c-1.25-6.45-3.1-12.75-5-19Q223,504.87,210.93,458.45c-1-3.7-3.27-6.46-5.86-9.07s-6-1.47-9-1.6c-4.35-.19-5.37-1.44-3.66-5.44,2-4.82,5.9-7.53,11-8.41a37.9,37.9,0,0,1,6.48-.25h283.5c3.16,0,6.35-.18,9.42.82a12.78,12.78,0,0,1,8.51,8.5c1.24,3.67.27,4.85-3.63,4.73-3.28-.11-6.67-.86-9.47,1.69-6.63,5.55-6.76,13.9-8.77,21.28-6.37,23.4-12.26,46.94-18.37,70.42-1.93,7.4-3.95,14.77-5.93,22.15-1.77,2.75-1.51,6.06-2.48,9.05-1.2,3.71-3.31,5.49-7.24,5.46-5.66,0-11.33.05-17,0-6.91-.08-7.29-.58-6.36-7.6Q434,547.57,435.91,525q2.05-24.33,4.1-48.67c.42-5,1.05-9.93,1.16-14.9a12.64,12.64,0,0,0-12.11-13.24,12.45,12.45,0,0,0-13.12,11.65c-1.75,19-3.31,38.06-5,57.09-.52,5.79-1.21,11.56-1.82,17.34-2,8.28-1.14,16.82-2.41,25.19-.66,4.38-1.46,8.82-1.19,13.35.18,2.9-1.57,4.72-4.55,4.83-10.8.4-21.61.34-32.42,0-4.12-.12-3.94-3-3.93-6q0-55.39,0-110.79c0-2.33.23-4.69-1.58-6.57-7-8.57-15-8.55-22.77,0-1.94,2.23-1.69,4.93-1.69,7.59V571.28c0,5.88-.4,6.43-6,6.53q-14,.24-28,0c-5.73-.1-6.94-1.35-6.95-7.28a86.1,86.1,0,0,0-1.6-16.26q-3.51-40.6-7-81.21c-.31-3.62-.82-7.24-1.05-10.87-.36-5.47-2.16-10.05-7.33-12.66s-10-1.46-14.44,1.8A14.92,14.92,0,0,0,262.21,458.34Z"/><path class="cls-11" d="M498.2,449.42c2.27-3.26,5.58-2.84,8.81-2.33s4.37-.28,3.08-3.61c-1.85-4.79-5.15-7.61-10.28-8.2a23,23,0,0,0-2.49,0q-145.59,0-291.18-.05a13.18,13.18,0,0,0-12.49,7.41c-1.36,2.51-1.71,5,2.89,4.75,2.83-.14,6.46-1.77,8.53,2-9.9-3-15.91-.78-19.06,7-1.19,2.94-.85,5.79-.07,8.78q11.77,45,23.42,90.06c3.6,13.81,7.15,27.63,11,41.38,1.08,3.89.17,4.87-3.79,4.85-11.77-.06-15.67-3.2-18.3-14.57-6.76-29.25-13.72-58.46-20.58-87.69-5.76-24.55-11.46-49.11-17.28-73.64-.78-3.28.46-6.23.83-9.32L164,412.4c3.87-1.77,7.71-3.68,12.19-3,.23,4,.47,7.93.68,11.9.07,1.4.25,2.6,2,2.87s2.28-.82,2.84-2.1c1.83-4.23,2.81-8.82,5.28-12.8a7.68,7.68,0,0,1,5.09-1.51c5.92,0,11.83-.14,17.75.05,2.57.09,5.08.46,4.87,4,.36,5.81,1.08,11.44,7.76,13.61,6.91,2.25,12.68.1,17.71-4.75,3.38-3.27,5.57-7.4,8.1-11.28,1.88-1.51,3.74-1.71,5.6.05,3.73,9.86,10.15,16.78,20.94,18.6,10.3,1.74,20.54-3.66,26.28-13.58,1-1.72,1.94-3.47,2.9-5.21a35,35,0,0,1,23,.13c9.74,21.88,41.33,25.11,56.1,2.17a27.25,27.25,0,0,1,1.85-2.32c2.35-1.62,4.65-1.79,6.89.2,3.74,9.86,10.16,16.79,20.94,18.61,10.31,1.74,20.55-3.66,26.29-13.58,1-1.72,1.94-3.47,2.91-5.21,1.63-1.36,3.6-1.57,5.62-1.58,9.28-.05,18.57-.07,27.85,0,2,0,4,.11,5.51,1.76-.57,3.74-1.12,7.48-1.71,11.21-.29,1.87-.57,3.48,2,4.13,2.45.62,3.59.09,4.35-2.36,1.35-4.4,3-8.71,4.53-13.05a5.76,5.76,0,0,1,4-1.59c5.89-.18,11.78-.2,17.67,0a5,5,0,0,1,3.95,1.64c4,13.46,13.06,15.53,25.29,5.78,3.75,4.94,1.9,10.26.72,15.33-6.79,29.25-13.77,58.46-20.67,87.7-.64,2.72-2.48,4.63-4.21,6.64a34.93,34.93,0,0,0-8.86,22.19c-.32,10,.91,20-1,29.87a121,121,0,0,1-3.8,15.95c-2.47,7.18-13.24,11.43-19.71,8.33-2-1-.81-2.33-.55-3.41q3.22-13.3,6.64-26.56,7.82-30.37,15.72-60.73,5.67-21.66,11.58-43.27c1.63-5.92,2.28-11.68-2.74-16.2C509.43,446.77,503.78,447.6,498.2,449.42Z"/><path class="cls-12" d="M560,595.41c-7.15,0-14.3-.12-21.45.06-3.28.08-4.78-.69-4.73-4.39.18-14,0-27.94.11-41.9.06-6.94,4.75-11.84,10.86-11.76,6.33.08,10.45,4.66,10.59,11.88.07,3.49-.1,7,0,10.47.39,8.68,5.55,13.8,14.22,14.15,3.82.15,7.65-.08,11.47.13a11.06,11.06,0,0,1,10.77,10.87c-.06,5.91-4.62,10.37-10.94,10.46C573.93,595.49,567,595.41,560,595.41Z"/><path class="cls-11" d="M363.07,454.29c2.89,1.29,2.05,3.92,2.05,6.12q.08,54.72,0,109.46c0,6.37,0,6.37,6.57,6.37h25.49c7.85,0,7.52,0,8-7.67.67-10.73,1.88-21.42,2.91-32.13a7.4,7.4,0,0,1,1-2.17c.1,9.83-1.42,19.55-2.15,29.32-.76,10.26-2,20.49-2.8,30.75-.54,6.77-.6,7-7.22,7-9.16,0-18.33-.21-27.48.1-4.26.14-5.27-1.29-5.26-5.37.12-44.15,0-88.31.05-132.47A28.47,28.47,0,0,0,363.07,454.29Z"/><path class="cls-11" d="M296.08,554.27c2.37,4.42,2,9.23,2.05,14,.06,7.7.34,8,7.71,8,8.65,0,17.31-.27,26,.11,4.89.22,6.5-1,6.46-6.23-.26-36.59-.15-73.19-.1-109.79,0-2.17-.9-4.84,2.14-6-1.23,3.86-1.22,7.83-1.21,11.82,0,43.12-.11,86.23.06,129.34,0,4.93-1.47,6.15-6.18,6-9.47-.36-19-.23-28.45,0-3.12.06-4.59-.9-4.87-4-.75-8.42-2-16.81-2.33-25.25C297.07,566.16,295.46,560.29,296.08,554.27Z"/><path class="cls-11" d="M240.11,570.28c2.58,7.3,8.69,6.06,14.36,6,3.81-.06,7.62,0,11.43,0,5.26,0,5.76-.88,5-6.16-1.1-8.14-2.05-16.32-2.75-24.5-.35-4.11,0-8.27,0-12.41,1.31,5.66,1.46,11.46,1.95,17.22,1.27,15.05,2.42,30.11,3.83,45.15.38,4,0,6.28-5,5.91-5.63-.42-11.32-.18-17-.06-2.47.06-4.11-.5-4.77-3.17C244.93,588.89,242.5,579.59,240.11,570.28Z"/><path class="cls-11" d="M432.05,570.16c-.75,5.07,1.46,6.6,6.43,6.19a121.08,121.08,0,0,1,16.93,0c4.16.24,5.89-1.57,7-5.3.78-2.59,0-5.83,2.71-7.76-2.11,12.09-6.4,23.62-9.12,35.55-.47,2.07-1.8,2.54-3.65,2.54-6.64,0-13.28,0-19.92,0-1.8,0-3.37-.2-3.17-2.66.73-9.07,1.41-18.14,2.15-27.21A4.3,4.3,0,0,1,432.05,570.16Z"/><path class="cls-13" d="M235.11,551.26a49.86,49.86,0,0,1,5,19A85.16,85.16,0,0,1,235.11,551.26Z"/><path class="cls-14" d="M262.21,458.34a6.83,6.83,0,0,1,4-7Z"/><path class="cls-15" d="M259.87,382.25c1.33-6.47,4.38-12.11,8.25-17.38.89-1.2,3.37-2.45,1.64-4-1.93-1.72-3,1-4.14,2.11-6.15,5.87-9.33,13.54-12.58,21.16-4.5,3.1-9.58,1.4-14.39,1.63-3.17.15-6.64.92-9.42-1.64,0-1.66-.06-3.31-.14-5-.5-10.77-10-16.09-19.47-10.87-4.77,2.62-8.23,6.65-11.47,10.9-1.31,1.71-2.63,3.4-4,5.1-2.71,1.54-5.35,2.55-7.31-1.08,7.35-16.55,15.7-32.68,21.32-50,1.85-1,3.88-.8,5.86-.8q93.45,0,186.88-.05a10.85,10.85,0,0,1,8,3c15.8,14.45,39.59,12.76,52.37-.67,1-1.11,2.34-2.15,3.86-2.1,12.26.41,24.62-1.66,36.78,1.41,14.77,3.72,24.8,18.22,22,35.34-.07.41-.6.75-.91,1.12-5.94-4.5-11.34-4.08-17.78,1.16-4.28,3.49-6.7,8.47-10.37,12.44-2.54,1.32-2.18-.67-2.29-2-.22-2.92.4-5.87-.36-8.77a41.69,41.69,0,0,0-1.43-6.27c-3-7.58-10.49-9.17-16.37-3.56-3.44,3.27-5.4,7.49-7.46,11.67-1.52,3.1-3.27,6.09-4.92,9.13a17.86,17.86,0,0,1-15.93,0c-1.3-6-1.07-12.19-3.79-17.88-2.05-4.31-4.59-8-9-10.18-10.46-5.06-21.42.38-24.19,11.9-1.23,5.12-.87,10.18.06,15.26-1.85,3.84-5.28,2.36-8.16,2.27-1.75,0-3.79-.54-3.14-3.25,1.22-6.69,4.44-12.43,8.5-17.77.83-1.09,2.89-2.23,1.34-3.66-1.86-1.73-2.81.8-3.82,1.76-6.27,6-9.73,13.69-12.9,21.56-2.51,2.25-5.61,1.57-8.52,1.64-3.47.09-6.94.17-10.4-.06-1.83-.12-4.12.36-4.81-2.29,5.74-7.65,7-16,2-24.18-1.69-2.79,2.42-4.54-.21-6.56-2.21-1.7-3.4,2.17-6.21.59-7.62-4.28-14.84-1.75-21.38,3.08-7.49,5.54-12.1,13.16-15.2,21.8-.72,2-.83,4.25-2.32,5.95a17.38,17.38,0,0,1-15.85,0c-1.3-6-1.07-12.19-3.79-17.88-2.05-4.31-4.59-8-9-10.18-10.46-5.06-21.42.38-24.19,11.9-1.23,5.12-.87,10.18.06,15.26C267.61,387.3,261.41,386.75,259.87,382.25Z"/><path class="cls-15" d="M425.47,269.67C409.31,275,399.56,285.35,396.93,302c-.48,3.06-.87,5.32-5.28,5.31-52-.2-104-.11-156-.15a18.88,18.88,0,0,1-18.27-14.82c-1.86-8.46,2.49-17.93,9.8-21.72,3.15-1.63,5-1.69,7,2.08,7.34,14.3,19.27,21.91,35.41,21.46,14.53-.4,25.9-7.05,32.58-20.25,2.15-4.24,4.68-5.57,9.27-5.55,35.83.17,71.65.09,107.48.12C421,268.46,423.27,268,425.47,269.67Z"/><path class="cls-15" d="M351.65,243.16c-13.65,0-27.3-.12-40.94.08-3.93.06-6.47-.76-8.13-4.74a34.17,34.17,0,0,0-5.81-8.63c-2.33-2.75-2-5.25.11-7.56,3.14-3.4,6.6-5.49,11.83-3.94a105.91,105.91,0,0,0,22,3.89c34.42,2.65,66.43-6.41,97.52-20,1.91-.84,4.23-2.81,5.95-1.53,2.13,1.59.43,4.35-.06,6.51-5.1,22.49-22,35.92-45,35.94Z"/><path class="cls-16" d="M444,269.71c1.26-1.49,3-1.32,4.61-1.26,8,.31,16-1,23.9.87,7.54,1.83,12.21,7,13.34,14.52,1.2,7.92-.27,15.3-7.81,20.15-3,1.94-4.44,2.13-5.06-2.22A38.94,38.94,0,0,0,444,269.71Z"/><path class="cls-9" d="M268.72,268.55a12.53,12.53,0,0,1-12.89-12.4,12.72,12.72,0,1,1,12.89,12.4Z"/><path class="cls-17" d="M428.17,318.16c-8.89-8.35-7.73-19.3,2.56-23.12,6.41-2.39,11.25.44,15.29,5.27,2.49,5.16,2.68,10.15-1,14.88l-1.93,1.92C438.33,320.84,433.33,320.65,428.17,318.16Z"/><path class="cls-18" d="M538.21,411.45c-5.62,6.65-11.61,6.11-14.42-1.29C528.81,408.24,533.55,409.41,538.21,411.45Z"/><path class="cls-19" d="M428.17,318.16c5.11,1.72,10.09,1.73,14.88-1C439.35,321.23,432.06,321.75,428.17,318.16Z"/><path class="cls-19" d="M445,315.19c2.77-4.79,2.77-9.78,1-14.88C449.61,304.19,449.1,311.48,445,315.19Z"/><path class="cls-2" d="M367.34,383.46c7.87,1.48,15.83.12,23.73.71a59,59,0,0,1-12,25.23,116,116,0,0,1-40.83,0c-5.23-7.83-4.39-16.6-3.93-25.3a29.48,29.48,0,0,1,19.81.13C358.69,386.78,363.11,386.92,367.34,383.46Z"/><path class="cls-20" d="M481,409.44l-39-.19c.3-3.45,1.66-5.39,5.51-6.37,10.73-2.74,16.28-11.12,20.57-20.55,5.28,1.18,10.71-.19,16,.95A215,215,0,0,1,481,409.44Z"/><path class="cls-20" d="M214.68,411.81c-.52-2.66-2.54-2.47-4.55-2.47-7.72,0-15.44,0-23.16-.09a111.12,111.12,0,0,1,13.13-26.88c4.76.5,9.53.38,14.3.44,1.95,0,4-.19,5.61,1.32-.17,4.68-1.82,9.06-3,13.52A77.52,77.52,0,0,0,214.68,411.81Z"/><path class="cls-21" d="M414.3,384.08c-2.57-5.91-3-11.87-.32-17.85,2.07-4.57,5.5-7.54,10.64-7.89a12.55,12.55,0,0,1,12.21,6.28c2.94,4.77,4.12,10.12,4.47,15.66.7,2.55.53,5-2.64,5.2a104.09,104.09,0,0,1-22.25-.16A4.06,4.06,0,0,1,414.3,384.08Z"/><path class="cls-21" d="M276.3,384.08c-2.57-5.91-3-11.87-.32-17.85,2.07-4.57,5.5-7.54,10.64-7.89a12.55,12.55,0,0,1,12.21,6.28c2.94,4.77,4.12,10.12,4.47,15.66.7,2.55.53,5-2.64,5.2a104.09,104.09,0,0,1-22.25-.16A4.06,4.06,0,0,1,276.3,384.08Z"/><path class="cls-20" d="M398,382.28c3.5,3.39,7.44,1.74,11.3,1,4.19,12.54,12.86,19.47,26,21,6,.7,1.43,3.27.73,5.12a10,10,0,0,1-5.16,1.45q-12.35.1-24.69,0A8.38,8.38,0,0,1,401,409.4C395.92,400.82,395.58,391.7,398,382.28Z"/><path class="cls-20" d="M259.87,382.25c3.51,3.51,7.48,1.8,11.38,1,4.19,12.54,12.86,19.46,26,21,6,.7,1.43,3.27.73,5.12a10,10,0,0,1-5.16,1.45q-12.35.1-24.69,0A8.38,8.38,0,0,1,263,409.4C257.87,400.82,257.68,391.67,259.87,382.25Z"/><path class="cls-20" d="M229.23,384.13H253c-1.69,9.44-6,17.78-10.75,26-6.37.72-12.77,1.83-19-.7C224.19,400.72,227.11,392.52,229.23,384.13Z"/><path class="cls-20" d="M515.81,409.43l-25.64-.07c2.5-8.89,5.75-17.45,11-25.15a21.62,21.62,0,0,1,16.89-.1c.43,5.66-2,10.93-2.27,16.54A64.3,64.3,0,0,0,515.81,409.43Z"/><path class="cls-16" d="M354.13,384.21l-19.81-.13c.15-9.14,2.78-17.37,9.4-23.88a16,16,0,0,1,14.13-4.7c2.76.42,4.46,1.33,1.45,4.22a24.54,24.54,0,0,0-7.4,12.14C350.81,376.43,351.85,380.37,354.13,384.21Z"/><path class="cls-20" d="M188.2,341.29c1-10.4,2.36-20.73,6.55-30.44,1.58-3.65,3.7-7.36,8.31-6.27s4.79,5.86,4.62,9.47a67.14,67.14,0,0,1-4.4,21.22c-4.19-.19-7.54,1.86-10.86,4C191.11,340.16,190.16,341.81,188.2,341.29Z"/><path class="cls-22" d="M338.25,409.38l40.83,0c-4.7,7.86-11.4,12.62-20.77,12.29C349.47,421.37,342.17,418,338.25,409.38Z"/><path class="cls-23" d="M276.3,384.08c7.62,0,15.24-.15,22.85.08,3.07.1,4.22-1,4.15-3.88,1.86,5.94-.13,11.77-.59,17.63-.22,2.78-2.72,2.52-4.67,2.28C287.77,398.93,279.84,394.45,276.3,384.08Z"/><path class="cls-23" d="M414.3,384.08c7.62,0,15.24-.15,22.85.08,3.07.1,4.22-1,4.15-3.88,1.86,5.94-.13,11.77-.59,17.63-.22,2.78-2.72,2.52-4.67,2.28C425.77,398.93,417.84,394.45,414.3,384.08Z"/><path class="cls-24" d="M188.2,341.29a26.83,26.83,0,0,1,10.21-6.5c1.41-.44,3.58-2.58,4.87.49-4.36,14.09-10.62,27.35-17.78,40.33A260.28,260.28,0,0,1,188.2,341.29Z"/><path class="cls-25" d="M263,409.4l35,0c-3.37,7-8.93,11.47-16.7,11.38C273.27,420.66,266.38,417.54,263,409.4Z"/><path class="cls-25" d="M401,409.4l35,0c-3.37,7-8.93,11.47-16.7,11.38C411.27,420.66,404.38,417.54,401,409.4Z"/><path class="cls-26" d="M641.05,351.28c-2.15-.1-4.33.65-3.82-2.56,1.49-9.53,3.31-19,8-27.53a9.28,9.28,0,0,1,1.38-2.06c1.19-1.24,2.13-3.67,4.13-2.73,1.49.7.94,3,.78,4.62-.9,9.48-3.92,18.46-6.57,27.52C644.29,351,642.86,351.65,641.05,351.28Z"/><path class="cls-24" d="M484,383.28c-4.75,1.65-9.65.54-14.48.71-.94,0-1.27-.86-1.5-1.66,1.55-3.46,3.07-6.93,4.67-10.36a18.56,18.56,0,0,1,3.85-5.74c1.37-1.31,2.92-2.42,4.87-1.75s2.58,2.52,2.61,4.41C484.13,373.69,484.06,378.48,484,383.28Z"/><path class="cls-27" d="M220,384.13c-5.29,0-10.59,0-15.89-.07-1.49,0-3.49.78-4-1.69,2.91-4.08,6-8,10.52-10.45,2.66-1.44,5.57-2.67,8.48-.85,2.71,1.69,2.13,4.63,2.07,7.26C221.12,380.32,221.15,382.35,220,384.13Z"/><path class="cls-28" d="M368,370.77a18.42,18.42,0,0,1-2.65,8.58c-1.37,2.09-3.29,3.4-5.9,2.73s-3.52-2.75-3.69-5.29c-.43-6.6,3.06-11.31,7.43-15.62,1.35-1.33,2.24-1,3,.58A16.77,16.77,0,0,1,368,370.77Z"/><path class="cls-23" d="M327,409.38l-23-.13c.3-3.47,1.59-5.69,5.57-6.35,5.76-.95,9.88-5,14.37-9.59A57.75,57.75,0,0,0,327,409.38Z"/><path class="cls-28" d="M518.05,384.11l-16.89.1c1.62-4.93,5-8.49,9.08-11.44,2-1.48,4.54-2.37,7-.92s2.66,4.14,2.43,6.63C519.47,380.4,519.5,382.5,518.05,384.11Z"/><path class="cls-23" d="M308.18,384.16l15.85,0c-2.13,7.43-7.45,11.82-14.23,14.76-2.38,1-3.23.31-2.81-2.43C307.6,392.4,307.8,388.26,308.18,384.16Z"/><path class="cls-23" d="M446.18,384.16l15.93,0c-2.21,7.14-7.29,11.56-13.87,14.5-2.18,1-3.82,1.27-3.25-2.26C445.64,392.39,445.8,388.26,446.18,384.16Z"/><path class="cls-25" d="M223.26,409.4c6.34.33,12.74-.91,19,.7a25.6,25.6,0,0,1-6,7.78c-2.8,2.71-6,4.15-9.84,2.42s-3.59-5.12-3.51-8.45C223,411,223.17,410.22,223.26,409.4Z"/><path class="cls-29" d="M186.89,383.21c2.24,1.71,4.92.38,7.31,1.08L182.53,407.6C183.68,398.55,181.94,390.32,186.89,383.21Z"/><path class="cls-30" d="M642.33,355.75l-5.27,12.56-.84-.15c0-2.69.18-5.39,0-8.06C635.82,355.51,637.8,354.3,642.33,355.75Z"/><path class="cls-31" d="M391.84,409.43l-6.89-.2,4.73-9C390.53,403.83,391.18,406.63,391.84,409.43Z"/><path class="cls-32" d="M253.85,409.44l-5.6-.05,3.3-7.47C253.19,404.37,253.06,407.05,253.85,409.44Z"/><path class="cls-33" d="M492.29,373.24c1.38,2.25.59,4.73.74,7.12.1,1.52-.6,3.42,1.91,3.69.26,2.05-1.24,3.1-2.65,5.51Z"/><path class="cls-12" d="M332.43,115.08c3.87-.11,6.58,2.07,9.14,4.54,2.87,2.77,5.56,5.77,8.62,8.31,5.08,4.24,10.85,4.23,15.93,0,3.3-2.78,6.13-6.11,9.35-9,6.63-6,15.36-4.3,18.58,3.37,1.79,4.25.64,8-2.31,11-10.22,10.5-20.66,20.78-30.94,31.22-2,2-3.38,2-5.35,0C345.3,154.18,335,144,324.86,133.64c-3.65-3.74-3.92-8.42-1.74-13C324.91,116.85,328.27,115.16,332.43,115.08Z"/><path class="cls-1" d="M141.42,321.35c-.24,8-2.39,16.58-8.3,23.87-4.4,5.42-10,8.4-17.11,6.46s-10-7.59-10.46-14.3c-1.26-17.16,7.27-33.2,22-43.31,2.19-1.51,3,.22,4.1,1.23C138,301.15,141.45,310.15,141.42,321.35Z"/></g></g></svg>